<svg width="200" height="60" viewBox="0 0 200 60" fill="none" xmlns="http://www.w3.org/2000/svg">
<g id="arch-linux-logo-1 1" clip-path="url(#clip0_173_159)">
<path id="Vector" d="M63.2894 18.5708C60.4326 18.5661 58.0607 19.1615 57.1438 19.4864L56.1986 24.6673C56.1986 24.6864 60.8999 23.393 62.9708 23.4693C66.3976 23.5945 66.7162 24.8011 66.656 26.4298C66.7127 26.5251 65.771 24.958 62.8044 24.9055C59.059 24.84 53.7808 26.2521 53.7879 31.9932C53.6852 38.4517 58.5316 40.3512 61.8344 40.3836C64.801 40.3296 66.1958 39.2431 66.9569 38.6603C67.9588 37.5954 69.1058 36.5269 70.1961 35.2418C69.1624 37.1529 68.2668 38.4732 67.3322 39.4806V40.3368L71.8458 39.5633L71.8776 27.1007C71.8316 25.3368 72.8724 18.5873 63.2894 18.5708ZM62.6416 29.4216C64.5143 29.4475 66.6596 30.3843 66.6596 32.6393C66.6702 34.69 64.132 35.7926 62.4823 35.7754C60.8326 35.7577 58.6413 34.4565 58.6307 32.4573C58.6625 30.67 60.6981 29.3755 62.6416 29.4216ZM74.8513 19.7227L74.8194 40.362L80.0764 39.3331L80.0835 27.631C80.0871 25.8887 82.5368 23.8524 85.606 23.8852C86.261 22.6861 87.4858 19.6216 87.7832 18.9244C80.919 18.9079 80.834 20.9297 79.6375 21.9241C79.6269 20.0267 79.6339 18.8881 79.6339 18.8881L74.8513 19.7234V19.7227ZM104.429 22.4325C104.379 22.408 101.689 19.2342 96.2794 19.2093C91.2135 19.1237 85.5317 21.1197 85.4397 29.7533C85.4857 37.3436 90.8984 40.3116 96.3077 40.3692C102.099 40.4303 104.4 36.6888 104.538 36.5953C103.848 35.9873 101.26 33.3822 101.26 33.3822C101.26 33.3822 99.646 35.721 96.5095 35.7505C93.373 35.7808 90.6471 33.2872 90.6082 29.8076C90.5692 26.3283 93.1145 24.4432 96.5342 24.2906C99.4938 24.2903 101.2 26.2323 101.2 26.2323L104.429 22.4325ZM111.056 12.499L106.092 13.6844L106.128 40.5671L111.017 39.6712L111.073 27.0198C111.084 25.6934 112.96 23.6564 116.097 23.7208C119.095 23.7524 119.764 25.7513 119.757 26.0038L119.842 40.6498L124.664 39.7828L124.681 24.2539C124.713 22.7595 121.46 19.6033 116.231 19.581C113.75 19.5853 112.373 20.1566 111.672 20.5782C110.475 21.5187 109.105 22.4199 107.76 23.57C109.002 21.9461 110.047 20.8236 111.066 19.9886L111.056 12.4997V12.499Z" fill="#4D4D4D"/>
<path id="Vector_2" d="M128.862 13.199L131.121 12.6295L130.848 39.7326L128.554 40.1247L128.862 13.199ZM134.87 21.2872L136.856 20.3996L136.601 39.8333L134.689 40.2327L134.87 21.2872ZM134.498 14.2797L136.109 12.9676L137.408 14.4531L135.797 15.8001L134.498 14.2797ZM140.559 20.9335L142.817 20.4694L142.771 24.5322C142.768 24.7067 144.07 19.9935 150.032 20.0985C155.823 20.1309 156.708 24.6585 156.662 25.6734L156.531 39.9593L154.552 40.391L154.74 26.2814C154.768 25.8691 153.89 22.3844 149.798 22.3715C145.709 22.3593 142.831 25.3726 142.81 27.2977L142.668 39.729L140.374 40.3334L140.559 20.9335ZM176.182 40.06L173.924 40.5241L173.97 36.4624C173.973 36.2897 172.671 41.0026 166.709 40.8982C160.918 40.8623 160.036 36.3364 160.079 35.3212L160.21 21.0346L162.61 20.5468L162.447 34.6581C162.443 35.0438 162.85 38.6101 166.943 38.6245C171.032 38.6353 173.934 36.135 174.005 32.37L174.133 21.2361L176.37 20.6619L176.182 40.06ZM180.866 20.7731L179.269 22.0214L185.21 30.0244L178.625 39.2721L180.282 40.5277L186.473 31.9394L192.615 40.7292L194.184 39.4808L187.599 30.083L193.061 22.4827L191.437 21.0756L186.456 28.1086L180.866 20.7731ZM29.4038 0.106445C26.7852 6.6304 25.206 10.8983 22.2907 17.2287C24.0781 19.1541 26.2719 21.3962 29.835 23.9289C26.0046 22.3269 23.392 20.7184 21.439 19.0498C17.7081 26.9617 11.8624 38.2324 -6.10352e-05 59.8938C9.32379 54.4254 16.5508 51.0508 23.2865 49.7664C22.9827 48.4361 22.8341 47.074 22.844 45.7083L22.855 45.4025C23.003 39.3333 26.1101 34.6653 29.7911 34.9823C33.472 35.2992 36.3324 40.4809 36.1837 46.5501C36.159 47.6942 36.0315 48.7915 35.8085 49.8096C42.4709 51.1335 49.6219 54.4973 58.819 59.8938C57.0065 56.5012 55.3851 53.4432 53.8416 50.5291C51.4061 48.6116 48.8678 46.1148 43.6852 43.413C47.2465 44.3556 49.7953 45.4385 51.7848 46.6509C36.0669 16.9099 34.795 12.9586 29.4034 0.108244L29.4038 0.106445ZM197.09 38.871V37.1945H196.474V36.9714H197.957V37.1945H197.338V38.871H197.09ZM198.216 38.871V36.9714H198.587L199.03 38.3169C199.072 38.4429 199.101 38.5364 199.118 38.5975C199.14 38.5292 199.175 38.4285 199.221 38.2954L199.667 36.9714H200V38.871H199.763V37.2808L199.218 38.871H198.995L198.453 37.252V38.871H198.216ZM59.1121 54.5603V52.9233H58.5103V52.7039H59.9582V52.9233H59.3528V54.5603H59.1121ZM60.2095 54.5603V52.7039H60.5741L61.006 54.0206C61.0485 54.1429 61.0768 54.2329 61.0945 54.294C61.1158 54.2257 61.1476 54.1285 61.1937 53.9954L61.6291 52.7039H61.9548V54.5603H61.7211V53.0061L61.1901 54.5603H60.9742L60.4432 52.9809V54.5603H60.2095Z" fill="#1793D1"/>
</g>
<defs>
<clipPath id="clip0_173_159">
<rect width="200" height="60" fill="white"/>
</clipPath>
</defs>
</svg>
