<svg width="150" height="75" viewBox="0 0 150 75" fill="none" xmlns="http://www.w3.org/2000/svg">
<path d="M22.9378 67.5832C28.4169 67.5832 32.8649 63.1353 32.8649 57.6561V47.729H22.9378C17.4586 47.729 13.0107 52.1769 13.0107 57.6561C13.0107 63.1353 17.4586 67.5832 22.9378 67.5832Z" fill="#0ACF83"/>
<path d="M13 37.7916C13 32.3124 17.4479 27.8645 22.9271 27.8645H32.8542V47.7291H22.9271C17.4479 47.7291 13 43.2812 13 37.802V37.7916Z" fill="#A259FF"/>
<path d="M13 17.9271C13 12.4479 17.4479 8 22.9271 8H32.8542V27.8646H22.9271C17.4479 27.8646 13 23.4167 13 17.9375V17.9271Z" fill="#F24E1E"/>
<path d="M32.771 8H42.6981C48.1772 8 52.6252 12.4479 52.6252 17.9271C52.6252 23.4063 48.1772 27.8542 42.6981 27.8542H32.771V8Z" fill="#FF7262"/>
<path d="M52.7293 37.7916C52.7293 43.2708 48.2814 47.7187 42.8022 47.7187C37.3231 47.7187 32.771 43.2708 32.771 37.7916C32.771 32.3124 37.2189 27.8645 42.6981 27.8645C48.1772 27.8645 52.6252 32.3124 52.6252 37.7916H52.7293Z" fill="#1ABCFE"/>
<path d="M63.5835 24.2083H63.3335V24.4583V45.2708V45.5208H63.5835H66.2606H66.5106V45.2708V35.5833H72.6981H72.9481V35.3333V32.7499V32.4999H72.6981H66.5106V27.3124H74.6252H74.8752V27.0624V24.4583V24.2083H74.6252H63.5835ZM79.7849 29.0624L79.7605 28.9164C80.7285 28.7758 81.4689 27.9452 81.4689 26.9374C81.4689 25.8099 80.5437 25.0416 79.4689 25.0416C78.3735 25.0416 77.4689 25.9338 77.4689 27.0416C77.4689 27.5797 77.6849 28.0785 78.0603 28.4656C78.4427 28.86 78.946 29.0624 79.4897 29.0624H79.7849ZM78.0314 31.0624V31.3124H77.8647V45.2708V45.5208H78.1147H80.6877H80.9377V45.2708V31.3124V31.0624H80.6877H78.3647H78.1147H78.0314ZM96.6249 47.8509C97.2765 46.7476 97.6184 45.4889 97.6147 44.2075V31.2916V31.0416H97.3647H94.6877H94.4377V31.2916V31.9608C94.003 31.5909 93.5131 31.2893 92.9847 31.0676C92.2715 30.7684 91.506 30.6326 90.7375 30.6458C87.0085 30.647 84.4481 33.915 84.4481 37.4791C84.4481 41.0448 87.0308 44.2903 90.7376 44.2916C91.5084 44.3048 92.2737 44.1576 92.9847 43.8593C93.5131 43.6376 94.003 43.336 94.4377 42.9662V44.2384C94.4305 45.288 94.0235 46.2953 93.2996 47.0553C92.9348 47.4272 92.4995 47.7225 92.0191 47.9241C91.5394 48.1253 91.0244 48.229 90.5042 48.2291C89.7024 48.203 88.9255 47.9437 88.2688 47.4828L88.0461 47.3266L87.9092 47.5615L86.555 49.8844L86.4345 50.0912L86.6358 50.2206C87.7135 50.9137 88.9582 51.3034 90.2388 51.3485C91.5194 51.3936 92.7885 51.0926 93.9123 50.477C95.0362 49.8615 95.9733 48.9543 96.6249 47.8509ZM87.6347 37.4998L87.6365 37.4782L87.6346 37.4567C87.5778 36.8259 87.6985 36.1918 87.9831 35.626C88.2677 35.0602 88.7048 34.5853 89.2452 34.2549C90.3528 33.5748 91.7412 33.5751 92.8373 34.2541C93.9341 34.9336 94.5558 36.1765 94.4489 37.4583L94.4471 37.4799L94.4491 37.5015C94.5059 38.1323 94.3852 38.7664 94.1006 39.3322C93.816 39.898 93.3788 40.3729 92.8385 40.7033C91.7309 41.3835 90.3425 41.383 89.2464 40.7041C88.1496 40.0246 87.5279 38.7816 87.6347 37.4998Z" fill="white" stroke="black" stroke-width="0.5"/>
<path fill-rule="evenodd" clip-rule="evenodd" d="M133.089 45.2129C133.749 44.9348 134.359 44.5534 134.896 44.0841V45.0834V45.3334H135.146H137.823H138.073V45.0834V31.1251V30.8751H137.823H135.146H134.896V31.1251V32.312V32.6488C134.34 32.1285 133.695 31.71 132.992 31.4134C132.181 31.0713 131.308 30.8987 130.427 30.9063V30.6563H130.426C126.274 30.6569 123.406 34.1704 123.406 38.1981C123.406 42.2266 126.306 45.739 130.426 45.7396C131.34 45.7474 132.247 45.5682 133.089 45.2129ZM134.896 37.6441C134.894 37.6201 134.892 37.5962 134.89 37.5723C134.84 37.0467 134.692 36.533 134.451 36.0584C134.101 35.3694 133.569 34.7895 132.913 34.3814C131.468 33.5515 129.87 33.5563 128.527 34.38C127.18 35.2056 126.413 36.7195 126.541 38.2924L126.542 38.312L126.541 38.3316C126.482 39.1035 126.636 39.8765 126.987 40.5667C127.336 41.2557 127.868 41.8357 128.524 42.2438C129.969 43.0738 131.568 43.0689 132.911 42.2453C134.06 41.5413 134.786 40.3368 134.896 39.022C134.915 38.7949 134.916 38.5645 134.897 38.3329L134.896 38.323L134.895 38.3133L134.896 38.3035L134.897 38.2936C134.913 38.0766 134.913 37.8595 134.896 37.6441ZM107.531 33.8732L107.022 33.8751C106.318 33.8776 105.643 34.1584 105.146 34.6562C104.648 35.1539 104.367 35.828 104.365 36.5318V45.3646V45.6146H104.115H101.438H101.188V45.3646V31.4063V31.1563H101.438H104.115H104.365V31.4063V31.9209C105.214 31.0924 106.37 30.6287 107.572 30.6458C109.246 30.6067 110.814 31.4404 111.739 32.8185C112.806 31.4827 114.279 30.6665 115.882 30.6459H115.885C117.484 30.6459 118.79 31.2921 119.695 32.3421C120.596 33.3886 121.088 34.8248 121.094 36.3959V45.2813V45.5313H120.844H118.167H117.917V45.2813V36.4272V36.4095L117.919 36.3919C117.991 35.8877 117.917 35.3734 117.705 34.91C117.494 34.4465 117.154 34.0533 116.727 33.7768C116.299 33.5003 115.801 33.3522 115.292 33.3498C114.783 33.3474 114.284 33.4906 113.854 33.7625C113.427 34.0414 113.088 34.4371 112.879 34.9026C112.67 35.3686 112.599 35.8849 112.674 36.3901L112.677 36.4085V36.4272V45.2606V45.5106H112.427H109.854H109.604V45.2606V36.4379C109.602 35.7342 109.321 35.0601 108.823 34.5624C108.46 34.1988 108.002 33.9509 107.507 33.8428L107.531 33.8732Z" fill="white"/>
<path d="M134.896 44.0841C134.359 44.5534 133.749 44.9348 133.089 45.2129C132.247 45.5682 131.34 45.7474 130.426 45.7396C126.306 45.739 123.406 42.2266 123.406 38.1981C123.406 34.1704 126.274 30.6569 130.426 30.6563H130.427V30.9063C131.308 30.8987 132.181 31.0713 132.992 31.4134C133.695 31.71 134.34 32.1285 134.896 32.6488M134.896 44.0841V45.0834V45.3334H135.146H137.823H138.073V45.0834V31.1251V30.8751H137.823H135.146H134.896V31.1251V32.312M134.896 44.0841V39.022M134.896 32.6488V32.312M134.896 32.6488V37.6441M134.896 32.312V37.6441M134.896 37.6441C134.894 37.6201 134.892 37.5962 134.89 37.5723C134.84 37.0467 134.692 36.533 134.451 36.0584C134.101 35.3694 133.569 34.7895 132.913 34.3814C131.468 33.5515 129.87 33.5563 128.527 34.38C127.18 35.2056 126.413 36.7195 126.541 38.2924L126.542 38.312L126.541 38.3316C126.482 39.1035 126.636 39.8765 126.987 40.5667C127.336 41.2557 127.868 41.8357 128.524 42.2438C129.969 43.0738 131.568 43.0689 132.911 42.2453C134.06 41.5413 134.786 40.3368 134.896 39.022M134.896 37.6441C134.913 37.8595 134.913 38.0766 134.897 38.2936L134.896 38.3035M134.896 37.6441V38.3035M134.896 39.022C134.915 38.7949 134.916 38.5645 134.897 38.3329L134.896 38.323M134.896 39.022V38.323M134.896 38.323L134.895 38.3133L134.896 38.3035M134.896 38.323V38.3035M107.022 33.8751L107.531 33.8732L107.507 33.8428C108.002 33.9509 108.46 34.1988 108.823 34.5624C109.321 35.0601 109.602 35.7342 109.604 36.4379V45.2606V45.5106H109.854H112.427H112.677V45.2606V36.4272V36.4085L112.674 36.3901C112.599 35.8849 112.67 35.3686 112.879 34.9026C113.088 34.4371 113.427 34.0414 113.854 33.7625C114.284 33.4906 114.783 33.3474 115.292 33.3498C115.801 33.3522 116.299 33.5003 116.727 33.7768C117.154 34.0533 117.494 34.4465 117.705 34.91C117.917 35.3734 117.991 35.8877 117.919 36.3919L117.917 36.4095V36.4272V45.2813V45.5313H118.167H120.844H121.094V45.2813V36.3959C121.088 34.8248 120.596 33.3886 119.695 32.3421C118.79 31.2921 117.484 30.6459 115.885 30.6459H115.882C114.279 30.6665 112.806 31.4827 111.739 32.8185C110.814 31.4404 109.246 30.6067 107.572 30.6458C106.37 30.6287 105.214 31.0924 104.365 31.9209V31.4063V31.1563H104.115H101.438H101.188V31.4063V45.3646V45.6146H101.438H104.115H104.365V45.3646V36.5318C104.367 35.828 104.648 35.1539 105.146 34.6562C105.643 34.1584 106.318 33.8776 107.022 33.8751Z" stroke="black" stroke-width="0.5"/>
</svg>
