<svg width="120" height="60" viewBox="0 0 120 60" fill="none" xmlns="http://www.w3.org/2000/svg">
<g clip-path="url(#clip0_266_120)">
<mask id="mask0_266_120" style="mask-type:luminance" maskUnits="userSpaceOnUse" x="-1" y="9" width="44" height="44">
<path d="M-0.187744 9.95725H42.7051V52.8501H-0.187744V9.95725Z" fill="white"/>
</mask>
<g mask="url(#mask0_266_120)">
<path d="M31.2953 41.9291C31.2953 43.8613 26.8198 45.4275 21.2989 45.4275C15.778 45.4275 11.3025 43.8613 11.3025 41.9291C11.3025 39.997 15.7778 38.4302 21.2989 38.4302C26.82 38.4302 31.2953 39.999 31.2953 41.9291" fill="#A0DCF2"/>
</g>
<mask id="mask1_266_120" style="mask-type:luminance" maskUnits="userSpaceOnUse" x="15" y="40" width="12" height="11">
<path d="M23.9841 41.7973C24.0522 41.576 24.0635 41.2349 23.3808 41.3894C23.3808 41.3894 21.5151 41.6559 21.4262 43.8325L21.3837 48.0026H20.9353L20.893 43.8325C20.804 41.6561 18.9386 41.3894 18.9386 41.3894C18.2579 41.2349 18.2668 41.5756 18.3349 41.7969C17.6657 40.6574 15.8737 40.8048 15.8737 40.8048C15.2516 41.0266 15.8293 41.4263 15.8293 41.4263C16.8063 41.7814 16.8956 42.8477 16.8956 42.8477V45.8602L16.9989 48.1891C17.2207 49.2265 17.7682 49.8397 18.3051 50.2007L24.0248 50.1941C24.7166 49.7245 25.4241 48.8347 25.4241 47.1545V42.8477C25.4241 42.8477 25.5129 41.7814 26.4905 41.4263C26.4905 41.4263 27.0676 41.0264 26.4458 40.8048C26.4458 40.8048 26.37 40.7988 26.2439 40.7984C25.7564 40.7984 24.5162 40.8917 23.9845 41.7973M18.5839 46.0905V42.8037C18.5839 42.4826 18.5273 42.2125 18.4304 41.9855C19.0738 42.4871 19.1169 43.7439 19.1169 43.7439V47.8465C18.4765 47.3934 18.5839 46.0899 18.5839 46.0899M23.2048 43.7433C23.2048 43.7433 23.2479 42.4863 23.8911 41.9849C23.7944 42.2119 23.7378 42.482 23.7378 42.8031V46.0901C23.7378 46.0901 23.8451 47.3014 23.2048 47.8003V43.7433Z" fill="white"/>
</mask>
<g mask="url(#mask1_266_120)">
<path d="M31.2953 41.9291C31.2953 43.8613 26.8198 45.4275 21.2989 45.4275C15.778 45.4275 11.3025 43.8613 11.3025 41.9291C11.3025 39.997 15.7778 38.4302 21.2989 38.4302C26.82 38.4302 31.2953 39.999 31.2953 41.9291" fill="#82BDE7"/>
</g>
<mask id="mask2_266_120" style="mask-type:luminance" maskUnits="userSpaceOnUse" x="-1" y="9" width="44" height="44">
<path d="M-0.187744 9.95725H42.7051V52.8501H-0.187744V9.95725Z" fill="white"/>
</mask>
<g mask="url(#mask2_266_120)">
<path d="M9.88023 31.6421L9.59169 32.6475C9.59169 32.6475 9.51663 33.0109 9.85898 33.0752C10.2164 33.0682 10.1872 32.7336 10.1622 32.6252L9.88023 31.6421Z" fill="#A0DCF2"/>
<path d="M38.9404 27.4268L38.9668 27.2961C36.0342 26.7097 33.025 26.7038 31.2024 26.7794C31.5015 25.7019 31.5917 24.462 31.5917 23.0793C31.5917 21.0963 30.8466 19.5099 29.637 18.3027C29.8485 17.6206 30.1309 16.1053 29.3551 14.1657C29.3551 14.1657 27.9849 13.7313 24.8918 15.8026C23.6793 15.4996 22.3889 15.3499 21.0966 15.3499C19.6748 15.3499 18.2381 15.531 16.8981 15.8985C13.7037 13.7191 12.2938 14.1655 12.2938 14.1655C11.3732 16.469 11.9424 18.1709 12.1151 18.5942C11.0333 19.7619 10.3728 21.252 10.3728 23.0791C10.3728 24.4586 10.5301 25.696 10.9137 26.7715C9.07747 26.7048 6.17764 26.7304 3.3479 27.2957L3.37411 27.4264C6.21874 26.8575 9.13645 26.8376 10.9598 26.9067C11.0442 27.1291 11.1385 27.3436 11.2438 27.5541C9.43908 27.6123 6.35795 27.842 3.40489 28.6752L3.44103 28.8033C6.41732 27.9639 9.52546 27.7397 11.3127 27.6853C12.3909 29.6949 14.5167 30.9932 18.2986 31.3987C17.7617 31.7594 17.2144 32.3726 16.992 33.4103C16.2606 33.7598 13.9452 34.6141 12.5558 32.2248C12.5558 32.2248 11.7781 30.803 10.2896 30.6918C10.2896 30.6918 8.84593 30.6719 10.1897 31.5914C10.1897 31.5914 11.1562 32.0467 11.8226 33.7559C11.8226 33.7559 12.6924 36.674 16.8887 35.7377V38.7521C16.8887 38.7521 16.8 39.8184 15.8224 40.1735C15.8224 40.1735 15.2449 40.5734 15.8669 40.7951C15.8669 40.7951 18.5764 41.0175 18.5764 38.7964V35.5095C18.5764 35.5095 18.4692 34.2058 19.1092 33.7529V39.1556C19.1092 39.1556 19.0652 40.4438 18.3987 40.9325C18.3987 40.9325 17.9545 41.7317 18.9317 41.5099C18.9317 41.5099 20.7971 41.2434 20.8861 39.0668L20.9286 33.6034H21.3768L21.4195 39.0668C21.5083 41.2432 23.3739 41.5099 23.3739 41.5099C24.3509 41.7317 23.9067 40.9325 23.9067 40.9325C23.2405 40.444 23.1962 39.1556 23.1962 39.1556V33.8033C23.8362 34.2998 23.7292 35.5135 23.7292 35.5135V38.8003C23.7292 41.0212 26.4386 40.799 26.4386 40.799C27.0601 40.5772 26.4832 40.1775 26.4832 40.1775C25.5058 39.82 25.4169 38.7561 25.4169 38.7561V34.4475C25.4169 32.7675 24.7093 31.8775 24.0175 31.4079C28.0486 31.0079 29.9859 29.7057 30.878 27.6822C32.6445 27.7306 35.8237 27.9459 38.8648 28.8041L38.9009 28.676C35.8772 27.8231 32.7192 27.6025 30.9346 27.5505C31.0191 27.346 31.0928 27.1335 31.1584 26.915C32.9664 26.8356 35.9894 26.8386 38.9335 27.4274" fill="#292929"/>
<path d="M27.6484 22.9841C28.5172 23.7711 29.0254 24.7217 29.0254 25.7453C29.0254 30.5261 25.4613 30.6558 21.0654 30.6558C16.6695 30.6558 13.105 29.9959 13.105 25.7473C13.105 24.7302 13.6062 23.7858 14.4642 23.002C15.8952 21.6957 18.3175 22.3874 21.065 22.3874C23.8018 22.3874 26.2149 21.6888 27.6478 22.9861" fill="#F5CDB5"/>
<path d="M18.4184 25.9909C18.4184 27.3074 17.6769 28.375 16.7623 28.375C15.8476 28.375 15.1057 27.3076 15.1057 25.9909C15.1057 24.6741 15.8476 23.6071 16.7623 23.6071C17.6769 23.6071 18.4184 24.6741 18.4184 25.9909Z" fill="white"/>
<path d="M17.8869 26.0208C17.8869 26.8986 17.3905 27.6099 16.7828 27.6099C16.1752 27.6099 15.6787 26.8986 15.6787 26.0208C15.6787 25.1431 16.1728 24.431 16.7828 24.431C17.3928 24.431 17.8869 25.1427 17.8869 26.0208Z" fill="#B1645A"/>
<path d="M27.3039 25.9909C27.3039 27.3074 26.5624 28.375 25.6474 28.375C24.7323 28.375 23.9912 27.3076 23.9912 25.9909C23.9912 24.6741 24.7329 23.6071 25.6474 23.6071C26.5618 23.6071 27.3039 24.6741 27.3039 25.9909Z" fill="white"/>
<path d="M26.7724 26.0208C26.7724 26.8985 26.276 27.6098 25.6683 27.6098C25.0607 27.6098 24.5642 26.8985 24.5642 26.0208C24.5642 25.143 25.0607 24.4309 25.6683 24.4309C26.276 24.4309 26.7724 25.1426 26.7724 26.0208ZM21.5029 28.1058C21.5029 28.3346 21.3175 28.5201 21.0887 28.5201C20.8599 28.5201 20.6745 28.3346 20.6745 28.1058C20.6745 27.8771 20.8598 27.6916 21.0887 27.6916C21.3177 27.6916 21.5029 27.8771 21.5029 28.1058ZM20.1238 29.1533C20.118 29.1368 20.1155 29.1193 20.1164 29.1019C20.1173 29.0844 20.1217 29.0673 20.1292 29.0515C20.1368 29.0357 20.1473 29.0216 20.1604 29.0099C20.1734 28.9982 20.1885 28.9892 20.205 28.9833C20.2215 28.9775 20.239 28.975 20.2565 28.9759C20.274 28.9768 20.2911 28.9812 20.3069 28.9887C20.3226 28.9963 20.3368 29.0069 20.3485 29.0199C20.3602 29.0329 20.3692 29.0481 20.375 29.0646C20.4815 29.3654 20.7668 29.5676 21.0853 29.5676C21.4039 29.5676 21.689 29.3654 21.7958 29.0646C21.8017 29.0481 21.8107 29.0329 21.8224 29.0199C21.8341 29.0069 21.8482 28.9963 21.864 28.9888C21.8798 28.9813 21.8969 28.9769 21.9143 28.976C21.9318 28.9751 21.9493 28.9776 21.9657 28.9834C21.9822 28.9893 21.9974 28.9983 22.0104 29.01C22.0234 29.0217 22.0339 29.0358 22.0415 29.0516C22.049 29.0674 22.0534 29.0845 22.0543 29.1019C22.0552 29.1194 22.0527 29.1368 22.0469 29.1533C21.9753 29.3509 21.8446 29.5216 21.6725 29.6423C21.5005 29.7629 21.2955 29.8276 21.0853 29.8276C20.8752 29.8276 20.6702 29.7629 20.4981 29.6423C20.3261 29.5216 20.1954 29.3509 20.1238 29.1533Z" fill="#B1645A"/>
<path d="M10.9405 31.0494C10.9405 31.16 10.811 31.2491 10.6515 31.2491C10.4921 31.2491 10.3628 31.1598 10.3628 31.0494C10.3628 30.939 10.4919 30.8492 10.6515 30.8492C10.8112 30.8492 10.9405 30.9386 10.9405 31.0494ZM11.7403 31.4932C11.7403 31.6038 11.6109 31.6934 11.4514 31.6934C11.2919 31.6934 11.1627 31.604 11.1627 31.4932C11.1627 31.3824 11.2917 31.2934 11.4514 31.2934C11.6111 31.2934 11.7403 31.3828 11.7403 31.4932ZM12.2292 32.0691C12.2292 32.1793 12.1002 32.2688 11.9403 32.2688C11.7804 32.2688 11.6518 32.1795 11.6518 32.0691C11.6518 31.9587 11.7808 31.8689 11.9403 31.8689C12.0998 31.8689 12.2292 31.9583 12.2292 32.0691ZM12.673 32.7357C12.673 32.8463 12.544 32.9359 12.3845 32.9359C12.2251 32.9359 12.0956 32.8465 12.0956 32.7357C12.0956 32.6249 12.2247 32.5355 12.3845 32.5355C12.5444 32.5355 12.673 32.6249 12.673 32.7357ZM13.1619 33.3598C13.1619 33.47 13.0329 33.5596 12.8732 33.5596C12.7136 33.5596 12.5843 33.4702 12.5843 33.3598C12.5843 33.2494 12.7138 33.1597 12.8732 33.1597C13.0327 33.1597 13.1619 33.249 13.1619 33.3598ZM13.8286 33.8926C13.8286 34.0032 13.6995 34.0928 13.5396 34.0928C13.3798 34.0928 13.2511 34.0034 13.2511 33.8926C13.2511 33.7818 13.3802 33.6928 13.5396 33.6928C13.6991 33.6928 13.8286 33.7822 13.8286 33.8926Z" fill="#C5E6DA"/>
<path d="M14.7615 34.2482C14.7615 34.3584 14.6324 34.448 14.4728 34.448C14.3131 34.448 14.1838 34.3586 14.1838 34.2482C14.1838 34.1378 14.3129 34.0481 14.4728 34.0481C14.6326 34.0481 14.7615 34.1374 14.7615 34.2482Z" fill="#C5E6DA"/>
<path d="M15.69 34.2482C15.69 34.3584 15.5609 34.448 15.4012 34.448C15.2416 34.448 15.1123 34.3586 15.1123 34.2482C15.1123 34.1378 15.2414 34.0481 15.4012 34.0481C15.5611 34.0481 15.69 34.1374 15.69 34.2482Z" fill="#C5E6DA"/>
<path d="M16.6326 34.0935C16.6326 34.2041 16.5035 34.2937 16.3439 34.2937C16.1842 34.2937 16.0549 34.2043 16.0549 34.0935C16.0549 33.9827 16.184 33.8934 16.3439 33.8934C16.5037 33.8934 16.6326 33.9827 16.6326 34.0935Z" fill="#C5E6DA"/>
</g>
<mask id="path-18-outside-1_266_120" maskUnits="userSpaceOnUse" x="40.6379" y="11.7549" width="75" height="33" fill="black">
<rect fill="white" x="40.6379" y="11.7549" width="75" height="33"/>
<path d="M50.6659 21.1429C51.7659 21.1429 53.0189 20.8699 54.4509 20.3249V23.8379C54.1329 23.9519 53.6779 24.0779 53.0869 24.2129C53.2689 24.7359 53.3599 25.2249 53.3599 25.6789C53.3599 27.1339 52.9169 28.4069 52.0299 29.4989C51.1962 30.5491 49.9843 31.2311 48.6539 31.3989C47.7539 31.5349 47.2899 32.0239 47.2899 32.8649C47.2899 33.1609 47.4379 33.4649 47.7329 33.7519C48.1189 34.1839 48.6879 34.4569 49.4379 34.5699C52.6879 35.0699 54.3149 36.4229 54.3149 38.6279C54.3149 42.1519 52.2119 43.9139 48.0149 43.9139C46.2869 43.9139 44.8649 43.6069 43.7519 42.9939C42.3519 42.2209 41.6379 40.9939 41.6379 39.3439C41.6379 37.4439 42.6949 36.1269 44.8079 35.4219V35.3539C44.0349 34.8769 43.6479 34.1489 43.6479 33.1719C43.6479 31.8989 44.0119 31.1019 44.7479 30.7849V30.7169C44.0199 30.4669 43.3729 29.8989 42.8039 29.0119C42.1669 28.0569 41.8489 27.0339 41.8489 25.9419C41.8489 24.3049 42.4289 22.9419 43.5889 21.8499C44.6721 20.8379 46.1069 20.2876 47.5889 20.3159C48.6774 20.3091 49.7482 20.5914 50.6919 21.1339M45.5769 25.9759C45.5769 27.5459 46.2929 28.3289 47.7249 28.3289C49.1119 28.3289 49.8049 27.5329 49.8049 25.9419C49.8049 25.2819 49.6449 24.7139 49.3279 24.2369C48.9419 23.7139 48.4079 23.4529 47.7249 23.4529C46.2929 23.4529 45.5769 24.2919 45.5769 25.9759ZM50.8289 39.0719C50.8289 37.9119 49.8739 37.3319 47.9639 37.3319C46.1219 37.3319 45.2019 37.9339 45.2019 39.1389C45.2019 40.3209 46.2019 40.9119 48.2019 40.9119C49.9519 40.9119 50.8289 40.2979 50.8289 39.0719ZM58.2999 17.8349C57.6399 17.8349 57.0719 17.5849 56.5949 17.0849C56.1477 16.6038 55.9034 15.9687 55.9129 15.3119C55.9129 14.6069 56.1399 14.0049 56.5949 13.5049C57.0719 13.0049 57.6409 12.7549 58.2999 12.7549C58.9369 12.7549 59.4819 13.0049 59.9369 13.5049C60.4139 14.0049 60.6529 14.6079 60.6529 15.3119C60.6569 15.6401 60.5956 15.9658 60.4727 16.2702C60.3498 16.5745 60.1677 16.8514 59.9369 17.0849C59.4819 17.5849 58.9369 17.8349 58.2999 17.8349ZM56.3559 35.6349C56.4009 35.1799 56.4239 34.4069 56.4239 33.3149V22.7119L56.3559 20.4949H60.1999C60.1549 20.9269 60.1319 21.6429 60.1319 22.6429V33.1129L60.1999 35.6369H56.3459M67.3459 20.4949H70.3129V23.8029C70.0966 23.7986 69.8805 23.7872 69.6649 23.7689L68.8119 23.7349H67.3459V30.0779C67.3459 31.6009 67.8459 32.3629 68.8459 32.3629C69.527 32.3701 70.1938 32.1676 70.7559 31.7829V35.1829C69.9159 35.6379 68.9029 35.8649 67.7209 35.8649C66.0609 35.8649 64.9129 35.2649 64.2769 34.0919C63.7999 33.2049 63.5609 31.8069 63.5609 29.8979V23.7939H63.5949V23.7259L63.0829 23.6919C62.6944 23.6997 62.3069 23.7337 61.9229 23.7939V20.4859H63.5929V19.1559C63.5929 18.5189 63.5589 18.0079 63.4909 17.6209H67.4469C67.3789 18.0529 67.3449 18.5409 67.3449 19.0869V20.4849M79.4449 20.3929C78.4669 20.3929 77.4449 20.7329 76.3749 21.4159V15.4479L76.4429 12.8899H72.5549C72.6229 13.2539 72.6569 14.1059 72.6569 15.4479V33.4879L72.5549 35.6359H76.5109C76.5109 35.5679 76.4879 35.2959 76.4429 34.8159L76.3749 33.4859V25.0999C77.1709 24.3499 77.9449 23.9749 78.6949 23.9749C79.5589 23.9749 80.2179 24.4069 80.6729 25.2709C81.0129 25.9529 81.1849 26.8059 81.1849 27.8289L81.1509 32.4329C81.1509 33.2059 81.0939 34.2729 80.9809 35.6389H85.1069C85.0069 35.0709 84.9709 34.0249 84.9709 32.5019V27.8299C84.9709 25.8519 84.5279 24.1699 83.6409 22.7829C82.6409 21.1829 81.2409 20.3959 79.4459 20.3959M92.5499 35.7729C90.7539 35.7729 89.4239 34.9769 88.5499 33.3859C87.8679 32.0899 87.5269 30.3859 87.5269 28.3059V23.6339L87.3909 20.4969H91.4829C91.4149 20.9969 91.3689 22.0669 91.3469 23.7029L91.3129 28.3069C91.3129 29.6029 91.4609 30.5349 91.7559 31.1029C92.0959 31.8079 92.7219 32.1599 93.6319 32.1599C94.2689 32.1599 94.9849 31.7849 95.7799 31.0349V22.6349C95.7771 22.1908 95.7544 21.747 95.7119 21.3049L95.6439 20.4869H99.5999C99.5549 20.8739 99.5319 21.5899 99.5319 22.6349V33.0799L99.5999 35.6379H95.8999V34.3999C94.8539 35.2999 93.7399 35.7639 92.5579 35.7639M109.328 35.7299C108.751 35.7428 108.178 35.6306 107.648 35.4011C107.118 35.1715 106.644 34.8299 106.259 34.3999V35.6279H102.644C102.712 35.2409 102.746 34.5249 102.746 33.4799V15.4499L102.644 12.8919H106.532C106.486 13.2919 106.464 14.1539 106.464 15.4499V21.3839C107.51 20.7239 108.534 20.3839 109.534 20.3839C111.33 20.3839 112.74 21.1799 113.764 22.7709C114.628 24.1579 115.06 25.8409 115.06 27.8179C115.06 29.8409 114.605 31.6029 113.696 33.1039C112.596 34.8539 111.15 35.7299 109.331 35.7299M108.819 23.9649C108.069 23.9649 107.284 24.3399 106.466 25.0899V30.9999C107.194 31.7049 107.91 32.0569 108.614 32.0569C109.501 32.0569 110.171 31.5569 110.626 30.5909C110.99 29.8179 111.172 28.8969 111.172 27.8289C111.172 25.2589 110.388 23.9759 108.819 23.9759"/>
</mask>
<path d="M50.6659 21.1429C51.7659 21.1429 53.0189 20.8699 54.4509 20.3249V23.8379C54.1329 23.9519 53.6779 24.0779 53.0869 24.2129C53.2689 24.7359 53.3599 25.2249 53.3599 25.6789C53.3599 27.1339 52.9169 28.4069 52.0299 29.4989C51.1962 30.5491 49.9843 31.2311 48.6539 31.3989C47.7539 31.5349 47.2899 32.0239 47.2899 32.8649C47.2899 33.1609 47.4379 33.4649 47.7329 33.7519C48.1189 34.1839 48.6879 34.4569 49.4379 34.5699C52.6879 35.0699 54.3149 36.4229 54.3149 38.6279C54.3149 42.1519 52.2119 43.9139 48.0149 43.9139C46.2869 43.9139 44.8649 43.6069 43.7519 42.9939C42.3519 42.2209 41.6379 40.9939 41.6379 39.3439C41.6379 37.4439 42.6949 36.1269 44.8079 35.4219V35.3539C44.0349 34.8769 43.6479 34.1489 43.6479 33.1719C43.6479 31.8989 44.0119 31.1019 44.7479 30.7849V30.7169C44.0199 30.4669 43.3729 29.8989 42.8039 29.0119C42.1669 28.0569 41.8489 27.0339 41.8489 25.9419C41.8489 24.3049 42.4289 22.9419 43.5889 21.8499C44.6721 20.8379 46.1069 20.2876 47.5889 20.3159C48.6774 20.3091 49.7482 20.5914 50.6919 21.1339M45.5769 25.9759C45.5769 27.5459 46.2929 28.3289 47.7249 28.3289C49.1119 28.3289 49.8049 27.5329 49.8049 25.9419C49.8049 25.2819 49.6449 24.7139 49.3279 24.2369C48.9419 23.7139 48.4079 23.4529 47.7249 23.4529C46.2929 23.4529 45.5769 24.2919 45.5769 25.9759ZM50.8289 39.0719C50.8289 37.9119 49.8739 37.3319 47.9639 37.3319C46.1219 37.3319 45.2019 37.9339 45.2019 39.1389C45.2019 40.3209 46.2019 40.9119 48.2019 40.9119C49.9519 40.9119 50.8289 40.2979 50.8289 39.0719ZM58.2999 17.8349C57.6399 17.8349 57.0719 17.5849 56.5949 17.0849C56.1477 16.6038 55.9034 15.9687 55.9129 15.3119C55.9129 14.6069 56.1399 14.0049 56.5949 13.5049C57.0719 13.0049 57.6409 12.7549 58.2999 12.7549C58.9369 12.7549 59.4819 13.0049 59.9369 13.5049C60.4139 14.0049 60.6529 14.6079 60.6529 15.3119C60.6569 15.6401 60.5956 15.9658 60.4727 16.2702C60.3498 16.5745 60.1677 16.8514 59.9369 17.0849C59.4819 17.5849 58.9369 17.8349 58.2999 17.8349ZM56.3559 35.6349C56.4009 35.1799 56.4239 34.4069 56.4239 33.3149V22.7119L56.3559 20.4949H60.1999C60.1549 20.9269 60.1319 21.6429 60.1319 22.6429V33.1129L60.1999 35.6369H56.3459M67.3459 20.4949H70.3129V23.8029C70.0966 23.7986 69.8805 23.7872 69.6649 23.7689L68.8119 23.7349H67.3459V30.0779C67.3459 31.6009 67.8459 32.3629 68.8459 32.3629C69.527 32.3701 70.1938 32.1676 70.7559 31.7829V35.1829C69.9159 35.6379 68.9029 35.8649 67.7209 35.8649C66.0609 35.8649 64.9129 35.2649 64.2769 34.0919C63.7999 33.2049 63.5609 31.8069 63.5609 29.8979V23.7939H63.5949V23.7259L63.0829 23.6919C62.6944 23.6997 62.3069 23.7337 61.9229 23.7939V20.4859H63.5929V19.1559C63.5929 18.5189 63.5589 18.0079 63.4909 17.6209H67.4469C67.3789 18.0529 67.3449 18.5409 67.3449 19.0869V20.4849M79.4449 20.3929C78.4669 20.3929 77.4449 20.7329 76.3749 21.4159V15.4479L76.4429 12.8899H72.5549C72.6229 13.2539 72.6569 14.1059 72.6569 15.4479V33.4879L72.5549 35.6359H76.5109C76.5109 35.5679 76.4879 35.2959 76.4429 34.8159L76.3749 33.4859V25.0999C77.1709 24.3499 77.9449 23.9749 78.6949 23.9749C79.5589 23.9749 80.2179 24.4069 80.6729 25.2709C81.0129 25.9529 81.1849 26.8059 81.1849 27.8289L81.1509 32.4329C81.1509 33.2059 81.0939 34.2729 80.9809 35.6389H85.1069C85.0069 35.0709 84.9709 34.0249 84.9709 32.5019V27.8299C84.9709 25.8519 84.5279 24.1699 83.6409 22.7829C82.6409 21.1829 81.2409 20.3959 79.4459 20.3959M92.5499 35.7729C90.7539 35.7729 89.4239 34.9769 88.5499 33.3859C87.8679 32.0899 87.5269 30.3859 87.5269 28.3059V23.6339L87.3909 20.4969H91.4829C91.4149 20.9969 91.3689 22.0669 91.3469 23.7029L91.3129 28.3069C91.3129 29.6029 91.4609 30.5349 91.7559 31.1029C92.0959 31.8079 92.7219 32.1599 93.6319 32.1599C94.2689 32.1599 94.9849 31.7849 95.7799 31.0349V22.6349C95.7771 22.1908 95.7544 21.747 95.7119 21.3049L95.6439 20.4869H99.5999C99.5549 20.8739 99.5319 21.5899 99.5319 22.6349V33.0799L99.5999 35.6379H95.8999V34.3999C94.8539 35.2999 93.7399 35.7639 92.5579 35.7639M109.328 35.7299C108.751 35.7428 108.178 35.6306 107.648 35.4011C107.118 35.1715 106.644 34.8299 106.259 34.3999V35.6279H102.644C102.712 35.2409 102.746 34.5249 102.746 33.4799V15.4499L102.644 12.8919H106.532C106.486 13.2919 106.464 14.1539 106.464 15.4499V21.3839C107.51 20.7239 108.534 20.3839 109.534 20.3839C111.33 20.3839 112.74 21.1799 113.764 22.7709C114.628 24.1579 115.06 25.8409 115.06 27.8179C115.06 29.8409 114.605 31.6029 113.696 33.1039C112.596 34.8539 111.15 35.7299 109.331 35.7299M108.819 23.9649C108.069 23.9649 107.284 24.3399 106.466 25.0899V30.9999C107.194 31.7049 107.91 32.0569 108.614 32.0569C109.501 32.0569 110.171 31.5569 110.626 30.5909C110.99 29.8179 111.172 28.8969 111.172 27.8289C111.172 25.2589 110.388 23.9759 108.819 23.9759" fill="white"/>
<path d="M54.4509 20.3249H54.9509V19.5996L54.2731 19.8576L54.4509 20.3249ZM54.4509 23.8379L54.6197 24.3086L54.9509 24.1898V23.8379H54.4509ZM53.0869 24.2129L52.9756 23.7254L52.4312 23.8498L52.6147 24.3772L53.0869 24.2129ZM52.0299 29.4989L51.6418 29.1836L51.6383 29.188L52.0299 29.4989ZM48.6539 31.3989L48.5914 30.9027L48.5792 30.9045L48.6539 31.3989ZM47.7329 33.7519L48.1058 33.4187L48.0941 33.4057L48.0816 33.3935L47.7329 33.7519ZM49.4379 34.5699L49.514 34.0757L49.5124 34.0755L49.4379 34.5699ZM43.7519 42.9939L43.5103 43.4316L43.5107 43.4318L43.7519 42.9939ZM44.8079 35.4219L44.9662 35.8962L45.3079 35.7822V35.4219H44.8079ZM44.8079 35.3539H45.3079V35.0749L45.0705 34.9284L44.8079 35.3539ZM44.7479 30.7849L44.9457 31.2441L45.2479 31.1139V30.7849H44.7479ZM44.7479 30.7169H45.2479V30.3599L44.9103 30.244L44.7479 30.7169ZM42.8039 29.0119L43.2249 28.7419L43.2199 28.7344L42.8039 29.0119ZM43.5889 21.8499L43.2476 21.4845L43.2462 21.4858L43.5889 21.8499ZM47.5889 20.3159L47.5794 20.816L47.592 20.8159L47.5889 20.3159ZM49.3279 24.2369L49.7444 23.9601L49.7375 23.9499L49.7302 23.94L49.3279 24.2369ZM56.5949 17.0849L56.2287 17.4253L56.2332 17.43L56.5949 17.0849ZM55.9129 15.3119L56.4129 15.3191V15.3119H55.9129ZM56.5949 13.5049L56.2331 13.1597L56.2251 13.1684L56.5949 13.5049ZM59.9369 13.5049L59.567 13.8415L59.5752 13.85L59.9369 13.5049ZM60.6529 15.3119L60.1529 15.3119L60.153 15.3179L60.6529 15.3119ZM59.9369 17.0849L59.5813 16.7334L59.5741 16.7407L59.5671 16.7484L59.9369 17.0849ZM56.4239 22.7119H56.9239V22.7042L56.9237 22.6966L56.4239 22.7119ZM56.3559 20.4949V19.9949H55.8404L55.8562 20.5102L56.3559 20.4949ZM60.1999 20.4949L60.6972 20.5467L60.7547 19.9949H60.1999V20.4949ZM60.1319 33.1129H59.6318L59.6321 33.1263L60.1319 33.1129ZM60.1999 35.6369V36.1369H60.7136L60.6998 35.6234L60.1999 35.6369ZM70.3129 20.4949H70.8129V19.9949H70.3129V20.4949ZM70.3129 23.8029L70.303 24.3028L70.8129 24.3129V23.8029H70.3129ZM69.6649 23.7689L69.7074 23.2707L69.6961 23.2697L69.6849 23.2693L69.6649 23.7689ZM68.8119 23.7349L68.8318 23.2353L68.8219 23.2349H68.8119V23.7349ZM67.3459 23.7349V23.2349H66.8459V23.7349H67.3459ZM68.8459 32.3629L68.8512 31.8629H68.8459V32.3629ZM70.7559 31.7829H71.2559V30.8348L70.4735 31.3703L70.7559 31.7829ZM70.7559 35.1829L70.9941 35.6225L71.2559 35.4807V35.1829H70.7559ZM64.2769 34.0919L63.8366 34.3287L63.8374 34.3302L64.2769 34.0919ZM63.5609 23.7939V23.2939H63.0609V23.7939H63.5609ZM63.5949 23.7939V24.2939H64.0949V23.7939H63.5949ZM63.5949 23.7259H64.0949V23.258L63.6281 23.227L63.5949 23.7259ZM63.0829 23.6919L63.1161 23.193L63.0945 23.1915L63.0729 23.192L63.0829 23.6919ZM61.9229 23.7939H61.4229V24.3783L62.0003 24.2879L61.9229 23.7939ZM61.9229 20.4859V19.9859H61.4229V20.4859H61.9229ZM63.5929 20.4859V20.9859H64.0929V20.4859H63.5929ZM63.4909 17.6209V17.1209H62.8954L62.9985 17.7074L63.4909 17.6209ZM67.4469 17.6209L67.9409 17.6986L68.0318 17.1209H67.4469V17.6209ZM76.3749 21.4159H75.8749V22.3282L76.644 21.8373L76.3749 21.4159ZM76.3749 15.4479L75.8749 15.4346V15.4479H76.3749ZM76.4429 12.8899L76.9428 12.9032L76.9564 12.3899H76.4429V12.8899ZM72.5549 12.8899V12.3899H71.9529L72.0634 12.9817L72.5549 12.8899ZM72.6569 33.4879L73.1564 33.5116L73.1569 33.4997V33.4879H72.6569ZM72.5549 35.6359L72.0555 35.6122L72.0306 36.1359H72.5549V35.6359ZM76.5109 35.6359V36.1359H77.0109V35.6359H76.5109ZM76.4429 34.8159L75.9436 34.8414L75.9441 34.852L75.9451 34.8626L76.4429 34.8159ZM76.3749 33.4859H75.8749V33.4987L75.8756 33.5114L76.3749 33.4859ZM76.3749 25.0999L76.0321 24.736L75.8749 24.884V25.0999H76.3749ZM80.6729 25.2709L81.1205 25.0477L81.1153 25.0379L80.6729 25.2709ZM81.1849 27.8289L81.6849 27.8326V27.8289H81.1849ZM81.1509 32.4329L80.6509 32.4292V32.4329H81.1509ZM80.9809 35.6389L80.4826 35.5977L80.4379 36.1389H80.9809V35.6389ZM85.1069 35.6389V36.1389H85.7027L85.5994 35.5522L85.1069 35.6389ZM83.6409 22.7829L83.2169 23.0479L83.2197 23.0523L83.6409 22.7829ZM88.5499 33.3859L88.1074 33.6188L88.1117 33.6266L88.5499 33.3859ZM87.5269 23.6339H88.0269V23.6231L88.0265 23.6122L87.5269 23.6339ZM87.3909 20.4969V19.9969H86.8688L86.8914 20.5185L87.3909 20.4969ZM91.4829 20.4969L91.9784 20.5643L92.0555 19.9969H91.4829V20.4969ZM91.3469 23.7029L90.847 23.6962L90.847 23.6992L91.3469 23.7029ZM91.3129 28.3069L90.8129 28.3032V28.3069H91.3129ZM91.7559 31.1029L92.2063 30.8857L92.2031 30.879L92.1997 30.8724L91.7559 31.1029ZM95.7799 31.0349L96.123 31.3986L96.2799 31.2506V31.0349H95.7799ZM95.7799 22.6349H96.2799L96.2799 22.6317L95.7799 22.6349ZM95.7119 21.3049L95.2136 21.3463L95.2142 21.3527L95.7119 21.3049ZM95.6439 20.4869V19.9869H95.1006L95.1457 20.5283L95.6439 20.4869ZM99.5999 20.4869L100.097 20.5446L100.161 19.9869H99.5999V20.4869ZM99.5319 33.0799H99.0318L99.0321 33.0932L99.5319 33.0799ZM99.5999 35.6379V36.1379H100.113L100.1 35.6246L99.5999 35.6379ZM95.8999 35.6379H95.3999V36.1379H95.8999V35.6379ZM95.8999 34.3999H96.3999V33.3101L95.5738 34.0209L95.8999 34.3999ZM106.259 34.3999L106.631 34.0663L105.759 33.0924V34.3999H106.259ZM106.259 35.6279V36.1279H106.759V35.6279H106.259ZM102.644 35.6279L102.151 35.5414L102.048 36.1279H102.644V35.6279ZM102.746 15.4499H103.246V15.4399L103.246 15.43L102.746 15.4499ZM102.644 12.8919V12.3919H102.124L102.144 12.9118L102.644 12.8919ZM106.532 12.8919L107.029 12.949L107.093 12.3919H106.532V12.8919ZM106.464 21.3839H105.964V22.2906L106.731 21.8067L106.464 21.3839ZM113.764 22.7709L114.188 22.5065L114.184 22.5003L113.764 22.7709ZM113.696 33.1039L114.119 33.37L114.124 33.3629L113.696 33.1039ZM106.466 25.0899L106.128 24.7213L105.966 24.87V25.0899H106.466ZM106.466 30.9999H105.966V31.2117L106.118 31.3591L106.466 30.9999ZM110.626 30.5909L111.078 30.8039L111.078 30.8039L110.626 30.5909ZM50.6659 21.6429C51.8462 21.6429 53.1616 21.3506 54.6288 20.7922L54.2731 19.8576C52.8763 20.3892 51.6857 20.6429 50.6659 20.6429V21.6429ZM53.9509 20.3249V23.8379H54.9509V20.3249H53.9509ZM54.2822 23.3672C53.9915 23.4714 53.5587 23.5923 52.9756 23.7254L53.1983 24.7003C53.7972 24.5635 54.2743 24.4323 54.6197 24.3086L54.2822 23.3672ZM52.6147 24.3772C52.7822 24.8585 52.8599 25.2915 52.8599 25.6789H53.8599C53.8599 25.1582 53.7557 24.6132 53.5592 24.0486L52.6147 24.3772ZM52.8599 25.6789C52.8599 27.0234 52.4538 28.1841 51.6418 29.1836L52.418 29.8141C53.3801 28.6297 53.8599 27.2444 53.8599 25.6789H52.8599ZM51.6383 29.188C50.8858 30.1359 49.7921 30.7514 48.5914 30.9028L48.7165 31.895C50.1766 31.7108 51.5065 30.9624 52.4215 29.8098L51.6383 29.188ZM48.5792 30.9045C48.0585 30.9832 47.5985 31.1738 47.2692 31.526C46.9344 31.8841 46.7899 32.3497 46.7899 32.8649H47.7899C47.7899 32.539 47.8775 32.3397 47.9997 32.209C48.1273 32.0725 48.3494 31.9506 48.7286 31.8933L48.5792 30.9045ZM46.7899 32.8649C46.7899 33.3368 47.0265 33.7621 47.3843 34.1103L48.0816 33.3935C47.8494 33.1676 47.7899 32.9849 47.7899 32.8649H46.7899ZM47.3601 34.085C47.845 34.6277 48.5343 34.9394 49.3634 35.0643L49.5124 34.0755C48.8416 33.9744 48.3929 33.7401 48.1058 33.4187L47.3601 34.085ZM49.3619 35.0641C50.9428 35.3073 52.0607 35.7493 52.7754 36.3439C53.4688 36.9208 53.8149 37.6667 53.8149 38.6279H54.8149C54.8149 37.384 54.3476 36.351 53.415 35.5751C52.5037 34.817 51.1831 34.3325 49.514 34.0757L49.3619 35.0641ZM53.8149 38.6279C53.8149 40.2873 53.324 41.449 52.4175 42.2093C51.4942 42.9837 50.0556 43.4139 48.0149 43.4139V44.4139C50.1713 44.4139 51.8827 43.9631 53.0601 42.9755C54.2544 41.9738 54.8149 40.4924 54.8149 38.6279H53.8149ZM48.0149 43.4139C46.3423 43.4139 45.0105 43.1162 43.9932 42.5559L43.5107 43.4318C44.7194 44.0975 46.2316 44.4139 48.0149 44.4139V43.4139ZM43.9936 42.5562C42.7582 41.874 42.1379 40.8178 42.1379 39.3439H41.1379C41.1379 41.17 41.9457 42.5677 43.5103 43.4316L43.9936 42.5562ZM42.1379 39.3439C42.1379 38.4923 42.3724 37.8031 42.8197 37.2487C43.2718 36.6884 43.9723 36.2278 44.9662 35.8962L44.6497 34.9476C43.5306 35.321 42.6461 35.8714 42.0414 36.6208C41.432 37.3762 41.1379 38.2954 41.1379 39.3439H42.1379ZM45.3079 35.4219V35.3539H44.3079V35.4219H45.3079ZM45.0705 34.9284C44.4581 34.5504 44.1479 33.9913 44.1479 33.1719H43.1479C43.1479 34.3065 43.6118 35.2033 44.5454 35.7794L45.0705 34.9284ZM44.1479 33.1719C44.1479 31.9646 44.4908 31.4401 44.9457 31.2441L44.5502 30.3257C43.5331 30.7637 43.1479 31.8331 43.1479 33.1719H44.1479ZM45.2479 30.7849V30.7169H44.2479V30.7849H45.2479ZM44.9103 30.244C44.3224 30.0421 43.7553 29.569 43.2248 28.7419L42.3831 29.2819C42.9905 30.2288 43.7175 30.8917 44.5855 31.1898L44.9103 30.244ZM43.2199 28.7344C42.6348 27.8572 42.3489 26.93 42.3489 25.9419H41.3489C41.3489 27.1377 41.6991 28.2565 42.388 29.2893L43.2199 28.7344ZM42.3489 25.9419C42.3489 24.4386 42.875 23.2087 43.9317 22.2139L43.2462 21.4858C41.9829 22.6751 41.3489 24.1712 41.3489 25.9419H42.3489ZM43.9303 22.2152C44.9184 21.292 46.2273 20.79 47.5794 20.8158L47.5985 19.816C45.9864 19.7853 44.4257 20.3838 43.2476 21.4845L43.9303 22.2152ZM47.592 20.8159C48.592 20.8097 49.5758 21.069 50.4428 21.5674L50.9411 20.7004C49.9207 20.1138 48.7628 19.8086 47.5858 19.8159L47.592 20.8159ZM45.0769 25.9759C45.0769 26.8271 45.2701 27.5586 45.7447 28.0783C46.2273 28.6067 46.9198 28.8289 47.7249 28.8289V27.8289C47.0981 27.8289 46.7166 27.6596 46.4831 27.404C46.2418 27.1397 46.0769 26.6946 46.0769 25.9759H45.0769ZM47.7249 28.8289C48.5148 28.8289 49.1929 28.599 49.6621 28.0604C50.1198 27.535 50.3049 26.7988 50.3049 25.9419H49.3049C49.3049 26.6759 49.1436 27.1332 48.9081 27.4036C48.684 27.6607 48.3221 27.8289 47.7249 27.8289V28.8289ZM50.3049 25.9419C50.3049 25.1978 50.1233 24.5304 49.7444 23.9601L48.9115 24.5136C49.1665 24.8974 49.3049 25.3659 49.3049 25.9419H50.3049ZM49.7302 23.94C49.2444 23.2817 48.5571 22.9529 47.7249 22.9529V23.9529C48.2588 23.9529 48.6395 24.146 48.9256 24.5338L49.7302 23.94ZM47.7249 22.9529C46.9093 22.9529 46.213 23.1956 45.7333 23.7586C45.2668 24.3063 45.0769 25.0749 45.0769 25.9759H46.0769C46.0769 25.1929 46.2451 24.6999 46.4946 24.4071C46.7309 24.1297 47.1086 23.9529 47.7249 23.9529V22.9529ZM51.3289 39.0719C51.3289 38.3253 51.0059 37.7243 50.3722 37.3395C49.7789 36.9792 48.9533 36.8319 47.9639 36.8319V37.8319C48.8846 37.8319 49.4915 37.9746 49.8531 38.1942C50.1745 38.3894 50.3289 38.6584 50.3289 39.0719H51.3289ZM47.9639 36.8319C47.0044 36.8319 46.1982 36.9858 45.6184 37.3651C45.0017 37.7686 44.7019 38.3868 44.7019 39.1389H45.7019C45.7019 38.6859 45.8622 38.4007 46.1659 38.2019C46.5067 37.979 47.0814 37.8319 47.9639 37.8319V36.8319ZM44.7019 39.1389C44.7019 39.9029 45.0421 40.5117 45.6975 40.8991C46.3119 41.2622 47.169 41.4119 48.2019 41.4119V40.4119C47.2348 40.4119 46.592 40.2661 46.2063 40.0382C45.8618 39.8346 45.7019 39.5569 45.7019 39.1389H44.7019ZM48.2019 41.4119C49.1202 41.4119 49.8983 41.2536 50.4585 40.8612C51.0511 40.4462 51.3289 39.8206 51.3289 39.0719H50.3289C50.3289 39.5492 50.1683 39.8436 49.8849 40.0421C49.5691 40.2632 49.0337 40.4119 48.2019 40.4119V41.4119ZM58.2999 17.3349C57.7838 17.3349 57.3444 17.1461 56.9567 16.7397L56.2332 17.43C56.7995 18.0236 57.4961 18.3349 58.2999 18.3349V17.3349ZM56.9612 16.7445C56.6016 16.3577 56.4052 15.8471 56.4129 15.3191L55.413 15.3046C55.4016 16.0902 55.6938 16.8499 56.2287 17.4253L56.9612 16.7445ZM56.4129 15.3119C56.4129 14.7253 56.5975 14.245 56.9647 13.8414L56.2251 13.1684C55.6824 13.7648 55.4129 14.4884 55.4129 15.3119H56.4129ZM56.9567 13.85C57.3443 13.4437 57.7847 13.2549 58.2999 13.2549V12.2549C57.4972 12.2549 56.7995 12.5661 56.2332 13.1597L56.9567 13.85ZM58.2999 13.2549C58.7865 13.2549 59.2002 13.4381 59.5671 13.8414L60.3067 13.1684C59.7637 12.5716 59.0874 12.2549 58.2999 12.2549V13.2549ZM59.5752 13.85C59.9616 14.2551 60.1529 14.7338 60.1529 15.3119H61.1529C61.1529 14.482 60.8662 13.7546 60.2987 13.1597L59.5752 13.85ZM60.153 15.3179C60.1561 15.5799 60.1072 15.8399 60.0091 16.0829L60.9363 16.4574C61.084 16.0917 61.1576 15.7003 61.1529 15.3059L60.153 15.3179ZM60.0091 16.0829C59.9109 16.3259 59.7655 16.547 59.5813 16.7334L60.2925 17.4364C60.5698 17.1559 60.7886 16.8231 60.9363 16.4574L60.0091 16.0829ZM59.5671 16.7484C59.2002 17.1516 58.7865 17.3349 58.2999 17.3349V18.3349C59.0874 18.3349 59.7637 18.0181 60.3067 17.4214L59.5671 16.7484ZM56.8535 35.6841C56.9012 35.2022 56.9239 34.4074 56.9239 33.3149H55.9239C55.9239 34.4064 55.9007 35.1576 55.8584 35.5857L56.8535 35.6841ZM56.9239 33.3149V22.7119H55.9239V33.3149H56.9239ZM56.9237 22.6966L56.8557 20.4796L55.8562 20.5102L55.9242 22.7272L56.9237 22.6966ZM56.3559 20.9949H60.1999V19.9949H56.3559V20.9949ZM59.7026 20.4431C59.6547 20.9031 59.6319 21.6416 59.6319 22.6429H60.6319C60.6319 21.6441 60.6552 20.9507 60.6972 20.5467L59.7026 20.4431ZM59.6319 22.6429V33.1129H60.6319V22.6429H59.6319ZM59.6321 33.1263L59.7001 35.6503L60.6998 35.6234L60.6318 33.0994L59.6321 33.1263ZM60.1999 35.1369H56.3459V36.1369H60.1999V35.1369ZM67.3459 20.9949H70.3129V19.9949H67.3459V20.9949ZM69.8129 20.4949V23.8029H70.8129V20.4949H69.8129ZM70.3229 23.303C70.1174 23.2989 69.9121 23.2881 69.7074 23.2707L69.6225 24.2671C69.8489 24.2864 70.0758 24.2983 70.303 24.3028L70.3229 23.303ZM69.6849 23.2693L68.8318 23.2353L68.792 24.2345L69.645 24.2685L69.6849 23.2693ZM68.8119 23.2349H67.3459V24.2349H68.8119V23.2349ZM66.8459 23.7349V30.0779H67.8459V23.7349H66.8459ZM66.8459 30.0779C66.8459 30.8782 66.9744 31.5654 67.3029 32.0659C67.6555 32.603 68.1969 32.8629 68.8459 32.8629V31.8629C68.495 31.8629 68.2864 31.7417 68.1389 31.5171C67.9675 31.2559 67.8459 30.8006 67.8459 30.0779H66.8459ZM68.8407 32.8629C69.6243 32.8711 70.3916 32.6381 71.0383 32.1955L70.4735 31.3703C69.9961 31.697 69.4297 31.869 68.8512 31.8629L68.8407 32.8629ZM70.2559 31.7829V35.1829H71.2559V31.7829H70.2559ZM70.5178 34.7432C69.7665 35.1502 68.8396 35.3649 67.7209 35.3649V36.3649C68.9663 36.3649 70.0653 36.1256 70.9941 35.6225L70.5178 34.7432ZM67.7209 35.3649C66.1955 35.3649 65.244 34.8265 64.7165 33.8536L63.8374 34.3302C64.5819 35.7033 65.9264 36.3649 67.7209 36.3649V35.3649ZM64.7173 33.8551C64.3008 33.0805 64.0609 31.7857 64.0609 29.8979H63.0609C63.0609 31.8281 63.2991 33.3292 63.8366 34.3287L64.7173 33.8551ZM64.0609 29.8979V23.7939H63.0609V29.8979H64.0609ZM63.5609 24.2939H63.5949V23.2939H63.5609V24.2939ZM64.0949 23.7939V23.7259H63.0949V23.7939H64.0949ZM63.6281 23.227L63.1161 23.193L63.0498 24.1908L63.5618 24.2248L63.6281 23.227ZM63.0729 23.192C62.6618 23.2002 62.2518 23.2363 61.8456 23.2999L62.0003 24.2879C62.3619 24.2312 62.727 24.1991 63.093 24.1918L63.0729 23.192ZM62.4229 23.7939V20.4859H61.4229V23.7939H62.4229ZM61.9229 20.9859H63.5929V19.9859H61.9229V20.9859ZM64.0929 20.4859V19.1559H63.0929V20.4859H64.0929ZM64.0929 19.1559C64.0929 18.5053 64.0585 17.9619 63.9834 17.5344L62.9985 17.7074C63.0594 18.0539 63.0929 18.5325 63.0929 19.1559H64.0929ZM63.4909 18.1209H67.4469V17.1209H63.4909V18.1209ZM66.953 17.5431C66.8801 18.0062 66.8449 18.5209 66.8449 19.0869H67.8449C67.8449 18.5609 67.8777 18.0996 67.9409 17.6986L66.953 17.5431ZM66.8449 19.0869V20.4849H67.8449V19.0869H66.8449ZM79.4449 19.8929C78.3473 19.8929 77.2329 20.275 76.1059 20.9944L76.644 21.8373C77.6569 21.1907 78.5866 20.8929 79.4449 20.8929V19.8929ZM76.8749 21.4159V15.4479H75.8749V21.4159H76.8749ZM76.8748 15.4612L76.9428 12.9032L75.9431 12.8766L75.8751 15.4346L76.8748 15.4612ZM76.4429 12.3899H72.5549V13.3899H76.4429V12.3899ZM72.0634 12.9817C72.1212 13.2907 72.1569 14.0916 72.1569 15.4479H73.1569C73.1569 14.1202 73.1247 13.2171 73.0464 12.7981L72.0634 12.9817ZM72.1569 15.4479V33.4879H73.1569V15.4479H72.1569ZM72.1575 33.4642L72.0555 35.6122L73.0544 35.6596L73.1564 33.5116L72.1575 33.4642ZM72.5549 36.1359H76.5109V35.1359H72.5549V36.1359ZM77.0109 35.6359C77.0109 35.5375 76.9841 35.2311 76.9408 34.7692L75.9451 34.8626C75.9676 35.1021 75.9844 35.288 75.9955 35.4219C76.0011 35.4889 76.0052 35.5413 76.0078 35.5801C76.0107 35.6233 76.0109 35.6377 76.0109 35.6359H77.0109ZM76.9423 34.7904L76.8743 33.4604L75.8756 33.5114L75.9436 34.8414L76.9423 34.7904ZM76.8749 33.4859V25.0999H75.8749V33.4859H76.8749ZM76.7178 25.4638C77.463 24.7617 78.1202 24.4749 78.6949 24.4749V23.4749C77.7696 23.4749 76.8789 23.9381 76.0321 24.736L76.7178 25.4638ZM78.6949 24.4749C79.0393 24.4749 79.3229 24.5596 79.5633 24.7171C79.8069 24.8767 80.0332 25.1291 80.2305 25.5039L81.1153 25.0379C80.8577 24.5486 80.527 24.153 80.1114 23.8807C79.6925 23.6062 79.2146 23.4749 78.6949 23.4749V24.4749ZM80.2255 25.494C80.5215 26.0877 80.6849 26.8589 80.6849 27.8289H81.6849C81.6849 26.7529 81.5044 25.8181 81.1204 25.0478L80.2255 25.494ZM80.685 27.8252L80.651 32.4292L81.6509 32.4366L81.6849 27.8326L80.685 27.8252ZM80.6509 32.4329C80.6509 33.1854 80.5953 34.2364 80.4826 35.5977L81.4792 35.6801C81.5926 34.3094 81.6509 33.2264 81.6509 32.4329H80.6509ZM80.9809 36.1389H85.1069V35.1389H80.9809V36.1389ZM85.5994 35.5522C85.5083 35.0351 85.4709 34.0347 85.4709 32.5019H84.4709C84.4709 34.015 84.5055 35.1066 84.6145 35.7256L85.5994 35.5522ZM85.4709 32.5019V27.8299H84.4709V32.5019H85.4709ZM85.4709 27.8299C85.4709 25.7759 85.0102 23.9959 84.0622 22.5135L83.2197 23.0523C84.0457 24.3438 84.4709 25.9279 84.4709 27.8299H85.4709ZM84.0649 22.5179C82.9776 20.7782 81.4208 19.8959 79.4459 19.8959V20.8959C81.061 20.8959 82.3043 21.5876 83.2169 23.0479L84.0649 22.5179ZM92.5499 35.2729C91.7279 35.2729 91.0379 35.0915 90.4606 34.7467C89.8829 34.4017 89.3898 33.8763 88.9882 33.1451L88.1117 33.6266C88.5841 34.4865 89.193 35.1545 89.9478 35.6053C90.703 36.0563 91.576 36.2729 92.5499 36.2729V35.2729ZM88.9924 33.153C88.361 31.9531 88.0269 30.3375 88.0269 28.3059H87.0269C87.0269 30.4343 87.3749 32.2267 88.1075 33.6187L88.9924 33.153ZM88.0269 28.3059V23.6339H87.0269V28.3059H88.0269ZM88.0265 23.6122L87.8905 20.4752L86.8914 20.5185L87.0274 23.6555L88.0265 23.6122ZM87.3909 20.9969H91.4829V19.9969H87.3909V20.9969ZM90.9875 20.4295C90.9147 20.9652 90.8689 22.0666 90.847 23.6962L91.8469 23.7096C91.869 22.0672 91.9152 21.0286 91.9784 20.5643L90.9875 20.4295ZM90.847 23.6992L90.813 28.3032L91.8129 28.3106L91.8469 23.7066L90.847 23.6992ZM90.8129 28.3069C90.8129 29.6172 90.9586 30.6525 91.3122 31.3333L92.1997 30.8724C91.9633 30.4172 91.8129 29.5886 91.8129 28.3069H90.8129ZM91.3056 31.3201C91.5158 31.756 91.8251 32.1007 92.2348 32.3314C92.64 32.5596 93.1137 32.6599 93.6319 32.6599V31.6599C93.2402 31.6599 92.9459 31.5842 92.7255 31.4601C92.5098 31.3386 92.336 31.1547 92.2063 30.8857L91.3056 31.3201ZM93.6319 32.6599C94.4614 32.6599 95.2967 32.1781 96.123 31.3986L95.4368 30.6712C94.6731 31.3916 94.0765 31.6599 93.6319 31.6599V32.6599ZM96.2799 31.0349V22.6349H95.2799V31.0349H96.2799ZM96.2799 22.6317C96.277 22.1727 96.2536 21.714 96.2096 21.257L95.2142 21.3527C95.2553 21.78 95.2772 22.2088 95.2799 22.6381L96.2799 22.6317ZM96.2102 21.2635L96.1422 20.4455L95.1457 20.5283L95.2137 21.3463L96.2102 21.2635ZM95.6439 20.9869H99.5999V19.9869H95.6439V20.9869ZM99.1033 20.4291C99.0545 20.8487 99.0319 21.592 99.0319 22.6349H100.032C100.032 21.5878 100.055 20.899 100.097 20.5446L99.1033 20.4291ZM99.0319 22.6349V33.0799H100.032V22.6349H99.0319ZM99.0321 33.0932L99.1001 35.6512L100.1 35.6246L100.032 33.0666L99.0321 33.0932ZM99.5999 35.1379H95.8999V36.1379H99.5999V35.1379ZM96.3999 35.6379V34.3999H95.3999V35.6379H96.3999ZM95.5738 34.0209C94.5994 34.8593 93.5972 35.2639 92.5579 35.2639V36.2639C93.8827 36.2639 95.1085 35.7404 96.2261 34.7789L95.5738 34.0209ZM109.317 35.23C108.812 35.2413 108.31 35.1432 107.847 34.9423L107.449 35.8598C108.045 36.1181 108.69 36.2443 109.339 36.2298L109.317 35.23ZM107.847 34.9423C107.383 34.7414 106.968 34.4426 106.631 34.0663L105.887 34.7335C106.32 35.2173 106.853 35.6016 107.449 35.8598L107.847 34.9423ZM105.759 34.3999V35.6279H106.759V34.3999H105.759ZM106.259 35.1279H102.644V36.1279H106.259V35.1279ZM103.136 35.7144C103.213 35.2787 103.246 34.5215 103.246 33.4799H102.246C102.246 34.5283 102.211 35.2031 102.151 35.5414L103.136 35.7144ZM103.246 33.4799V15.4499H102.246V33.4799H103.246ZM103.246 15.43L103.144 12.872L102.144 12.9118L102.246 15.4698L103.246 15.43ZM102.644 13.3919H106.532V12.3919H102.644V13.3919ZM106.035 12.8348C105.985 13.2687 105.964 14.161 105.964 15.4499H106.964C106.964 14.1467 106.987 13.3151 107.029 12.949L106.035 12.8348ZM105.964 15.4499V21.3839H106.964V15.4499H105.964ZM106.731 21.8067C107.719 21.1834 108.651 20.8839 109.534 20.8839V19.8839C108.417 19.8839 107.301 20.2643 106.197 20.961L106.731 21.8067ZM109.534 20.8839C111.149 20.8839 112.406 21.5842 113.343 23.0415L114.184 22.5003C113.074 20.7756 111.511 19.8839 109.534 19.8839V20.8839ZM113.34 23.0352C114.145 24.3277 114.56 25.9146 114.56 27.8179H115.56C115.56 25.7672 115.111 23.9881 114.188 22.5065L113.34 23.0352ZM114.56 27.8179C114.56 29.7637 114.123 31.4332 113.268 32.8449L114.124 33.3629C115.087 31.7725 115.56 29.9181 115.56 27.8179H114.56ZM113.273 32.8378C112.248 34.4673 110.95 35.2299 109.331 35.2299V36.2299C111.35 36.2299 112.943 35.2405 114.119 33.37L113.273 32.8378ZM108.819 23.4649C107.895 23.4649 106.995 23.9264 106.128 24.7213L106.804 25.4584C107.573 24.7533 108.242 24.4649 108.819 24.4649V23.4649ZM105.966 25.0899V30.9999H106.966V25.0899H105.966ZM106.118 31.3591C106.899 32.1149 107.733 32.5569 108.614 32.5569V31.5569C108.087 31.5569 107.489 31.2949 106.814 30.6407L106.118 31.3591ZM108.614 32.5569C109.158 32.5569 109.652 32.4013 110.078 32.0894C110.497 31.7817 110.826 31.3404 111.078 30.8039L110.174 30.3778C109.971 30.8073 109.737 31.0991 109.486 31.2829C109.241 31.4625 108.957 31.5569 108.614 31.5569V32.5569ZM111.078 30.8039C111.481 29.9497 111.672 28.9526 111.672 27.8289H110.672C110.672 28.8412 110.499 29.686 110.174 30.3779L111.078 30.8039ZM111.672 27.8289C111.672 26.5093 111.474 25.4362 111.011 24.678C110.523 23.8796 109.768 23.4759 108.819 23.4759V24.4759C109.438 24.4759 109.86 24.7136 110.157 25.1993C110.478 25.7251 110.672 26.5784 110.672 27.8289H111.672Z" fill="black" mask="url(#path-18-outside-1_266_120)"/>
</g>
<defs>
<clipPath id="clip0_266_120">
<rect width="120" height="60" rx="10" fill="white"/>
</clipPath>
</defs>
</svg>
