<svg width="50" height="50" viewBox="0 0 50 50" fill="none" xmlns="http://www.w3.org/2000/svg">
<path d="M3.40918 44.5021H11.3637V25.1839L0 16.6611V41.0931C0 42.9766 1.52559 44.5023 3.40918 44.5023V44.5021Z" fill="#4285F4"/>
<path d="M38.6364 44.5021H46.5909C48.4744 44.5021 50 42.9765 50 41.093V16.6611L38.6364 25.1839V44.5021Z" fill="#34A853"/>
<path d="M38.6364 10.4114V25.1842L50 16.6614V12.116C50 7.90291 45.1905 5.49666 41.8182 8.02508L38.6364 10.4114Z" fill="#FBBC04"/>
<path fill-rule="evenodd" clip-rule="evenodd" d="M11.3636 25.1839V10.4111L25 20.6385L38.6363 10.4111V25.1839L25 35.4111L11.3636 25.1839Z" fill="#EA4335"/>
<path d="M0 12.116V16.6614L11.3637 25.1842V10.4114L8.18184 8.02509C4.80957 5.49667 0 7.90292 0 12.1158V12.116Z" fill="#C5221F"/>
</svg>
