<svg width="150" height="75" viewBox="0 0 150 75" fill="none" xmlns="http://www.w3.org/2000/svg">
<path d="M7.875 26.5938H7.625V26.8438V48.1563V48.4063H7.875H15H15.25V48.1563V41.2812H21.2662V48.1563V48.4063H21.5162H28.6412H28.8912V48.1563V26.8438V26.5938H28.6412H21.5162H21.2662V26.8438V33.6312H15.25V26.8438V26.5938H15H7.875ZM31.475 33.9125V34.1625H31.725H37.745V48.1588V48.4088H37.995H45.12H45.37V48.1588V34.1625H51.395H51.645V33.9125V26.845V26.595H51.395H31.725H31.475V26.845V33.9125ZM54.5175 26.5938H54.2674L54.2675 26.8439L54.28 48.1576L54.2801 48.4075H54.53H61.5H61.75V48.1575V38.4421L66.1723 45.3054L66.2462 45.42H66.3825H66.505H66.6411L66.7149 45.3057L71.155 38.4384V48.1563V48.4063H71.405H78.5H78.75V48.1563V26.8438V26.5938H78.5H71.0813H70.9408L70.8677 26.7138L66.5161 33.8631L62.1597 26.7137L62.0867 26.5938H61.9463H54.5175ZM82.055 26.5938H81.805L81.805 26.8438L81.8062 48.17L81.8063 48.42H82.0562H99.1987H99.4487V48.17V41.125V40.875H99.1987H89.43V26.8438V26.5938H89.18H82.055Z" fill="white" stroke="black" stroke-width="0.5"/>
<path d="M102.587 15.075H142.134L138.531 55.4349L122.337 59.9249L106.187 55.4412L102.587 15.075Z" fill="#E44D26"/>
<path d="M135.45 52.8662L138.529 18.3762H122.375V56.4937L135.45 52.8662Z" fill="#F16529"/>
<path d="M115.812 33.3474L115.36 28.2774H122.375V23.3274H109.962L111.297 38.2986H122.375V33.3486L115.812 33.3474ZM111.505 40.7749L112.199 48.5499L122.34 51.3649L122.362 51.3586V46.2086L122.341 46.2149L116.841 44.7149L116.489 40.7649H113.81L111.505 40.7749Z" fill="#EBEBEB"/>
<path d="M133.732 34.6749L133.854 33.3449H122.346V38.2949H128.442L127.867 44.7162L122.346 46.2062V51.3562L132.496 48.5437L132.571 47.7062L133.732 34.6749ZM122.357 28.2774H134.316L134.76 23.3149H122.357V28.2524V28.2774Z" fill="white"/>
</svg>
