<svg width="120" height="60" viewBox="0 0 120 60" fill="none" xmlns="http://www.w3.org/2000/svg">
<path d="M38.8049 22.5299C38.8049 21.6799 38.5049 21.0769 37.9389 20.7299C37.3689 20.3699 36.5389 20.1919 35.4449 20.1919V17.0549C35.9289 17.0595 36.4122 17.02 36.8889 16.9369C37.3189 16.8499 37.6769 16.7139 37.9649 16.5299C38.2433 16.3492 38.4659 16.0947 38.6079 15.7949C38.7579 15.4969 38.8219 15.1389 38.8049 14.7189V10.5449C38.8049 9.89688 38.8879 9.34488 39.0549 8.89088C39.2209 8.42688 39.5189 8.05088 39.9479 7.76088C40.3859 7.46288 40.9759 7.24488 41.7199 7.10488C42.4639 6.96488 43.4199 6.90488 44.5549 6.90488V9.85788C44.2049 9.86788 43.8849 9.89788 43.5969 9.94988C43.3169 10.0029 43.0769 10.0999 42.8749 10.2499C42.6819 10.3799 42.5349 10.5649 42.4289 10.7999C42.3229 11.0349 42.2709 11.3429 42.2709 11.7199V15.6449C42.2179 17.2809 41.1949 18.2529 39.1989 18.5589V18.7169C40.2049 18.8669 40.9749 19.1809 41.4989 19.6619C42.0229 20.1429 42.2869 20.7949 42.2589 21.6179V25.4999C42.2589 25.8759 42.3109 26.1829 42.4169 26.4199C42.5105 26.6418 42.6651 26.8325 42.8629 26.9699C43.0803 27.1166 43.3264 27.2151 43.5849 27.2589C43.9016 27.3132 44.2218 27.344 44.5429 27.3509V30.3179C43.3969 30.3179 42.4429 30.2479 41.7079 30.1179C40.9729 29.9879 40.3729 29.7579 39.9359 29.4619C39.5059 29.1619 39.2099 28.7969 39.0429 28.3319C38.8759 27.8669 38.7929 27.3119 38.7929 26.6649V22.5299M46.2759 24.1969C46.2759 23.7969 46.3329 23.4399 46.4459 23.1599C46.5539 22.8911 46.725 22.6524 46.9449 22.4639C47.1449 22.2889 47.3999 22.1619 47.6799 22.0839C47.9599 22.0059 48.2619 21.9659 48.5859 21.9659C48.8787 21.9644 49.1702 22.0041 49.4519 22.0839C49.7319 22.1639 49.9769 22.2899 50.1869 22.4639C50.4069 22.6525 50.5784 22.8912 50.6869 23.1599C50.8099 23.4399 50.8709 23.7859 50.8709 24.1969C50.8709 24.5909 50.8109 24.9269 50.6869 25.1969C50.5629 25.4669 50.3869 25.7089 50.1869 25.8929C49.9747 26.0779 49.7235 26.2125 49.4519 26.2869C49.1819 26.3739 48.8919 26.4169 48.5859 26.4169C48.2791 26.4191 47.9738 26.3752 47.6799 26.2869C47.4084 26.2125 47.1572 26.0779 46.9449 25.8929C46.7322 25.6977 46.562 25.4608 46.4449 25.1969C46.3247 24.8775 46.2679 24.538 46.2759 24.1969ZM53.6799 32.5329C53.2599 32.5329 52.8269 32.5029 52.3799 32.4409C51.9329 32.3789 51.5619 32.3009 51.2639 32.2049V29.0549C51.5117 29.1372 51.7659 29.1987 52.0239 29.2389C52.2599 29.2829 52.5269 29.3049 52.8239 29.3049C53.0342 29.3064 53.243 29.2708 53.4409 29.1999C53.644 29.1375 53.8229 29.0139 53.9529 28.8459C54.1029 28.6799 54.2199 28.4519 54.3069 28.1629C54.3949 27.8829 54.4369 27.5199 54.4369 27.0629V11.3999H58.4409V27.6639C58.4456 28.3033 58.357 28.94 58.1779 29.5539C58.0119 30.1489 57.7359 30.6539 57.3509 31.1039C56.9749 31.5499 56.4849 31.8999 55.8809 32.1539C55.2769 32.4079 54.5409 32.5339 53.6759 32.5339M54.2759 7.60688C54.2759 7.23088 54.3329 6.91988 54.4459 6.67488C54.5465 6.43831 54.7046 6.23067 54.9059 6.07088C55.1059 5.91388 55.3389 5.80388 55.6019 5.74288C55.8719 5.68288 56.1579 5.65088 56.4549 5.65088C56.7519 5.65088 57.0329 5.68088 57.2949 5.74288C57.5569 5.80488 57.7949 5.91288 57.9779 6.07088C58.1856 6.22748 58.3487 6.43571 58.4509 6.67488C58.5739 6.91988 58.6349 7.23088 58.6349 7.60688C58.6349 7.97488 58.5749 8.28488 58.4509 8.53888C58.3369 8.79288 58.1809 8.99888 57.9779 9.15588C57.7849 9.30588 57.5579 9.41388 57.2949 9.48388C57.0194 9.54661 56.7375 9.57748 56.4549 9.57588C56.1681 9.577 55.882 9.54615 55.6019 9.48388C55.3514 9.41923 55.1153 9.30795 54.9059 9.15588C54.7061 8.98935 54.5485 8.77793 54.4459 8.53888C54.3319 8.28488 54.2759 7.97488 54.2759 7.60688ZM72.3579 21.7069C72.3579 22.4769 72.2179 23.1509 71.938 23.7269C71.6629 24.2982 71.2527 24.7938 70.7429 25.1709C70.2269 25.5559 69.6009 25.8449 68.8659 26.0369C68.1309 26.2289 67.3079 26.3369 66.3979 26.3369C65.9179 26.3369 65.4699 26.3199 65.0579 26.2849C64.6579 26.2589 64.2579 26.2109 63.8899 26.1409C63.5311 26.0732 63.1762 25.9857 62.8269 25.8789C62.4734 25.7692 62.1271 25.6376 61.7899 25.4849V22.1769C62.1579 22.3609 62.5429 22.5269 62.9449 22.6769L64.1649 23.0709L65.3329 23.3209C65.7179 23.3809 66.073 23.4129 66.396 23.4129C66.756 23.4129 67.0609 23.3829 67.3159 23.3209C67.57 23.2509 67.7759 23.1589 67.9329 23.0449C68.0855 22.9381 68.2075 22.7933 68.2869 22.6249C68.3652 22.461 68.4055 22.2815 68.4049 22.0999C68.4087 21.9332 68.3773 21.7676 68.313 21.6139C68.2599 21.4639 68.1329 21.3119 67.9329 21.1539C67.7329 20.9879 67.4329 20.8039 67.0399 20.6039L65.4779 19.8439L63.7999 18.9999C63.3359 18.6999 62.9499 18.3919 62.6449 18.0419C62.3469 17.6919 62.1249 17.2939 61.9749 16.8469C61.8249 16.3919 61.7519 15.8539 61.7519 15.2319C61.7519 14.5489 61.8819 13.9539 62.1459 13.4469C62.4089 12.9309 62.7799 12.5019 63.2619 12.1609C63.7439 11.8199 64.3219 11.5659 64.9949 11.4009C65.6779 11.2259 66.4349 11.1379 67.2649 11.1379C68.1056 11.1337 68.9435 11.2352 69.7589 11.4399C70.5968 11.659 71.4103 11.9625 72.1869 12.3459L70.9799 15.1699C70.3617 14.874 69.7262 14.6155 69.077 14.3959C68.4936 14.198 67.882 14.096 67.2659 14.0939C66.7229 14.0939 66.3299 14.1899 66.0859 14.3939C65.9695 14.4884 65.8768 14.609 65.8153 14.7458C65.7538 14.8827 65.7253 15.032 65.7319 15.1819C65.7319 15.3569 65.7619 15.5149 65.8239 15.6549C65.8839 15.7849 66.0079 15.9249 66.1919 16.0749C66.3759 16.2149 66.6339 16.3729 66.966 16.5479L68.2659 17.1649L69.9459 17.9789C70.4459 18.2419 70.8739 18.5429 71.2319 18.8849C71.5875 19.2215 71.8691 19.6285 72.0589 20.0799C72.2519 20.5349 72.3589 21.0859 72.3589 21.7339M79.4769 26.6639C79.4769 27.3119 79.3939 27.8669 79.2269 28.3309C79.0599 28.7949 78.7589 29.1709 78.3209 29.4609C77.8909 29.7589 77.3059 29.9769 76.5609 30.1169C75.8159 30.2569 74.8609 30.3169 73.7259 30.3169V27.3599C74.0759 27.3499 74.3909 27.3199 74.6709 27.2679C74.9509 27.2159 75.187 27.1179 75.3709 26.9679C75.5709 26.8379 75.7249 26.6529 75.8309 26.4179C75.9449 26.1819 76.0009 25.8749 76.0009 25.4979V21.5729C75.9749 20.7499 76.2289 20.0979 76.7609 19.6169C77.2929 19.1359 78.0609 18.8209 79.0579 18.6719V18.5139C77.0719 18.2079 76.0519 17.2359 75.9999 15.5999V11.6749C75.9999 11.2989 75.9429 10.9919 75.8299 10.7549C75.7346 10.5299 75.5745 10.3385 75.3699 10.2049C75.1582 10.0568 74.9159 9.95805 74.6609 9.91588C74.3489 9.86017 74.0329 9.82941 73.716 9.82388V6.87388C74.8619 6.87388 75.8159 6.94388 76.5509 7.07388C77.2859 7.20388 77.8809 7.43388 78.3109 7.72988C78.7489 8.02988 79.0509 8.39488 79.2169 8.85988C79.3829 9.31488 79.4669 9.86588 79.4669 10.5139V14.6879C79.457 15.1079 79.5239 15.4679 79.6639 15.7639C79.806 16.0637 80.0286 16.3182 80.3069 16.4989C80.6069 16.6829 80.95 16.8189 81.3699 16.9059C81.7999 16.9859 82.284 17.0239 82.827 17.0239V20.1609C81.7329 20.1609 80.8969 20.3409 80.3199 20.6989C79.7499 21.0589 79.4669 21.6619 79.4669 22.4989V26.6339" fill="#555588"/>
<mask id="path-2-outside-1_236_3" maskUnits="userSpaceOnUse" x="18.722" y="36.5176" width="81" height="20" fill="black">
<rect fill="white" x="18.722" y="36.5176" width="81" height="20"/>
<path d="M21.084 54.2C20.784 54.2 20.524 54.18 20.302 54.138C20.079 54.103 19.886 54.053 19.722 53.988V52.58C19.9331 52.6352 20.1476 52.6763 20.364 52.703C20.6084 52.7393 20.8551 52.757 21.102 52.756C21.3216 52.7553 21.5402 52.7257 21.752 52.668C21.9721 52.6166 22.1769 52.5142 22.35 52.369C22.532 52.222 22.678 52.019 22.79 51.763C22.902 51.507 22.957 51.177 22.957 50.779V37.93H24.6V50.604C24.6 51.219 24.512 51.752 24.336 52.204C24.1847 52.6265 23.9379 53.0083 23.615 53.32C23.3027 53.6233 22.9236 53.849 22.508 53.979C22.08 54.126 21.496 54.199 20.975 54.199M32.77 49.444H32.7C32.5244 49.687 32.3305 49.9163 32.12 50.13C31.7334 50.5037 31.2486 50.76 30.722 50.869C30.44 50.929 30.116 50.957 29.746 50.957C29.342 50.957 28.97 50.897 28.63 50.781C28.2973 50.6799 27.993 50.5018 27.742 50.261C27.496 50.021 27.302 49.721 27.162 49.365C27.022 49.002 26.962 48.565 26.962 48.082C26.962 47.122 27.299 46.382 27.962 45.867C28.642 45.351 29.662 45.07 31.056 45.023L32.673 44.961V44.355C32.673 43.962 32.629 43.635 32.541 43.371C32.459 43.107 32.336 42.896 32.171 42.738C32.0064 42.5698 31.8 42.4483 31.573 42.386C31.3099 42.3121 31.0374 42.2767 30.764 42.281C30.3017 42.2773 29.8418 42.3482 29.402 42.491C28.9885 42.6307 28.5861 42.8011 28.198 43.001L27.636 41.797C28.07 41.563 28.553 41.363 29.086 41.199C29.6302 41.0334 30.1962 40.9505 30.765 40.953C31.363 40.953 31.878 41.015 32.312 41.138C32.752 41.255 33.112 41.446 33.392 41.708C33.6868 41.9791 33.9078 42.3209 34.034 42.701C34.176 43.104 34.234 43.595 34.234 44.169V50.769H33.1L32.77 49.444ZM30.17 49.659C30.5083 49.6621 30.8444 49.6055 31.163 49.492C31.4603 49.3862 31.7302 49.2154 31.953 48.992C32.176 48.764 32.349 48.479 32.473 48.14C32.603 47.794 32.666 47.39 32.666 46.927V46.057L31.409 46.119C30.882 46.142 30.439 46.201 30.082 46.295C29.725 46.389 29.437 46.521 29.222 46.691C29.022 46.855 28.859 47.057 28.765 47.297C28.6674 47.5522 28.6195 47.8238 28.624 48.097C28.624 48.637 28.764 49.032 29.046 49.284C29.328 49.536 29.708 49.662 30.171 49.662M35.588 41.13H37.24L39 46.5L39.23 47.247L39.494 48.179L39.731 49.075L39.881 49.717H39.943L40.093 49.075L40.33 48.179L40.594 47.247L40.824 46.5L42.574 41.13H44.2L40.904 50.78H38.874L35.588 41.13ZM50.746 49.444H50.676C50.5004 49.687 50.3065 49.9163 50.096 50.13C49.7094 50.5037 49.2246 50.76 48.698 50.869C48.416 50.929 48.092 50.957 47.722 50.957C47.318 50.957 46.946 50.897 46.606 50.781C46.2733 50.6799 45.969 50.5018 45.718 50.261C45.472 50.021 45.278 49.721 45.138 49.365C44.998 49.002 44.938 48.565 44.938 48.082C44.938 47.122 45.275 46.382 45.938 45.867C46.618 45.351 47.638 45.07 49.032 45.023L50.649 44.961V44.355C50.649 43.962 50.605 43.635 50.517 43.371C50.435 43.107 50.312 42.896 50.147 42.738C49.9824 42.5698 49.776 42.4483 49.549 42.386C49.2859 42.3121 49.0134 42.2767 48.74 42.281C48.2777 42.2773 47.8178 42.3482 47.378 42.491C46.9645 42.6307 46.5621 42.8011 46.174 43.001L45.612 41.797C46.046 41.563 46.529 41.363 47.062 41.199C47.6066 41.0333 48.1729 40.9504 48.742 40.953C49.34 40.953 49.855 41.015 50.289 41.138C50.729 41.255 51.089 41.446 51.369 41.708C51.6638 41.9791 51.8848 42.3209 52.011 42.701C52.153 43.104 52.211 43.595 52.211 44.169V50.769H51.061L50.746 49.444ZM48.146 49.664C48.4843 49.6671 48.8204 49.6105 49.139 49.497C49.4363 49.3912 49.7062 49.2204 49.929 48.997C50.152 48.767 50.325 48.484 50.449 48.145C50.579 47.799 50.642 47.395 50.642 46.932V46.062L49.385 46.124C48.858 46.147 48.415 46.206 48.058 46.3C47.701 46.394 47.413 46.526 47.198 46.696C46.998 46.86 46.835 47.062 46.741 47.302C46.6434 47.5572 46.5955 47.8288 46.6 48.102C46.6 48.642 46.74 49.037 47.022 49.289C47.309 49.541 47.684 49.667 48.147 49.667M62.08 47.344C62.08 47.912 61.977 48.422 61.772 48.874C61.5772 49.3139 61.2824 49.7022 60.911 50.008C60.536 50.308 60.079 50.556 59.541 50.72C59.001 50.878 58.395 50.957 57.721 50.957C57.1082 50.9601 56.4963 50.9072 55.893 50.799C55.33 50.699 54.859 50.549 54.478 50.351V48.787L55.155 49.067L55.955 49.304L56.825 49.48C57.1193 49.5203 57.416 49.541 57.713 49.542C58.65 49.542 59.343 49.366 59.787 49.015C60.237 48.663 60.464 48.16 60.464 47.503C60.4698 47.222 60.4251 46.9422 60.332 46.677C60.25 46.443 60.102 46.229 59.884 46.035C59.684 45.835 59.389 45.635 59.031 45.465C58.5923 45.236 58.1401 45.0336 57.677 44.859C57.2039 44.6777 56.7481 44.4541 56.315 44.191C55.935 43.945 55.618 43.669 55.365 43.365C55.119 43.06 54.935 42.715 54.811 42.328C54.694 41.941 54.635 41.502 54.635 41.01C54.635 40.494 54.729 40.035 54.915 39.63C55.0963 39.2334 55.3671 38.8843 55.706 38.61C56.0645 38.3187 56.4766 38.1006 56.919 37.968C57.394 37.822 57.915 37.748 58.483 37.748C59.18 37.748 59.807 37.815 60.363 37.95C60.92 38.08 61.415 38.246 61.848 38.45L61.248 39.82C60.868 39.65 60.434 39.504 59.948 39.38C59.4607 39.2503 58.9584 39.1854 58.454 39.187C57.739 39.187 57.184 39.354 56.794 39.687C56.5991 39.8495 56.4437 40.0542 56.3398 40.2857C56.2358 40.5172 56.186 40.7693 56.194 41.023C56.194 41.357 56.238 41.647 56.326 41.893C56.4204 42.1432 56.5706 42.3685 56.765 42.552C56.97 42.745 57.24 42.93 57.565 43.106C57.905 43.276 58.321 43.458 58.813 43.651C59.2926 43.8364 59.7593 44.0535 60.21 44.301C60.5834 44.5004 60.9243 44.7553 61.221 45.057C61.49 45.3357 61.6966 45.6684 61.827 46.033C61.967 46.403 62.042 46.855 62.042 47.359M67.996 50.956C67.404 50.956 66.85 50.856 66.336 50.683C65.8248 50.4993 65.3641 50.1978 64.991 49.803C64.611 49.399 64.311 48.886 64.095 48.265C63.878 47.638 63.77 46.885 63.77 46.005C63.77 45.085 63.87 44.305 64.104 43.667C64.327 43.022 64.631 42.501 65.018 42.103C65.3997 41.7066 65.8689 41.4052 66.388 41.223C66.908 41.04 67.468 40.95 68.068 40.95C68.5176 40.9491 68.9658 40.9991 69.404 41.099C69.7836 41.1783 70.1525 41.3021 70.503 41.468L70.028 42.822C69.893 42.762 69.744 42.708 69.58 42.655C69.4161 42.5965 69.2492 42.5464 69.08 42.505C68.904 42.458 68.73 42.423 68.56 42.4C68.4006 42.3718 68.239 42.3571 68.077 42.356C67.157 42.356 66.477 42.652 66.064 43.244C65.642 43.83 65.431 44.744 65.431 45.986C65.431 47.222 65.631 48.128 66.064 48.702C66.492 49.27 67.139 49.554 68.006 49.554C68.4389 49.5592 68.8704 49.506 69.289 49.396C69.6501 49.2941 70.0028 49.1647 70.344 49.009V50.433C70.0223 50.6057 69.6794 50.7358 69.324 50.82C68.967 50.908 68.504 50.952 67.982 50.952M76.752 40.954L77.322 40.98C77.5049 40.9884 77.687 41.0091 77.867 41.042L77.667 42.519L77.167 42.449C76.997 42.425 76.837 42.414 76.684 42.414C76.314 42.414 75.978 42.49 75.684 42.642C75.3746 42.7924 75.1039 43.0121 74.893 43.284C74.6629 43.5823 74.493 43.9227 74.393 44.286C74.2713 44.7057 74.212 45.141 74.217 45.578V50.781H72.617V41.131H73.917L74.11 42.898H74.18L74.646 42.168C74.8085 41.9413 74.9975 41.7348 75.209 41.553C75.4184 41.3721 75.6559 41.2266 75.912 41.122C76.2001 41.0073 76.508 40.9506 76.818 40.955M81.268 50.78H79.668V41.13H81.268V50.78ZM79.808 37.755C79.9933 37.5954 80.2316 37.5109 80.476 37.518C80.5988 37.5164 80.7209 37.5374 80.836 37.58C80.9489 37.6126 81.0517 37.6732 81.135 37.756C81.2265 37.8438 81.2957 37.9521 81.337 38.072C81.39 38.195 81.417 38.345 81.417 38.52C81.417 38.86 81.323 39.115 81.137 39.285C80.955 39.449 80.737 39.531 80.477 39.531C80.217 39.531 79.984 39.408 79.802 39.243C79.626 39.079 79.542 38.823 79.544 38.499C79.545 38.169 79.643 37.913 79.808 37.755ZM88.584 50.955C88.2671 50.9587 87.951 50.9203 87.644 50.841C87.364 50.765 87.108 50.665 86.879 50.541C86.6622 50.4166 86.4613 50.2662 86.281 50.093C86.1144 49.927 85.9616 49.7477 85.824 49.557H85.719L85.772 50.127L85.807 50.602L85.825 50.98V55.102H84.225V41.13H85.525L85.755 42.43H85.825C85.9592 42.2258 86.1122 42.0346 86.282 41.859C86.4543 41.6754 86.6528 41.5184 86.871 41.393C87.1107 41.2537 87.368 41.1474 87.636 41.077C87.945 40.9913 88.2645 40.9499 88.585 40.954C89.135 40.954 89.637 41.059 90.088 41.27C90.539 41.481 90.923 41.797 91.238 42.22C91.56 42.636 91.808 43.155 91.985 43.776C92.162 44.397 92.249 45.118 92.249 45.938C92.249 46.764 92.161 47.491 91.985 48.118C91.809 48.738 91.56 49.261 91.238 49.682C90.922 50.104 90.538 50.422 90.088 50.64C89.638 50.84 89.025 50.956 88.474 50.956M88.277 42.281C87.832 42.281 87.454 42.348 87.143 42.483C86.838 42.618 86.589 42.823 86.396 43.098C86.203 43.373 86.068 43.716 85.974 44.126C85.8791 44.6036 85.8292 45.0891 85.825 45.576V45.936C85.8204 46.4655 85.8585 46.9946 85.939 47.518C86.021 47.975 86.156 48.362 86.343 48.678C86.5281 48.9808 86.7927 49.2271 87.108 49.39C87.424 49.548 87.82 49.627 88.295 49.627C89.095 49.627 89.665 49.307 90.035 48.669C90.41 48.029 90.597 47.113 90.598 45.919C90.598 44.699 90.41 43.789 90.036 43.186C89.662 42.583 89.08 42.281 88.277 42.281ZM97.59 49.646C97.695 49.646 97.813 49.636 97.942 49.628L98.329 49.584L98.663 49.522L98.9 49.46V50.673C98.824 50.708 98.727 50.743 98.6 50.778C98.4729 50.8151 98.3437 50.8445 98.213 50.866C98.073 50.896 97.926 50.916 97.773 50.928C97.6244 50.9455 97.4748 50.9541 97.325 50.954C96.962 50.954 96.625 50.907 96.325 50.814C96.0191 50.7228 95.7407 50.5568 95.515 50.331C95.292 50.101 95.117 49.795 94.988 49.408C94.858 49.015 94.795 48.523 94.795 47.931V42.331H93.433V41.619L94.795 40.933L95.481 38.911H96.404V41.126H98.83V42.33H96.404V47.93C96.404 48.498 96.504 48.926 96.676 49.213C96.848 49.5 97.168 49.643 97.59 49.643"/>
</mask>
<path d="M21.084 54.2C20.784 54.2 20.524 54.18 20.302 54.138C20.079 54.103 19.886 54.053 19.722 53.988V52.58C19.9331 52.6352 20.1476 52.6763 20.364 52.703C20.6084 52.7393 20.8551 52.757 21.102 52.756C21.3216 52.7553 21.5402 52.7257 21.752 52.668C21.9721 52.6166 22.1769 52.5142 22.35 52.369C22.532 52.222 22.678 52.019 22.79 51.763C22.902 51.507 22.957 51.177 22.957 50.779V37.93H24.6V50.604C24.6 51.219 24.512 51.752 24.336 52.204C24.1847 52.6265 23.9379 53.0083 23.615 53.32C23.3027 53.6233 22.9236 53.849 22.508 53.979C22.08 54.126 21.496 54.199 20.975 54.199M32.77 49.444H32.7C32.5244 49.687 32.3305 49.9163 32.12 50.13C31.7334 50.5037 31.2486 50.76 30.722 50.869C30.44 50.929 30.116 50.957 29.746 50.957C29.342 50.957 28.97 50.897 28.63 50.781C28.2973 50.6799 27.993 50.5018 27.742 50.261C27.496 50.021 27.302 49.721 27.162 49.365C27.022 49.002 26.962 48.565 26.962 48.082C26.962 47.122 27.299 46.382 27.962 45.867C28.642 45.351 29.662 45.07 31.056 45.023L32.673 44.961V44.355C32.673 43.962 32.629 43.635 32.541 43.371C32.459 43.107 32.336 42.896 32.171 42.738C32.0064 42.5698 31.8 42.4483 31.573 42.386C31.3099 42.3121 31.0374 42.2767 30.764 42.281C30.3017 42.2773 29.8418 42.3482 29.402 42.491C28.9885 42.6307 28.5861 42.8011 28.198 43.001L27.636 41.797C28.07 41.563 28.553 41.363 29.086 41.199C29.6302 41.0334 30.1962 40.9505 30.765 40.953C31.363 40.953 31.878 41.015 32.312 41.138C32.752 41.255 33.112 41.446 33.392 41.708C33.6868 41.9791 33.9078 42.3209 34.034 42.701C34.176 43.104 34.234 43.595 34.234 44.169V50.769H33.1L32.77 49.444ZM30.17 49.659C30.5083 49.6621 30.8444 49.6055 31.163 49.492C31.4603 49.3862 31.7302 49.2154 31.953 48.992C32.176 48.764 32.349 48.479 32.473 48.14C32.603 47.794 32.666 47.39 32.666 46.927V46.057L31.409 46.119C30.882 46.142 30.439 46.201 30.082 46.295C29.725 46.389 29.437 46.521 29.222 46.691C29.022 46.855 28.859 47.057 28.765 47.297C28.6674 47.5522 28.6195 47.8238 28.624 48.097C28.624 48.637 28.764 49.032 29.046 49.284C29.328 49.536 29.708 49.662 30.171 49.662M35.588 41.13H37.24L39 46.5L39.23 47.247L39.494 48.179L39.731 49.075L39.881 49.717H39.943L40.093 49.075L40.33 48.179L40.594 47.247L40.824 46.5L42.574 41.13H44.2L40.904 50.78H38.874L35.588 41.13ZM50.746 49.444H50.676C50.5004 49.687 50.3065 49.9163 50.096 50.13C49.7094 50.5037 49.2246 50.76 48.698 50.869C48.416 50.929 48.092 50.957 47.722 50.957C47.318 50.957 46.946 50.897 46.606 50.781C46.2733 50.6799 45.969 50.5018 45.718 50.261C45.472 50.021 45.278 49.721 45.138 49.365C44.998 49.002 44.938 48.565 44.938 48.082C44.938 47.122 45.275 46.382 45.938 45.867C46.618 45.351 47.638 45.07 49.032 45.023L50.649 44.961V44.355C50.649 43.962 50.605 43.635 50.517 43.371C50.435 43.107 50.312 42.896 50.147 42.738C49.9824 42.5698 49.776 42.4483 49.549 42.386C49.2859 42.3121 49.0134 42.2767 48.74 42.281C48.2777 42.2773 47.8178 42.3482 47.378 42.491C46.9645 42.6307 46.5621 42.8011 46.174 43.001L45.612 41.797C46.046 41.563 46.529 41.363 47.062 41.199C47.6066 41.0333 48.1729 40.9504 48.742 40.953C49.34 40.953 49.855 41.015 50.289 41.138C50.729 41.255 51.089 41.446 51.369 41.708C51.6638 41.9791 51.8848 42.3209 52.011 42.701C52.153 43.104 52.211 43.595 52.211 44.169V50.769H51.061L50.746 49.444ZM48.146 49.664C48.4843 49.6671 48.8204 49.6105 49.139 49.497C49.4363 49.3912 49.7062 49.2204 49.929 48.997C50.152 48.767 50.325 48.484 50.449 48.145C50.579 47.799 50.642 47.395 50.642 46.932V46.062L49.385 46.124C48.858 46.147 48.415 46.206 48.058 46.3C47.701 46.394 47.413 46.526 47.198 46.696C46.998 46.86 46.835 47.062 46.741 47.302C46.6434 47.5572 46.5955 47.8288 46.6 48.102C46.6 48.642 46.74 49.037 47.022 49.289C47.309 49.541 47.684 49.667 48.147 49.667M62.08 47.344C62.08 47.912 61.977 48.422 61.772 48.874C61.5772 49.3139 61.2824 49.7022 60.911 50.008C60.536 50.308 60.079 50.556 59.541 50.72C59.001 50.878 58.395 50.957 57.721 50.957C57.1082 50.9601 56.4963 50.9072 55.893 50.799C55.33 50.699 54.859 50.549 54.478 50.351V48.787L55.155 49.067L55.955 49.304L56.825 49.48C57.1193 49.5203 57.416 49.541 57.713 49.542C58.65 49.542 59.343 49.366 59.787 49.015C60.237 48.663 60.464 48.16 60.464 47.503C60.4698 47.222 60.4251 46.9422 60.332 46.677C60.25 46.443 60.102 46.229 59.884 46.035C59.684 45.835 59.389 45.635 59.031 45.465C58.5923 45.236 58.1401 45.0336 57.677 44.859C57.2039 44.6777 56.7481 44.4541 56.315 44.191C55.935 43.945 55.618 43.669 55.365 43.365C55.119 43.06 54.935 42.715 54.811 42.328C54.694 41.941 54.635 41.502 54.635 41.01C54.635 40.494 54.729 40.035 54.915 39.63C55.0963 39.2334 55.3671 38.8843 55.706 38.61C56.0645 38.3187 56.4766 38.1006 56.919 37.968C57.394 37.822 57.915 37.748 58.483 37.748C59.18 37.748 59.807 37.815 60.363 37.95C60.92 38.08 61.415 38.246 61.848 38.45L61.248 39.82C60.868 39.65 60.434 39.504 59.948 39.38C59.4607 39.2503 58.9584 39.1854 58.454 39.187C57.739 39.187 57.184 39.354 56.794 39.687C56.5991 39.8495 56.4437 40.0542 56.3398 40.2857C56.2358 40.5172 56.186 40.7693 56.194 41.023C56.194 41.357 56.238 41.647 56.326 41.893C56.4204 42.1432 56.5706 42.3685 56.765 42.552C56.97 42.745 57.24 42.93 57.565 43.106C57.905 43.276 58.321 43.458 58.813 43.651C59.2926 43.8364 59.7593 44.0535 60.21 44.301C60.5834 44.5004 60.9243 44.7553 61.221 45.057C61.49 45.3357 61.6966 45.6684 61.827 46.033C61.967 46.403 62.042 46.855 62.042 47.359M67.996 50.956C67.404 50.956 66.85 50.856 66.336 50.683C65.8248 50.4993 65.3641 50.1978 64.991 49.803C64.611 49.399 64.311 48.886 64.095 48.265C63.878 47.638 63.77 46.885 63.77 46.005C63.77 45.085 63.87 44.305 64.104 43.667C64.327 43.022 64.631 42.501 65.018 42.103C65.3997 41.7066 65.8689 41.4052 66.388 41.223C66.908 41.04 67.468 40.95 68.068 40.95C68.5176 40.9491 68.9658 40.9991 69.404 41.099C69.7836 41.1783 70.1525 41.3021 70.503 41.468L70.028 42.822C69.893 42.762 69.744 42.708 69.58 42.655C69.4161 42.5965 69.2492 42.5464 69.08 42.505C68.904 42.458 68.73 42.423 68.56 42.4C68.4006 42.3718 68.239 42.3571 68.077 42.356C67.157 42.356 66.477 42.652 66.064 43.244C65.642 43.83 65.431 44.744 65.431 45.986C65.431 47.222 65.631 48.128 66.064 48.702C66.492 49.27 67.139 49.554 68.006 49.554C68.4389 49.5592 68.8704 49.506 69.289 49.396C69.6501 49.2941 70.0028 49.1647 70.344 49.009V50.433C70.0223 50.6057 69.6794 50.7358 69.324 50.82C68.967 50.908 68.504 50.952 67.982 50.952M76.752 40.954L77.322 40.98C77.5049 40.9884 77.687 41.0091 77.867 41.042L77.667 42.519L77.167 42.449C76.997 42.425 76.837 42.414 76.684 42.414C76.314 42.414 75.978 42.49 75.684 42.642C75.3746 42.7924 75.1039 43.0121 74.893 43.284C74.6629 43.5823 74.493 43.9227 74.393 44.286C74.2713 44.7057 74.212 45.141 74.217 45.578V50.781H72.617V41.131H73.917L74.11 42.898H74.18L74.646 42.168C74.8085 41.9413 74.9975 41.7348 75.209 41.553C75.4184 41.3721 75.6559 41.2266 75.912 41.122C76.2001 41.0073 76.508 40.9506 76.818 40.955M81.268 50.78H79.668V41.13H81.268V50.78ZM79.808 37.755C79.9933 37.5954 80.2316 37.5109 80.476 37.518C80.5988 37.5164 80.7209 37.5374 80.836 37.58C80.9489 37.6126 81.0517 37.6732 81.135 37.756C81.2265 37.8438 81.2957 37.9521 81.337 38.072C81.39 38.195 81.417 38.345 81.417 38.52C81.417 38.86 81.323 39.115 81.137 39.285C80.955 39.449 80.737 39.531 80.477 39.531C80.217 39.531 79.984 39.408 79.802 39.243C79.626 39.079 79.542 38.823 79.544 38.499C79.545 38.169 79.643 37.913 79.808 37.755ZM88.584 50.955C88.2671 50.9587 87.951 50.9203 87.644 50.841C87.364 50.765 87.108 50.665 86.879 50.541C86.6622 50.4166 86.4613 50.2662 86.281 50.093C86.1144 49.927 85.9616 49.7477 85.824 49.557H85.719L85.772 50.127L85.807 50.602L85.825 50.98V55.102H84.225V41.13H85.525L85.755 42.43H85.825C85.9592 42.2258 86.1122 42.0346 86.282 41.859C86.4543 41.6754 86.6528 41.5184 86.871 41.393C87.1107 41.2537 87.368 41.1474 87.636 41.077C87.945 40.9913 88.2645 40.9499 88.585 40.954C89.135 40.954 89.637 41.059 90.088 41.27C90.539 41.481 90.923 41.797 91.238 42.22C91.56 42.636 91.808 43.155 91.985 43.776C92.162 44.397 92.249 45.118 92.249 45.938C92.249 46.764 92.161 47.491 91.985 48.118C91.809 48.738 91.56 49.261 91.238 49.682C90.922 50.104 90.538 50.422 90.088 50.64C89.638 50.84 89.025 50.956 88.474 50.956M88.277 42.281C87.832 42.281 87.454 42.348 87.143 42.483C86.838 42.618 86.589 42.823 86.396 43.098C86.203 43.373 86.068 43.716 85.974 44.126C85.8791 44.6036 85.8292 45.0891 85.825 45.576V45.936C85.8204 46.4655 85.8585 46.9946 85.939 47.518C86.021 47.975 86.156 48.362 86.343 48.678C86.5281 48.9808 86.7927 49.2271 87.108 49.39C87.424 49.548 87.82 49.627 88.295 49.627C89.095 49.627 89.665 49.307 90.035 48.669C90.41 48.029 90.597 47.113 90.598 45.919C90.598 44.699 90.41 43.789 90.036 43.186C89.662 42.583 89.08 42.281 88.277 42.281ZM97.59 49.646C97.695 49.646 97.813 49.636 97.942 49.628L98.329 49.584L98.663 49.522L98.9 49.46V50.673C98.824 50.708 98.727 50.743 98.6 50.778C98.4729 50.8151 98.3437 50.8445 98.213 50.866C98.073 50.896 97.926 50.916 97.773 50.928C97.6244 50.9455 97.4748 50.9541 97.325 50.954C96.962 50.954 96.625 50.907 96.325 50.814C96.0191 50.7228 95.7407 50.5568 95.515 50.331C95.292 50.101 95.117 49.795 94.988 49.408C94.858 49.015 94.795 48.523 94.795 47.931V42.331H93.433V41.619L94.795 40.933L95.481 38.911H96.404V41.126H98.83V42.33H96.404V47.93C96.404 48.498 96.504 48.926 96.676 49.213C96.848 49.5 97.168 49.643 97.59 49.643" fill="white"/>
<path d="M20.302 54.138L20.395 53.6467L20.3873 53.6453L20.3796 53.644L20.302 54.138ZM19.722 53.988H19.222V54.3277L19.5378 54.4528L19.722 53.988ZM19.722 52.58L19.8486 52.0963L19.222 51.9323V52.58H19.722ZM20.364 52.703L20.4376 52.2083L20.4252 52.2067L20.364 52.703ZM21.102 52.756L21.1005 52.256L21.1 52.256L21.102 52.756ZM21.752 52.668L21.6384 52.1811L21.6294 52.1832L21.6205 52.1856L21.752 52.668ZM22.35 52.369L22.0358 51.98L22.0287 51.9859L22.35 52.369ZM22.957 37.93V37.43H22.457V37.93H22.957ZM24.6 37.93H25.1V37.43H24.6V37.93ZM24.336 52.204L23.8699 52.0225L23.8654 52.0353L24.336 52.204ZM23.615 53.32L23.2678 52.9602L23.2667 52.9613L23.615 53.32ZM22.508 53.979L22.3587 53.5016L22.3456 53.5061L22.508 53.979ZM32.77 49.444L33.2552 49.3232L33.1608 48.944H32.77V49.444ZM32.7 49.444V48.944H32.4445L32.2948 49.1511L32.7 49.444ZM32.12 50.13L32.4676 50.4896L32.4763 50.4809L32.12 50.13ZM30.722 50.869L30.6207 50.3794L30.618 50.3799L30.722 50.869ZM28.63 50.781L28.7915 50.3078L28.7834 50.305L28.7753 50.3026L28.63 50.781ZM27.742 50.261L27.3929 50.6189L27.3959 50.6218L27.742 50.261ZM27.162 49.365L26.6955 49.5449L26.6967 49.548L27.162 49.365ZM27.962 45.867L27.6598 45.4687L27.6553 45.4721L27.962 45.867ZM31.056 45.023L31.0729 45.5227L31.0752 45.5226L31.056 45.023ZM32.673 44.961L32.6922 45.4606L33.173 45.4422V44.961H32.673ZM32.541 43.371L32.0634 43.5193L32.0667 43.5291L32.541 43.371ZM32.171 42.738L31.8138 43.0878L31.8194 43.0936L31.8252 43.0991L32.171 42.738ZM31.573 42.386L31.4379 42.8674L31.4406 42.8681L31.573 42.386ZM30.764 42.281L30.7601 42.7811L30.7718 42.7809L30.764 42.281ZM29.402 42.491L29.2476 42.0154L29.2421 42.0173L29.402 42.491ZM28.198 43.001L27.745 43.2125L27.9649 43.6835L28.427 43.4455L28.198 43.001ZM27.636 41.797L27.3988 41.3569L26.9834 41.5809L27.183 42.0085L27.636 41.797ZM29.086 41.199L28.9405 40.7207L28.939 40.7211L29.086 41.199ZM30.765 40.953L30.7628 41.453H30.765V40.953ZM32.312 41.138L32.1757 41.6191L32.1836 41.6212L32.312 41.138ZM33.392 41.708L33.0504 42.0731L33.0536 42.076L33.392 41.708ZM34.034 42.701L33.5595 42.8586L33.5625 42.8672L34.034 42.701ZM34.234 50.769V51.269H34.734V50.769H34.234ZM33.1 50.769L32.6149 50.8898L32.7093 51.269H33.1V50.769ZM31.163 49.492L30.9954 49.0209L30.9952 49.021L31.163 49.492ZM31.953 48.992L32.307 49.3451L32.3105 49.3416L31.953 48.992ZM32.473 48.14L32.005 47.9641L32.0035 47.9682L32.473 48.14ZM32.666 46.057H33.166V45.5317L32.6414 45.5576L32.666 46.057ZM31.409 46.119L31.4308 46.6185L31.4337 46.6184L31.409 46.119ZM29.222 46.691L28.9119 46.2987L28.905 46.3044L29.222 46.691ZM28.765 47.297L28.2995 47.1146L28.2981 47.1183L28.765 47.297ZM28.624 48.097H29.1241L29.124 48.0887L28.624 48.097ZM35.588 41.13V40.63H34.8896L35.1147 41.2912L35.588 41.13ZM37.24 41.13L37.7152 40.9743L37.6023 40.63H37.24V41.13ZM39 46.5L39.478 46.3528L39.4752 46.3443L39 46.5ZM39.23 47.247L39.7112 47.1107L39.7079 47.0999L39.23 47.247ZM39.494 48.179L39.9775 48.0511L39.9751 48.0427L39.494 48.179ZM39.731 49.075L40.2179 48.9612L40.2163 48.9542L40.2144 48.9471L39.731 49.075ZM39.881 49.717L39.3942 49.8308L39.4844 50.217H39.881V49.717ZM39.943 49.717V50.217H40.3397L40.4299 49.8307L39.943 49.717ZM40.093 49.075L39.6097 48.9471L39.6078 48.9542L39.6062 48.9612L40.093 49.075ZM40.33 48.179L39.8489 48.0427L39.8467 48.0511L40.33 48.179ZM40.594 47.247L40.1161 47.0998L40.113 47.1107L40.594 47.247ZM40.824 46.5L40.3486 46.345L40.3462 46.3529L40.824 46.5ZM42.574 41.13V40.63H42.2111L42.0987 40.9751L42.574 41.13ZM44.2 41.13L44.6732 41.2916L44.8992 40.63H44.2V41.13ZM40.904 50.78V51.28H41.2616L41.3772 50.9416L40.904 50.78ZM38.874 50.78L38.4007 50.9412L38.5161 51.28H38.874V50.78ZM50.746 49.444L51.2325 49.3283L51.1411 48.944H50.746V49.444ZM50.676 49.444V48.944H50.4205L50.2708 49.1511L50.676 49.444ZM50.096 50.13L50.4436 50.4896L50.4523 50.4809L50.096 50.13ZM48.698 50.869L48.5967 50.3794L48.594 50.3799L48.698 50.869ZM46.606 50.781L46.7675 50.3078L46.7594 50.305L46.7513 50.3026L46.606 50.781ZM45.718 50.261L45.3689 50.6189L45.3719 50.6218L45.718 50.261ZM45.138 49.365L44.6715 49.5449L44.6727 49.548L45.138 49.365ZM45.938 45.867L45.6358 45.4687L45.6313 45.4721L45.938 45.867ZM49.032 45.023L49.0489 45.5227L49.0512 45.5226L49.032 45.023ZM50.649 44.961L50.6682 45.4606L51.149 45.4422V44.961H50.649ZM50.517 43.371L50.0394 43.5193L50.0427 43.5291L50.517 43.371ZM50.147 42.738L49.7898 43.0878L49.7954 43.0936L49.8012 43.0991L50.147 42.738ZM49.549 42.386L49.4139 42.8674L49.4166 42.8681L49.549 42.386ZM48.74 42.281L48.7361 42.7811L48.7478 42.7809L48.74 42.281ZM47.378 42.491L47.2236 42.0154L47.2181 42.0173L47.378 42.491ZM46.174 43.001L45.721 43.2125L45.9409 43.6835L46.403 43.4455L46.174 43.001ZM45.612 41.797L45.3748 41.3569L44.9594 41.5809L45.159 42.0085L45.612 41.797ZM47.062 41.199L46.9165 40.7207L46.915 40.7211L47.062 41.199ZM48.742 40.953L48.7397 41.453H48.742L48.742 40.953ZM50.289 41.138L50.1527 41.6191L50.1606 41.6212L50.289 41.138ZM51.369 41.708L51.0274 42.0731L51.0306 42.076L51.369 41.708ZM52.011 42.701L51.5365 42.8586L51.5395 42.8672L52.011 42.701ZM52.211 50.769V51.269H52.711V50.769H52.211ZM51.061 50.769L50.5746 50.8846L50.666 51.269H51.061V50.769ZM49.139 49.497L48.9714 49.0259L48.9712 49.026L49.139 49.497ZM49.929 48.997L50.2831 49.3502L50.288 49.345L49.929 48.997ZM50.449 48.145L49.981 47.9691L49.9795 47.9732L50.449 48.145ZM50.642 46.062H51.142V45.5367L50.6174 45.5626L50.642 46.062ZM49.385 46.124L49.4068 46.6235L49.4097 46.6234L49.385 46.124ZM47.198 46.696L46.8879 46.3037L46.881 46.3094L47.198 46.696ZM46.741 47.302L46.2755 47.1196L46.2741 47.1233L46.741 47.302ZM46.6 48.102H47.1001L47.1 48.0937L46.6 48.102ZM47.022 49.289L46.6889 49.6618L46.6921 49.6647L47.022 49.289ZM61.772 48.874L61.3167 48.6675L61.3149 48.6715L61.772 48.874ZM60.911 50.008L61.2234 50.3985L61.2289 50.394L60.911 50.008ZM59.541 50.72L59.6815 51.1999L59.6868 51.1983L59.541 50.72ZM57.721 50.957L57.721 50.457L57.7185 50.457L57.721 50.957ZM55.893 50.799L55.9814 50.3068L55.9805 50.3067L55.893 50.799ZM54.478 50.351H53.978V50.6546L54.2475 50.7947L54.478 50.351ZM54.478 48.787L54.6691 48.3249L53.978 48.0391V48.787H54.478ZM55.155 49.067L54.9639 49.529L54.988 49.539L55.013 49.5464L55.155 49.067ZM55.955 49.304L55.813 49.7834L55.8342 49.7897L55.8559 49.7941L55.955 49.304ZM56.825 49.48L56.7259 49.9701L56.7415 49.9732L56.7572 49.9754L56.825 49.48ZM57.713 49.542L57.7114 50.042H57.713V49.542ZM59.787 49.015L59.479 48.6212L59.477 48.6228L59.787 49.015ZM60.464 47.503L59.964 47.4928V47.503H60.464ZM60.332 46.677L59.8602 46.8423L59.8602 46.8425L60.332 46.677ZM59.884 46.035L59.5305 46.3885L59.5408 46.3988L59.5517 46.4085L59.884 46.035ZM59.031 45.465L58.7997 45.9083L58.8081 45.9126L58.8166 45.9167L59.031 45.465ZM57.677 44.859L57.4981 45.3259L57.5006 45.3268L57.677 44.859ZM56.315 44.191L56.0433 44.6107L56.0493 44.6146L56.0554 44.6183L56.315 44.191ZM55.365 43.365L54.9758 43.6789L54.9807 43.6848L55.365 43.365ZM54.811 42.328L54.3324 42.4727L54.3349 42.4806L54.811 42.328ZM54.915 39.63L55.3694 39.8387L55.3698 39.8378L54.915 39.63ZM55.706 38.61L56.0206 38.9987L56.0214 38.998L55.706 38.61ZM56.919 37.968L57.0626 38.447L57.0659 38.4459L56.919 37.968ZM60.363 37.95L60.2451 38.4359L60.2494 38.4369L60.363 37.95ZM61.848 38.45L62.306 38.6506L62.5012 38.205L62.0611 37.9977L61.848 38.45ZM61.248 39.82L61.0439 40.2764L61.5039 40.4822L61.706 40.0206L61.248 39.82ZM59.948 39.38L59.8195 39.8632L59.8244 39.8645L59.948 39.38ZM58.454 39.187L58.454 39.687L58.4556 39.687L58.454 39.187ZM56.794 39.687L57.1142 40.0711L57.1187 40.0672L56.794 39.687ZM56.194 41.023L56.694 41.023V41.015L56.6938 41.0071L56.194 41.023ZM56.326 41.893L55.8552 42.0614L55.8582 42.0695L56.326 41.893ZM56.765 42.552L56.4219 42.9157L56.4223 42.916L56.765 42.552ZM57.565 43.106L57.3269 43.5457L57.3341 43.5496L57.3414 43.5532L57.565 43.106ZM58.813 43.651L58.6305 44.1165L58.6328 44.1174L58.813 43.651ZM60.21 44.301L59.9694 44.7393L59.9745 44.742L60.21 44.301ZM61.221 45.057L61.5808 44.7098L61.5775 44.7064L61.221 45.057ZM61.827 46.033L61.3562 46.2015L61.3594 46.2099L61.827 46.033ZM66.336 50.683L66.1669 51.1536L66.1765 51.1569L66.336 50.683ZM64.991 49.803L64.6268 50.1456L64.6276 50.1464L64.991 49.803ZM64.095 48.265L63.6225 48.4285L63.6228 48.4293L64.095 48.265ZM64.104 43.667L64.5735 43.8392L64.5766 43.8304L64.104 43.667ZM65.018 42.103L65.3765 42.4516L65.3782 42.4498L65.018 42.103ZM66.388 41.223L66.5536 41.6948L66.554 41.6946L66.388 41.223ZM68.068 40.95V41.45L68.069 41.45L68.068 40.95ZM69.404 41.099L69.2929 41.5866L69.3018 41.5884L69.404 41.099ZM70.503 41.468L70.9749 41.6335L71.1239 41.2086L70.7169 41.016L70.503 41.468ZM70.028 42.822L69.825 43.2789L70.3204 43.4991L70.4999 42.9875L70.028 42.822ZM69.58 42.655L69.4121 43.1259L69.4191 43.1284L69.4263 43.1308L69.58 42.655ZM69.08 42.505L68.951 42.9882L68.9611 42.9906L69.08 42.505ZM68.56 42.4L68.4729 42.8923L68.4829 42.8941L68.493 42.8955L68.56 42.4ZM68.077 42.356L68.0803 41.856H68.077V42.356ZM66.064 43.244L66.4698 43.5362L66.4741 43.5301L66.064 43.244ZM66.064 48.702L66.4634 48.4011L66.4632 48.4009L66.064 48.702ZM68.006 49.554L68.012 49.054H68.006V49.554ZM69.289 49.396L69.4162 49.8796L69.4249 49.8772L69.289 49.396ZM70.344 49.009H70.844V48.2312L70.1365 48.5541L70.344 49.009ZM70.344 50.433L70.5805 50.8736L70.844 50.7321V50.433H70.344ZM69.324 50.82L69.2087 50.3334L69.2044 50.3345L69.324 50.82ZM77.322 40.98L77.345 40.4805L77.3448 40.4805L77.322 40.98ZM77.867 41.042L78.3625 41.1091L78.4266 40.6359L77.9569 40.5501L77.867 41.042ZM77.667 42.519L77.5977 43.0142L78.0951 43.0838L78.1625 42.5861L77.667 42.519ZM77.167 42.449L77.0972 42.9441L77.0977 42.9442L77.167 42.449ZM75.684 42.642L75.9027 43.0918L75.9137 43.0861L75.684 42.642ZM74.893 43.284L74.4979 42.9776L74.4972 42.9786L74.893 43.284ZM74.393 44.286L74.8733 44.4253L74.8751 44.4187L74.393 44.286ZM74.217 45.578H74.7171L74.717 45.5722L74.217 45.578ZM74.217 50.781V51.281H74.717V50.781H74.217ZM72.617 50.781H72.117V51.281H72.617V50.781ZM72.617 41.131V40.631H72.117V41.131H72.617ZM73.917 41.131L74.4141 41.0767L74.3654 40.631H73.917V41.131ZM74.11 42.898L73.613 42.9523L73.6617 43.398H74.11V42.898ZM74.18 42.898V43.398H74.4541L74.6015 43.167L74.18 42.898ZM74.646 42.168L74.2397 41.8767L74.2318 41.8876L74.2246 41.899L74.646 42.168ZM75.209 41.553L75.535 41.9321L75.5359 41.9314L75.209 41.553ZM75.912 41.122L75.7272 40.6574L75.7231 40.6591L75.912 41.122ZM81.268 50.78V51.28H81.768V50.78H81.268ZM79.668 50.78H79.168V51.28H79.668V50.78ZM79.668 41.13V40.63H79.168V41.13H79.668ZM81.268 41.13H81.768V40.63H81.268V41.13ZM79.808 37.755L79.4818 37.3761L79.4718 37.3847L79.4622 37.3939L79.808 37.755ZM80.476 37.518L80.4615 38.0178L80.4721 38.0181L80.4826 38.0179L80.476 37.518ZM80.836 37.58L80.6626 38.049L80.6797 38.0553L80.6971 38.0603L80.836 37.58ZM81.135 37.756L80.7825 38.1106L80.7886 38.1165L81.135 37.756ZM81.337 38.072L80.8644 38.235L80.8705 38.2527L80.8779 38.2699L81.337 38.072ZM81.137 39.285L81.4718 39.6564L81.4744 39.6541L81.137 39.285ZM79.802 39.243L79.4612 39.6088L79.4662 39.6134L79.802 39.243ZM79.544 38.499L80.044 38.5021L80.044 38.5005L79.544 38.499ZM87.644 50.841L87.5131 51.3236L87.5189 51.3251L87.644 50.841ZM86.879 50.541L86.6303 50.9749L86.641 50.9807L86.879 50.541ZM86.281 50.093L85.9281 50.4473L85.9346 50.4536L86.281 50.093ZM85.824 49.557L86.2296 49.2645L86.0799 49.057H85.824V49.557ZM85.719 49.557V49.057H85.1704L85.2212 49.6033L85.719 49.557ZM85.772 50.127L86.2708 50.0902L86.2699 50.0807L85.772 50.127ZM85.807 50.602L86.3066 50.5782L86.3057 50.5653L85.807 50.602ZM85.825 50.98H86.325V50.9681L86.3245 50.9562L85.825 50.98ZM85.825 55.102V55.602H86.325V55.102H85.825ZM84.225 55.102H83.725V55.602H84.225V55.102ZM84.225 41.13V40.63H83.725V41.13H84.225ZM85.525 41.13L86.0174 41.0429L85.9444 40.63H85.525V41.13ZM85.755 42.43L85.2627 42.5171L85.3357 42.93H85.755V42.43ZM85.825 42.43V42.93H86.0948L86.2429 42.7045L85.825 42.43ZM86.282 41.859L86.6415 42.2066L86.6466 42.2011L86.282 41.859ZM86.871 41.393L87.1202 41.8265L87.1223 41.8253L86.871 41.393ZM87.636 41.077L87.7631 41.5606L87.7697 41.5588L87.636 41.077ZM88.585 40.954L88.5787 41.454H88.585V40.954ZM91.238 42.22L90.837 42.5187L90.8427 42.526L91.238 42.22ZM91.985 48.118L92.466 48.2545L92.4664 48.2531L91.985 48.118ZM91.238 49.682L90.8409 49.3782L90.8378 49.3823L91.238 49.682ZM90.088 50.64L90.2911 51.0969L90.2986 51.0936L90.306 51.09L90.088 50.64ZM87.143 42.483L86.9439 42.0243L86.9407 42.0258L87.143 42.483ZM85.974 44.126L85.4867 44.0143L85.4851 44.0214L85.4836 44.0285L85.974 44.126ZM85.825 45.576L85.325 45.5717V45.576H85.825ZM85.825 45.936L86.325 45.9404V45.936H85.825ZM85.939 47.518L85.4447 47.5941L85.4469 47.6063L85.939 47.518ZM86.343 48.678L85.9127 48.9327L85.9164 48.9387L86.343 48.678ZM87.108 49.39L86.8786 49.8343L86.8844 49.8372L87.108 49.39ZM90.035 48.669L89.6036 48.4162L89.6025 48.4182L90.035 48.669ZM90.598 45.919L91.098 45.9194V45.919H90.598ZM97.942 49.628L97.973 50.127L97.9858 50.1262L97.9985 50.1248L97.942 49.628ZM98.329 49.584L98.3855 50.0808L98.403 50.0788L98.4203 50.0756L98.329 49.584ZM98.663 49.522L98.7543 50.0136L98.7721 50.0103L98.7896 50.0057L98.663 49.522ZM98.9 49.46H99.4V48.8124L98.7735 48.9763L98.9 49.46ZM98.9 50.673L99.1092 51.1271L99.4 50.9932V50.673H98.9ZM98.6 50.778L98.4672 50.2959L98.46 50.298L98.6 50.778ZM98.213 50.866L98.1318 50.3726L98.12 50.3746L98.1083 50.3771L98.213 50.866ZM97.773 50.928L97.734 50.4295L97.7243 50.4303L97.7147 50.4314L97.773 50.928ZM97.325 50.954L97.3255 50.454H97.325L97.325 50.954ZM96.325 50.814L96.4731 50.3364L96.4678 50.3348L96.325 50.814ZM95.515 50.331L95.156 50.6791L95.1613 50.6844L95.515 50.331ZM94.988 49.408L94.5133 49.565L94.5137 49.5661L94.988 49.408ZM94.795 42.331H95.295V41.831H94.795V42.331ZM93.433 42.331H92.933V42.831H93.433V42.331ZM93.433 41.619L93.2081 41.1724L92.933 41.311V41.619H93.433ZM94.795 40.933L95.02 41.3795L95.2028 41.2875L95.2685 41.0936L94.795 40.933ZM95.481 38.911V38.411H95.1227L95.0076 38.7503L95.481 38.911ZM96.404 38.911H96.904V38.411H96.404V38.911ZM96.404 41.126H95.904V41.626H96.404V41.126ZM98.83 41.126H99.33V40.626H98.83V41.126ZM98.83 42.33V42.83H99.33V42.33H98.83ZM96.404 42.33V41.83H95.904V42.33H96.404ZM21.084 53.7C20.8044 53.7 20.5773 53.6812 20.395 53.6467L20.2091 54.6293C20.4708 54.6788 20.7637 54.7 21.084 54.7V53.7ZM20.3796 53.644C20.1837 53.6133 20.0281 53.5714 19.9063 53.5232L19.5378 54.4528C19.744 54.5345 19.9743 54.5927 20.2245 54.6319L20.3796 53.644ZM20.222 53.988V52.58H19.222V53.988H20.222ZM19.5955 53.0637C19.828 53.1245 20.0643 53.1698 20.3029 53.1992L20.4252 52.2067C20.2308 52.1828 20.0381 52.1459 19.8486 52.0963L19.5955 53.0637ZM20.2905 53.1976C20.5599 53.2376 20.8318 53.2571 21.1041 53.256L21.1 52.256C20.8783 52.2569 20.6568 52.241 20.4376 52.2084L20.2905 53.1976ZM21.1035 53.256C21.3671 53.2552 21.6293 53.2197 21.8835 53.1504L21.6205 52.1856C21.4511 52.2318 21.2762 52.2555 21.1005 52.256L21.1035 53.256ZM21.8657 53.1549C22.1622 53.0857 22.4381 52.9477 22.6714 52.7521L22.0287 51.9859C21.9157 52.0807 21.782 52.1476 21.6384 52.1811L21.8657 53.1549ZM22.6642 52.758C22.9213 52.5503 23.1112 52.2764 23.2481 51.9634L22.332 51.5626C22.2449 51.7616 22.1428 51.8937 22.0359 51.98L22.6642 52.758ZM23.2481 51.9634C23.3974 51.6222 23.457 51.2171 23.457 50.779H22.457C22.457 51.1369 22.4067 51.3918 22.332 51.5626L23.2481 51.9634ZM23.457 50.779V37.93H22.457V50.779H23.457ZM22.957 38.43H24.6V37.43H22.957V38.43ZM24.1 37.93V50.604H25.1V37.93H24.1ZM24.1 50.604C24.1 51.1728 24.0185 51.6416 23.8701 52.0226L24.802 52.3854C25.0056 51.8624 25.1 51.2652 25.1 50.604H24.1ZM23.8654 52.0353C23.7399 52.3854 23.5354 52.7019 23.2678 52.9602L23.9623 53.6798C24.3405 53.3147 24.6294 52.8675 24.8067 52.3727L23.8654 52.0353ZM23.2667 52.9613C23.0106 53.2101 22.6996 53.3952 22.3588 53.5018L22.6573 54.4562C23.1475 54.3029 23.5949 54.0365 23.9634 53.6787L23.2667 52.9613ZM22.3456 53.5061C21.9862 53.6295 21.4612 53.699 20.975 53.699V54.699C21.5309 54.699 22.1739 54.6224 22.6705 54.4519L22.3456 53.5061ZM32.77 48.944H32.7V49.944H32.77V48.944ZM32.2948 49.1511C32.134 49.3736 31.9565 49.5835 31.7638 49.7791L32.4763 50.4809C32.7045 50.2492 32.9147 50.0005 33.1053 49.7369L32.2948 49.1511ZM31.7726 49.7705C31.454 50.0784 31.0545 50.2896 30.6207 50.3794L30.8234 51.3586C31.4427 51.2304 32.0128 50.929 32.4675 50.4895L31.7726 49.7705ZM30.618 50.3799C30.3798 50.4306 30.0925 50.457 29.746 50.457V51.457C30.1396 51.457 30.5003 51.4274 30.8261 51.358L30.618 50.3799ZM29.746 50.457C29.3921 50.457 29.0751 50.4045 28.7915 50.3078L28.4686 51.2542C28.865 51.3895 29.292 51.457 29.746 51.457V50.457ZM28.7753 50.3026C28.5178 50.2244 28.2824 50.0865 28.0882 49.9002L27.3959 50.6218C27.7036 50.9171 28.0767 51.1355 28.4848 51.2594L28.7753 50.3026ZM28.0912 49.9031C27.9015 49.718 27.7445 49.4799 27.6274 49.182L26.6967 49.548C26.8596 49.9621 27.0906 50.324 27.3929 50.6189L28.0912 49.9031ZM27.6286 49.1851C27.5182 48.899 27.462 48.5286 27.462 48.082H26.462C26.462 48.6013 26.5259 49.105 26.6955 49.5449L27.6286 49.1851ZM27.462 48.082C27.462 47.2532 27.7449 46.6688 28.2688 46.2619L27.6553 45.4721C26.8532 46.0952 26.462 46.9908 26.462 48.082H27.462ZM28.2643 46.2653C28.8253 45.8396 29.7241 45.5682 31.0729 45.5227L31.0392 44.5233C29.6 44.5718 28.4588 44.8624 27.6598 45.4687L28.2643 46.2653ZM31.0752 45.5226L32.6922 45.4606L32.6539 44.4614L31.0369 44.5234L31.0752 45.5226ZM33.173 44.961V44.355H32.173V44.961H33.173ZM33.173 44.355C33.173 43.9283 33.1257 43.5439 33.0154 43.2129L32.0667 43.5291C32.1323 43.726 32.173 43.9956 32.173 44.355H33.173ZM33.0185 43.2227C32.9169 42.8953 32.7551 42.605 32.5169 42.3769L31.8252 43.0991C31.917 43.187 32.0012 43.3187 32.0635 43.5193L33.0185 43.2227ZM32.5283 42.3882C32.3017 42.1568 32.0178 41.9896 31.7055 41.9039L31.4406 42.8681C31.5822 42.907 31.711 42.9828 31.8138 43.0878L32.5283 42.3882ZM31.7082 41.9046C31.3985 41.8177 31.0779 41.776 30.7563 41.7811L30.7718 42.7809C30.9969 42.7774 31.2212 42.8065 31.4379 42.8674L31.7082 41.9046ZM30.768 41.781C30.2519 41.7769 29.7385 41.8561 29.2477 42.0154L29.5564 42.9666C29.9451 42.8404 30.3515 42.7777 30.7601 42.781L30.768 41.781ZM29.2421 42.0173C28.8049 42.1649 28.3793 42.3452 27.9691 42.5565L28.427 43.4455C28.7928 43.2571 29.1722 43.0964 29.562 42.9647L29.2421 42.0173ZM28.6511 42.7895L28.0891 41.5855L27.183 42.0085L27.745 43.2125L28.6511 42.7895ZM27.8733 42.2371C28.2757 42.0202 28.7281 41.8323 29.2331 41.6769L28.939 40.7211C28.378 40.8937 27.8644 41.1058 27.3988 41.3569L27.8733 42.2371ZM29.2316 41.6773C29.7279 41.5263 30.2441 41.4507 30.7628 41.453L30.7673 40.453C30.1484 40.4502 29.5326 40.5405 28.9405 40.7207L29.2316 41.6773ZM30.765 41.453C31.3305 41.453 31.7975 41.5118 32.1757 41.619L32.4484 40.6569C31.9586 40.5181 31.3956 40.453 30.765 40.453V41.453ZM32.1836 41.6212C32.5576 41.7207 32.8402 41.8764 33.0504 42.0731L33.7337 41.3429C33.3839 41.0156 32.9465 40.7893 32.4405 40.6548L32.1836 41.6212ZM33.0536 42.076C33.2859 42.2897 33.46 42.559 33.5595 42.8586L34.5086 42.5434C34.3555 42.0827 34.0878 41.6686 33.7305 41.34L33.0536 42.076ZM33.5625 42.8672C33.678 43.195 33.734 43.6227 33.734 44.169H34.734C34.734 43.5673 34.6741 43.013 34.5056 42.5348L33.5625 42.8672ZM33.734 44.169V50.769H34.734V44.169H33.734ZM34.234 50.269H33.1V51.269H34.234V50.269ZM33.5852 50.6482L33.2552 49.3232L32.2849 49.5648L32.6149 50.8898L33.5852 50.6482ZM30.1655 50.159C30.5625 50.1626 30.9569 50.0962 31.3309 49.963L30.9952 49.021C30.7319 49.1148 30.4541 49.1616 30.1746 49.159L30.1655 50.159ZM31.3307 49.963C31.6981 49.8323 32.0316 49.6212 32.307 49.3451L31.5991 48.6389C31.4288 48.8096 31.2225 48.9401 30.9954 49.0209L31.3307 49.963ZM32.3105 49.3416C32.59 49.0558 32.7979 48.7073 32.9426 48.3118L32.0035 47.9682C31.9002 48.2507 31.7621 48.4722 31.5956 48.6424L32.3105 49.3416ZM32.9411 48.3158C33.0973 47.9001 33.166 47.4337 33.166 46.927H32.166C32.166 47.3463 32.1088 47.6878 32.005 47.9641L32.9411 48.3158ZM33.166 46.927V46.057H32.166V46.927H33.166ZM32.6414 45.5576L31.3844 45.6196L31.4337 46.6184L32.6907 46.5564L32.6414 45.5576ZM31.3872 45.6195C30.8381 45.6434 30.3572 45.7055 29.9547 45.8115L30.2094 46.7785C30.5209 46.6965 30.926 46.6405 31.4308 46.6185L31.3872 45.6195ZM29.9547 45.8115C29.554 45.917 29.1968 46.0736 28.9119 46.2988L29.5322 47.0832C29.6773 46.9684 29.8961 46.861 30.2094 46.7785L29.9547 45.8115ZM28.905 46.3044C28.6533 46.5108 28.4309 46.7792 28.2995 47.1146L29.2306 47.4793C29.2872 47.3348 29.3908 47.1992 29.5391 47.0776L28.905 46.3044ZM28.2981 47.1183C28.1776 47.4332 28.1186 47.7682 28.1241 48.1052L29.124 48.0887C29.1205 47.8794 29.1572 47.6712 29.232 47.4757L28.2981 47.1183ZM28.124 48.097C28.124 48.7163 28.2854 49.2748 28.7129 49.6568L29.3792 48.9112C29.2427 48.7892 29.124 48.5577 29.124 48.097H28.124ZM28.7129 49.6568C29.1074 50.0094 29.6163 50.162 30.171 50.162V49.162C29.7997 49.162 29.5487 49.0626 29.3792 48.9112L28.7129 49.6568ZM35.588 41.63H37.24V40.63H35.588V41.63ZM36.7649 41.2857L38.5249 46.6557L39.4752 46.3443L37.7152 40.9743L36.7649 41.2857ZM38.5222 46.6471L38.7522 47.3941L39.7079 47.0999L39.4779 46.3529L38.5222 46.6471ZM38.749 47.3833L39.013 48.3153L39.9751 48.0427L39.7111 47.1107L38.749 47.3833ZM39.0107 48.3068L39.2477 49.2028L40.2144 48.9471L39.9774 48.0511L39.0107 48.3068ZM39.2442 49.1888L39.3942 49.8308L40.3679 49.6032L40.2179 48.9612L39.2442 49.1888ZM39.881 50.217H39.943V49.217H39.881V50.217ZM40.4299 49.8307L40.5799 49.1887L39.6062 48.9612L39.4562 49.6032L40.4299 49.8307ZM40.5764 49.2029L40.8134 48.3069L39.8467 48.0511L39.6097 48.9471L40.5764 49.2029ZM40.8111 48.3153L41.0751 47.3833L40.113 47.1107L39.849 48.0427L40.8111 48.3153ZM41.0719 47.3941L41.3019 46.6471L40.3462 46.3529L40.1162 47.0999L41.0719 47.3941ZM41.2994 46.6549L43.0494 41.2849L42.0987 40.9751L40.3487 46.3451L41.2994 46.6549ZM42.574 41.63H44.2V40.63H42.574V41.63ZM43.7269 40.9684L40.4309 50.6184L41.3772 50.9416L44.6732 41.2916L43.7269 40.9684ZM40.904 50.28H38.874V51.28H40.904V50.28ZM39.3474 50.6188L36.0614 40.9688L35.1147 41.2912L38.4007 50.9412L39.3474 50.6188ZM50.746 48.944H50.676V49.944H50.746V48.944ZM50.2708 49.1511C50.11 49.3736 49.9325 49.5835 49.7398 49.7791L50.4523 50.4809C50.6805 50.2492 50.8907 50.0005 51.0813 49.7369L50.2708 49.1511ZM49.7486 49.7705C49.43 50.0784 49.0305 50.2896 48.5967 50.3794L48.7994 51.3586C49.4187 51.2304 49.9888 50.929 50.4435 50.4895L49.7486 49.7705ZM48.594 50.3799C48.3558 50.4306 48.0685 50.457 47.722 50.457V51.457C48.1156 51.457 48.4763 51.4274 48.8021 51.358L48.594 50.3799ZM47.722 50.457C47.3681 50.457 47.0511 50.4045 46.7675 50.3078L46.4446 51.2542C46.841 51.3895 47.268 51.457 47.722 51.457V50.457ZM46.7513 50.3026C46.4938 50.2244 46.2584 50.0865 46.0642 49.9002L45.3719 50.6218C45.6796 50.9171 46.0527 51.1355 46.4608 51.2594L46.7513 50.3026ZM46.0672 49.9031C45.8775 49.718 45.7205 49.4799 45.6034 49.182L44.6727 49.548C44.8356 49.9621 45.0666 50.324 45.3689 50.6189L46.0672 49.9031ZM45.6046 49.1851C45.4942 48.899 45.438 48.5286 45.438 48.082H44.438C44.438 48.6013 44.5019 49.105 44.6715 49.5449L45.6046 49.1851ZM45.438 48.082C45.438 47.2532 45.7209 46.6688 46.2448 46.2619L45.6313 45.4721C44.8292 46.0952 44.438 46.9908 44.438 48.082H45.438ZM46.2403 46.2653C46.8013 45.8396 47.7001 45.5682 49.0489 45.5227L49.0152 44.5233C47.576 44.5718 46.4348 44.8624 45.6358 45.4687L46.2403 46.2653ZM49.0512 45.5226L50.6682 45.4606L50.6299 44.4614L49.0129 44.5234L49.0512 45.5226ZM51.149 44.961V44.355H50.149V44.961H51.149ZM51.149 44.355C51.149 43.9283 51.1017 43.5439 50.9914 43.2129L50.0427 43.5291C50.1083 43.726 50.149 43.9956 50.149 44.355H51.149ZM50.9945 43.2227C50.8928 42.8953 50.7311 42.605 50.4929 42.3769L49.8012 43.0991C49.893 43.187 49.9772 43.3187 50.0395 43.5193L50.9945 43.2227ZM50.5043 42.3882C50.2777 42.1568 49.9938 41.9896 49.6815 41.9039L49.4166 42.8681C49.5582 42.907 49.687 42.9828 49.7898 43.0878L50.5043 42.3882ZM49.6842 41.9046C49.3745 41.8177 49.0539 41.776 48.7323 41.7811L48.7478 42.7809C48.9729 42.7774 49.1972 42.8065 49.4139 42.8674L49.6842 41.9046ZM48.744 41.781C48.2279 41.7769 47.7145 41.8561 47.2237 42.0154L47.5324 42.9666C47.9211 42.8404 48.3275 42.7777 48.7361 42.781L48.744 41.781ZM47.2181 42.0173C46.7808 42.1649 46.3553 42.3452 45.9451 42.5565L46.403 43.4455C46.7688 43.2571 47.1482 43.0964 47.538 42.9647L47.2181 42.0173ZM46.6271 42.7895L46.0651 41.5855L45.159 42.0085L45.721 43.2125L46.6271 42.7895ZM45.8493 42.2371C46.2517 42.0202 46.7041 41.8323 47.2091 41.6769L46.915 40.7211C46.354 40.8937 45.8404 41.1058 45.3748 41.3569L45.8493 42.2371ZM47.2076 41.6773C47.7042 41.5262 48.2207 41.4506 48.7397 41.453L48.7444 40.453C48.1251 40.4501 47.5089 40.5404 46.9165 40.7207L47.2076 41.6773ZM48.742 41.453C49.3075 41.453 49.7745 41.5118 50.1527 41.619L50.4254 40.6569C49.9356 40.5181 49.3726 40.453 48.742 40.453L48.742 41.453ZM50.1606 41.6212C50.5346 41.7207 50.8172 41.8764 51.0274 42.0731L51.7107 41.3429C51.3609 41.0156 50.9235 40.7893 50.4175 40.6548L50.1606 41.6212ZM51.0306 42.076C51.2629 42.2897 51.437 42.559 51.5365 42.8586L52.4856 42.5434C52.3325 42.0827 52.0648 41.6686 51.7075 41.34L51.0306 42.076ZM51.5395 42.8672C51.655 43.195 51.711 43.6227 51.711 44.169H52.711C52.711 43.5673 52.6511 43.013 52.4826 42.5348L51.5395 42.8672ZM51.711 44.169V50.769H52.711V44.169H51.711ZM52.211 50.269H51.061V51.269H52.211V50.269ZM51.5475 50.6533L51.2325 49.3283L50.2596 49.5596L50.5746 50.8846L51.5475 50.6533ZM48.1415 50.164C48.5385 50.1676 48.9329 50.1012 49.3069 49.968L48.9712 49.026C48.7079 49.1198 48.4301 49.1666 48.1506 49.164L48.1415 50.164ZM49.3067 49.968C49.6741 49.8373 50.0076 49.6262 50.283 49.3501L49.5751 48.6439C49.4048 48.8146 49.1985 48.9451 48.9714 49.0259L49.3067 49.968ZM50.288 49.345C50.5654 49.0589 50.7735 48.7136 50.9186 48.3168L49.9795 47.9732C49.8766 48.2544 49.7387 48.4751 49.5701 48.6489L50.288 49.345ZM50.9171 48.3209C51.0733 47.9051 51.142 47.4387 51.142 46.932H50.142C50.142 47.3513 50.0848 47.6929 49.981 47.9691L50.9171 48.3209ZM51.142 46.932V46.062H50.142V46.932H51.142ZM50.6174 45.5626L49.3604 45.6246L49.4097 46.6234L50.6667 46.5614L50.6174 45.5626ZM49.3632 45.6245C48.8141 45.6484 48.3332 45.7105 47.9307 45.8165L48.1854 46.7835C48.4969 46.7015 48.902 46.6455 49.4068 46.6235L49.3632 45.6245ZM47.9307 45.8165C47.53 45.922 47.1728 46.0785 46.8879 46.3038L47.5082 47.0882C47.6533 46.9734 47.8721 46.866 48.1854 46.7835L47.9307 45.8165ZM46.881 46.3094C46.6293 46.5158 46.4069 46.7842 46.2755 47.1196L47.2066 47.4843C47.2632 47.3398 47.3668 47.2042 47.5151 47.0826L46.881 46.3094ZM46.2741 47.1233C46.1536 47.4382 46.0946 47.7732 46.1001 48.1102L47.1 48.0937C47.0965 47.8844 47.1332 47.6762 47.208 47.4807L46.2741 47.1233ZM46.1 48.102C46.1 48.7213 46.2614 49.2798 46.6889 49.6618L47.3552 48.9162C47.2187 48.7942 47.1 48.5627 47.1 48.102L46.1 48.102ZM46.6921 49.6647C47.0888 50.013 47.5896 50.167 48.147 50.167V49.167C47.7785 49.167 47.5293 49.069 47.3519 48.9133L46.6921 49.6647ZM61.58 47.344C61.58 47.8507 61.4884 48.2888 61.3167 48.6675L62.2274 49.0805C62.4657 48.5552 62.58 47.9733 62.58 47.344H61.58ZM61.3149 48.6715C61.1516 49.0402 60.9045 49.3657 60.5932 49.622L61.2289 50.394C61.6603 50.0387 62.0029 49.5875 62.2292 49.0765L61.3149 48.6715ZM60.5987 49.6176C60.2739 49.8774 59.8737 50.0959 59.3953 50.2417L59.6868 51.1983C60.2844 51.0161 60.7981 50.7386 61.2234 50.3984L60.5987 49.6176ZM59.4006 50.2401C58.9141 50.3825 58.3565 50.457 57.721 50.457V51.457C58.4336 51.457 59.0879 51.3735 59.6815 51.1999L59.4006 50.2401ZM57.7185 50.457C57.1361 50.46 56.5546 50.4097 55.9814 50.3069L55.8047 51.2911C56.438 51.4048 57.0803 51.4603 57.7236 51.457L57.7185 50.457ZM55.9805 50.3067C55.4529 50.213 55.0332 50.076 54.7086 49.9073L54.2475 50.7947C54.6849 51.022 55.2072 51.185 55.8056 51.2913L55.9805 50.3067ZM54.978 50.351V48.787H53.978V50.351H54.978ZM54.2869 49.249L54.9639 49.529L55.3461 48.605L54.6691 48.3249L54.2869 49.249ZM55.013 49.5464L55.813 49.7834L56.0971 48.8246L55.2971 48.5876L55.013 49.5464ZM55.8559 49.7941L56.7259 49.9701L56.9242 48.9899L56.0542 48.8139L55.8559 49.7941ZM56.7572 49.9754C57.0734 50.0187 57.3922 50.0409 57.7114 50.042L57.7147 49.042C57.4398 49.0411 57.1653 49.0219 56.8929 48.9846L56.7572 49.9754ZM57.713 50.042C58.6948 50.042 59.5233 49.8609 60.0971 49.4072L59.477 48.6228C59.1628 48.8711 58.6053 49.042 57.713 49.042V50.042ZM60.0951 49.4088C60.6842 48.948 60.964 48.2895 60.964 47.503H59.964C59.964 48.0305 59.7899 48.378 59.479 48.6212L60.0951 49.4088ZM60.9639 47.5132C60.9709 47.1724 60.9167 46.8331 60.8039 46.5115L59.8602 46.8425C59.9335 47.0513 59.9687 47.2715 59.9642 47.4928L60.9639 47.5132ZM60.8039 46.5116C60.6899 46.1863 60.4883 45.9034 60.2164 45.6615L59.5517 46.4085C59.7158 46.5546 59.8102 46.6997 59.8602 46.8423L60.8039 46.5116ZM60.2376 45.6814C59.9867 45.4305 59.6398 45.2005 59.2455 45.0133L58.8166 45.9167C59.1383 46.0694 59.3814 46.2395 59.5305 46.3885L60.2376 45.6814ZM59.2624 45.0217C58.8058 44.7835 58.3353 44.5729 57.8535 44.3912L57.5006 45.3268C57.9449 45.4944 58.3787 45.6885 58.7997 45.9083L59.2624 45.0217ZM57.856 44.3921C57.4109 44.2215 56.982 44.0112 56.5747 43.7637L56.0554 44.6183C56.5141 44.897 56.9969 45.1338 57.4981 45.3259L57.856 44.3921ZM56.5868 43.7713C56.2434 43.549 55.966 43.3055 55.7494 43.0451L54.9807 43.6848C55.2701 44.0325 55.6267 44.341 56.0433 44.6107L56.5868 43.7713ZM55.7542 43.0511C55.5486 42.7961 55.3932 42.5063 55.2872 42.1754L54.3349 42.4806C54.4769 42.9237 54.6895 43.3239 54.9759 43.6789L55.7542 43.0511ZM55.2897 42.1833C55.1894 41.8517 55.135 41.4627 55.135 41.01H54.135C54.135 41.5413 54.1987 42.0303 54.3324 42.4727L55.2897 42.1833ZM55.135 41.01C55.135 40.5557 55.2175 40.1694 55.3694 39.8387L54.4607 39.4213C54.2406 39.9005 54.135 40.4323 54.135 41.01H55.135ZM55.3698 39.8378C55.5189 39.5116 55.7417 39.2243 56.0206 38.9987L55.3915 38.2213C54.9925 38.5442 54.6737 38.9552 54.4603 39.4221L55.3698 39.8378ZM56.0214 38.998C56.3291 38.748 56.6828 38.5607 57.0626 38.4469L56.7755 37.489C56.2704 37.6404 55.7999 37.8894 55.3907 38.222L56.0214 38.998ZM57.0659 38.4459C57.4877 38.3163 57.9586 38.248 58.483 38.248V37.248C57.8715 37.248 57.3004 37.3277 56.7721 37.4901L57.0659 38.4459ZM58.483 38.248C59.1489 38.248 59.7353 38.3121 60.2451 38.4359L60.481 37.4641C59.8788 37.3179 59.2112 37.248 58.483 37.248V38.248ZM60.2494 38.4369C60.7792 38.5606 61.2397 38.7161 61.6349 38.9023L62.0611 37.9977C61.5904 37.7759 61.0609 37.5994 60.4767 37.4631L60.2494 38.4369ZM61.39 38.2494L60.79 39.6194L61.706 40.0206L62.306 38.6506L61.39 38.2494ZM61.4522 39.3636C61.0408 39.1795 60.5789 39.0249 60.0717 38.8955L59.8244 39.8645C60.2892 39.9831 60.6953 40.1204 61.0439 40.2764L61.4522 39.3636ZM60.0766 38.8968C59.5468 38.7558 59.0007 38.6853 58.4525 38.687L58.4556 39.687C58.916 39.6855 59.3746 39.7448 59.8195 39.8632L60.0766 38.8968ZM58.454 38.687C57.6668 38.687 56.9801 38.8707 56.4694 39.3067L57.1187 40.0672C57.388 39.8373 57.8113 39.687 58.454 39.687V38.687ZM56.4739 39.3029C56.2206 39.514 56.0188 39.7801 55.8837 40.0809L56.7959 40.4906C56.8687 40.3284 56.9776 40.1849 57.1142 40.0711L56.4739 39.3029ZM55.8837 40.0809C55.7486 40.3817 55.6838 40.7093 55.6943 41.0389L56.6938 41.0071C56.6881 40.8294 56.7231 40.6527 56.7959 40.4906L55.8837 40.0809ZM55.694 41.023C55.694 41.3992 55.7434 41.7487 55.8553 42.0614L56.7968 41.7246C56.7327 41.5453 56.694 41.3148 56.694 41.023L55.694 41.023ZM55.8582 42.0695C55.9794 42.3907 56.1722 42.6801 56.4219 42.9157L57.1081 42.1883C56.9689 42.0569 56.8614 41.8956 56.7939 41.7165L55.8582 42.0695ZM56.4223 42.916C56.6684 43.1477 56.9776 43.3565 57.3269 43.5457L57.8031 42.6663C57.5025 42.5035 57.2717 42.3423 57.1078 42.1879L56.4223 42.916ZM57.3414 43.5532C57.6986 43.7318 58.1291 43.9198 58.6305 44.1165L58.9956 43.1855C58.513 42.9962 58.1115 42.8202 57.7887 42.6588L57.3414 43.5532ZM58.6328 44.1174C59.0916 44.2947 59.5382 44.5025 59.9694 44.7393L60.4507 43.8627C59.9805 43.6045 59.4936 43.378 58.9933 43.1846L58.6328 44.1174ZM59.9745 44.742C60.3032 44.9176 60.6033 45.142 60.8646 45.4076L61.5775 44.7064C61.2452 44.3685 60.8636 44.0832 60.4456 43.8599L59.9745 44.742ZM60.8613 45.4042C61.081 45.6318 61.2497 45.9036 61.3563 46.2015L62.2978 45.8645C62.1434 45.4331 61.899 45.0395 61.5808 44.7098L60.8613 45.4042ZM61.3594 46.2099C61.4736 46.5119 61.542 46.9018 61.542 47.359H62.542C62.542 46.8082 62.4604 46.2941 62.2947 45.856L61.3594 46.2099ZM67.996 50.456C67.4613 50.456 66.9611 50.3658 66.4955 50.2091L66.1765 51.1569C66.739 51.3462 67.3468 51.456 67.996 51.456V50.456ZM66.5051 50.2124C66.0678 50.0553 65.6736 49.7974 65.3545 49.4596L64.6276 50.1464C65.0545 50.5983 65.5819 50.9433 66.167 51.1535L66.5051 50.2124ZM65.3552 49.4604C65.0309 49.1156 64.7641 48.6666 64.5673 48.1007L63.6228 48.4293C63.858 49.1053 64.1911 49.6823 64.6268 50.1456L65.3552 49.4604ZM64.5675 48.1015C64.3737 47.5412 64.27 46.8466 64.27 46.005H63.27C63.27 46.9234 63.3824 47.7348 63.6225 48.4285L64.5675 48.1015ZM64.27 46.005C64.27 45.1157 64.3675 44.4007 64.5735 43.8392L63.6346 43.4948C63.3726 44.2093 63.27 45.0543 63.27 46.005H64.27ZM64.5766 43.8304C64.7811 43.2388 65.0512 42.7861 65.3765 42.4516L64.6596 41.7544C64.2108 42.2159 63.873 42.8052 63.6315 43.5036L64.5766 43.8304ZM65.3782 42.4498C65.7056 42.1097 66.1082 41.8511 66.5536 41.6948L66.2225 40.7512C65.6295 40.9593 65.0937 41.3035 64.6578 41.7562L65.3782 42.4498ZM66.554 41.6946C67.0154 41.5323 67.5187 41.45 68.068 41.45V40.45C67.4174 40.45 66.8007 40.5477 66.2221 40.7513L66.554 41.6946ZM68.069 41.45C68.4808 41.4492 68.8914 41.495 69.2929 41.5865L69.5152 40.6115C69.0401 40.5032 68.5543 40.449 68.0671 40.45L68.069 41.45ZM69.3018 41.5884C69.6429 41.6596 69.9743 41.7709 70.2892 41.9199L70.7169 41.016C70.3308 40.8333 69.9244 40.6969 69.5062 40.6095L69.3018 41.5884ZM70.0312 41.3025L69.5562 42.6565L70.4999 42.9875L70.9749 41.6335L70.0312 41.3025ZM70.2311 42.3651C70.0741 42.2953 69.907 42.2352 69.7338 42.1792L69.4263 43.1308C69.5811 43.1808 69.712 43.2287 69.825 43.2789L70.2311 42.3651ZM69.748 42.1841C69.568 42.1198 69.3847 42.0648 69.199 42.0194L68.9611 42.9906C69.1136 43.028 69.2641 43.0732 69.4121 43.1259L69.748 42.1841ZM69.209 42.0219C69.0135 41.9697 68.8189 41.9305 68.6271 41.9045L68.493 42.8955C68.6412 42.9155 68.7945 42.9463 68.951 42.9881L69.209 42.0219ZM68.6472 41.9076C68.46 41.8745 68.2704 41.8572 68.0803 41.856L68.0738 42.856C68.2076 42.8569 68.3411 42.869 68.4729 42.8923L68.6472 41.9076ZM68.077 41.856C67.0469 41.856 66.1873 42.1934 65.654 42.9579L66.4741 43.5301C66.7668 43.1105 67.2672 42.856 68.077 42.856V41.856ZM65.6583 42.9518C65.1448 43.6649 64.931 44.7066 64.931 45.986H65.931C65.931 44.7814 66.1393 43.9951 66.4698 43.5362L65.6583 42.9518ZM64.931 45.986C64.931 47.2526 65.1314 48.2958 65.6649 49.0031L66.4632 48.4009C66.1307 47.9601 65.931 47.1914 65.931 45.986H64.931ZM65.6647 49.0029C66.2081 49.724 67.0204 50.054 68.006 50.054V49.054C67.2577 49.054 66.776 48.816 66.4634 48.4011L65.6647 49.0029ZM68.0001 50.054C68.4778 50.0597 68.9541 50.001 69.4162 49.8796L69.1619 48.9124C68.7867 49.011 68.3999 49.0587 68.012 49.054L68.0001 50.054ZM69.4249 49.8772C69.8104 49.7684 70.1871 49.6302 70.5516 49.4639L70.1365 48.5541C69.8184 48.6993 69.4897 48.8198 69.1532 48.9148L69.4249 49.8772ZM69.844 49.009V50.433H70.844V49.009H69.844ZM70.1076 49.9924C69.824 50.1446 69.5219 50.2593 69.2087 50.3335L69.4393 51.3065C69.8369 51.2123 70.2205 51.0668 70.5805 50.8736L70.1076 49.9924ZM69.2044 50.3345C68.9004 50.4094 68.4811 50.452 67.982 50.452V51.452C68.527 51.452 69.0336 51.4065 69.4437 51.3055L69.2044 50.3345ZM76.7293 41.4535L77.2993 41.4795L77.3448 40.4805L76.7748 40.4545L76.7293 41.4535ZM77.2991 41.4795C77.4595 41.4868 77.6192 41.505 77.7772 41.5338L77.9569 40.5501C77.7547 40.5132 77.5503 40.4899 77.345 40.4805L77.2991 41.4795ZM77.3716 40.9749L77.1716 42.4519L78.1625 42.5861L78.3625 41.1091L77.3716 40.9749ZM77.7364 42.0238L77.2364 41.9538L77.0977 42.9442L77.5977 43.0142L77.7364 42.0238ZM77.2369 41.9539C77.0446 41.9268 76.8613 41.914 76.684 41.914V42.914C76.8128 42.914 76.9494 42.9232 77.0972 42.9441L77.2369 41.9539ZM76.684 41.914C76.2446 41.914 75.8282 42.0046 75.4544 42.1978L75.9137 43.0861C76.1279 42.9754 76.3835 42.914 76.684 42.914V41.914ZM75.4655 42.1923C75.0869 42.3763 74.7558 42.645 74.4979 42.9776L75.2882 43.5904C75.452 43.3792 75.6622 43.2085 75.9026 43.0917L75.4655 42.1923ZM74.4972 42.9786C74.2273 43.3283 74.0282 43.7274 73.911 44.1533L74.8751 44.4187C74.9579 44.118 75.0984 43.8363 75.2889 43.5894L74.4972 42.9786ZM73.9129 44.1466C73.7774 44.6135 73.7114 45.0977 73.7171 45.5838L74.717 45.5722C74.7125 45.1843 74.7651 44.7979 74.8732 44.4253L73.9129 44.1466ZM73.717 45.578V50.781H74.717V45.578H73.717ZM74.217 50.281H72.617V51.281H74.217V50.281ZM73.117 50.781V41.131H72.117V50.781H73.117ZM72.617 41.631H73.917V40.631H72.617V41.631ZM73.42 41.1853L73.613 42.9523L74.6071 42.8437L74.4141 41.0767L73.42 41.1853ZM74.11 43.398H74.18V42.398H74.11V43.398ZM74.6015 43.167L75.0675 42.437L74.2246 41.899L73.7586 42.629L74.6015 43.167ZM75.0524 42.4593C75.1917 42.265 75.3537 42.088 75.535 41.9321L74.8831 41.1738C74.6414 41.3817 74.4254 41.6176 74.2397 41.8767L75.0524 42.4593ZM75.5359 41.9314C75.7042 41.786 75.8951 41.669 76.101 41.5849L75.7231 40.6591C75.4167 40.7842 75.1327 40.9583 74.8822 41.1746L75.5359 41.9314ZM76.0969 41.5866C76.324 41.4962 76.5666 41.4515 76.811 41.4549L76.8251 40.455C76.4494 40.4497 76.0763 40.5185 75.7272 40.6574L76.0969 41.5866ZM81.268 50.28H79.668V51.28H81.268V50.28ZM80.168 50.78V41.13H79.168V50.78H80.168ZM79.668 41.63H81.268V40.63H79.668V41.63ZM80.768 41.13V50.78H81.768V41.13H80.768ZM80.1343 38.1339C80.2251 38.0557 80.3418 38.0143 80.4615 38.0178L80.4906 37.0182C80.1214 37.0075 79.7616 37.1351 79.4818 37.3761L80.1343 38.1339ZM80.4826 38.0179C80.544 38.0171 80.605 38.0277 80.6626 38.049L81.0095 37.111C80.8367 37.0471 80.6537 37.0156 80.4695 37.018L80.4826 38.0179ZM80.6971 38.0603C80.7294 38.0696 80.7587 38.0869 80.7825 38.1106L81.4876 37.4014C81.3447 37.2594 81.1684 37.1556 80.975 37.0997L80.6971 38.0603ZM80.7886 38.1165C80.8229 38.1495 80.8489 38.1901 80.8644 38.235L81.8097 37.9089C81.7425 37.7142 81.63 37.5382 81.4815 37.3954L80.7886 38.1165ZM80.8779 38.2699C80.8973 38.3149 80.917 38.3939 80.917 38.52H81.917C81.917 38.296 81.8828 38.075 81.7962 37.8741L80.8779 38.2699ZM80.917 38.52C80.917 38.7693 80.8503 38.8697 80.7997 38.9159L81.4744 39.6541C81.7958 39.3603 81.917 38.9507 81.917 38.52H80.917ZM80.8023 38.9135C80.717 38.9904 80.6201 39.031 80.477 39.031V40.031C80.854 40.031 81.1931 39.9075 81.4718 39.6564L80.8023 38.9135ZM80.477 39.031C80.3788 39.031 80.2602 38.9834 80.1379 38.8726L79.4662 39.6134C79.7079 39.8325 80.0553 40.031 80.477 40.031V39.031ZM80.1429 38.8772C80.1069 38.8436 80.0425 38.7478 80.044 38.5021L79.0441 38.4959C79.0416 38.8982 79.1452 39.3144 79.4612 39.6088L80.1429 38.8772ZM80.044 38.5005C80.0448 38.2617 80.1151 38.1532 80.1539 38.1161L79.4622 37.3939C79.171 37.6728 79.0453 38.0763 79.044 38.4975L80.044 38.5005ZM88.5783 50.455C88.3054 50.4582 88.0334 50.4252 87.7692 50.3569L87.5189 51.3251C87.8686 51.4155 88.2287 51.4591 88.5898 51.455L88.5783 50.455ZM87.775 50.3585C87.5274 50.2912 87.308 50.2047 87.1171 50.1013L86.641 50.9807C86.908 51.1253 87.2007 51.2387 87.5131 51.3235L87.775 50.3585ZM87.1277 50.1072C86.9463 50.0032 86.7783 49.8773 86.6274 49.7324L85.9346 50.4536C86.1444 50.6551 86.378 50.8301 86.6304 50.9748L87.1277 50.1072ZM86.6339 49.7388C86.4865 49.5919 86.3513 49.4333 86.2296 49.2645L85.4185 49.8494C85.5719 50.0622 85.7423 50.2621 85.9281 50.4472L86.6339 49.7388ZM85.824 49.057H85.719V50.057H85.824V49.057ZM85.2212 49.6033L85.2742 50.1733L86.2699 50.0807L86.2169 49.5107L85.2212 49.6033ZM85.2734 50.1637L85.3084 50.6387L86.3057 50.5653L86.2707 50.0903L85.2734 50.1637ZM85.3076 50.6258L85.3256 51.0038L86.3245 50.9562L86.3065 50.5782L85.3076 50.6258ZM85.325 50.98V55.102H86.325V50.98H85.325ZM85.825 54.602H84.225V55.602H85.825V54.602ZM84.725 55.102V41.13H83.725V55.102H84.725ZM84.225 41.63H85.525V40.63H84.225V41.63ZM85.0327 41.2171L85.2627 42.5171L86.2474 42.3429L86.0174 41.0429L85.0327 41.2171ZM85.755 42.93H85.825V41.93H85.755V42.93ZM86.2429 42.7045C86.3599 42.5265 86.4934 42.3597 86.6415 42.2066L85.9226 41.5114C85.7311 41.7095 85.5585 41.9251 85.4072 42.1554L86.2429 42.7045ZM86.6466 42.2011C86.7851 42.0536 86.9447 41.9273 87.1202 41.8265L86.6219 40.9595C86.3609 41.1095 86.1235 41.2973 85.9174 41.5168L86.6466 42.2011ZM87.1223 41.8253C87.323 41.7086 87.5386 41.6196 87.7631 41.5606L87.509 40.5934C87.1974 40.6753 86.8983 40.7988 86.6198 40.9607L87.1223 41.8253ZM87.7697 41.5588C88.033 41.4858 88.3054 41.4505 88.5787 41.4539L88.5914 40.454C88.2236 40.4494 87.8569 40.4969 87.5024 40.5952L87.7697 41.5588ZM88.585 41.454C89.0701 41.454 89.4986 41.5462 89.8762 41.7229L90.2999 40.8171C89.7755 40.5717 89.2 40.454 88.585 40.454V41.454ZM89.8762 41.7229C90.2488 41.8972 90.5689 42.1586 90.837 42.5186L91.6391 41.9214C91.2771 41.4354 90.8293 41.0648 90.2999 40.8171L89.8762 41.7229ZM90.8427 42.526C91.1174 42.881 91.3405 43.3388 91.5042 43.913L92.4659 43.6389C92.2756 42.9712 92.0027 42.391 91.6334 41.9139L90.8427 42.526ZM91.5042 43.913C91.6654 44.4788 91.749 45.1517 91.749 45.938H92.749C92.749 45.0843 92.6587 44.3152 92.4659 43.6389L91.5042 43.913ZM91.749 45.938C91.749 46.7299 91.6645 47.4098 91.5037 47.9829L92.4664 48.2531C92.6576 47.5722 92.749 46.798 92.749 45.938H91.749ZM91.5041 47.9815C91.3414 48.5543 91.1171 49.0172 90.8409 49.3782L91.6352 49.9858C92.003 49.5048 92.2767 48.9217 92.466 48.2545L91.5041 47.9815ZM90.8378 49.3823C90.5679 49.7427 90.2456 50.0081 89.8701 50.19L90.306 51.09C90.8305 50.8359 91.2762 50.4653 91.6383 49.9817L90.8378 49.3823ZM89.885 50.1831C89.5094 50.35 88.9675 50.456 88.474 50.456V51.456C89.0826 51.456 89.7667 51.33 90.2911 51.0969L89.885 50.1831ZM88.277 41.781C87.7844 41.781 87.3345 41.8548 86.944 42.0243L87.3421 42.9416C87.5736 42.8412 87.8797 42.781 88.277 42.781V41.781ZM86.9407 42.0258C86.5519 42.1979 86.2316 42.4619 85.9868 42.8108L86.8053 43.3852C86.9465 43.1841 87.1242 43.0381 87.3454 42.9402L86.9407 42.0258ZM85.9868 42.8108C85.7449 43.1553 85.5897 43.5648 85.4867 44.0143L86.4614 44.2377C86.5463 43.8672 86.6612 43.5906 86.8053 43.3852L85.9868 42.8108ZM85.4836 44.0285C85.3826 44.5368 85.3295 45.0535 85.3251 45.5717L86.325 45.5803C86.3289 45.1246 86.3756 44.6704 86.4645 44.2235L85.4836 44.0285ZM85.325 45.576V45.936H86.325V45.576H85.325ZM85.3251 45.9316C85.3201 46.4881 85.3602 47.044 85.4449 47.594L86.4332 47.4419C86.3568 46.9452 86.3206 46.443 86.325 45.9404L85.3251 45.9316ZM85.4469 47.6063C85.5368 48.1074 85.6887 48.554 85.9127 48.9326L86.7733 48.4234C86.6234 48.17 86.5053 47.8426 86.4312 47.4297L85.4469 47.6063ZM85.9164 48.9387C86.1492 49.3196 86.482 49.6294 86.8786 49.8342L87.3375 48.9458C87.1035 48.8249 86.9071 48.6421 86.7697 48.4173L85.9164 48.9387ZM86.8844 49.8372C87.2896 50.0398 87.768 50.127 88.295 50.127V49.127C87.8721 49.127 87.5585 49.0562 87.3317 48.9428L86.8844 49.8372ZM88.295 50.127C88.7624 50.127 89.1917 50.0331 89.5683 49.8247C89.9466 49.6155 90.2434 49.3064 90.4676 48.9198L89.6025 48.4182C89.4567 48.6696 89.2835 48.8395 89.0842 48.9497C88.8834 49.0609 88.6276 49.127 88.295 49.127V50.127ZM90.4664 48.9218C90.9059 48.1718 91.097 47.153 91.098 45.9194L90.098 45.9186C90.0971 47.0729 89.9142 47.8862 89.6036 48.4162L90.4664 48.9218ZM91.098 45.919C91.098 44.6642 90.9077 43.6427 90.461 42.9225L89.6111 43.4495C89.9124 43.9353 90.098 44.7337 90.098 45.919H91.098ZM90.461 42.9225C89.9834 42.1524 89.2281 41.781 88.277 41.781V42.781C88.932 42.781 89.3407 43.0136 89.6111 43.4495L90.461 42.9225ZM97.59 50.146C97.7156 50.146 97.8614 50.1339 97.973 50.127L97.9111 49.1289C97.7647 49.138 97.6745 49.146 97.59 49.146V50.146ZM97.9985 50.1248L98.3855 50.0808L98.2726 49.0872L97.8856 49.1312L97.9985 50.1248ZM98.4203 50.0756L98.7543 50.0136L98.5718 49.0304L98.2378 49.0924L98.4203 50.0756ZM98.7896 50.0057L99.0266 49.9437L98.7735 48.9763L98.5365 49.0383L98.7896 50.0057ZM98.4 49.46V50.673H99.4V49.46H98.4ZM98.6909 50.2188C98.6459 50.2396 98.5758 50.266 98.4672 50.296L98.7329 51.26C98.8783 51.2199 99.0022 51.1764 99.1092 51.1271L98.6909 50.2188ZM98.46 50.298C98.3522 50.3295 98.2426 50.3544 98.1318 50.3726L98.2943 51.3593C98.4448 51.3346 98.5937 51.3007 98.7401 51.258L98.46 50.298ZM98.1083 50.3771C97.9936 50.4017 97.869 50.4189 97.734 50.4295L97.8121 51.4265C97.9831 51.4131 98.1525 51.3903 98.3178 51.3549L98.1083 50.3771ZM97.7147 50.4314C97.5856 50.4466 97.4556 50.4541 97.3255 50.454L97.3246 51.454C97.4939 51.4542 97.6632 51.4443 97.8314 51.4246L97.7147 50.4314ZM97.325 50.454C97.0043 50.454 96.7181 50.4124 96.4731 50.3364L96.177 51.2916C96.532 51.4016 96.9198 51.454 97.325 51.454L97.325 50.454ZM96.4678 50.3348C96.2415 50.2674 96.0356 50.1446 95.8687 49.9776L95.1613 50.6844C95.4458 50.969 95.7966 51.1783 96.1823 51.2932L96.4678 50.3348ZM95.874 49.9829C95.7153 49.8192 95.5738 49.5842 95.4624 49.2499L94.5137 49.5661C94.6603 50.0058 94.8688 50.3828 95.1561 50.679L95.874 49.9829ZM95.4627 49.251C95.3553 48.9263 95.295 48.4921 95.295 47.931H94.295C94.295 48.5539 94.3607 49.1037 94.5133 49.565L95.4627 49.251ZM95.295 47.931V42.331H94.295V47.931H95.295ZM94.795 41.831H93.433V42.831H94.795V41.831ZM93.933 42.331V41.619H92.933V42.331H93.933ZM93.658 42.0655L95.02 41.3795L94.5701 40.4864L93.2081 41.1724L93.658 42.0655ZM95.2685 41.0936L95.9545 39.0716L95.0076 38.7503L94.3216 40.7723L95.2685 41.0936ZM95.481 39.411H96.404V38.411H95.481V39.411ZM95.904 38.911V41.126H96.904V38.911H95.904ZM96.404 41.626H98.83V40.626H96.404V41.626ZM98.33 41.126V42.33H99.33V41.126H98.33ZM98.83 41.83H96.404V42.83H98.83V41.83ZM95.904 42.33V47.93H96.904V42.33H95.904ZM95.904 47.93C95.904 48.546 96.0108 49.0756 96.2472 49.47L97.1049 48.956C96.9973 48.7764 96.904 48.45 96.904 47.93H95.904ZM96.2472 49.47C96.539 49.957 97.0585 50.143 97.59 50.143V49.143C97.2776 49.143 97.1571 49.043 97.1049 48.956L96.2472 49.47Z" fill="black" mask="url(#path-2-outside-1_236_3)"/>
</svg>
