<svg width="120" height="40" viewBox="0 0 120 40" fill="none" xmlns="http://www.w3.org/2000/svg">
<g clip-path="url(#clip0_173_62)">
<path d="M-0.000610352 32.2669V7.95157L20.5455 0.00219727L31.7117 3.74204V36.4751L20.5455 39.9991L-0.000610352 32.2669L20.5455 34.8552V6.54945L7.14579 9.82276V28.9948L-7.3202e-06 32.2669H-0.000610352ZM53.5941 32.4373C50.3607 32.4373 47.7701 31.3205 45.8242 29.0889C43.8776 26.8585 42.9056 23.9545 42.9056 20.3794C42.9056 16.5386 43.8969 13.4742 45.8797 11.1876C47.8624 8.90105 50.5615 7.75776 53.9752 7.75776C57.1248 7.75776 59.6617 8.86822 61.5865 11.0879C63.5114 13.3088 64.4738 16.2115 64.4738 19.7973C64.4738 23.6938 63.4867 26.7739 61.5148 29.0396C59.5429 31.3054 56.9035 32.4373 53.5941 32.4373ZM53.7847 10.2893C51.3882 10.2893 49.4429 11.1946 47.9474 13.0039C46.4519 14.8132 45.7042 17.1894 45.7042 20.1307C45.7042 23.0719 46.4338 25.4399 47.8913 27.2328C49.3488 29.0257 51.2502 29.9222 53.5935 29.9222C56.0954 29.9222 58.0685 29.0674 59.5103 27.3578C60.9522 25.6483 61.674 23.2563 61.674 20.1812C61.674 17.0278 60.9733 14.5916 59.5737 12.8707C58.1753 11.1504 56.245 10.2887 53.7847 10.2887V10.2893ZM73.9786 6.42445C72.5042 6.42445 71.2795 6.95032 70.2942 7.98819C69.3082 9.02542 68.8144 10.4383 68.8144 12.2255V14.9881H66.0368V17.3258H68.8144V32.0396H71.411V17.3258H77.7608V32.0396H80.3574V17.3258H84.1685V14.9881H80.3574V12.3574C80.3574 9.94902 81.2698 8.74891 83.0933 8.74891C83.7403 8.74891 84.3156 8.88779 84.824 9.18703V6.73252C84.3578 6.53303 83.7349 6.42508 82.9401 6.42508C81.4657 6.42508 80.2271 6.95159 79.2412 7.98882C78.2547 9.02668 77.7614 10.4395 77.7614 12.2261V14.9887H71.411V12.3587C71.411 9.94965 72.3215 8.74954 74.1463 8.74954C74.7927 8.74954 75.368 8.88843 75.8769 9.18766V6.73316C75.4102 6.53177 74.774 6.42445 73.9786 6.42445ZM87.9615 10.6542C87.7408 10.6584 87.5215 10.6164 87.3165 10.5305C87.1115 10.4446 86.9251 10.3167 86.7681 10.1542C86.4395 9.82086 86.2748 9.39978 86.2748 8.88906C86.2748 8.37833 86.4395 7.9541 86.7681 7.61572C86.9239 7.45098 87.11 7.32101 87.3151 7.23367C87.5202 7.14632 87.7401 7.10341 87.9615 7.10752C88.4385 7.10752 88.8437 7.27608 89.1784 7.61572C89.5131 7.9541 89.6789 8.37833 89.6789 8.88906C89.6825 9.12222 89.64 9.35364 89.5538 9.56869C89.4677 9.78374 89.3398 9.97773 89.1784 10.1384C88.8443 10.4818 88.4385 10.6542 87.9615 10.6542ZM89.2339 32.0345H86.6252V14.983H89.2333V32.0345H89.2339ZM104.054 31.2524C102.803 32.0402 101.317 32.4348 99.6004 32.4348C97.2782 32.4348 95.404 31.6438 93.9784 30.0611C92.5529 28.4784 91.8377 26.4292 91.8377 23.9084C91.8377 21.0991 92.6066 18.8435 94.1443 17.1396C95.6826 15.435 97.734 14.5834 100.3 14.5834C101.731 14.5834 102.994 14.8612 104.086 15.4167V18.2134C102.877 17.3258 101.583 16.8814 100.205 16.8814C98.5397 16.8814 97.1744 17.5064 96.1083 18.7551C95.0428 20.0044 94.5103 21.6439 94.5103 23.6754C94.5103 25.6742 95.0108 27.2505 96.0124 28.4052C97.0152 29.5592 98.3582 30.1362 100.045 30.1362C101.466 30.1362 102.803 29.6419 104.054 28.6545V31.2524ZM119.999 24.1925H108.5C108.542 26.0902 109.03 27.5554 109.962 28.5883C110.897 29.6198 112.179 30.1362 113.812 30.1362C115.647 30.1362 117.333 29.5036 118.87 28.2379V30.8022C117.439 31.89 115.546 32.4342 113.192 32.4342C110.891 32.4342 109.082 31.6602 107.768 30.111C106.453 28.5617 105.796 26.3844 105.796 23.5751C105.796 20.9217 106.514 18.7595 107.95 17.0884C109.387 15.4174 111.172 14.5828 113.303 14.5828C115.434 14.5828 117.083 15.3044 118.249 16.7475C119.416 18.1907 119.998 20.1944 119.998 22.7588V24.1919L119.999 24.1925ZM117.328 21.8775C117.317 20.3011 116.954 19.0745 116.238 18.1976C115.522 17.3201 114.528 16.882 113.256 16.882C112.025 16.882 110.981 17.3435 110.122 18.2645C109.263 19.1862 108.733 20.3908 108.532 21.8775H117.328Z" fill="#EB3C00"/>
</g>
<defs>
<clipPath id="clip0_173_62">
<rect width="120" height="40" rx="10" fill="white"/>
</clipPath>
</defs>
</svg>
