<svg width="74" height="100" viewBox="0 0 74 100" fill="none" xmlns="http://www.w3.org/2000/svg">
<path d="M23.1473 30.9862C24.1819 30.9862 25.0207 30.1474 25.0207 29.1128V27.3812C25.0207 26.3466 24.1819 25.5078 23.1473 25.5078C22.1127 25.5078 21.2739 26.3466 21.2739 27.3812V29.1128C21.2739 30.1474 22.1125 30.9862 23.1473 30.9862Z" fill="white" stroke="black" stroke-width="0.5"/>
<path d="M50.8529 30.9862C51.8875 30.9862 52.7262 30.1474 52.7262 29.1128V27.3812C52.7262 26.3466 51.8875 25.5078 50.8529 25.5078C49.8183 25.5078 48.9795 26.3466 48.9795 27.3812V29.1128C48.9795 30.1474 49.818 30.9862 50.8529 30.9862Z" fill="white" stroke="black" stroke-width="0.5"/>
<mask id="path-3-outside-1_266_83" maskUnits="userSpaceOnUse" x="-0.255371" y="-1" width="75" height="102" fill="black">
<rect fill="white" x="-0.255371" y="-1" width="75" height="102"/>
<path d="M69.7923 72.7779V58.1745C71.8031 57.4952 73.2555 55.5922 73.2555 53.355C73.2555 50.5502 70.9736 48.2684 68.1689 48.2684H60.7858C63.1291 46.0747 64.5974 42.9576 64.5974 39.5022V22.1861C64.5974 15.5621 59.2085 10.1732 52.5845 10.1732H47.2814V5.81948C48.1879 5.2684 48.7966 4.27446 48.7966 3.13853C48.7966 1.40801 47.3886 0 45.6581 0C43.9275 0 42.5195 1.40801 42.5195 3.13853C42.5195 4.27446 43.1282 5.2684 44.0347 5.81948V10.1732H29.9654V5.81948C30.8719 5.2684 31.4806 4.27446 31.4806 3.13853C31.4806 1.40801 30.0726 0 28.342 0C26.6115 0 25.2035 1.40801 25.2035 3.13853C25.2035 4.27446 25.8122 5.2684 26.7187 5.81948V10.1732H21.4156C14.7916 10.1732 9.40264 15.5621 9.40264 22.1861V39.5022C9.40264 42.9576 10.871 46.0747 13.2143 48.2684H5.83121C3.02645 48.2684 0.744629 50.5502 0.744629 53.355C0.744629 55.5922 2.19701 57.4952 4.20783 58.1745V72.7779C2.19701 73.4571 0.744629 75.3602 0.744629 77.5974V81.0606C0.744629 81.9571 1.47147 82.684 2.36801 82.684C3.26454 82.684 3.99138 81.9571 3.99138 81.0606V77.5974C3.99138 76.5829 4.81671 75.7576 5.83121 75.7576C6.84571 75.7576 7.67104 76.5829 7.67104 77.5974V81.0606C7.67104 81.9571 8.39788 82.684 9.29441 82.684C10.1909 82.684 10.9178 81.9571 10.9178 81.0606V77.5974C10.9178 75.3602 9.46541 73.4571 7.45459 72.7779V58.4416H14.5974V74.1342C14.5974 76.939 16.8793 79.2208 19.684 79.2208H21.7206C21.9901 80.3193 22.5258 81.3136 23.2559 82.1318C23.2559 82.1355 23.2552 82.1392 23.2552 82.1429V89.8268H21.4156C16.7013 89.8268 12.8658 93.6623 12.8658 98.3766C12.8658 99.2732 13.5927 100 14.4892 100H33.5368C34.4334 100 35.1602 99.2732 35.1602 98.3766V91.4502C35.1602 90.5537 34.4334 89.8268 33.5368 89.8268H33.4286V82.1429C33.4286 82.1392 33.4282 82.1355 33.428 82.1318C34.1583 81.3136 34.694 80.319 34.9632 79.2208H39.0366C39.3061 80.3193 39.8418 81.3136 40.5719 82.1318C40.5719 82.1355 40.5713 82.1392 40.5713 82.1429V89.8268H40.4632C39.5667 89.8268 38.8399 90.5537 38.8399 91.4502V98.3766C38.8399 99.2732 39.5667 100 40.4632 100H59.5109C60.4074 100 61.1342 99.2732 61.1342 98.3766C61.1342 93.6623 57.2987 89.8268 52.5845 89.8268H50.7446V82.1429C50.7446 82.1392 50.7442 82.1355 50.744 82.1318C51.4743 81.3136 52.01 80.319 52.2793 79.2208H54.3161C57.1208 79.2208 59.4026 76.939 59.4026 74.1342V58.4416H66.5455V72.7779C64.5347 73.4571 63.0823 75.3602 63.0823 77.5974V81.0606C63.0823 81.9571 63.8091 82.684 64.7057 82.684C65.6022 82.684 66.329 81.9571 66.329 81.0606V77.5974C66.329 76.5829 67.1544 75.7576 68.1689 75.7576C69.1834 75.7576 70.0087 76.5829 70.0087 77.5974V81.0606C70.0087 81.9571 70.7355 82.684 71.6321 82.684C72.5286 82.684 73.2555 81.9571 73.2555 81.0606V77.5974C73.2555 75.3602 71.8031 73.4571 69.7923 72.7779ZM68.1689 55.1948C67.1544 55.1948 66.329 54.3695 66.329 53.355C66.329 52.3405 67.1544 51.5152 68.1689 51.5152C69.1834 51.5152 70.0087 52.3405 70.0087 53.355C70.0087 54.3695 69.1834 55.1948 68.1689 55.1948ZM12.6494 22.1861C12.6494 17.3524 16.5819 13.4199 21.4156 13.4199H52.5845C57.4182 13.4199 61.3507 17.3524 61.3507 22.1861V32.5758C61.3507 34.3591 57.8505 36.1587 54.8531 37.1578C50.1083 38.7394 43.768 39.6104 37 39.6104C30.2321 39.6104 23.8916 38.7394 19.147 37.1578C16.1496 36.1587 12.6494 34.3591 12.6494 32.5758V22.1861ZM12.6494 39.5022V37.6584C13.9418 38.5552 15.7117 39.4351 18.1202 40.2381C23.1873 41.9271 29.8922 42.8571 37 42.8571C44.1078 42.8571 50.8128 41.9271 55.8799 40.2379C58.2886 39.4351 60.0583 38.555 61.3507 37.6582V39.5019C61.3507 44.3357 57.4182 48.2682 52.5845 48.2682H21.4156C16.5819 48.2684 12.6494 44.3359 12.6494 39.5022ZM5.83121 51.5152C6.84571 51.5152 7.67104 52.3405 7.67104 53.355C7.67104 54.3695 6.84571 55.1948 5.83121 55.1948C4.81671 55.1948 3.99138 54.3695 3.99138 53.355C3.99138 52.3405 4.81671 51.5152 5.83121 51.5152ZM10.5721 55.1948C10.7944 54.6238 10.9178 54.0037 10.9178 53.355C10.9178 52.7063 10.7944 52.0861 10.5721 51.5152H14.5974V55.1948H10.5721ZM31.9135 96.7532H16.3667C17.0539 94.6206 19.0576 93.0736 21.4156 93.0736H31.9135V96.7532ZM26.5022 89.8268V84.1613C27.0879 84.3258 27.7046 84.4156 28.342 84.4156C28.9795 84.4156 29.5961 84.3258 30.1819 84.1613V89.8268H26.5022ZM28.342 81.1688C26.9576 81.1688 25.7572 80.3753 25.1648 79.2208H31.5191C30.9267 80.3753 29.7264 81.1688 28.342 81.1688ZM57.6334 96.7532H42.0866V93.0736H52.5845C54.9425 93.0736 56.9461 94.6206 57.6334 96.7532ZM43.8182 89.8268V84.1613C44.4039 84.3258 45.0206 84.4156 45.6581 84.4156C46.2955 84.4156 46.9122 84.3258 47.4979 84.1613V89.8268H43.8182ZM45.6581 81.1688C44.2736 81.1688 43.0732 80.3753 42.4808 79.2208H48.8351C48.2427 80.3753 47.0425 81.1688 45.6581 81.1688ZM56.1559 74.1342C56.1559 75.1487 55.3306 75.974 54.3161 75.974H19.684C18.6695 75.974 17.8442 75.1487 17.8442 74.1342V50.9732C18.973 51.3253 20.1726 51.5152 21.4156 51.5152H52.5845C53.8275 51.5152 55.0273 51.3253 56.1559 50.9732V74.1342ZM59.4026 51.5152H63.428C63.2057 52.0861 63.0823 52.7063 63.0823 53.355C63.0823 54.0037 63.2057 54.6238 63.428 55.1948H59.4026V51.5152Z"/>
</mask>
<path d="M69.7923 72.7779V58.1745C71.8031 57.4952 73.2555 55.5922 73.2555 53.355C73.2555 50.5502 70.9736 48.2684 68.1689 48.2684H60.7858C63.1291 46.0747 64.5974 42.9576 64.5974 39.5022V22.1861C64.5974 15.5621 59.2085 10.1732 52.5845 10.1732H47.2814V5.81948C48.1879 5.2684 48.7966 4.27446 48.7966 3.13853C48.7966 1.40801 47.3886 0 45.6581 0C43.9275 0 42.5195 1.40801 42.5195 3.13853C42.5195 4.27446 43.1282 5.2684 44.0347 5.81948V10.1732H29.9654V5.81948C30.8719 5.2684 31.4806 4.27446 31.4806 3.13853C31.4806 1.40801 30.0726 0 28.342 0C26.6115 0 25.2035 1.40801 25.2035 3.13853C25.2035 4.27446 25.8122 5.2684 26.7187 5.81948V10.1732H21.4156C14.7916 10.1732 9.40264 15.5621 9.40264 22.1861V39.5022C9.40264 42.9576 10.871 46.0747 13.2143 48.2684H5.83121C3.02645 48.2684 0.744629 50.5502 0.744629 53.355C0.744629 55.5922 2.19701 57.4952 4.20783 58.1745V72.7779C2.19701 73.4571 0.744629 75.3602 0.744629 77.5974V81.0606C0.744629 81.9571 1.47147 82.684 2.36801 82.684C3.26454 82.684 3.99138 81.9571 3.99138 81.0606V77.5974C3.99138 76.5829 4.81671 75.7576 5.83121 75.7576C6.84571 75.7576 7.67104 76.5829 7.67104 77.5974V81.0606C7.67104 81.9571 8.39788 82.684 9.29441 82.684C10.1909 82.684 10.9178 81.9571 10.9178 81.0606V77.5974C10.9178 75.3602 9.46541 73.4571 7.45459 72.7779V58.4416H14.5974V74.1342C14.5974 76.939 16.8793 79.2208 19.684 79.2208H21.7206C21.9901 80.3193 22.5258 81.3136 23.2559 82.1318C23.2559 82.1355 23.2552 82.1392 23.2552 82.1429V89.8268H21.4156C16.7013 89.8268 12.8658 93.6623 12.8658 98.3766C12.8658 99.2732 13.5927 100 14.4892 100H33.5368C34.4334 100 35.1602 99.2732 35.1602 98.3766V91.4502C35.1602 90.5537 34.4334 89.8268 33.5368 89.8268H33.4286V82.1429C33.4286 82.1392 33.4282 82.1355 33.428 82.1318C34.1583 81.3136 34.694 80.319 34.9632 79.2208H39.0366C39.3061 80.3193 39.8418 81.3136 40.5719 82.1318C40.5719 82.1355 40.5713 82.1392 40.5713 82.1429V89.8268H40.4632C39.5667 89.8268 38.8399 90.5537 38.8399 91.4502V98.3766C38.8399 99.2732 39.5667 100 40.4632 100H59.5109C60.4074 100 61.1342 99.2732 61.1342 98.3766C61.1342 93.6623 57.2987 89.8268 52.5845 89.8268H50.7446V82.1429C50.7446 82.1392 50.7442 82.1355 50.744 82.1318C51.4743 81.3136 52.01 80.319 52.2793 79.2208H54.3161C57.1208 79.2208 59.4026 76.939 59.4026 74.1342V58.4416H66.5455V72.7779C64.5347 73.4571 63.0823 75.3602 63.0823 77.5974V81.0606C63.0823 81.9571 63.8091 82.684 64.7057 82.684C65.6022 82.684 66.329 81.9571 66.329 81.0606V77.5974C66.329 76.5829 67.1544 75.7576 68.1689 75.7576C69.1834 75.7576 70.0087 76.5829 70.0087 77.5974V81.0606C70.0087 81.9571 70.7355 82.684 71.6321 82.684C72.5286 82.684 73.2555 81.9571 73.2555 81.0606V77.5974C73.2555 75.3602 71.8031 73.4571 69.7923 72.7779ZM68.1689 55.1948C67.1544 55.1948 66.329 54.3695 66.329 53.355C66.329 52.3405 67.1544 51.5152 68.1689 51.5152C69.1834 51.5152 70.0087 52.3405 70.0087 53.355C70.0087 54.3695 69.1834 55.1948 68.1689 55.1948ZM12.6494 22.1861C12.6494 17.3524 16.5819 13.4199 21.4156 13.4199H52.5845C57.4182 13.4199 61.3507 17.3524 61.3507 22.1861V32.5758C61.3507 34.3591 57.8505 36.1587 54.8531 37.1578C50.1083 38.7394 43.768 39.6104 37 39.6104C30.2321 39.6104 23.8916 38.7394 19.147 37.1578C16.1496 36.1587 12.6494 34.3591 12.6494 32.5758V22.1861ZM12.6494 39.5022V37.6584C13.9418 38.5552 15.7117 39.4351 18.1202 40.2381C23.1873 41.9271 29.8922 42.8571 37 42.8571C44.1078 42.8571 50.8128 41.9271 55.8799 40.2379C58.2886 39.4351 60.0583 38.555 61.3507 37.6582V39.5019C61.3507 44.3357 57.4182 48.2682 52.5845 48.2682H21.4156C16.5819 48.2684 12.6494 44.3359 12.6494 39.5022ZM5.83121 51.5152C6.84571 51.5152 7.67104 52.3405 7.67104 53.355C7.67104 54.3695 6.84571 55.1948 5.83121 55.1948C4.81671 55.1948 3.99138 54.3695 3.99138 53.355C3.99138 52.3405 4.81671 51.5152 5.83121 51.5152ZM10.5721 55.1948C10.7944 54.6238 10.9178 54.0037 10.9178 53.355C10.9178 52.7063 10.7944 52.0861 10.5721 51.5152H14.5974V55.1948H10.5721ZM31.9135 96.7532H16.3667C17.0539 94.6206 19.0576 93.0736 21.4156 93.0736H31.9135V96.7532ZM26.5022 89.8268V84.1613C27.0879 84.3258 27.7046 84.4156 28.342 84.4156C28.9795 84.4156 29.5961 84.3258 30.1819 84.1613V89.8268H26.5022ZM28.342 81.1688C26.9576 81.1688 25.7572 80.3753 25.1648 79.2208H31.5191C30.9267 80.3753 29.7264 81.1688 28.342 81.1688ZM57.6334 96.7532H42.0866V93.0736H52.5845C54.9425 93.0736 56.9461 94.6206 57.6334 96.7532ZM43.8182 89.8268V84.1613C44.4039 84.3258 45.0206 84.4156 45.6581 84.4156C46.2955 84.4156 46.9122 84.3258 47.4979 84.1613V89.8268H43.8182ZM45.6581 81.1688C44.2736 81.1688 43.0732 80.3753 42.4808 79.2208H48.8351C48.2427 80.3753 47.0425 81.1688 45.6581 81.1688ZM56.1559 74.1342C56.1559 75.1487 55.3306 75.974 54.3161 75.974H19.684C18.6695 75.974 17.8442 75.1487 17.8442 74.1342V50.9732C18.973 51.3253 20.1726 51.5152 21.4156 51.5152H52.5845C53.8275 51.5152 55.0273 51.3253 56.1559 50.9732V74.1342ZM59.4026 51.5152H63.428C63.2057 52.0861 63.0823 52.7063 63.0823 53.355C63.0823 54.0037 63.2057 54.6238 63.428 55.1948H59.4026V51.5152Z" fill="white"/>
<path d="M69.7923 72.7779V58.1745C71.8031 57.4952 73.2555 55.5922 73.2555 53.355C73.2555 50.5502 70.9736 48.2684 68.1689 48.2684H60.7858C63.1291 46.0747 64.5974 42.9576 64.5974 39.5022V22.1861C64.5974 15.5621 59.2085 10.1732 52.5845 10.1732H47.2814V5.81948C48.1879 5.2684 48.7966 4.27446 48.7966 3.13853C48.7966 1.40801 47.3886 0 45.6581 0C43.9275 0 42.5195 1.40801 42.5195 3.13853C42.5195 4.27446 43.1282 5.2684 44.0347 5.81948V10.1732H29.9654V5.81948C30.8719 5.2684 31.4806 4.27446 31.4806 3.13853C31.4806 1.40801 30.0726 0 28.342 0C26.6115 0 25.2035 1.40801 25.2035 3.13853C25.2035 4.27446 25.8122 5.2684 26.7187 5.81948V10.1732H21.4156C14.7916 10.1732 9.40264 15.5621 9.40264 22.1861V39.5022C9.40264 42.9576 10.871 46.0747 13.2143 48.2684H5.83121C3.02645 48.2684 0.744629 50.5502 0.744629 53.355C0.744629 55.5922 2.19701 57.4952 4.20783 58.1745V72.7779C2.19701 73.4571 0.744629 75.3602 0.744629 77.5974V81.0606C0.744629 81.9571 1.47147 82.684 2.36801 82.684C3.26454 82.684 3.99138 81.9571 3.99138 81.0606V77.5974C3.99138 76.5829 4.81671 75.7576 5.83121 75.7576C6.84571 75.7576 7.67104 76.5829 7.67104 77.5974V81.0606C7.67104 81.9571 8.39788 82.684 9.29441 82.684C10.1909 82.684 10.9178 81.9571 10.9178 81.0606V77.5974C10.9178 75.3602 9.46541 73.4571 7.45459 72.7779V58.4416H14.5974V74.1342C14.5974 76.939 16.8793 79.2208 19.684 79.2208H21.7206C21.9901 80.3193 22.5258 81.3136 23.2559 82.1318C23.2559 82.1355 23.2552 82.1392 23.2552 82.1429V89.8268H21.4156C16.7013 89.8268 12.8658 93.6623 12.8658 98.3766C12.8658 99.2732 13.5927 100 14.4892 100H33.5368C34.4334 100 35.1602 99.2732 35.1602 98.3766V91.4502C35.1602 90.5537 34.4334 89.8268 33.5368 89.8268H33.4286V82.1429C33.4286 82.1392 33.4282 82.1355 33.428 82.1318C34.1583 81.3136 34.694 80.319 34.9632 79.2208H39.0366C39.3061 80.3193 39.8418 81.3136 40.5719 82.1318C40.5719 82.1355 40.5713 82.1392 40.5713 82.1429V89.8268H40.4632C39.5667 89.8268 38.8399 90.5537 38.8399 91.4502V98.3766C38.8399 99.2732 39.5667 100 40.4632 100H59.5109C60.4074 100 61.1342 99.2732 61.1342 98.3766C61.1342 93.6623 57.2987 89.8268 52.5845 89.8268H50.7446V82.1429C50.7446 82.1392 50.7442 82.1355 50.744 82.1318C51.4743 81.3136 52.01 80.319 52.2793 79.2208H54.3161C57.1208 79.2208 59.4026 76.939 59.4026 74.1342V58.4416H66.5455V72.7779C64.5347 73.4571 63.0823 75.3602 63.0823 77.5974V81.0606C63.0823 81.9571 63.8091 82.684 64.7057 82.684C65.6022 82.684 66.329 81.9571 66.329 81.0606V77.5974C66.329 76.5829 67.1544 75.7576 68.1689 75.7576C69.1834 75.7576 70.0087 76.5829 70.0087 77.5974V81.0606C70.0087 81.9571 70.7355 82.684 71.6321 82.684C72.5286 82.684 73.2555 81.9571 73.2555 81.0606V77.5974C73.2555 75.3602 71.8031 73.4571 69.7923 72.7779ZM68.1689 55.1948C67.1544 55.1948 66.329 54.3695 66.329 53.355C66.329 52.3405 67.1544 51.5152 68.1689 51.5152C69.1834 51.5152 70.0087 52.3405 70.0087 53.355C70.0087 54.3695 69.1834 55.1948 68.1689 55.1948ZM12.6494 22.1861C12.6494 17.3524 16.5819 13.4199 21.4156 13.4199H52.5845C57.4182 13.4199 61.3507 17.3524 61.3507 22.1861V32.5758C61.3507 34.3591 57.8505 36.1587 54.8531 37.1578C50.1083 38.7394 43.768 39.6104 37 39.6104C30.2321 39.6104 23.8916 38.7394 19.147 37.1578C16.1496 36.1587 12.6494 34.3591 12.6494 32.5758V22.1861ZM12.6494 39.5022V37.6584C13.9418 38.5552 15.7117 39.4351 18.1202 40.2381C23.1873 41.9271 29.8922 42.8571 37 42.8571C44.1078 42.8571 50.8128 41.9271 55.8799 40.2379C58.2886 39.4351 60.0583 38.555 61.3507 37.6582V39.5019C61.3507 44.3357 57.4182 48.2682 52.5845 48.2682H21.4156C16.5819 48.2684 12.6494 44.3359 12.6494 39.5022ZM5.83121 51.5152C6.84571 51.5152 7.67104 52.3405 7.67104 53.355C7.67104 54.3695 6.84571 55.1948 5.83121 55.1948C4.81671 55.1948 3.99138 54.3695 3.99138 53.355C3.99138 52.3405 4.81671 51.5152 5.83121 51.5152ZM10.5721 55.1948C10.7944 54.6238 10.9178 54.0037 10.9178 53.355C10.9178 52.7063 10.7944 52.0861 10.5721 51.5152H14.5974V55.1948H10.5721ZM31.9135 96.7532H16.3667C17.0539 94.6206 19.0576 93.0736 21.4156 93.0736H31.9135V96.7532ZM26.5022 89.8268V84.1613C27.0879 84.3258 27.7046 84.4156 28.342 84.4156C28.9795 84.4156 29.5961 84.3258 30.1819 84.1613V89.8268H26.5022ZM28.342 81.1688C26.9576 81.1688 25.7572 80.3753 25.1648 79.2208H31.5191C30.9267 80.3753 29.7264 81.1688 28.342 81.1688ZM57.6334 96.7532H42.0866V93.0736H52.5845C54.9425 93.0736 56.9461 94.6206 57.6334 96.7532ZM43.8182 89.8268V84.1613C44.4039 84.3258 45.0206 84.4156 45.6581 84.4156C46.2955 84.4156 46.9122 84.3258 47.4979 84.1613V89.8268H43.8182ZM45.6581 81.1688C44.2736 81.1688 43.0732 80.3753 42.4808 79.2208H48.8351C48.2427 80.3753 47.0425 81.1688 45.6581 81.1688ZM56.1559 74.1342C56.1559 75.1487 55.3306 75.974 54.3161 75.974H19.684C18.6695 75.974 17.8442 75.1487 17.8442 74.1342V50.9732C18.973 51.3253 20.1726 51.5152 21.4156 51.5152H52.5845C53.8275 51.5152 55.0273 51.3253 56.1559 50.9732V74.1342ZM59.4026 51.5152H63.428C63.2057 52.0861 63.0823 52.7063 63.0823 53.355C63.0823 54.0037 63.2057 54.6238 63.428 55.1948H59.4026V51.5152Z" stroke="black" mask="url(#path-3-outside-1_266_83)"/>
<path d="M37.0001 56.6763C33.1025 56.6763 29.9319 59.8469 29.9319 63.7445C29.9319 67.642 33.1022 70.8126 37.0001 70.8126C40.8979 70.8126 44.0682 67.642 44.0682 63.7445C44.0682 59.8469 40.8977 56.6763 37.0001 56.6763ZM37.0001 67.0659C35.1689 67.0659 33.6786 65.5756 33.6786 63.7445C33.6786 61.9132 35.1687 60.423 37.0001 60.423C38.8315 60.423 40.3215 61.9132 40.3215 63.7445C40.3215 65.5756 38.8313 67.0659 37.0001 67.0659Z" fill="white" stroke="black" stroke-width="0.5"/>
<path d="M24.8787 58.4082C23.8441 58.4082 23.0054 59.247 23.0054 60.2816V67.208C23.0054 68.2426 23.8441 69.0814 24.8787 69.0814C25.9134 69.0814 26.7521 68.2426 26.7521 67.208V60.2816C26.7521 59.247 25.9134 58.4082 24.8787 58.4082Z" fill="white" stroke="black" stroke-width="0.5"/>
<path d="M49.1212 58.4082C48.0866 58.4082 47.2478 59.247 47.2478 60.2816V67.208C47.2478 68.2426 48.0866 69.0814 49.1212 69.0814C50.1558 69.0814 50.9946 68.2426 50.9946 67.208V60.2816C50.9946 59.247 50.1558 58.4082 49.1212 58.4082Z" fill="white" stroke="black" stroke-width="0.5"/>
</svg>
