<svg width="800" height="100" viewBox="0 0 800 100" fill="none" xmlns="http://www.w3.org/2000/svg">
<g clip-path="url(#clip0_293_4)">
<path d="M82.6041 0C60.5763 0 46.809 11.0139 41.302 33.0416C49.5625 22.0278 59.1996 17.8976 70.2135 20.651C76.4975 22.222 80.989 26.7809 85.9606 31.8274C94.0594 40.048 103.433 49.5625 123.906 49.5625C145.934 49.5625 159.701 38.5486 165.208 16.5208C156.948 27.5347 147.311 31.6649 136.297 28.9114C130.013 27.3404 125.521 22.7816 120.55 17.7351C112.451 9.51446 103.077 0 82.6041 0ZM41.302 49.5625C19.2743 49.5625 5.50694 60.5763 0 82.6041C8.26041 71.5902 17.8976 67.46 28.9114 70.2135C35.1955 71.7845 39.687 76.3433 44.6585 81.3898C52.7574 89.6104 62.1308 99.1249 82.6041 99.1249C104.632 99.1249 118.399 88.111 123.906 66.0833C115.646 77.0971 106.009 81.2273 94.9947 78.4739C88.7107 76.9029 84.2191 72.344 79.2476 67.2975C71.1487 59.0769 61.7753 49.5625 41.302 49.5625Z" fill="url(#paint0_linear_293_4)"/>
<path d="M247.8 41.7671H233.384V69.6689C233.384 77.1094 238.267 76.9931 247.8 76.5281V87.8051C228.501 90.1302 220.828 84.7824 220.828 69.6689V41.7671H210.132V29.6763H220.828V14.061L233.384 10.3408V29.6763H247.8V41.7671ZM302.753 29.6763H315.309V87.8051H302.753V79.4345C298.335 85.5962 291.476 89.3164 282.408 89.3164C266.597 89.3164 253.46 75.9468 253.46 58.7407C253.46 41.4183 266.597 28.1649 282.408 28.1649C291.476 28.1649 298.335 31.8852 302.753 37.9305V29.6763ZM284.384 77.3419C294.847 77.3419 302.753 69.5526 302.753 58.7407C302.753 47.9287 294.847 40.1394 284.384 40.1394C273.921 40.1394 266.016 47.9287 266.016 58.7407C266.016 69.5526 273.921 77.3419 284.384 77.3419ZM336.235 20.9569C331.817 20.9569 328.213 17.2367 328.213 12.9352C328.213 8.51738 331.817 4.91339 336.235 4.91339C340.653 4.91339 344.257 8.51738 344.257 12.9352C344.257 17.2367 340.653 20.9569 336.235 20.9569ZM329.957 87.8051V29.6763H342.513V87.8051H329.957ZM357.045 87.8051V2.93701H369.601V87.8051H357.045ZM451.098 29.6763H464.351L446.099 87.8051H433.775L421.684 48.6262L409.477 87.8051H397.154L378.902 29.6763H392.155L403.432 69.7851L415.639 29.6763H427.614L439.704 69.7851L451.098 29.6763ZM479.93 20.9569C475.512 20.9569 471.908 17.2367 471.908 12.9352C471.908 8.51738 475.512 4.91339 479.93 4.91339C484.347 4.91339 487.951 8.51738 487.951 12.9352C487.951 17.2367 484.347 20.9569 479.93 20.9569ZM473.652 87.8051V29.6763H486.207V87.8051H473.652ZM531.315 28.1649C544.336 28.1649 553.637 37.0005 553.637 52.114V87.8051H541.081V53.3928C541.081 44.5572 535.966 39.9069 528.06 39.9069C519.806 39.9069 513.295 44.7897 513.295 56.648V87.8051H500.74V29.6763H513.295V37.1167C517.132 31.0714 523.41 28.1649 531.315 28.1649ZM613.161 6.42474H625.717V87.8051H613.161V79.4345C608.743 85.5962 601.884 89.3164 592.816 89.3164C577.005 89.3164 563.867 75.9468 563.867 58.7407C563.867 41.4183 577.005 28.1649 592.816 28.1649C601.884 28.1649 608.743 31.8852 613.161 37.9305V6.42474ZM594.792 77.3419C605.255 77.3419 613.161 69.5526 613.161 58.7407C613.161 47.9287 605.255 40.1394 594.792 40.1394C584.329 40.1394 576.423 47.9287 576.423 58.7407C576.423 69.5526 584.329 77.3419 594.792 77.3419ZM667.802 89.3164C650.247 89.3164 637.11 75.9468 637.11 58.7407C637.11 41.4183 650.247 28.1649 667.802 28.1649C679.195 28.1649 689.077 34.0941 693.727 43.1621L682.915 49.4401C680.358 43.9759 674.661 40.4882 667.686 40.4882C657.455 40.4882 649.666 48.2775 649.666 58.7407C649.666 69.2038 657.455 76.9931 667.686 76.9931C674.661 76.9931 680.358 73.3891 683.148 68.0413L693.96 74.2029C689.077 83.3873 679.195 89.3164 667.802 89.3164ZM714.654 45.7198C714.654 56.2993 745.927 49.9051 745.927 71.4127C745.927 83.0385 735.812 89.3164 723.257 89.3164C711.631 89.3164 703.26 84.0848 699.54 75.7143L710.352 69.4364C712.212 74.6679 716.862 77.8069 723.257 77.8069C728.837 77.8069 733.139 75.9468 733.139 71.2965C733.139 60.9496 701.865 66.7624 701.865 45.9523C701.865 35.0241 711.282 28.1649 723.14 28.1649C732.674 28.1649 740.579 32.5827 744.648 40.2557L734.069 46.1848C731.976 41.6508 727.907 39.5582 723.14 39.5582C718.606 39.5582 714.654 41.5345 714.654 45.7198ZM768.248 45.7198C768.248 56.2993 799.522 49.9051 799.522 71.4127C799.522 83.0385 789.407 89.3164 776.851 89.3164C765.226 89.3164 756.855 84.0848 753.135 75.7143L763.947 69.4364C765.807 74.6679 770.457 77.8069 776.851 77.8069C782.432 77.8069 786.733 75.9468 786.733 71.2965C786.733 60.9496 755.46 66.7624 755.46 45.9523C755.46 35.0241 764.877 28.1649 776.735 28.1649C786.268 28.1649 794.174 32.5827 798.243 40.2557L787.663 46.1848C785.571 41.6508 781.502 39.5582 776.735 39.5582C772.201 39.5582 768.248 41.5345 768.248 45.7198Z" fill="#2D3748"/>
</g>
<defs>
<linearGradient id="paint0_linear_293_4" x1="-458.912" y1="3172" x2="13809.5" y2="11398.8" gradientUnits="userSpaceOnUse">
<stop stop-color="#2298BD"/>
<stop offset="1" stop-color="#0ED7B5"/>
</linearGradient>
<clipPath id="clip0_293_4">
<rect width="800" height="100" fill="white"/>
</clipPath>
</defs>
</svg>
