<svg width="240" height="50" viewBox="0 0 240 50" fill="none" xmlns="http://www.w3.org/2000/svg">
<g clip-path="url(#clip0_266_77)">
<mask id="path-1-outside-1_266_77" maskUnits="userSpaceOnUse" x="7.84644" y="-1" width="154" height="36" fill="black">
<rect fill="white" x="7.84644" y="-1" width="154" height="36"/>
<path d="M19.4392 10.9877C22.6042 10.9877 25.2333 12.6462 26.484 14.4343V11.4282H31.3081V33.7405H27.8368C27.6556 33.7413 27.476 33.7056 27.3084 33.6356C27.1409 33.5655 26.9886 33.4625 26.8605 33.3324C26.7324 33.2023 26.6309 33.0477 26.5618 32.8776C26.4928 32.7075 26.4577 32.5251 26.4584 32.3412V30.7345C25.2333 32.5485 22.6042 34.207 19.4392 34.207C13.4153 34.207 8.84644 28.9723 8.84644 22.5974C8.84644 16.2224 13.3898 10.9877 19.4392 10.9877ZM20.2815 15.445C16.3762 15.445 13.7216 18.5806 13.7216 22.5974C13.7216 26.6141 16.3507 29.7497 20.2815 29.7497C24.1867 29.7497 26.8413 26.6141 26.8413 22.5974C26.8413 18.5806 24.2378 15.445 20.2815 15.445ZM36.7959 11.4282H41.6456V14.4602C42.9729 12.2316 45.4743 10.9877 48.3331 10.9877C53.438 10.9877 56.7307 14.6416 56.7307 20.3169V33.7405H53.2593C53.0781 33.7413 52.8985 33.7056 52.731 33.6356C52.5634 33.5655 52.4112 33.4625 52.283 33.3324C52.1549 33.2023 52.0534 33.0477 51.9844 32.8776C51.9154 32.7075 51.8802 32.5251 51.881 32.3412V21.1202C51.881 17.5959 50.1198 15.445 47.3121 15.445C44.096 15.445 41.6456 17.9846 41.6456 22.7528V33.7405H38.1743C37.993 33.7413 37.8135 33.7056 37.6459 33.6356C37.4783 33.5655 37.3261 33.4625 37.198 33.3324C37.0698 33.2023 36.9683 33.0477 36.8993 32.8776C36.8303 32.7075 36.7952 32.5251 36.7959 32.3412V11.4282ZM71.1521 10.9877C74.3172 10.9877 76.9462 12.6462 78.1969 14.4343V0.285058H83.0211V33.7665H79.5497C79.3685 33.7672 79.1889 33.7315 79.0214 33.6615C78.8538 33.5914 78.7016 33.4884 78.5734 33.3583C78.4453 33.2282 78.3438 33.0736 78.2748 32.9035C78.2058 32.7334 78.1706 32.5511 78.1714 32.3671V30.7604C76.9462 32.5485 74.2916 34.207 71.1266 34.207C65.1028 34.207 60.5338 28.9723 60.5338 22.5974C60.5594 16.2224 65.1283 10.9877 71.1521 10.9877ZM72.0199 15.445C68.1147 15.445 65.4601 18.5806 65.4601 22.5974C65.4601 26.6141 68.0891 29.7497 72.0199 29.7497C75.9252 29.7497 78.5798 26.6141 78.5798 22.5974C78.5798 18.5806 75.9252 15.445 72.0199 15.445ZM88.5089 11.4282H93.333V15.3932C93.7562 14.1733 94.5396 13.1156 95.5765 12.3643C96.6134 11.6131 97.8533 11.2047 99.1271 11.195C99.761 11.1935 100.394 11.2543 101.016 11.3764V16.4297C100.234 16.1621 99.4159 16.0222 98.5911 16.0151C95.8089 16.0151 93.3075 18.3733 93.3075 22.8565V33.7405H89.8361C89.6549 33.7413 89.4754 33.7056 89.3078 33.6356C89.1402 33.5655 88.988 33.4625 88.8599 33.3324C88.7317 33.2023 88.6302 33.0477 88.5612 32.8776C88.4922 32.7075 88.4571 32.5251 88.4578 32.3412V11.4282H88.5089ZM114.085 34.207C107.576 34.207 102.573 29.0759 102.573 22.5974C102.573 16.1188 107.576 10.9877 114.085 10.9877C120.593 10.9877 125.596 16.1188 125.596 22.5974C125.596 29.0759 120.593 34.207 114.085 34.207ZM114.085 29.6461C117.964 29.6461 120.67 26.5623 120.67 22.5974C120.67 18.6324 117.939 15.5486 114.085 15.5486C110.179 15.5486 107.448 18.6324 107.448 22.5974C107.448 26.5623 110.179 29.6461 114.085 29.6461ZM131.926 6.55634C131.07 6.55634 130.249 6.21096 129.643 5.59619C129.038 4.98141 128.697 4.1476 128.697 3.27817C128.697 2.40875 129.038 1.57493 129.643 0.960154C130.249 0.345378 131.07 0 131.926 0C132.783 0 133.604 0.345378 134.209 0.960154C134.815 1.57493 135.155 2.40875 135.155 3.27817C135.155 4.1476 134.815 4.98141 134.209 5.59619C133.604 6.21096 132.783 6.55634 131.926 6.55634ZM129.527 11.4282H134.351V33.7405H130.88C130.699 33.7413 130.519 33.7056 130.351 33.6356C130.184 33.5655 130.032 33.4625 129.903 33.3324C129.775 33.2023 129.674 33.0477 129.605 32.8776C129.536 32.7075 129.501 32.5251 129.501 32.3412C129.527 32.3412 129.527 11.4282 129.527 11.4282ZM148.926 10.9877C152.091 10.9877 154.72 12.6462 155.97 14.4343V0.285058H160.795V33.7665H157.323C157.142 33.7672 156.963 33.7315 156.795 33.6615C156.627 33.5914 156.475 33.4884 156.347 33.3583C156.219 33.2282 156.117 33.0736 156.048 32.9035C155.979 32.7334 155.944 32.5511 155.945 32.3671V30.7604C154.72 32.5485 152.065 34.207 148.9 34.207C142.876 34.207 138.307 28.9723 138.307 22.5974C138.333 16.2224 142.902 10.9877 148.926 10.9877ZM149.819 15.445C145.914 15.445 143.259 18.5806 143.259 22.5974C143.259 26.6141 145.888 29.7497 149.819 29.7497C153.724 29.7497 156.379 26.6141 156.379 22.5974C156.379 18.5806 153.724 15.445 149.819 15.445Z"/>
</mask>
<path d="M19.4392 10.9877C22.6042 10.9877 25.2333 12.6462 26.484 14.4343V11.4282H31.3081V33.7405H27.8368C27.6556 33.7413 27.476 33.7056 27.3084 33.6356C27.1409 33.5655 26.9886 33.4625 26.8605 33.3324C26.7324 33.2023 26.6309 33.0477 26.5618 32.8776C26.4928 32.7075 26.4577 32.5251 26.4584 32.3412V30.7345C25.2333 32.5485 22.6042 34.207 19.4392 34.207C13.4153 34.207 8.84644 28.9723 8.84644 22.5974C8.84644 16.2224 13.3898 10.9877 19.4392 10.9877ZM20.2815 15.445C16.3762 15.445 13.7216 18.5806 13.7216 22.5974C13.7216 26.6141 16.3507 29.7497 20.2815 29.7497C24.1867 29.7497 26.8413 26.6141 26.8413 22.5974C26.8413 18.5806 24.2378 15.445 20.2815 15.445ZM36.7959 11.4282H41.6456V14.4602C42.9729 12.2316 45.4743 10.9877 48.3331 10.9877C53.438 10.9877 56.7307 14.6416 56.7307 20.3169V33.7405H53.2593C53.0781 33.7413 52.8985 33.7056 52.731 33.6356C52.5634 33.5655 52.4112 33.4625 52.283 33.3324C52.1549 33.2023 52.0534 33.0477 51.9844 32.8776C51.9154 32.7075 51.8802 32.5251 51.881 32.3412V21.1202C51.881 17.5959 50.1198 15.445 47.3121 15.445C44.096 15.445 41.6456 17.9846 41.6456 22.7528V33.7405H38.1743C37.993 33.7413 37.8135 33.7056 37.6459 33.6356C37.4783 33.5655 37.3261 33.4625 37.198 33.3324C37.0698 33.2023 36.9683 33.0477 36.8993 32.8776C36.8303 32.7075 36.7952 32.5251 36.7959 32.3412V11.4282ZM71.1521 10.9877C74.3172 10.9877 76.9462 12.6462 78.1969 14.4343V0.285058H83.0211V33.7665H79.5497C79.3685 33.7672 79.1889 33.7315 79.0214 33.6615C78.8538 33.5914 78.7016 33.4884 78.5734 33.3583C78.4453 33.2282 78.3438 33.0736 78.2748 32.9035C78.2058 32.7334 78.1706 32.5511 78.1714 32.3671V30.7604C76.9462 32.5485 74.2916 34.207 71.1266 34.207C65.1028 34.207 60.5338 28.9723 60.5338 22.5974C60.5594 16.2224 65.1283 10.9877 71.1521 10.9877ZM72.0199 15.445C68.1147 15.445 65.4601 18.5806 65.4601 22.5974C65.4601 26.6141 68.0891 29.7497 72.0199 29.7497C75.9252 29.7497 78.5798 26.6141 78.5798 22.5974C78.5798 18.5806 75.9252 15.445 72.0199 15.445ZM88.5089 11.4282H93.333V15.3932C93.7562 14.1733 94.5396 13.1156 95.5765 12.3643C96.6134 11.6131 97.8533 11.2047 99.1271 11.195C99.761 11.1935 100.394 11.2543 101.016 11.3764V16.4297C100.234 16.1621 99.4159 16.0222 98.5911 16.0151C95.8089 16.0151 93.3075 18.3733 93.3075 22.8565V33.7405H89.8361C89.6549 33.7413 89.4754 33.7056 89.3078 33.6356C89.1402 33.5655 88.988 33.4625 88.8599 33.3324C88.7317 33.2023 88.6302 33.0477 88.5612 32.8776C88.4922 32.7075 88.4571 32.5251 88.4578 32.3412V11.4282H88.5089ZM114.085 34.207C107.576 34.207 102.573 29.0759 102.573 22.5974C102.573 16.1188 107.576 10.9877 114.085 10.9877C120.593 10.9877 125.596 16.1188 125.596 22.5974C125.596 29.0759 120.593 34.207 114.085 34.207ZM114.085 29.6461C117.964 29.6461 120.67 26.5623 120.67 22.5974C120.67 18.6324 117.939 15.5486 114.085 15.5486C110.179 15.5486 107.448 18.6324 107.448 22.5974C107.448 26.5623 110.179 29.6461 114.085 29.6461ZM131.926 6.55634C131.07 6.55634 130.249 6.21096 129.643 5.59619C129.038 4.98141 128.697 4.1476 128.697 3.27817C128.697 2.40875 129.038 1.57493 129.643 0.960154C130.249 0.345378 131.07 0 131.926 0C132.783 0 133.604 0.345378 134.209 0.960154C134.815 1.57493 135.155 2.40875 135.155 3.27817C135.155 4.1476 134.815 4.98141 134.209 5.59619C133.604 6.21096 132.783 6.55634 131.926 6.55634ZM129.527 11.4282H134.351V33.7405H130.88C130.699 33.7413 130.519 33.7056 130.351 33.6356C130.184 33.5655 130.032 33.4625 129.903 33.3324C129.775 33.2023 129.674 33.0477 129.605 32.8776C129.536 32.7075 129.501 32.5251 129.501 32.3412C129.527 32.3412 129.527 11.4282 129.527 11.4282ZM148.926 10.9877C152.091 10.9877 154.72 12.6462 155.97 14.4343V0.285058H160.795V33.7665H157.323C157.142 33.7672 156.963 33.7315 156.795 33.6615C156.627 33.5914 156.475 33.4884 156.347 33.3583C156.219 33.2282 156.117 33.0736 156.048 32.9035C155.979 32.7334 155.944 32.5511 155.945 32.3671V30.7604C154.72 32.5485 152.065 34.207 148.9 34.207C142.876 34.207 138.307 28.9723 138.307 22.5974C138.333 16.2224 142.902 10.9877 148.926 10.9877ZM149.819 15.445C145.914 15.445 143.259 18.5806 143.259 22.5974C143.259 26.6141 145.888 29.7497 149.819 29.7497C153.724 29.7497 156.379 26.6141 156.379 22.5974C156.379 18.5806 153.724 15.445 149.819 15.445Z" fill="white"/>
<path d="M19.4392 10.9877C22.6042 10.9877 25.2333 12.6462 26.484 14.4343V11.4282H31.3081V33.7405H27.8368C27.6556 33.7413 27.476 33.7056 27.3084 33.6356C27.1409 33.5655 26.9886 33.4625 26.8605 33.3324C26.7324 33.2023 26.6309 33.0477 26.5618 32.8776C26.4928 32.7075 26.4577 32.5251 26.4584 32.3412V30.7345C25.2333 32.5485 22.6042 34.207 19.4392 34.207C13.4153 34.207 8.84644 28.9723 8.84644 22.5974C8.84644 16.2224 13.3898 10.9877 19.4392 10.9877ZM20.2815 15.445C16.3762 15.445 13.7216 18.5806 13.7216 22.5974C13.7216 26.6141 16.3507 29.7497 20.2815 29.7497C24.1867 29.7497 26.8413 26.6141 26.8413 22.5974C26.8413 18.5806 24.2378 15.445 20.2815 15.445ZM36.7959 11.4282H41.6456V14.4602C42.9729 12.2316 45.4743 10.9877 48.3331 10.9877C53.438 10.9877 56.7307 14.6416 56.7307 20.3169V33.7405H53.2593C53.0781 33.7413 52.8985 33.7056 52.731 33.6356C52.5634 33.5655 52.4112 33.4625 52.283 33.3324C52.1549 33.2023 52.0534 33.0477 51.9844 32.8776C51.9154 32.7075 51.8802 32.5251 51.881 32.3412V21.1202C51.881 17.5959 50.1198 15.445 47.3121 15.445C44.096 15.445 41.6456 17.9846 41.6456 22.7528V33.7405H38.1743C37.993 33.7413 37.8135 33.7056 37.6459 33.6356C37.4783 33.5655 37.3261 33.4625 37.198 33.3324C37.0698 33.2023 36.9683 33.0477 36.8993 32.8776C36.8303 32.7075 36.7952 32.5251 36.7959 32.3412V11.4282ZM71.1521 10.9877C74.3172 10.9877 76.9462 12.6462 78.1969 14.4343V0.285058H83.0211V33.7665H79.5497C79.3685 33.7672 79.1889 33.7315 79.0214 33.6615C78.8538 33.5914 78.7016 33.4884 78.5734 33.3583C78.4453 33.2282 78.3438 33.0736 78.2748 32.9035C78.2058 32.7334 78.1706 32.5511 78.1714 32.3671V30.7604C76.9462 32.5485 74.2916 34.207 71.1266 34.207C65.1028 34.207 60.5338 28.9723 60.5338 22.5974C60.5594 16.2224 65.1283 10.9877 71.1521 10.9877ZM72.0199 15.445C68.1147 15.445 65.4601 18.5806 65.4601 22.5974C65.4601 26.6141 68.0891 29.7497 72.0199 29.7497C75.9252 29.7497 78.5798 26.6141 78.5798 22.5974C78.5798 18.5806 75.9252 15.445 72.0199 15.445ZM88.5089 11.4282H93.333V15.3932C93.7562 14.1733 94.5396 13.1156 95.5765 12.3643C96.6134 11.6131 97.8533 11.2047 99.1271 11.195C99.761 11.1935 100.394 11.2543 101.016 11.3764V16.4297C100.234 16.1621 99.4159 16.0222 98.5911 16.0151C95.8089 16.0151 93.3075 18.3733 93.3075 22.8565V33.7405H89.8361C89.6549 33.7413 89.4754 33.7056 89.3078 33.6356C89.1402 33.5655 88.988 33.4625 88.8599 33.3324C88.7317 33.2023 88.6302 33.0477 88.5612 32.8776C88.4922 32.7075 88.4571 32.5251 88.4578 32.3412V11.4282H88.5089ZM114.085 34.207C107.576 34.207 102.573 29.0759 102.573 22.5974C102.573 16.1188 107.576 10.9877 114.085 10.9877C120.593 10.9877 125.596 16.1188 125.596 22.5974C125.596 29.0759 120.593 34.207 114.085 34.207ZM114.085 29.6461C117.964 29.6461 120.67 26.5623 120.67 22.5974C120.67 18.6324 117.939 15.5486 114.085 15.5486C110.179 15.5486 107.448 18.6324 107.448 22.5974C107.448 26.5623 110.179 29.6461 114.085 29.6461ZM131.926 6.55634C131.07 6.55634 130.249 6.21096 129.643 5.59619C129.038 4.98141 128.697 4.1476 128.697 3.27817C128.697 2.40875 129.038 1.57493 129.643 0.960154C130.249 0.345378 131.07 0 131.926 0C132.783 0 133.604 0.345378 134.209 0.960154C134.815 1.57493 135.155 2.40875 135.155 3.27817C135.155 4.1476 134.815 4.98141 134.209 5.59619C133.604 6.21096 132.783 6.55634 131.926 6.55634ZM129.527 11.4282H134.351V33.7405H130.88C130.699 33.7413 130.519 33.7056 130.351 33.6356C130.184 33.5655 130.032 33.4625 129.903 33.3324C129.775 33.2023 129.674 33.0477 129.605 32.8776C129.536 32.7075 129.501 32.5251 129.501 32.3412C129.527 32.3412 129.527 11.4282 129.527 11.4282ZM148.926 10.9877C152.091 10.9877 154.72 12.6462 155.97 14.4343V0.285058H160.795V33.7665H157.323C157.142 33.7672 156.963 33.7315 156.795 33.6615C156.627 33.5914 156.475 33.4884 156.347 33.3583C156.219 33.2282 156.117 33.0736 156.048 32.9035C155.979 32.7334 155.944 32.5511 155.945 32.3671V30.7604C154.72 32.5485 152.065 34.207 148.9 34.207C142.876 34.207 138.307 28.9723 138.307 22.5974C138.333 16.2224 142.902 10.9877 148.926 10.9877ZM149.819 15.445C145.914 15.445 143.259 18.5806 143.259 22.5974C143.259 26.6141 145.888 29.7497 149.819 29.7497C153.724 29.7497 156.379 26.6141 156.379 22.5974C156.379 18.5806 153.724 15.445 149.819 15.445Z" stroke="black" mask="url(#path-1-outside-1_266_77)"/>
<path d="M214.167 25.399C213.682 25.399 213.208 25.253 212.805 24.9797C212.402 24.7063 212.088 24.3178 211.903 23.8632C211.717 23.4086 211.669 22.9084 211.763 22.4258C211.858 21.9432 212.091 21.5 212.434 21.152C212.777 20.8041 213.213 20.5672 213.689 20.4712C214.164 20.3752 214.657 20.4245 215.104 20.6128C215.552 20.8011 215.935 21.1199 216.204 21.529C216.473 21.9381 216.617 22.4191 216.617 22.9112C216.617 23.5709 216.359 24.2036 215.899 24.6701C215.44 25.1367 214.816 25.3988 214.167 25.399ZM187.187 25.399C186.702 25.399 186.229 25.253 185.826 24.9797C185.423 24.7063 185.109 24.3178 184.923 23.8632C184.738 23.4086 184.689 22.9084 184.784 22.4258C184.878 21.9432 185.112 21.5 185.454 21.152C185.797 20.8041 186.234 20.5672 186.709 20.4712C187.184 20.3752 187.677 20.4245 188.125 20.6128C188.573 20.8011 188.955 21.1199 189.225 21.529C189.494 21.9381 189.637 22.4191 189.637 22.9112C189.637 23.5709 189.379 24.2036 188.92 24.6701C188.46 25.1367 187.837 25.3988 187.187 25.399ZM215.035 10.4723L219.935 1.8946C220.001 1.77715 220.044 1.64759 220.061 1.51337C220.077 1.37914 220.068 1.2429 220.032 1.11247C219.997 0.982028 219.937 0.859968 219.855 0.753297C219.773 0.646625 219.671 0.557444 219.555 0.490876C219.439 0.424308 219.311 0.381666 219.179 0.365398C219.046 0.34913 218.912 0.359557 218.784 0.396081C218.656 0.432605 218.536 0.494506 218.431 0.578227C218.326 0.661948 218.239 0.765841 218.174 0.883936L213.222 9.56526C209.289 7.74062 205.014 6.80345 200.69 6.81833C196.361 6.80757 192.079 7.73525 188.132 9.53934L183.154 0.858022C183.089 0.739927 183.002 0.636034 182.897 0.552313C182.793 0.468592 182.673 0.406691 182.544 0.370167C182.416 0.333643 182.282 0.323215 182.15 0.339483C182.017 0.355751 181.889 0.398394 181.773 0.464962C181.657 0.53153 181.556 0.62071 181.474 0.727382C181.392 0.834054 181.331 0.956114 181.296 1.08655C181.261 1.21699 181.251 1.35323 181.268 1.48745C181.284 1.62168 181.327 1.75123 181.393 1.86868L186.268 10.4463C182.053 12.7804 178.478 16.145 175.866 20.2355C173.254 24.326 171.689 29.0133 171.311 33.873H229.941C229.575 29.02 228.019 24.3371 225.415 20.2502C222.812 16.1633 219.244 12.802 215.035 10.4723Z" fill="#3DDC84"/>
</g>
<defs>
<clipPath id="clip0_266_77">
<rect width="240" height="50" fill="white"/>
</clipPath>
</defs>
</svg>
