<svg width="120" height="60" viewBox="0 0 120 60" fill="none" xmlns="http://www.w3.org/2000/svg">
<path d="M12.5 53.3402H11.68L8.39999 44.3402H9.32999L11.89 51.5402L12.01 51.9402C12.01 52.0802 12.07 52.2202 12.11 52.3702C12.1327 52.2386 12.1627 52.1084 12.2 51.9802C12.2 51.8402 12.28 51.6802 12.34 51.5202L15 44.3202H15.9L12.5 53.3402ZM17.54 45.2702C17.3916 45.2673 17.2494 45.2104 17.14 45.1102C17.0886 45.0519 17.0496 44.9836 17.0255 44.9097C17.0014 44.8357 16.9928 44.7576 17 44.6802C16.9985 44.6053 17.0128 44.5309 17.0421 44.462C17.0714 44.393 17.115 44.3311 17.17 44.2802C17.2763 44.1738 17.4197 44.1129 17.57 44.1102C17.6463 44.0998 17.7237 44.0998 17.8 44.1102C17.8689 44.1406 17.933 44.181 17.99 44.2302C18.0411 44.282 18.0819 44.3431 18.11 44.4102C18.1419 44.4827 18.1589 44.561 18.16 44.6402C18.1704 44.7165 18.1704 44.7939 18.16 44.8702C18.1284 44.9379 18.0843 44.999 18.03 45.0502C17.9798 45.108 17.9137 45.1497 17.84 45.1702C17.7528 45.2339 17.648 45.2688 17.54 45.2702ZM17.14 53.3402V46.9002H18V53.3402H17.14ZM19.66 52.1802C19.9127 52.3765 20.1966 52.5286 20.5 52.6302C20.6475 52.69 20.8021 52.7304 20.96 52.7502C21.103 52.7644 21.247 52.7644 21.39 52.7502C22.35 52.7502 22.83 52.3902 22.83 51.6702C22.8301 51.5243 22.7958 51.3804 22.73 51.2502C22.6531 51.1243 22.555 51.0127 22.44 50.9202C22.3028 50.8239 22.1552 50.7434 22 50.6802C21.8078 50.5808 21.6109 50.4907 21.41 50.4102C21.1433 50.3088 20.8857 50.1851 20.64 50.0402C20.4461 49.9274 20.2679 49.7895 20.11 49.6302C19.9758 49.4886 19.8705 49.3222 19.8 49.1402C19.7336 48.9437 19.6998 48.7376 19.7 48.5302C19.6939 48.2644 19.7595 48.0019 19.89 47.7702C20.0145 47.547 20.185 47.3528 20.39 47.2002C20.6088 47.0442 20.8522 46.9259 21.11 46.8502C21.393 46.7698 21.6858 46.7294 21.98 46.7302C22.4843 46.717 22.9846 46.8232 23.44 47.0402V47.8902C22.9773 47.584 22.4348 47.4206 21.88 47.4202C21.6937 47.4193 21.5083 47.4463 21.33 47.5002C21.1751 47.5436 21.0295 47.6148 20.9 47.7102C20.7937 47.8058 20.7026 47.9171 20.63 48.0402C20.565 48.1743 20.5309 48.3212 20.53 48.4702C20.5284 48.6141 20.5556 48.7569 20.61 48.8902C20.6647 49.0111 20.7429 49.1199 20.84 49.2102C20.9676 49.3209 21.1087 49.415 21.26 49.4902C21.43 49.5902 21.64 49.6702 21.88 49.7702L22.68 50.1402C22.8862 50.248 23.0749 50.3862 23.24 50.5502C23.3852 50.683 23.498 50.8471 23.57 51.0302C23.6447 51.2283 23.682 51.4385 23.68 51.6502C23.6858 51.9179 23.6239 52.1828 23.5 52.4202C23.3785 52.6483 23.2077 52.8464 23 53.0002C22.7751 53.1582 22.5248 53.2766 22.26 53.3502C21.9535 53.4325 21.6373 53.4729 21.32 53.4702C20.7461 53.486 20.1789 53.3442 19.68 53.0602L19.66 52.1802ZM29.46 53.3402V52.2402C29.2837 52.62 29.0007 52.9404 28.6457 53.1623C28.2906 53.3842 27.8786 53.4981 27.46 53.4902C25.93 53.4902 25.16 52.5502 25.16 50.6902V46.8902H25.96V50.5202C25.9123 51.1192 26.0559 51.7179 26.37 52.2302C26.5176 52.4201 26.7099 52.5706 26.9297 52.6683C27.1495 52.766 27.3901 52.8079 27.63 52.7902C27.8917 52.7904 28.1506 52.7359 28.39 52.6302C28.6175 52.5212 28.8188 52.3643 28.98 52.1702C29.1489 51.9608 29.2808 51.7241 29.37 51.4702C29.4614 51.1791 29.5053 50.8752 29.5 50.5702V46.9002H30.3V53.3402H29.46ZM36.06 53.3402V52.2002C35.871 52.6065 35.5734 52.9525 35.2 53.2002C34.8298 53.4263 34.4037 53.5441 33.97 53.5402C33.6849 53.5408 33.4015 53.497 33.13 53.4102C32.8961 53.3283 32.6816 53.1989 32.5 53.0302C32.3219 52.8698 32.1818 52.6717 32.09 52.4502C31.9956 52.2115 31.9481 51.9569 31.95 51.7002C31.9374 51.4436 31.979 51.1872 32.072 50.9477C32.165 50.7082 32.3075 50.491 32.49 50.3102C32.9532 49.9194 33.5262 49.6818 34.13 49.6302L36.13 49.3502C36.13 48.1102 35.65 47.4902 34.69 47.4902C33.918 47.5009 33.1772 47.7965 32.61 48.3202V47.4402C32.7502 47.3376 32.9011 47.2505 33.06 47.1802C33.2335 47.0973 33.4143 47.0303 33.6 46.9802C33.7906 46.923 33.9842 46.8763 34.18 46.8402C34.3731 46.8257 34.5669 46.8257 34.76 46.8402C35.0587 46.8188 35.3586 46.8613 35.6396 46.9647C35.9206 47.0682 36.1764 47.2303 36.39 47.4402C36.7943 47.9491 36.9909 48.5923 36.94 49.2402V53.4402L36.06 53.3402ZM34.4 50.2002C34.1498 50.2356 33.9025 50.289 33.66 50.3602C33.4774 50.4149 33.3051 50.4994 33.15 50.6102C33.0214 50.7172 32.9217 50.8547 32.86 51.0102C32.7871 51.1946 32.753 51.3921 32.76 51.5902C32.7589 51.7545 32.7895 51.9175 32.85 52.0702C32.9088 52.2164 33.0013 52.3466 33.12 52.4502C33.2393 52.5643 33.3829 52.6497 33.54 52.7002C33.7198 52.7633 33.9095 52.7938 34.1 52.7902C34.3726 52.7921 34.6423 52.7341 34.89 52.6202C35.1237 52.5116 35.3343 52.3588 35.51 52.1702C35.689 51.9681 35.8281 51.734 35.92 51.4802C36.0142 51.1964 36.0615 50.8992 36.06 50.6002V49.9702L34.4 50.2002ZM38.8 53.3402V43.8002H39.6V53.3402H38.8ZM45 52.0202C45.158 52.134 45.3252 52.2344 45.5 52.3202C45.6812 52.4096 45.8683 52.4865 46.06 52.5502C46.26 52.6102 46.46 52.6502 46.64 52.6902C46.8231 52.7044 47.0069 52.7044 47.19 52.6902C47.7319 52.7289 48.2719 52.5922 48.73 52.3002C48.8974 52.1632 49.03 51.9884 49.117 51.7903C49.2039 51.5921 49.2426 51.3762 49.23 51.1602C49.2378 50.9448 49.2003 50.7302 49.12 50.5302C49.0255 50.3414 48.8966 50.1718 48.74 50.0302C48.5482 49.8534 48.3368 49.6991 48.11 49.5702L47.21 49.0502L46.21 48.4502C45.9664 48.2854 45.7417 48.0943 45.54 47.8802C45.3744 47.6925 45.2455 47.4754 45.16 47.2402C45.0723 46.993 45.0283 46.7325 45.03 46.4702C45.0215 46.1217 45.1042 45.7769 45.27 45.4702C45.4202 45.1783 45.6358 44.925 45.9 44.7302C46.1772 44.5215 46.4885 44.3625 46.82 44.2602C47.2091 44.1657 47.6105 44.1319 48.01 44.1602C48.6163 44.1445 49.2201 44.2429 49.79 44.4502V45.3802C49.216 45.061 48.5666 44.9021 47.91 44.9202C47.6565 44.9169 47.4038 44.9506 47.16 45.0202C46.9354 45.0764 46.7222 45.1711 46.53 45.3002C46.3598 45.4271 46.217 45.5869 46.11 45.7702C46.0068 45.9711 45.9553 46.1945 45.96 46.4202C45.9531 46.6281 45.9871 46.8354 46.06 47.0302C46.1372 47.2129 46.2532 47.3767 46.4 47.5102C46.5812 47.6838 46.7826 47.8349 47 47.9602L47.9 48.4602C48.2441 48.638 48.578 48.835 48.9 49.0502C49.1585 49.2188 49.3938 49.4206 49.6 49.6502C49.7821 49.8404 49.9248 50.0647 50.02 50.3102C50.1143 50.5559 50.1618 50.8171 50.16 51.0802C50.1621 51.4258 50.0869 51.7674 49.94 52.0802C49.7969 52.3738 49.584 52.6279 49.32 52.8202C49.0383 53.029 48.7192 53.1817 48.38 53.2702C47.9884 53.3729 47.5849 53.4234 47.18 53.4202C47.0102 53.4328 46.8398 53.4328 46.67 53.4202C46.4678 53.4015 46.2673 53.3681 46.07 53.3202C45.8771 53.2821 45.6867 53.232 45.5 53.1702C45.3444 53.1168 45.1939 53.0499 45.05 52.9702L45 52.0202ZM54.2 53.2602C53.9175 53.401 53.6056 53.473 53.29 53.4702C52.25 53.4702 51.73 52.8702 51.73 51.6702V47.6002H50.6V46.9002H51.73V45.2802L52.53 45.0102V46.9102H54.19V47.6102H52.53V51.5502C52.4938 51.8973 52.5672 52.247 52.74 52.5502C52.8278 52.6529 52.9391 52.7329 53.0645 52.7834C53.1898 52.8339 53.3255 52.8534 53.46 52.8402C53.7208 52.8379 53.975 52.7578 54.19 52.6102L54.2 53.2602ZM59.73 53.3402V52.2402C59.5547 52.6208 59.272 52.9419 58.9167 53.1639C58.5614 53.386 58.1489 53.4994 57.73 53.4902C56.2 53.4902 55.43 52.5502 55.43 50.6902V46.8902H56.23V50.5202C56.187 51.1189 56.3303 51.7161 56.64 52.2302C56.7888 52.4188 56.9813 52.5683 57.2008 52.6659C57.4203 52.7635 57.6603 52.8061 57.9 52.7902C58.1617 52.7904 58.4206 52.7359 58.66 52.6302C58.8891 52.5238 59.0909 52.3664 59.25 52.1702C59.4259 51.9656 59.5585 51.7275 59.64 51.4702C59.7349 51.1797 59.7822 50.8758 59.78 50.5702V46.9002H60.58V53.3402H59.73ZM67.13 53.3402V52.2002C66.9209 52.5961 66.6013 52.9226 66.21 53.1402C65.7993 53.3742 65.3325 53.4917 64.86 53.4802C64.4842 53.4845 64.112 53.406 63.77 53.2502C63.4392 53.1086 63.1475 52.889 62.92 52.6102C62.6762 52.3155 62.4928 51.9757 62.38 51.6102C62.2427 51.1735 62.1752 50.7179 62.18 50.2602C62.1737 49.7787 62.2446 49.2993 62.39 48.8402C62.5152 48.4122 62.7262 48.0142 63.01 47.6702C63.2635 47.365 63.581 47.1192 63.94 46.9502C64.3202 46.7794 64.7332 46.6941 65.15 46.7002C65.5548 46.6734 65.9587 46.7638 66.3135 46.9607C66.6682 47.1576 66.9586 47.4525 67.15 47.8102V43.8102H67.95V53.3502L67.13 53.3402ZM67.13 49.4402C67.1341 49.1786 67.0935 48.9182 67.01 48.6702C66.9164 48.4351 66.777 48.221 66.6 48.0402C66.4249 47.856 66.2139 47.7097 65.98 47.6102C65.7303 47.5038 65.4615 47.4494 65.19 47.4502C64.8865 47.4504 64.5865 47.5152 64.31 47.6402C64.0408 47.7681 63.8047 47.9563 63.62 48.1902C63.4171 48.446 63.2645 48.7378 63.17 49.0502C63.0593 49.4236 63.002 49.8108 63 50.2002C62.9945 50.569 63.0451 50.9366 63.15 51.2902C63.2313 51.5879 63.3706 51.8666 63.56 52.1102C63.7344 52.3292 63.9567 52.5053 64.2098 52.625C64.4629 52.7446 64.7401 52.8045 65.02 52.8002C65.3261 52.8046 65.6296 52.7432 65.91 52.6202C66.1645 52.5051 66.3921 52.338 66.5781 52.1296C66.7642 51.9212 66.9045 51.6761 66.99 51.4102C67.0915 51.128 67.1423 50.8301 67.14 50.5302L67.13 49.4402ZM70.4 45.2702C70.2511 45.2702 70.1078 45.2129 70 45.1102C69.9429 45.0567 69.8982 44.9914 69.8688 44.9189C69.8395 44.8464 69.8262 44.7684 69.83 44.6902C69.8264 44.615 69.8398 44.54 69.8693 44.4708C69.8987 44.4015 69.9434 44.3398 70 44.2902C70.0513 44.2357 70.1133 44.1925 70.1821 44.1632C70.251 44.1339 70.3252 44.1193 70.4 44.1202C70.473 44.1098 70.547 44.1098 70.62 44.1202C70.6913 44.1459 70.7562 44.1868 70.81 44.2402C70.8643 44.2914 70.9084 44.3525 70.94 44.4202C70.9934 44.5689 70.9934 44.7315 70.94 44.8802C70.912 44.9499 70.8674 45.0117 70.81 45.0602C70.7637 45.1177 70.7009 45.1596 70.63 45.1802C70.5605 45.2261 70.4822 45.2568 70.4 45.2702ZM70 53.3402V46.9002H70.8V53.3402H70ZM75.52 53.5002C75.0783 53.5074 74.6396 53.4258 74.23 53.2602C73.851 53.1094 73.5096 52.8773 73.23 52.5802C72.9612 52.2897 72.7507 51.9502 72.61 51.5802C72.4652 51.1416 72.3942 50.682 72.4 50.2202C72.3902 49.7303 72.4681 49.2427 72.63 48.7802C72.7706 48.3721 72.9994 48 73.3 47.6902C73.5774 47.3906 73.9194 47.158 74.3 47.0102C74.7207 46.848 75.1692 46.7699 75.62 46.7802C76.0512 46.7706 76.4799 46.8489 76.88 47.0102C77.2612 47.1473 77.6041 47.3736 77.88 47.6702C78.1324 47.9681 78.3198 48.3156 78.43 48.6902C78.7099 49.5992 78.7099 50.5713 78.43 51.4802C78.29 51.8685 78.0798 52.2278 77.81 52.5402C77.5339 52.8437 77.1917 53.0798 76.81 53.2302C76.4037 53.4096 75.9642 53.5016 75.52 53.5002ZM75.58 47.4502C75.2371 47.444 74.8967 47.5087 74.58 47.6402C74.2995 47.759 74.0498 47.9403 73.85 48.1702C73.639 48.4199 73.4793 48.7088 73.38 49.0202C73.2668 49.3928 73.2128 49.7809 73.22 50.1702C73.2134 50.5399 73.2674 50.9081 73.38 51.2602C73.4817 51.5646 73.6413 51.8464 73.85 52.0902C74.0444 52.3216 74.2913 52.5033 74.57 52.6202C74.8863 52.7529 75.227 52.8176 75.57 52.8102C75.9125 52.8245 76.254 52.7631 76.57 52.6302C76.8433 52.5089 77.0859 52.3277 77.28 52.1002C77.4836 51.8592 77.6305 51.5756 77.71 51.2702C77.8146 50.8994 77.8652 50.5155 77.86 50.1302C77.9117 49.4157 77.7059 48.7062 77.28 48.1302C77.0712 47.8897 76.8081 47.7025 76.5124 47.5843C76.2167 47.466 75.897 47.42 75.58 47.4502ZM90 53.0002C89.2498 53.3398 88.4332 53.5072 87.61 53.4902C87.017 53.4977 86.4286 53.3854 85.88 53.1602C85.375 52.9448 84.9216 52.6243 84.55 52.2202C84.1708 51.8113 83.8812 51.3276 83.7 50.8002C83.4953 50.2224 83.3937 49.6132 83.4 49.0002C83.3955 48.3531 83.5038 47.7101 83.72 47.1002C83.917 46.531 84.2264 46.0073 84.63 45.5602C85.0322 45.1313 85.5191 44.7908 86.06 44.5602C86.6532 44.3045 87.2941 44.1784 87.94 44.1902C88.6422 44.1808 89.3403 44.2994 90 44.5402V45.4402C89.3565 45.1219 88.6479 44.9576 87.93 44.9602C87.3948 44.9504 86.8634 45.0526 86.37 45.2602C85.9319 45.4513 85.5423 45.7383 85.23 46.1002C84.9109 46.4719 84.6695 46.9037 84.52 47.3702C84.3521 47.8869 84.2677 48.427 84.27 48.9702C84.2697 49.4684 84.3438 49.9639 84.49 50.4402C84.6293 50.8775 84.8498 51.2846 85.14 51.6402C85.4327 51.9924 85.8021 52.2729 86.22 52.4602C86.6882 52.6697 87.1972 52.7722 87.71 52.7602C88.5085 52.7711 89.2966 52.5784 90 52.2002V53.0002ZM94.4 53.5002C93.9616 53.5066 93.5263 53.425 93.12 53.2602C92.7395 53.1121 92.3976 52.8796 92.12 52.5802C91.8481 52.2921 91.6372 51.9519 91.5 51.5802C91.3552 51.1416 91.2842 50.682 91.29 50.2202C91.2819 49.7313 91.3562 49.2444 91.51 48.7802C91.6553 48.372 91.8873 48.0002 92.19 47.6902C92.4657 47.3887 92.8082 47.1558 93.19 47.0102C93.6107 46.848 94.0592 46.7699 94.51 46.7802C94.938 46.7706 95.3634 46.8489 95.76 47.0102C96.1424 47.1448 96.4859 47.3715 96.76 47.6702C97.0304 47.9788 97.2346 48.3396 97.36 48.7302C97.5069 49.1855 97.5778 49.6619 97.57 50.1402C97.5766 50.6094 97.5021 51.0763 97.35 51.5202C97.2186 51.9125 97.0075 52.2734 96.73 52.5802C96.4548 52.8848 96.1124 53.1211 95.73 53.2702C95.3081 53.4409 94.8547 53.5193 94.4 53.5002ZM94.47 47.4502C94.127 47.4428 93.7863 47.5076 93.47 47.6402C93.1895 47.759 92.9398 47.9403 92.74 48.1702C92.5256 48.4176 92.3655 48.7071 92.27 49.0202C92.1568 49.3928 92.1028 49.7809 92.11 50.1702C92.1034 50.5399 92.1574 50.9081 92.27 51.2602C92.3682 51.564 92.5245 51.8459 92.73 52.0902C92.9283 52.3218 93.1784 52.5034 93.46 52.6202C94.0728 52.8666 94.7572 52.8666 95.37 52.6202C95.6427 52.5026 95.8828 52.3208 96.07 52.0902C96.2766 51.8497 96.4269 51.5662 96.51 51.2602C96.6146 50.8894 96.6652 50.5055 96.66 50.1202C96.7117 49.4057 96.5059 48.6962 96.08 48.1202C95.8796 47.8942 95.6307 47.7165 95.3519 47.6005C95.073 47.4845 94.7715 47.4331 94.47 47.4502ZM103.67 53.3502V52.2002C103.465 52.5954 103.148 52.922 102.76 53.1402C102.387 53.3432 101.972 53.4587 101.548 53.4777C101.123 53.4968 100.7 53.419 100.31 53.2502C99.9805 53.1063 99.6894 52.8871 99.46 52.6102C99.2197 52.3131 99.0366 51.9741 98.92 51.6102C98.7863 51.173 98.7221 50.7174 98.73 50.2602C98.7237 49.7787 98.7946 49.2993 98.94 48.8402C99.0665 48.435 99.2702 48.058 99.54 47.7302C99.7894 47.4208 100.108 47.1741 100.47 47.0102C100.85 46.8375 101.263 46.7521 101.68 46.7602C102.085 46.7308 102.49 46.8202 102.845 47.0173C103.201 47.2145 103.491 47.5108 103.68 47.8702V43.8002H104.48V53.3402L103.67 53.3502ZM103.67 49.4502C103.672 49.1797 103.621 48.9114 103.52 48.6602C103.43 48.4256 103.294 48.2114 103.12 48.0302C102.942 47.8488 102.732 47.7029 102.5 47.6002C102.247 47.4946 101.975 47.4402 101.7 47.4402C101.397 47.4413 101.097 47.5061 100.82 47.6302C100.556 47.7611 100.323 47.949 100.14 48.1802C99.9335 48.4335 99.7804 48.7261 99.69 49.0402C99.5767 49.4162 99.5227 49.8076 99.53 50.2002C99.5263 50.5683 99.5734 50.9351 99.67 51.2902C99.7545 51.5886 99.8973 51.8673 100.09 52.1102C100.259 52.3254 100.474 52.4997 100.72 52.6202C100.98 52.7421 101.263 52.8036 101.55 52.8002C101.853 52.8044 102.153 52.743 102.43 52.6202C102.682 52.5047 102.91 52.3417 103.1 52.1402C103.284 51.9249 103.426 51.6774 103.52 51.4102C103.622 51.128 103.672 50.8301 103.67 50.5302V49.4502ZM106.93 50.2702C106.927 50.6298 106.981 50.9875 107.09 51.3302C107.174 51.6249 107.32 51.8979 107.52 52.1302C107.707 52.3497 107.943 52.5212 108.21 52.6302C108.497 52.7539 108.807 52.8153 109.12 52.8102C109.873 52.7979 110.599 52.5299 111.18 52.0502V52.8502C110.522 53.3024 109.738 53.5335 108.94 53.5102C108.538 53.5143 108.14 53.436 107.77 53.2802C107.42 53.1378 107.111 52.9111 106.87 52.6202C106.607 52.3099 106.409 51.9492 106.29 51.5602C106.151 51.0965 106.083 50.6143 106.09 50.1302C106.089 49.6745 106.163 49.2217 106.31 48.7902C106.447 48.4024 106.653 48.0431 106.92 47.7302C107.177 47.4309 107.494 47.189 107.85 47.0202C108.216 46.8484 108.616 46.7629 109.02 46.7702C109.397 46.7635 109.772 46.835 110.12 46.9802C110.431 47.1225 110.705 47.3347 110.92 47.6002C111.15 47.8965 111.317 48.2369 111.41 48.6002C111.531 49.0226 111.589 49.4608 111.58 49.9002V50.3002L106.93 50.2702ZM110.75 49.5702C110.775 49.0103 110.606 48.4589 110.27 48.0102C110.116 47.8246 109.922 47.6773 109.701 47.5801C109.481 47.4829 109.241 47.4384 109 47.4502C108.739 47.4478 108.48 47.4988 108.24 47.6002C108.01 47.6977 107.803 47.8405 107.63 48.0202C107.445 48.2123 107.296 48.4358 107.19 48.6802C107.066 48.9631 106.985 49.2631 106.95 49.5702H110.75ZM68.2 6.47021V34.6002L43.63 30.9502L68.2 39.2202L76.4 35.8202V9.88022L68.2 6.47021ZM59.6 11.2702L52.07 18.6902L47.54 15.2902L45.68 15.9102L50.28 20.4702L45.68 25.0302L47.54 25.6502L52.07 22.2502L59.6 29.7102L64.1 27.7902V13.2002L59.6 11.2702ZM59.6 16.5702V24.3702L54.42 20.4702L59.6 16.5702Z" fill="#007ACC"/>
</svg>
