<svg width="150" height="75" viewBox="0 0 150 75" fill="none" xmlns="http://www.w3.org/2000/svg">
<path d="M65.8948 22.5007H65.6448V22.7507V49.86V50.11H65.8948H87.5037H87.7537V49.86V40.8236V40.5736H87.5037H75.1812V32.0371H87.5037H87.7537V31.7871V22.7507V22.5007H87.5037H65.8948Z" fill="white" stroke="black" stroke-width="0.5"/>
<path d="M91.8254 22.5007H91.5754V22.7507V40.4307V40.6807H91.8254H104.148V41.7523H91.8254H91.5754V42.0023V50.2529V50.5029H91.8254H113.434H113.684V50.2529V32.1801V31.9301H113.434H101.112V30.8585H113.434H113.684V30.6085V22.7507V22.5007H113.434H91.8254Z" fill="white" stroke="black" stroke-width="0.5"/>
<path d="M117.756 22.5007H117.506V22.7507V40.4307V40.6807H117.756H130.079V41.7523H117.756H117.506V42.0023V50.2529V50.5029H117.756H139.365H139.615V50.2529V32.1801V31.9301H139.365H127.043V30.8585H139.365H139.615V30.6085V22.7507V22.5007H139.365H117.756Z" fill="white" stroke="black" stroke-width="0.5"/>
<path d="M51.9527 58.6988L32.2386 64.1642L12.5788 58.7065L8.19775 9.56738H56.3384L51.9527 58.6988Z" fill="#264DE4"/>
<path d="M32.2681 59.9866L48.198 55.5702L51.9459 13.5852H32.2681V59.9866Z" fill="#2965F1"/>
<path d="M32.268 31.8103H18.2412L18.7814 37.8369H32.268V31.8103Z" fill="#EBEBEB"/>
<path d="M32.2473 19.6121H17.156L17.7039 25.6388H32.2681V19.6121H32.2473Z" fill="#EBEBEB"/>
<path d="M32.2417 47.4693L25.5297 45.6569L25.1006 40.8503H21.8391H19.0508L19.8951 50.3131L32.2404 53.7403L32.2681 53.7326V47.4623L32.2417 47.4693Z" fill="#EBEBEB"/>
<path d="M40.7396 25.6388L40.1912 31.8103H32.2473V37.8369H39.6685L38.969 45.6531L32.2473 47.4673V53.7374L44.6024 50.3132L44.693 49.295L46.1093 33.4286L46.2563 31.8103L47.3443 19.6121H32.2473V25.6388H40.7396Z" fill="white"/>
</svg>
