<svg width="150" height="75" viewBox="0 0 150 75" fill="none" xmlns="http://www.w3.org/2000/svg">
<mask id="path-2-outside-1_266_163" maskUnits="userSpaceOnUse" x="83.9351" y="16.6504" width="51" height="41" fill="black">
<rect fill="white" x="83.9351" y="16.6504" width="51" height="41"/>
<path d="M94.7476 31.4379C92.6226 31.4379 91.0376 32.4816 91.0376 34.9941C91.0376 36.8691 92.0813 38.2004 94.6313 38.2004C96.7938 38.2004 98.2626 36.9254 98.2626 34.9154C98.2626 32.6341 96.9501 31.4379 94.7476 31.4379ZM90.4976 49.1754C89.9938 49.7929 89.4926 50.4504 89.4926 51.2066C89.4926 52.7504 91.4613 53.2166 94.1676 53.2166C96.4088 53.2166 99.4613 53.0604 99.4613 50.9754C99.4613 49.7379 97.9926 49.6604 96.1363 49.5441L90.5113 49.1591L90.4976 49.1754ZM101.935 31.5529C102.629 32.4441 103.365 33.6779 103.365 35.4566C103.365 39.7441 99.9901 42.2566 95.1351 42.2566C93.8851 42.2566 92.7913 42.1004 92.0813 41.9091L90.8063 43.9404L94.5938 44.1716C101.281 44.5966 105.219 44.7916 105.219 49.9279C105.219 54.3729 101.319 56.8804 94.5938 56.8804C87.6001 56.8804 84.9351 55.1029 84.9351 52.0366C84.9351 50.2991 85.7101 49.3704 87.0601 48.0941C85.7851 47.5566 85.3601 46.5891 85.3601 45.5466C85.3601 44.6966 85.7851 43.9216 86.4813 43.2029L88.8763 40.8841C86.9826 39.9591 85.5513 37.9466 85.5513 35.1029C85.5513 30.6591 88.4888 27.6079 94.4013 27.6079C96.0638 27.6079 97.0688 27.7616 97.9576 27.9954H105.493V31.2791L101.936 31.5491M112.289 24.5304C110.101 24.5304 108.811 23.2554 108.811 21.0504C108.811 18.8454 110.086 17.6504 112.289 17.6504C114.53 17.6504 115.805 18.8504 115.805 21.0504C115.805 23.2504 114.529 24.5304 112.289 24.5304ZM107.289 47.7529V44.7029L109.261 44.4329C109.801 44.3554 109.88 44.2391 109.88 43.6579V32.3004C109.88 31.8754 109.764 31.6054 109.376 31.4879L107.289 30.7541L107.714 27.6266H115.714V43.6641C115.714 44.2829 115.751 44.3591 116.333 44.4391L118.301 44.7091V47.7566H107.285M133.598 46.2566C131.935 47.0691 129.5 47.8191 127.298 47.8191C122.698 47.8191 120.96 45.9666 120.96 41.5979V31.4729C120.96 31.2416 120.96 31.0854 120.648 31.0854H117.96V27.6479C121.36 27.2729 122.714 25.5604 123.139 21.3479H126.81V26.8354C126.81 27.1041 126.81 27.2229 127.12 27.2229H132.57V31.0854H126.798V40.3041C126.798 42.5854 127.34 43.4729 129.423 43.4729C130.505 43.4729 131.61 43.2029 132.553 42.8554L133.596 46.2554"/>
</mask>
<path d="M94.7476 31.4379C92.6226 31.4379 91.0376 32.4816 91.0376 34.9941C91.0376 36.8691 92.0813 38.2004 94.6313 38.2004C96.7938 38.2004 98.2626 36.9254 98.2626 34.9154C98.2626 32.6341 96.9501 31.4379 94.7476 31.4379ZM90.4976 49.1754C89.9938 49.7929 89.4926 50.4504 89.4926 51.2066C89.4926 52.7504 91.4613 53.2166 94.1676 53.2166C96.4088 53.2166 99.4613 53.0604 99.4613 50.9754C99.4613 49.7379 97.9926 49.6604 96.1363 49.5441L90.5113 49.1591L90.4976 49.1754ZM101.935 31.5529C102.629 32.4441 103.365 33.6779 103.365 35.4566C103.365 39.7441 99.9901 42.2566 95.1351 42.2566C93.8851 42.2566 92.7913 42.1004 92.0813 41.9091L90.8063 43.9404L94.5938 44.1716C101.281 44.5966 105.219 44.7916 105.219 49.9279C105.219 54.3729 101.319 56.8804 94.5938 56.8804C87.6001 56.8804 84.9351 55.1029 84.9351 52.0366C84.9351 50.2991 85.7101 49.3704 87.0601 48.0941C85.7851 47.5566 85.3601 46.5891 85.3601 45.5466C85.3601 44.6966 85.7851 43.9216 86.4813 43.2029L88.8763 40.8841C86.9826 39.9591 85.5513 37.9466 85.5513 35.1029C85.5513 30.6591 88.4888 27.6079 94.4013 27.6079C96.0638 27.6079 97.0688 27.7616 97.9576 27.9954H105.493V31.2791L101.936 31.5491M112.289 24.5304C110.101 24.5304 108.811 23.2554 108.811 21.0504C108.811 18.8454 110.086 17.6504 112.289 17.6504C114.53 17.6504 115.805 18.8504 115.805 21.0504C115.805 23.2504 114.529 24.5304 112.289 24.5304ZM107.289 47.7529V44.7029L109.261 44.4329C109.801 44.3554 109.88 44.2391 109.88 43.6579V32.3004C109.88 31.8754 109.764 31.6054 109.376 31.4879L107.289 30.7541L107.714 27.6266H115.714V43.6641C115.714 44.2829 115.751 44.3591 116.333 44.4391L118.301 44.7091V47.7566H107.285M133.598 46.2566C131.935 47.0691 129.5 47.8191 127.298 47.8191C122.698 47.8191 120.96 45.9666 120.96 41.5979V31.4729C120.96 31.2416 120.96 31.0854 120.648 31.0854H117.96V27.6479C121.36 27.2729 122.714 25.5604 123.139 21.3479H126.81V26.8354C126.81 27.1041 126.81 27.2229 127.12 27.2229H132.57V31.0854H126.798V40.3041C126.798 42.5854 127.34 43.4729 129.423 43.4729C130.505 43.4729 131.61 43.2029 132.553 42.8554L133.596 46.2554" fill="white"/>
<path d="M90.4976 49.1754L90.1158 48.8523L90.1101 48.8593L90.4976 49.1754ZM96.1363 49.5441L96.1022 50.043L96.1051 50.0432L96.1363 49.5441ZM90.5113 49.1591L90.5454 48.6603L90.2931 48.643L90.1296 48.8361L90.5113 49.1591ZM92.0813 41.9091L92.2114 41.4263L91.8544 41.3302L91.6578 41.6433L92.0813 41.9091ZM90.8063 43.9404L90.3828 43.6746L89.9349 44.3881L90.7758 44.4395L90.8063 43.9404ZM94.5938 44.1716L94.6255 43.6726L94.6243 43.6726L94.5938 44.1716ZM87.0601 48.0941L87.4035 48.4575L87.9604 47.9311L87.2543 47.6334L87.0601 48.0941ZM86.4813 43.2029L86.1335 42.8437L86.1278 42.8492L86.1222 42.855L86.4813 43.2029ZM88.8763 40.8841L89.2241 41.2434L89.7361 40.7477L89.0958 40.4349L88.8763 40.8841ZM97.9576 27.9954L97.8304 28.4789L97.8929 28.4954H97.9576V27.9954ZM105.493 27.9954H105.993V27.4954H105.493V27.9954ZM105.493 31.2791L105.53 31.7777L105.993 31.7426V31.2791H105.493ZM107.289 44.7029L107.221 44.2075L106.789 44.2667V44.7029H107.289ZM109.261 44.4329L109.329 44.9283L109.332 44.9278L109.261 44.4329ZM109.376 31.4879L109.211 31.9596L109.221 31.9632L109.231 31.9664L109.376 31.4879ZM107.289 30.7541L106.793 30.6868L106.738 31.0907L107.123 31.2258L107.289 30.7541ZM107.714 27.6266V27.1266H107.277L107.218 27.5593L107.714 27.6266ZM115.714 27.6266H116.214V27.1266H115.714V27.6266ZM116.333 44.4391L116.264 44.9345L116.265 44.9345L116.333 44.4391ZM118.301 44.7091H118.801V44.273L118.369 44.2138L118.301 44.7091ZM118.301 47.7566V48.2566H118.801V47.7566H118.301ZM117.96 31.0854H117.46V31.5854H117.96V31.0854ZM117.96 27.6479L117.905 27.1509L117.46 27.2V27.6479H117.96ZM123.139 21.3479V20.8479H122.687L122.641 21.2977L123.139 21.3479ZM126.81 21.3479H127.31V20.8479H126.81V21.3479ZM132.57 27.2229H133.07V26.7229H132.57V27.2229ZM132.57 31.0854V31.5854H133.07V31.0854H132.57ZM126.798 31.0854V30.5854H126.298V31.0854H126.798ZM132.553 42.8554L133.031 42.7087L132.875 42.2034L132.38 42.3863L132.553 42.8554ZM94.7476 30.9379C93.6109 30.9379 92.5504 31.2165 91.7678 31.8964C90.9731 32.5868 90.5376 33.6274 90.5376 34.9941H91.5376C91.5376 33.8483 91.8945 33.1109 92.4236 32.6513C92.9647 32.1812 93.7592 31.9379 94.7476 31.9379V30.9379ZM90.5376 34.9941C90.5376 36.0217 90.825 36.9694 91.5285 37.6578C92.2309 38.3451 93.2733 38.7004 94.6313 38.7004V37.7004C93.4393 37.7004 92.6848 37.3901 92.2279 36.943C91.772 36.497 91.5376 35.8416 91.5376 34.9941H90.5376ZM94.6313 38.7004C95.809 38.7004 96.8439 38.3525 97.5911 37.6844C98.3441 37.0111 98.7626 36.0496 98.7626 34.9154H97.7626C97.7626 35.7912 97.4466 36.4722 96.9246 36.9389C96.3968 37.4108 95.6162 37.7004 94.6313 37.7004V38.7004ZM98.7626 34.9154C98.7626 33.6793 98.4049 32.6649 97.6788 31.9619C96.9554 31.2616 95.936 30.9379 94.7476 30.9379V31.9379C95.7617 31.9379 96.4997 32.2123 96.9832 32.6804C97.464 33.1459 97.7626 33.8703 97.7626 34.9154H98.7626ZM90.1101 48.8593C89.6264 49.4523 88.9926 50.2447 88.9926 51.2066H89.9926C89.9926 50.6561 90.3612 50.1335 90.885 49.4915L90.1101 48.8593ZM88.9926 51.2066C88.9926 51.7096 89.1569 52.1456 89.4652 52.5001C89.7648 52.8445 90.1775 53.0865 90.6406 53.2591C91.5582 53.6011 92.8012 53.7166 94.1676 53.7166V52.7166C92.8276 52.7166 91.7332 52.5991 90.9898 52.322C90.6224 52.1851 90.3739 52.0211 90.2197 51.8438C90.0743 51.6767 89.9926 51.4756 89.9926 51.2066H88.9926ZM94.1676 53.7166C95.2845 53.7166 96.6737 53.68 97.7929 53.3585C98.355 53.197 98.8926 52.9521 99.2953 52.5662C99.713 52.1658 99.9613 51.6356 99.9613 50.9754H98.9613C98.9613 51.3577 98.8281 51.6288 98.6034 51.8442C98.3637 52.074 97.9981 52.2591 97.5169 52.3973C96.5495 52.6752 95.2919 52.7166 94.1676 52.7166V53.7166ZM99.9613 50.9754C99.9613 50.5573 99.8331 50.1956 99.5725 49.9094C99.3235 49.6359 98.9893 49.4707 98.645 49.3624C97.9737 49.1511 97.0688 49.1016 96.1676 49.0451L96.1051 50.0432C97.0601 50.103 97.8177 50.1503 98.3448 50.3162C98.5997 50.3965 98.7487 50.49 98.8331 50.5826C98.9059 50.6626 98.9613 50.7748 98.9613 50.9754H99.9613ZM96.1704 49.0453L90.5454 48.6603L90.4772 49.658L96.1022 50.043L96.1704 49.0453ZM90.1296 48.8361L90.1159 48.8524L90.8792 49.4984L90.893 49.4821L90.1296 48.8361ZM101.54 31.86C102.198 32.7052 102.865 33.8325 102.865 35.4566H103.865C103.865 33.5233 103.059 32.1831 102.33 31.2458L101.54 31.86ZM102.865 35.4566C102.865 37.456 102.085 39.0098 100.758 40.0745C99.4186 41.1491 97.4819 41.7566 95.1351 41.7566V42.7566C97.6432 42.7566 99.8215 42.108 101.384 40.8544C102.958 39.591 103.865 37.7448 103.865 35.4566H102.865ZM95.1351 41.7566C93.9215 41.7566 92.8723 41.6044 92.2114 41.4263L91.9513 42.3919C92.7103 42.5964 93.8486 42.7566 95.1351 42.7566V41.7566ZM91.6578 41.6433L90.3828 43.6746L91.2298 44.2062L92.5048 42.175L91.6578 41.6433ZM90.7758 44.4395L94.5633 44.6707L94.6243 43.6726L90.8368 43.4413L90.7758 44.4395ZM94.5621 44.6706C96.2393 44.7772 97.723 44.8682 99.0152 45.0245C100.309 45.1809 101.376 45.3991 102.225 45.7459C103.065 46.0892 103.672 46.5507 104.077 47.1891C104.484 47.8321 104.719 48.7054 104.719 49.9279H105.719C105.719 48.5823 105.461 47.5051 104.921 46.6537C104.379 45.7977 103.583 45.2208 102.603 44.8202C101.632 44.4231 100.46 44.1919 99.1353 44.0317C97.8084 43.8713 96.2921 43.7786 94.6255 43.6726L94.5621 44.6706ZM104.719 49.9279C104.719 51.9783 103.832 53.5602 102.155 54.652C100.452 55.7611 97.9057 56.3804 94.5938 56.3804V57.3804C98.0069 57.3804 100.773 56.746 102.701 55.49C104.656 54.2169 105.719 52.3225 105.719 49.9279H104.719ZM94.5938 56.3804C91.121 56.3804 88.8078 55.9359 87.3784 55.1679C86.6727 54.7887 86.1942 54.337 85.8894 53.8296C85.5847 53.3224 85.4351 52.7288 85.4351 52.0366H84.4351C84.4351 52.8776 84.6185 53.656 85.0321 54.3445C85.4456 55.0328 86.0704 55.6003 86.9051 56.0488C88.5567 56.9361 91.0729 57.3804 94.5938 57.3804V56.3804ZM85.4351 52.0366C85.4351 51.2525 85.6072 50.6752 85.9209 50.1482C86.2448 49.6042 86.7305 49.0938 87.4035 48.4575L86.7166 47.7308C86.0397 48.3707 85.4628 48.9629 85.0617 49.6367C84.6504 50.3275 84.4351 51.0833 84.4351 52.0366H85.4351ZM87.2543 47.6334C86.7018 47.4005 86.3644 47.0894 86.1598 46.7511C85.9526 46.4083 85.8601 46.0011 85.8601 45.5466H84.8601C84.8601 46.1347 84.98 46.7325 85.304 47.2684C85.6307 47.8088 86.1433 48.2503 86.8658 48.5549L87.2543 47.6334ZM85.8601 45.5466C85.8601 44.8757 86.1933 44.2189 86.8404 43.5508L86.1222 42.855C85.3769 43.6244 84.8601 44.5176 84.8601 45.5466H85.8601ZM86.8291 43.5621L89.2241 41.2434L88.5285 40.5249L86.1335 42.8437L86.8291 43.5621ZM89.0958 40.4349C87.3809 39.5972 86.0513 37.7637 86.0513 35.1029H85.0513C85.0513 38.1296 86.5842 40.321 88.6569 41.3334L89.0958 40.4349ZM86.0513 35.1029C86.0513 32.9953 86.7443 31.2679 88.0925 30.0616C89.4475 28.8493 91.5267 28.1079 94.4013 28.1079V27.1079C91.3634 27.1079 89.0176 27.8921 87.4257 29.3164C85.8271 30.7466 85.0513 32.7667 85.0513 35.1029H86.0513ZM94.4013 28.1079C96.0282 28.1079 96.9897 28.2578 97.8304 28.4789L98.0847 27.5118C97.1479 27.2654 96.0994 27.1079 94.4013 27.1079V28.1079ZM97.9576 28.4954H105.493V27.4954H97.9576V28.4954ZM104.993 27.9954V31.2791H105.993V27.9954H104.993ZM105.455 30.7806L101.898 31.0506L101.974 32.0477L105.53 31.7777L105.455 30.7806ZM112.289 24.0304C111.292 24.0304 110.562 23.7415 110.083 23.2632C109.604 22.7852 109.311 22.0558 109.311 21.0504H108.311C108.311 22.25 108.664 23.2606 109.377 23.9713C110.089 24.6818 111.099 25.0304 112.289 25.0304V24.0304ZM109.311 21.0504C109.311 20.044 109.6 19.3388 110.072 18.883C110.546 18.4245 111.275 18.1504 112.289 18.1504V17.1504C111.1 17.1504 110.091 17.4737 109.377 18.1641C108.66 18.8569 108.311 19.8518 108.311 21.0504H109.311ZM112.289 18.1504C113.324 18.1504 114.063 18.4267 114.541 18.8861C115.016 19.3424 115.305 20.0468 115.305 21.0504H116.305C116.305 19.854 115.956 18.8584 115.234 18.1647C114.514 17.4741 113.495 17.1504 112.289 17.1504V18.1504ZM115.305 21.0504C115.305 22.0544 115.016 22.7828 114.535 23.2606C114.053 23.7389 113.315 24.0304 112.289 24.0304V25.0304C113.503 25.0304 114.523 24.6819 115.239 23.9701C115.956 23.258 116.305 22.2464 116.305 21.0504H115.305ZM107.789 47.7529V44.7029H106.789V47.7529H107.789ZM107.357 45.1983L109.329 44.9283L109.193 43.9375L107.221 44.2075L107.357 45.1983ZM109.332 44.9278C109.584 44.8916 109.941 44.8307 110.167 44.5425C110.28 44.398 110.329 44.2374 110.352 44.0964C110.375 43.9592 110.38 43.8082 110.38 43.6579H109.38C109.38 43.7982 109.375 43.8797 109.366 43.9302C109.358 43.9769 109.354 43.9592 109.379 43.9261C109.408 43.889 109.436 43.8832 109.412 43.892C109.38 43.9039 109.317 43.9198 109.19 43.938L109.332 44.9278ZM110.38 43.6579V32.3004H109.38V43.6579H110.38ZM110.38 32.3004C110.38 32.0531 110.348 31.7765 110.207 31.5303C110.055 31.2637 109.812 31.0977 109.521 31.0094L109.231 31.9664C109.284 31.9824 109.31 31.9982 109.321 32.0063C109.33 32.0132 109.335 32.0189 109.34 32.0273C109.354 32.0518 109.38 32.1227 109.38 32.3004H110.38ZM109.542 31.0162L107.455 30.2824L107.123 31.2258L109.211 31.9596L109.542 31.0162ZM107.784 30.8215L108.209 27.694L107.218 27.5593L106.793 30.6868L107.784 30.8215ZM107.714 28.1266H115.714V27.1266H107.714V28.1266ZM115.214 27.6266V43.6641H116.214V27.6266H115.214ZM115.214 43.6641C115.214 43.8156 115.216 43.9678 115.233 44.1005C115.251 44.2353 115.291 44.4057 115.409 44.5589C115.532 44.7187 115.693 44.7997 115.834 44.8462C115.967 44.8899 116.118 44.9143 116.264 44.9345L116.401 43.9438C116.256 43.9239 116.185 43.9089 116.147 43.8964C116.118 43.8868 116.16 43.8951 116.201 43.9484C116.237 43.9952 116.232 44.0255 116.224 43.9696C116.217 43.9114 116.214 43.822 116.214 43.6641H115.214ZM116.265 44.9345L118.233 45.2045L118.369 44.2138L116.4 43.9438L116.265 44.9345ZM117.801 44.7091V47.7566H118.801V44.7091H117.801ZM118.301 47.2566H107.285V48.2566H118.301V47.2566ZM133.378 45.8074C131.763 46.5966 129.404 47.3191 127.298 47.3191V48.3191C129.596 48.3191 132.107 47.5417 133.817 46.7059L133.378 45.8074ZM127.298 47.3191C125.047 47.3191 123.627 46.863 122.757 45.9932C121.888 45.1238 121.46 43.7332 121.46 41.5979H120.46C120.46 43.8313 120.901 45.5514 122.05 46.7004C123.199 47.849 124.948 48.3191 127.298 48.3191V47.3191ZM121.46 41.5979V31.4729H120.46V41.5979H121.46ZM121.46 31.4729C121.46 31.4221 121.461 31.3413 121.453 31.2633C121.444 31.1843 121.424 31.064 121.355 30.9433C121.182 30.6429 120.871 30.5854 120.648 30.5854V31.5854C120.69 31.5854 120.676 31.5916 120.636 31.5751C120.614 31.5659 120.585 31.5502 120.556 31.5249C120.527 31.4994 120.504 31.4703 120.487 31.4416C120.457 31.3888 120.456 31.3509 120.458 31.3663C120.46 31.3826 120.46 31.408 120.46 31.4729H121.46ZM120.648 30.5854H117.96V31.5854H120.648V30.5854ZM118.46 31.0854V27.6479H117.46V31.0854H118.46ZM118.015 28.1449C119.791 27.949 121.124 27.3919 122.053 26.2529C122.963 25.1357 123.421 23.5336 123.636 21.3981L122.641 21.2977C122.432 23.3747 122 24.7351 121.278 25.621C120.573 26.4851 119.529 26.9718 117.905 27.1509L118.015 28.1449ZM123.139 21.8479H126.81V20.8479H123.139V21.8479ZM126.31 21.3479V26.8354H127.31V21.3479H126.31ZM126.31 26.8354C126.31 26.8946 126.31 26.9798 126.317 27.0586C126.325 27.1372 126.345 27.265 126.422 27.391C126.61 27.6973 126.942 27.7229 127.12 27.7229V26.7229C127.067 26.7229 127.073 26.7167 127.107 26.7285C127.127 26.7356 127.158 26.7495 127.191 26.7753C127.226 26.8019 127.254 26.8344 127.275 26.8688C127.314 26.9315 127.314 26.9793 127.312 26.9601C127.311 26.9409 127.31 26.9106 127.31 26.8354H126.31ZM127.12 27.7229H132.57V26.7229H127.12V27.7229ZM132.07 27.2229V31.0854H133.07V27.2229H132.07ZM132.57 30.5854H126.798V31.5854H132.57V30.5854ZM126.298 31.0854V40.3041H127.298V31.0854H126.298ZM126.298 40.3041C126.298 41.4496 126.425 42.3991 126.935 43.0517C127.474 43.7419 128.328 43.9729 129.423 43.9729V42.9729C128.435 42.9729 127.976 42.7601 127.723 42.4362C127.441 42.0748 127.298 41.4399 127.298 40.3041H126.298ZM129.423 43.9729C130.583 43.9729 131.748 43.6848 132.726 43.3245L132.38 42.3863C131.472 42.7209 130.427 42.9729 129.423 42.9729V43.9729ZM132.075 43.0021L133.118 46.4021L134.074 46.1087L133.031 42.7087L132.075 43.0021Z" fill="black" mask="url(#path-2-outside-1_266_163)"/>
<path d="M68.0476 35.1628L44.8826 12.0003C43.5501 10.6666 41.3863 10.6666 40.0513 12.0003L35.2426 16.8103L41.3426 22.9103C42.7613 22.4316 44.3863 22.7541 45.5138 23.8816C46.0522 24.4208 46.428 25.1006 46.5985 25.8433C46.7689 26.5859 46.727 27.3616 46.4776 28.0816L52.3576 33.9616C53.7638 33.4716 55.4201 33.7903 56.5576 34.9241C57.063 35.4284 57.4265 36.057 57.6116 36.7466C57.7967 37.4361 57.7968 38.1623 57.6119 38.8519C57.427 39.5415 57.0636 40.1702 56.5583 40.6747C56.053 41.1791 55.4237 41.5415 54.7338 41.7253C54.0446 41.9102 53.3189 41.9102 52.6296 41.7254C51.9404 41.5407 51.3119 41.1776 50.8076 40.6728C49.6138 39.4778 49.3201 37.7228 49.9238 36.2516L44.4551 30.7828V45.2141C44.8301 45.4066 45.2076 45.6603 45.5301 45.9828C47.1176 47.5703 47.1176 50.1428 45.5301 51.7328C45.1528 52.1106 44.7047 52.4103 44.2115 52.6147C43.7183 52.8192 43.1896 52.9244 42.6557 52.9244C42.1218 52.9244 41.5931 52.8192 41.0999 52.6147C40.6067 52.4103 40.1586 52.1106 39.7813 51.7328C38.1938 50.1416 38.1938 47.5703 39.7813 45.9828C40.1623 45.6022 40.6147 45.3006 41.1126 45.0953V30.5328C40.6438 30.3328 40.1751 30.0403 39.7813 29.6578C39.2108 29.0876 38.823 28.3606 38.6671 27.5692C38.5113 26.7778 38.5946 25.958 38.9063 25.2141L32.8913 19.1978L16.9976 35.0541C16.3587 35.6959 16 36.5647 16 37.4703C16 38.3759 16.3587 39.2447 16.9976 39.8866L40.1638 63.0491C41.4963 64.3828 43.6601 64.3828 44.9951 63.0491L68.0476 39.9953C68.6865 39.3535 69.0452 38.4847 69.0452 37.5791C69.0452 36.6734 68.6865 35.8047 68.0476 35.1628Z" fill="#F03C2E"/>
</svg>
