<svg width="150" height="75" viewBox="0 0 150 75" fill="none" xmlns="http://www.w3.org/2000/svg">
<path d="M26.6947 53.4525C26.6947 53.4525 24.486 54.7963 28.2322 55.1813C32.7322 55.7563 35.1447 55.6613 40.1372 54.7013C40.1372 54.7013 41.481 55.5638 43.306 56.2388C32.0722 61.0388 17.8635 55.9513 26.696 53.455L26.6947 53.4525ZM25.2547 47.2125C25.2547 47.2125 22.8547 49.0375 26.5985 49.4213C31.4947 49.9013 35.3485 49.9963 41.961 48.6538C41.961 48.6538 42.8235 49.6138 44.2647 50.0938C30.7272 54.1263 15.5572 50.4763 25.2547 47.2125ZM51.7547 58.1575C51.7547 58.1575 53.3872 59.5013 49.9297 60.5575C43.4972 62.4775 22.951 63.0538 17.1897 60.5575C15.1735 59.695 19.0147 58.4325 20.2622 58.2538C21.5122 57.9663 22.1822 57.9663 22.1822 57.9663C19.9747 56.4288 7.49224 61.135 15.8447 62.4663C38.791 66.21 57.7047 60.8338 51.7522 58.1463L51.7547 58.1575ZM27.7497 40.6838C27.7497 40.6838 17.2847 43.18 24.0047 44.0438C26.8847 44.4275 32.5497 44.3313 37.8297 43.9475C42.1497 43.5638 46.471 42.795 46.471 42.795C46.471 42.795 44.9335 43.4675 43.8785 44.1388C33.221 46.9225 12.771 45.6763 18.6285 42.795C23.621 40.395 27.7497 40.67 27.7497 40.67V40.6838ZM46.4722 51.1488C57.2247 45.58 52.2322 40.2038 48.776 40.8763C47.9135 41.0688 47.526 41.26 47.526 41.26C47.526 41.26 47.8135 40.685 48.486 40.4925C55.3022 38.0925 60.6797 47.6925 46.2772 51.4375C46.2772 51.4375 46.3735 51.3413 46.4697 51.15L46.4722 51.1488ZM28.8072 66.3175C39.176 66.99 55.0197 65.9338 55.4022 61.0375C55.4022 61.0375 54.6347 62.9575 46.8572 64.3975C38.0247 66.03 27.0797 65.8375 20.6447 64.7813C20.6447 64.7813 21.9885 65.9325 28.8072 66.3175Z" fill="#0095FF"/>
<path d="M39.9435 9C39.9435 9 45.896 15.05 34.2785 24.17C24.966 31.5625 32.1535 35.7875 34.2785 40.5875C28.806 35.6912 24.8697 31.3713 27.5572 27.3375C31.4947 21.385 42.3435 18.505 39.9435 9ZM36.871 36.555C39.6547 39.7238 36.1022 42.605 36.1022 42.605C36.1022 42.605 43.2072 38.955 39.9422 34.4425C36.9672 30.1225 34.6622 28.01 47.1422 20.8088C47.1422 20.8088 27.4597 25.705 36.8697 36.5537L36.871 36.555Z" fill="#F58219"/>
<path d="M98.3972 47.9525V33.3563C98.3972 29.6313 96.3122 27.1013 91.0997 27.1013C88.121 27.1013 85.5872 27.8463 83.3547 28.7388L84.0997 31.42C85.7372 30.8238 87.8247 30.2288 90.0572 30.2288C92.8872 30.2288 94.2272 31.42 94.2272 33.8038V35.7413H92.7497C85.5997 35.7413 82.3247 38.4225 82.3247 42.7413C82.3247 46.3163 84.5585 48.4013 88.5797 48.4013C91.1122 48.4013 93.0485 47.21 94.8347 45.72L95.1322 47.9538H98.4072L98.3972 47.9525ZM94.2247 43.1875C92.7372 44.5275 91.0972 45.2725 89.6072 45.2725C87.6697 45.2725 86.4797 44.0813 86.4797 41.9975C86.4797 39.9137 87.671 38.4225 92.4372 38.4225H94.2247V43.1888V43.1875ZM112.395 47.9538H107.182L100.928 27.55H105.397L109.27 40.0625L110.163 43.7875C112.101 38.425 113.588 32.915 114.185 27.5538H118.652C117.461 34.2563 115.377 41.5538 112.397 47.9575L112.395 47.9538ZM136.522 47.9538V33.3563C136.522 29.6313 134.437 27.1013 129.222 27.1013C126.243 27.1013 123.712 27.8463 121.477 28.7388L122.073 31.42C123.861 30.8238 125.946 30.2288 128.18 30.2288C131.01 30.2288 132.35 31.42 132.35 33.8038V35.7413H130.862C123.712 35.7413 120.437 38.4225 120.437 42.7413C120.437 46.3163 122.522 48.4013 126.543 48.4013C129.225 48.4013 131.161 47.21 132.947 45.72L133.245 47.9538H136.52H136.522ZM132.352 43.1875C130.865 44.5275 129.225 45.2725 127.735 45.2725C125.797 45.2725 124.607 44.0813 124.607 41.9975C124.607 39.9137 125.798 38.4225 130.565 38.4225H132.352V43.1888V43.1875ZM77.6922 51.3788C76.501 53.1663 74.7135 54.5063 72.4797 55.2513L70.5422 52.8688C72.0322 51.975 73.521 50.635 74.1172 49.4438C74.7135 48.4013 74.8622 46.9113 74.8622 43.4863V20.25H79.331V43.1875C79.331 47.805 78.8822 49.5913 77.6922 51.3788Z" fill="#0095FF"/>
</svg>
