<svg width="50" height="50" viewBox="0 0 50 50" fill="none" xmlns="http://www.w3.org/2000/svg">
<g clip-path="url(#clip0_173_229)">
<path d="M3.76144 6.18652H45.1805V45.9034H3.76144V6.18652Z" fill="#FFE382"/>
<path d="M0.0499878 3.58233C0.0499878 1.60442 1.7013 0 3.73738 0H46.2626C48.2987 0 49.95 1.60442 49.95 3.58233V46.4197C49.95 48.3976 48.2987 50 46.2626 50H3.73738C1.7013 50 0.0499878 48.3976 0.0499878 46.4197V3.58233Z" fill="#0A66C2"/>
<path d="M15.2144 41.8429V19.3329H7.74741V41.8429H15.2144ZM11.4829 16.2606C14.0861 16.2606 15.7074 14.5316 15.7074 12.371C15.6593 10.1622 14.0861 8.48145 11.533 8.48145C8.97788 8.48145 7.30853 10.1622 7.30853 12.371C7.30853 14.5316 8.92778 16.2606 11.4348 16.2606H11.4829ZM19.3467 41.8429H26.8136V29.2726C26.8136 28.5999 26.8617 27.9272 27.0601 27.4473C27.5992 26.1019 28.8277 24.7104 30.8918 24.7104C33.5932 24.7104 34.6734 26.7746 34.6734 29.8007V41.8409H42.1403V28.9353C42.1403 22.0216 38.457 18.8047 33.5451 18.8047C29.517 18.8047 27.7495 21.0598 26.7655 22.5959H26.8156V19.3329H19.3467C19.4449 21.4453 19.3467 41.8429 19.3467 41.8429Z" fill="white"/>
</g>
<defs>
<clipPath id="clip0_173_229">
<rect width="50" height="50" fill="white"/>
</clipPath>
</defs>
</svg>
