<svg width="150" height="75" viewBox="0 0 150 75" fill="none" xmlns="http://www.w3.org/2000/svg">
<mask id="mask0_173_90" style="mask-type:luminance" maskUnits="userSpaceOnUse" x="17" y="10" width="115" height="60">
<path d="M17.0457 39.9794C17.0457 56.3083 42.5587 69.5459 74.0293 69.5459C105.5 69.5459 131.013 56.3083 131.013 39.9794C131.013 23.6505 105.5 10.4129 74.0293 10.4129C42.5587 10.4129 17.0457 23.6507 17.0457 39.9794Z" fill="white"/>
</mask>
<g mask="url(#mask0_173_90)">
<path d="M17.0457 39.9794C17.0457 56.3083 42.5587 69.5459 74.0293 69.5459C105.5 69.5459 131.013 56.3083 131.013 39.9794C131.013 23.6505 105.5 10.4129 74.0293 10.4129C42.5587 10.4129 17.0457 23.6507 17.0457 39.9794Z" fill="url(#paint0_radial_173_90)"/>
</g>
<mask id="mask1_173_90" style="mask-type:luminance" maskUnits="userSpaceOnUse" x="14" y="7" width="120" height="66">
<path d="M14.6714 7.04639H133.387V72.9124H14.6714V7.04639Z" fill="white"/>
</mask>
<g mask="url(#mask1_173_90)">
<path d="M74.0293 67.3503C104.271 67.3503 128.787 55.096 128.787 39.9794C128.787 24.8627 104.271 12.6084 74.0293 12.6084C43.7876 12.6084 19.2716 24.8627 19.2716 39.9794C19.2716 55.096 43.7876 67.3503 74.0293 67.3503Z" fill="#777BB3"/>
</g>
<mask id="mask2_173_90" style="mask-type:luminance" maskUnits="userSpaceOnUse" x="14" y="7" width="120" height="66">
<path d="M14.6714 7.04639H133.387V72.9124H14.6714V7.04639Z" fill="white"/>
</mask>
<g mask="url(#mask2_173_90)">
<path d="M48.0054 43.3729C50.492 43.3729 52.3484 42.9206 53.5228 42.0292C54.6848 41.1469 55.4873 39.6178 55.908 37.485C56.3002 35.4916 56.1508 34.0997 55.4641 33.3485C54.7619 32.5813 53.2437 32.1922 50.9518 32.1922H46.9781L44.7749 43.3731H48.0052L48.0054 43.3729ZM35.0076 57.1458C34.8232 57.1458 34.648 57.0645 34.5307 56.9238C34.4727 56.8544 34.431 56.7733 34.4086 56.6861C34.3861 56.5989 34.3835 56.508 34.4009 56.4197L40.2394 26.7902C40.2668 26.6512 40.3423 26.526 40.4531 26.436C40.5638 26.346 40.7028 26.2968 40.8463 26.2968H53.4298C57.3845 26.2968 60.3281 27.3539 62.1783 29.4451C64.0384 31.5451 64.6128 34.481 63.8855 38.1703C63.5895 39.6735 63.0804 41.0693 62.3726 42.3195C61.6636 43.5707 60.7271 44.7285 59.5882 45.7612C58.2246 47.02 56.6813 47.9327 55.0053 48.4698C53.3558 48.9998 51.2377 49.2688 48.7092 49.2688H43.6139L42.1588 56.6527C42.1315 56.7916 42.056 56.9168 41.9453 57.0069C41.8346 57.0969 41.6955 57.1462 41.552 57.1462H35.0076V57.1458Z" fill="black"/>
<path d="M47.488 32.8018H50.9522C53.7181 32.8018 54.6792 33.4005 55.0057 33.7573C55.5473 34.3497 55.6495 35.5987 55.3014 37.3691C54.9102 39.3512 54.1852 40.7565 53.146 41.5457C52.0821 42.3536 50.3525 42.763 48.0058 42.763H45.5251L47.488 32.8018ZM53.43 25.6867H40.8465C40.5596 25.6867 40.2815 25.7852 40.0601 25.9653C39.8386 26.1453 39.6876 26.3958 39.6328 26.6736L33.7943 56.3036C33.7595 56.4801 33.7648 56.6621 33.8097 56.8364C33.8546 57.0108 33.938 57.1732 34.054 57.312C34.17 57.4508 34.3157 57.5625 34.4806 57.6393C34.6456 57.716 34.8257 57.7558 35.008 57.7559H41.5518C41.8389 57.7559 42.117 57.6574 42.3384 57.4773C42.5599 57.2973 42.711 57.0468 42.7658 56.7689L44.1236 49.8784H48.7094C51.3026 49.8784 53.4857 49.5995 55.1975 49.0496C56.9577 48.4854 58.5777 47.5289 60.0109 46.2067C61.1964 45.1309 62.175 43.9234 62.9128 42.6173C63.6507 41.3111 64.1845 39.8537 64.4932 38.2868C65.2589 34.4031 64.6369 31.2932 62.6445 29.044C60.6717 26.8163 57.5715 25.6869 53.4304 25.6869M44.0253 43.983H48.0058C50.6439 43.983 52.6093 43.493 53.9003 42.5124C55.1914 41.5317 56.0628 39.895 56.5154 37.6015C56.9482 35.3994 56.7512 33.8455 55.9239 32.94C55.0966 32.0346 53.4382 31.5821 50.9526 31.5821H46.4691L44.0255 43.9828M53.4306 26.9064C57.2161 26.9064 59.9777 27.8863 61.7135 29.846C63.4493 31.8057 63.9718 34.5416 63.2793 38.0538C62.9942 39.5006 62.5122 40.8234 61.8335 42.022C61.1548 43.2206 60.2667 44.3178 59.1702 45.3121C57.8635 46.5182 56.4119 47.3775 54.8146 47.8898C53.2173 48.4031 51.1831 48.6586 48.7098 48.6586H43.1046L41.5527 56.5361H35.0089L40.8465 26.9064H53.4302" fill="#FFE382"/>
<path d="M78.8898 49.2684C78.7051 49.2684 78.5302 49.187 78.4129 49.0464C78.2956 48.9057 78.2476 48.7211 78.283 48.5422L80.8655 35.432C81.1112 34.1853 81.0506 33.2904 80.6951 32.9122C80.4774 32.6811 79.8237 32.2934 77.8906 32.2934H73.2116L69.9645 48.7746C69.9371 48.9135 69.8616 49.0388 69.7508 49.1288C69.6401 49.2189 69.501 49.2682 69.3575 49.2681H62.8652C62.774 49.2681 62.684 49.2483 62.6015 49.2099C62.519 49.1715 62.4462 49.1156 62.3882 49.0462C62.3301 48.9768 62.2884 48.8956 62.266 48.8085C62.2435 48.7213 62.2409 48.6303 62.2583 48.542L68.0968 18.9125C68.1242 18.7735 68.1997 18.6483 68.3105 18.5583C68.4212 18.4683 68.5602 18.4191 68.7037 18.4191H75.196C75.2872 18.4191 75.3773 18.439 75.4597 18.4774C75.5422 18.5157 75.6151 18.5716 75.6731 18.641C75.7311 18.7104 75.7728 18.7916 75.7953 18.8788C75.8177 18.966 75.8204 19.057 75.803 19.1453L74.3941 26.2966H79.4275C83.2621 26.2966 85.8621 26.9634 87.3769 28.3352C88.9227 29.7346 89.4023 31.972 88.8088 34.9868L86.0923 48.775C86.0649 48.9139 85.9894 49.0392 85.8787 49.1292C85.7679 49.2193 85.6289 49.2686 85.4853 49.2686H78.89L78.8898 49.2684Z" fill="black"/>
<path d="M75.1958 17.8091H68.7035C68.4165 17.8091 68.1384 17.9076 67.9169 18.0877C67.6954 18.2677 67.5444 18.5182 67.4896 18.7961L61.6511 48.4256C61.6163 48.6022 61.6216 48.7842 61.6665 48.9586C61.7114 49.1329 61.7948 49.2953 61.9109 49.4341C62.0269 49.5729 62.1726 49.6847 62.3376 49.7614C62.5025 49.8381 62.6826 49.8779 62.865 49.8779H69.3573C69.6443 49.8779 69.9224 49.7795 70.1439 49.5994C70.3654 49.4193 70.5165 49.1689 70.5712 48.891L73.7211 32.9032H77.8906C79.8204 32.9032 80.2253 33.3098 80.2416 33.3273C80.3587 33.4513 80.5127 34.0266 80.2585 35.3155L77.6761 48.4256C77.6413 48.6022 77.6465 48.7842 77.6915 48.9586C77.7364 49.1329 77.8198 49.2953 77.9358 49.4341C78.0519 49.5729 78.1976 49.6847 78.3625 49.7614C78.5275 49.8381 78.7076 49.8779 78.89 49.8779H85.4853C85.7724 49.8779 86.0504 49.7795 86.2719 49.5994C86.4934 49.4193 86.6445 49.1689 86.6993 48.891L89.4157 35.1028C90.0532 31.8664 89.5079 29.4383 87.7957 27.886C86.1618 26.4061 83.4247 25.6864 79.4279 25.6864H75.1443L76.4104 19.2614C76.4452 19.0848 76.4399 18.9028 76.395 18.7284C76.3502 18.5541 76.2667 18.3916 76.1507 18.2528C76.0346 18.114 75.8889 18.0022 75.7239 17.9255C75.559 17.8487 75.3788 17.8089 75.1964 17.8089M75.1964 19.0287L73.6445 26.9062H79.4281C83.0673 26.9062 85.5774 27.5327 86.9592 28.7842C88.3409 30.0356 88.7543 32.0653 88.2024 34.8702L85.4859 48.6582H78.8906L81.4731 35.5484C81.767 34.0571 81.659 33.0398 81.1487 32.4974C80.6384 31.9551 79.5522 31.6835 77.8912 31.6835H72.7019L69.3577 48.6582H62.8654L68.7039 19.0287H75.1962" fill="#FFE382"/>
<path d="M99.0812 43.3729C101.568 43.3729 103.424 42.9206 104.599 42.0292C105.761 41.1469 106.563 39.6182 106.984 37.485C107.376 35.4916 107.227 34.0997 106.54 33.3485C105.838 32.5813 104.32 32.1922 102.028 32.1922H98.0539L95.8507 43.3731H99.081L99.0812 43.3729ZM86.0839 57.1458C85.8994 57.1458 85.7242 57.0645 85.6069 56.9238C85.5489 56.8545 85.5072 56.7733 85.4847 56.6861C85.4622 56.599 85.4595 56.508 85.4769 56.4197L91.3154 26.7902C91.3428 26.6512 91.4184 26.526 91.5292 26.4359C91.6399 26.3459 91.779 26.2967 91.9226 26.2968H104.506C108.461 26.2968 111.404 27.3539 113.255 29.4451C115.115 31.5451 115.689 34.4806 114.962 38.1703C114.665 39.6735 114.156 41.0693 113.448 42.3195C112.739 43.5707 111.803 44.7285 110.664 45.7612C109.3 47.02 107.757 47.9327 106.081 48.4698C104.432 48.9998 102.313 49.2688 99.785 49.2688H94.6891L93.2346 56.6527C93.2073 56.7917 93.1317 56.9169 93.0209 57.007C92.9101 57.0971 92.771 57.1463 92.6274 57.1462H86.0836L86.0839 57.1458Z" fill="black"/>
<path d="M98.5638 32.8018H102.028C104.794 32.8018 105.755 33.4005 106.081 33.7573C106.624 34.3497 106.726 35.5987 106.377 37.3689C105.986 39.351 105.261 40.7565 104.222 41.5457C103.158 42.3536 101.428 42.763 99.0816 42.763H96.6015L98.5638 32.8018ZM104.506 25.6867H91.9224C91.6354 25.6867 91.3573 25.7852 91.1359 25.9653C90.9144 26.1453 90.7634 26.3958 90.7086 26.6736L84.8703 56.3036C84.8355 56.4801 84.8408 56.6621 84.8857 56.8364C84.9306 57.0108 85.014 57.1732 85.13 57.312C85.246 57.4508 85.3917 57.5625 85.5567 57.6393C85.7216 57.716 85.9017 57.7558 86.0841 57.7559H92.6279C92.9149 57.7559 93.193 57.6574 93.4145 57.4773C93.6359 57.2973 93.787 57.0468 93.8418 56.7689L95.1994 49.8784H99.7852C102.378 49.8784 104.561 49.5995 106.273 49.0496C108.033 48.4854 109.653 47.5289 111.087 46.2063C112.273 45.1309 113.249 43.9234 113.989 42.6173C114.729 41.3111 115.26 39.8537 115.569 38.2868C116.335 34.4029 115.713 31.293 113.72 29.0438C111.747 26.8163 108.647 25.6869 104.506 25.6869M95.1013 43.983H99.0816C101.72 43.983 103.685 43.493 104.976 42.5124C106.267 41.5317 107.139 39.895 107.591 37.6015C108.024 35.3994 107.827 33.8455 107 32.94C106.172 32.0346 104.514 31.5821 102.028 31.5821H97.5449L95.1015 43.9828M104.506 26.9064C108.292 26.9064 111.054 27.8863 112.789 29.846C114.525 31.8057 115.048 34.5416 114.355 38.0538C114.07 39.5006 113.588 40.8234 112.909 42.022C112.231 43.2206 111.342 44.3178 110.246 45.3121C108.939 46.5182 107.488 47.3775 105.89 47.8898C104.293 48.4031 102.259 48.6586 99.7856 48.6586H94.1804L92.6285 56.5361H86.0847L91.9232 26.9066H104.507" fill="#FFE382"/>
</g>
<defs>
<radialGradient id="paint0_radial_173_90" cx="0" cy="0" r="1" gradientUnits="userSpaceOnUse" gradientTransform="translate(51.2589 20.8077) scale(74.8276 73.806)">
<stop stop-color="#AEB2D5"/>
<stop offset="0.3" stop-color="#AEB2D5"/>
<stop offset="0.75" stop-color="#484C89"/>
<stop offset="1" stop-color="#484C89"/>
</radialGradient>
</defs>
</svg>
