<svg width="202" height="102" viewBox="0 0 202 102" fill="none" xmlns="http://www.w3.org/2000/svg">
<mask id="path-1-outside-1_266_69" maskUnits="userSpaceOnUse" x="103.189" y="87.0747" width="99" height="15" fill="black">
<rect fill="white" x="103.189" y="87.0747" width="99" height="15"/>
<path d="M146.216 90.9092C146.03 91.3297 145.859 91.44 145.465 91.4761C145.184 91.5282 145.015 91.541 144.59 91.3627L144.214 90.4557C144.07 89.9977 143.885 89.8754 143.464 89.7754H140.712C139.996 90.1052 139.759 90.3838 139.587 91.0226V98.1654C139.945 98.8719 140.267 99.1198 140.962 99.4126H143.589C144.076 98.9962 144.256 98.6902 144.34 97.9387C144.61 97.5486 144.823 97.4444 145.34 97.4851C145.788 97.4622 145.964 97.5469 146.091 97.9387V99.2992C145.731 100.222 145.279 100.567 144.089 100.886H140.337C139.693 100.707 139.335 100.572 138.711 100.206C138.029 99.5276 137.804 99.0834 137.71 98.1654V90.569C138.202 89.2555 138.655 88.7837 139.962 88.1881H144.465C145.525 88.7215 145.861 89.0488 146.216 89.662V90.9092Z"/>
<path d="M148.967 99.8661V88.8684C149.137 88.4931 149.296 88.3356 149.718 88.1881H156.222C156.682 88.428 156.766 88.6369 156.722 89.0951C156.746 89.4851 156.65 89.605 156.097 89.8888H150.969V93.4035H154.971C155.555 93.6304 155.718 93.8517 155.722 94.4239C155.639 94.8789 155.464 95.0209 154.971 95.1042H150.969V98.9591H155.972C156.479 99.3124 156.661 99.5299 156.722 99.9795C156.577 100.431 156.403 100.598 155.972 100.773H149.593C149.226 100.58 149.082 100.39 148.967 99.8661Z"/>
<path d="M165.978 91.5894C165.253 91.4259 165.015 91.1955 164.852 90.569C164.808 90.2327 164.762 90.0542 164.352 89.8888H161.976C161.567 90.0489 161.368 90.2047 161.1 90.6824V92.043C161.999 92.8581 162.712 93.228 164.602 93.6303C165.58 93.878 166.018 94.0985 166.603 94.6507C167.143 95.2568 167.249 95.6063 167.229 96.238L167.354 98.7323C166.737 99.9402 166.231 100.407 164.977 100.773H160.975C159.932 100.427 159.519 100.081 159.224 99.0724V97.7119C159.464 97.4608 159.667 97.3984 160.099 97.3718C160.517 97.4369 160.661 97.5222 160.85 97.7119V98.6189C161.19 99.0766 161.417 99.1959 161.85 99.2992H164.352C164.948 99.0565 165.149 98.8463 165.353 98.3922V96.238C165.201 95.907 165.075 95.7705 164.727 95.6711C163.258 95.0667 162.409 94.7952 160.85 94.4239C160.005 93.8367 159.673 93.4261 159.224 92.6099V90.4557C159.72 89.1012 160.225 88.5921 161.6 88.1881H165.228C166.24 88.6138 166.578 88.9575 166.979 89.662V90.569C166.877 91.1822 166.65 91.4047 165.978 91.5894Z"/>
<path d="M170.106 92.2697V90.569C170.44 89.2245 170.877 88.6634 172.232 88.0747H175.859C177.081 88.5468 177.449 88.9501 177.86 89.7754V90.9092C177.598 91.3706 177.38 91.5126 176.86 91.5894C176.265 91.4404 176.022 91.2898 175.734 90.9092V90.2289C175.614 89.9302 175.462 89.8156 174.984 89.7754H172.857C172.402 89.9859 172.209 90.1696 171.982 90.569V91.9296C171.967 92.1406 172.02 92.2403 172.232 92.3831C173.841 93.3306 174.794 93.5885 176.485 94.0838L178.111 95.8978V98.9591C177.497 100.056 176.959 100.458 175.734 100.886H171.732C170.882 100.426 170.493 100.103 170.106 99.2992C169.842 98.6604 169.825 98.3108 170.106 97.7119C170.344 97.5151 170.517 97.4271 170.856 97.3718C171.417 97.406 171.667 97.4965 171.857 97.9387C171.913 98.5425 172.072 98.8474 172.732 99.2992H175.234C175.894 99.0874 176.142 98.8569 176.36 98.2788L176.36 98.2756C176.45 97.7262 176.501 97.4164 176.36 96.6915C176.3 96.2815 176.204 96.0555 175.734 95.6711C173.857 95.246 172.959 94.9121 171.607 94.1972C170.71 93.633 170.413 93.1915 170.106 92.2697Z"/>
<path fill-rule="evenodd" clip-rule="evenodd" d="M131.832 88.0747C133.431 88.627 133.912 89.271 134.583 90.569V98.1654C134.194 99.4217 133.796 100.038 132.582 100.886H128.955C127.447 100.463 126.785 100.048 126.203 98.7323V90.3423C126.785 89.0967 127.305 88.5968 128.705 88.1881L131.832 88.0747ZM129.205 89.662C128.514 89.9403 128.252 90.2236 127.954 90.9092V98.1654C128.318 98.7578 128.608 98.9863 129.205 99.2992H131.456C132.108 98.9463 132.322 98.6847 132.582 98.1654V90.9092C132.31 90.2668 132.061 89.9632 131.206 89.662H129.205Z"/>
<path fill-rule="evenodd" clip-rule="evenodd" d="M115.947 88.1881H120.199C121.82 88.613 122.421 89.1094 123.076 90.3423V92.8366C122.893 94.0975 122.47 94.5897 121.325 95.2176L123.326 99.6393C123.501 100.245 123.385 100.476 122.951 100.773C122.248 100.924 121.964 100.84 121.7 100.32L119.574 95.6711H117.073V100.206C116.932 100.584 116.792 100.752 116.322 100.886C115.745 100.833 115.52 100.713 115.321 100.32V88.8684C115.343 88.5039 115.459 88.3474 115.947 88.1881ZM119.949 89.8888H116.947V93.857H119.949C120.712 93.7371 120.974 93.5082 121.2 92.8366V90.9092C120.941 90.2457 120.66 90.0315 119.949 89.8888Z"/>
<path fill-rule="evenodd" clip-rule="evenodd" d="M104.189 88.755V100.32C104.346 100.73 104.535 100.853 104.94 101C105.631 100.902 105.885 100.758 106.066 100.32V95.7845H109.568C111.029 95.39 111.624 95.0038 112.069 93.857V90.569C111.884 89.4111 111.518 88.8809 110.068 88.3015H104.94C104.514 88.336 104.401 88.4813 104.195 88.7472C104.193 88.7498 104.191 88.7524 104.189 88.755ZM106.066 94.0838V89.8888H109.193C109.912 90.0797 110.159 90.3267 110.443 90.9092V93.1767C110.123 93.751 109.835 93.9356 109.193 94.0838H106.066Z"/>
<path fill-rule="evenodd" clip-rule="evenodd" d="M183.739 88.0747H186.866C188.691 88.66 189.188 89.3546 189.618 90.9092V97.7119C189.635 98.4092 189.559 98.7807 189.243 99.4126C188.73 99.9904 188.406 100.29 187.742 100.773C187.402 100.932 187.169 100.963 186.741 101L183.739 100.886C182.157 100.317 181.507 99.7879 180.987 98.2788V90.569C181.603 89.2279 182.174 88.6555 183.739 88.0747ZM184.114 89.7754C183.575 89.9728 183.337 90.1343 183.114 90.569V98.052C183.309 98.7512 183.567 98.9817 184.114 99.2992C185.02 99.5155 185.508 99.4737 186.366 99.2992C187.085 98.9998 187.361 98.7287 187.492 97.9387V90.9092C187.344 90.385 187.149 90.1227 186.366 89.7754H184.114Z"/>
<path fill-rule="evenodd" clip-rule="evenodd" d="M192.87 88.6416V100.32C193.016 100.657 193.165 100.807 193.745 100.886C194.252 100.787 194.384 100.646 194.496 100.32V95.4443H197.123L199.249 100.546C199.706 100.951 199.98 101.02 200.5 100.886C200.839 100.674 200.921 100.414 201 99.8661L198.999 95.4443C199.782 94.7025 200.22 94.285 200.75 93.2901C201.017 92.1266 201.012 91.4491 200.75 90.2289C200.16 89.2404 199.696 88.7948 198.498 88.3015H193.37L192.87 88.6416ZM194.621 93.7436V90.1155C194.631 90.0269 194.653 90.005 194.746 90.0021H197.623C198.413 90.1639 198.6 90.46 198.749 91.1359V93.0634C198.389 93.6445 198.088 93.8357 197.373 93.9704H194.871C194.722 93.9511 194.661 93.9099 194.621 93.7436Z"/>
</mask>
<path d="M146.216 90.9092C146.03 91.3297 145.859 91.44 145.465 91.4761C145.184 91.5282 145.015 91.541 144.59 91.3627L144.214 90.4557C144.07 89.9977 143.885 89.8754 143.464 89.7754H140.712C139.996 90.1052 139.759 90.3838 139.587 91.0226V98.1654C139.945 98.8719 140.267 99.1198 140.962 99.4126H143.589C144.076 98.9962 144.256 98.6902 144.34 97.9387C144.61 97.5486 144.823 97.4444 145.34 97.4851C145.788 97.4622 145.964 97.5469 146.091 97.9387V99.2992C145.731 100.222 145.279 100.567 144.089 100.886H140.337C139.693 100.707 139.335 100.572 138.711 100.206C138.029 99.5276 137.804 99.0834 137.71 98.1654V90.569C138.202 89.2555 138.655 88.7837 139.962 88.1881H144.465C145.525 88.7215 145.861 89.0488 146.216 89.662V90.9092Z" fill="white"/>
<path d="M148.967 99.8661V88.8684C149.137 88.4931 149.296 88.3356 149.718 88.1881H156.222C156.682 88.428 156.766 88.6369 156.722 89.0951C156.746 89.4851 156.65 89.605 156.097 89.8888H150.969V93.4035H154.971C155.555 93.6304 155.718 93.8517 155.722 94.4239C155.639 94.8789 155.464 95.0209 154.971 95.1042H150.969V98.9591H155.972C156.479 99.3124 156.661 99.5299 156.722 99.9795C156.577 100.431 156.403 100.598 155.972 100.773H149.593C149.226 100.58 149.082 100.39 148.967 99.8661Z" fill="white"/>
<path d="M165.978 91.5894C165.253 91.4259 165.015 91.1955 164.852 90.569C164.808 90.2327 164.762 90.0542 164.352 89.8888H161.976C161.567 90.0489 161.368 90.2047 161.1 90.6824V92.043C161.999 92.8581 162.712 93.228 164.602 93.6303C165.58 93.878 166.018 94.0985 166.603 94.6507C167.143 95.2568 167.249 95.6063 167.229 96.238L167.354 98.7323C166.737 99.9402 166.231 100.407 164.977 100.773H160.975C159.932 100.427 159.519 100.081 159.224 99.0724V97.7119C159.464 97.4608 159.667 97.3984 160.099 97.3718C160.517 97.4369 160.661 97.5222 160.85 97.7119V98.6189C161.19 99.0766 161.417 99.1959 161.85 99.2992H164.352C164.948 99.0565 165.149 98.8463 165.353 98.3922V96.238C165.201 95.907 165.075 95.7705 164.727 95.6711C163.258 95.0667 162.409 94.7952 160.85 94.4239C160.005 93.8367 159.673 93.4261 159.224 92.6099V90.4557C159.72 89.1012 160.225 88.5921 161.6 88.1881H165.228C166.24 88.6138 166.578 88.9575 166.979 89.662V90.569C166.877 91.1822 166.65 91.4047 165.978 91.5894Z" fill="white"/>
<path d="M170.106 92.2697V90.569C170.44 89.2245 170.877 88.6634 172.232 88.0747H175.859C177.081 88.5468 177.449 88.9501 177.86 89.7754V90.9092C177.598 91.3706 177.38 91.5126 176.86 91.5894C176.265 91.4404 176.022 91.2898 175.734 90.9092V90.2289C175.614 89.9302 175.462 89.8156 174.984 89.7754H172.857C172.402 89.9859 172.209 90.1696 171.982 90.569V91.9296C171.967 92.1406 172.02 92.2403 172.232 92.3831C173.841 93.3306 174.794 93.5885 176.485 94.0838L178.111 95.8978V98.9591C177.497 100.056 176.959 100.458 175.734 100.886H171.732C170.882 100.426 170.493 100.103 170.106 99.2992C169.842 98.6604 169.825 98.3108 170.106 97.7119C170.344 97.5151 170.517 97.4271 170.856 97.3718C171.417 97.406 171.667 97.4965 171.857 97.9387C171.913 98.5425 172.072 98.8474 172.732 99.2992H175.234C175.894 99.0874 176.142 98.8569 176.36 98.2788L176.36 98.2756C176.45 97.7262 176.501 97.4164 176.36 96.6915C176.3 96.2815 176.204 96.0555 175.734 95.6711C173.857 95.246 172.959 94.9121 171.607 94.1972C170.71 93.633 170.413 93.1915 170.106 92.2697Z" fill="white"/>
<path fill-rule="evenodd" clip-rule="evenodd" d="M131.832 88.0747C133.431 88.627 133.912 89.271 134.583 90.569V98.1654C134.194 99.4217 133.796 100.038 132.582 100.886H128.955C127.447 100.463 126.785 100.048 126.203 98.7323V90.3423C126.785 89.0967 127.305 88.5968 128.705 88.1881L131.832 88.0747ZM129.205 89.662C128.514 89.9403 128.252 90.2236 127.954 90.9092V98.1654C128.318 98.7578 128.608 98.9863 129.205 99.2992H131.456C132.108 98.9463 132.322 98.6847 132.582 98.1654V90.9092C132.31 90.2668 132.061 89.9632 131.206 89.662H129.205Z" fill="white"/>
<path fill-rule="evenodd" clip-rule="evenodd" d="M115.947 88.1881H120.199C121.82 88.613 122.421 89.1094 123.076 90.3423V92.8366C122.893 94.0975 122.47 94.5897 121.325 95.2176L123.326 99.6393C123.501 100.245 123.385 100.476 122.951 100.773C122.248 100.924 121.964 100.84 121.7 100.32L119.574 95.6711H117.073V100.206C116.932 100.584 116.792 100.752 116.322 100.886C115.745 100.833 115.52 100.713 115.321 100.32V88.8684C115.343 88.5039 115.459 88.3474 115.947 88.1881ZM119.949 89.8888H116.947V93.857H119.949C120.712 93.7371 120.974 93.5082 121.2 92.8366V90.9092C120.941 90.2457 120.66 90.0315 119.949 89.8888Z" fill="white"/>
<path fill-rule="evenodd" clip-rule="evenodd" d="M104.189 88.755V100.32C104.346 100.73 104.535 100.853 104.94 101C105.631 100.902 105.885 100.758 106.066 100.32V95.7845H109.568C111.029 95.39 111.624 95.0038 112.069 93.857V90.569C111.884 89.4111 111.518 88.8809 110.068 88.3015H104.94C104.514 88.336 104.401 88.4813 104.195 88.7472C104.193 88.7498 104.191 88.7524 104.189 88.755ZM106.066 94.0838V89.8888H109.193C109.912 90.0797 110.159 90.3267 110.443 90.9092V93.1767C110.123 93.751 109.835 93.9356 109.193 94.0838H106.066Z" fill="white"/>
<path fill-rule="evenodd" clip-rule="evenodd" d="M183.739 88.0747H186.866C188.691 88.66 189.188 89.3546 189.618 90.9092V97.7119C189.635 98.4092 189.559 98.7807 189.243 99.4126C188.73 99.9904 188.406 100.29 187.742 100.773C187.402 100.932 187.169 100.963 186.741 101L183.739 100.886C182.157 100.317 181.507 99.7879 180.987 98.2788V90.569C181.603 89.2279 182.174 88.6555 183.739 88.0747ZM184.114 89.7754C183.575 89.9728 183.337 90.1343 183.114 90.569V98.052C183.309 98.7512 183.567 98.9817 184.114 99.2992C185.02 99.5155 185.508 99.4737 186.366 99.2992C187.085 98.9998 187.361 98.7287 187.492 97.9387V90.9092C187.344 90.385 187.149 90.1227 186.366 89.7754H184.114Z" fill="white"/>
<path fill-rule="evenodd" clip-rule="evenodd" d="M192.87 88.6416V100.32C193.016 100.657 193.165 100.807 193.745 100.886C194.252 100.787 194.384 100.646 194.496 100.32V95.4443H197.123L199.249 100.546C199.706 100.951 199.98 101.02 200.5 100.886C200.839 100.674 200.921 100.414 201 99.8661L198.999 95.4443C199.782 94.7025 200.22 94.285 200.75 93.2901C201.017 92.1266 201.012 91.4491 200.75 90.2289C200.16 89.2404 199.696 88.7948 198.498 88.3015H193.37L192.87 88.6416ZM194.621 93.7436V90.1155C194.631 90.0269 194.653 90.005 194.746 90.0021H197.623C198.413 90.1639 198.6 90.46 198.749 91.1359V93.0634C198.389 93.6445 198.088 93.8357 197.373 93.9704H194.871C194.722 93.9511 194.661 93.9099 194.621 93.7436Z" fill="white"/>
<path d="M128.705 88.3247H131.832V87.8247H128.705V88.3247ZM176.113 98.235C176.113 98.2354 176.113 98.2358 176.113 98.2363C176.113 98.2368 176.113 98.2375 176.113 98.2382L176.606 98.3194C176.606 98.319 176.606 98.3186 176.606 98.3181C176.607 98.3176 176.607 98.3169 176.607 98.3162L176.113 98.235ZM104.189 88.755L103.794 88.4489L103.689 88.584V88.755H104.189ZM104.189 100.32H103.689V100.412L103.722 100.498L104.189 100.32ZM104.94 101L104.769 101.47L104.886 101.512L105.01 101.495L104.94 101ZM106.066 100.32L106.528 100.51L106.566 100.419V100.32H106.066ZM106.066 95.7845V95.2845H105.566V95.7845H106.066ZM109.568 95.7845V96.2845H109.634L109.698 96.2672L109.568 95.7845ZM112.069 93.857L112.535 94.0381L112.569 93.9507V93.857H112.069ZM112.069 90.569H112.569V90.5293L112.563 90.49L112.069 90.569ZM110.068 88.3015L110.254 87.8372L110.164 87.8015H110.068V88.3015ZM104.94 88.3015V87.8015H104.92L104.9 87.8031L104.94 88.3015ZM106.066 89.8888V89.3888H105.566V89.8888H106.066ZM106.066 94.0838H105.566V94.5838H106.066V94.0838ZM109.193 94.0838V94.5838H109.25L109.305 94.571L109.193 94.0838ZM110.443 93.1767L110.88 93.4204L110.943 93.3068V93.1767H110.443ZM110.443 90.9092H110.943V90.7938L110.893 90.69L110.443 90.9092ZM109.193 89.8888L109.321 89.4055L109.258 89.3888H109.193V89.8888ZM116.947 89.8888V89.3888H116.447V89.8888H116.947ZM119.949 89.8888L120.048 89.3986L119.999 89.3888H119.949V89.8888ZM121.2 90.9092H121.7V90.8149L121.666 90.7272L121.2 90.9092ZM121.2 92.8366L121.674 92.9959L121.7 92.9184V92.8366H121.2ZM119.949 93.857V94.357H119.988L120.027 94.351L119.949 93.857ZM116.947 93.857H116.447V94.357H116.947V93.857ZM115.947 88.1881V87.6881H115.867L115.791 87.7128L115.947 88.1881ZM120.199 88.1881L120.326 87.7044L120.264 87.6881H120.199V88.1881ZM123.076 90.3423H123.576V90.2177L123.518 90.1077L123.076 90.3423ZM123.076 92.8366L123.571 92.9084L123.576 92.8727V92.8366H123.076ZM121.325 95.2176L121.085 94.7792L120.679 95.0019L120.87 95.4237L121.325 95.2176ZM123.326 99.6393L123.807 99.5005L123.797 99.466L123.782 99.4332L123.326 99.6393ZM122.951 100.773L123.056 101.262L123.152 101.241L123.233 101.186L122.951 100.773ZM121.7 100.32L121.246 100.528L121.25 100.536L121.254 100.545L121.7 100.32ZM119.574 95.6711L120.029 95.4631L119.895 95.1711H119.574V95.6711ZM117.073 95.6711V95.1711H116.573V95.6711H117.073ZM117.073 100.206L117.541 100.381L117.573 100.296V100.206H117.073ZM116.322 100.886L116.275 101.384L116.369 101.393L116.459 101.367L116.322 100.886ZM115.321 100.32H114.821V100.439L114.875 100.545L115.321 100.32ZM115.321 88.8684L114.822 88.8382L114.821 88.8533V88.8684H115.321ZM127.954 90.9092L127.496 90.7099L127.454 90.8052V90.9092H127.954ZM129.205 89.662V89.162H129.108L129.018 89.1982L129.205 89.662ZM131.206 89.662L131.372 89.1904L131.292 89.162H131.206V89.662ZM132.582 90.9092H133.082V90.8074L133.042 90.7138L132.582 90.9092ZM132.582 98.1654L133.029 98.3896L133.082 98.2838V98.1654H132.582ZM131.456 99.2992V99.7992H131.583L131.695 99.7388L131.456 99.2992ZM129.205 99.2992L128.973 99.742L129.082 99.7992H129.205V99.2992ZM127.954 98.1654H127.454V98.3066L127.528 98.427L127.954 98.1654ZM131.832 88.0747L131.995 87.6021L131.907 87.5717L131.814 87.575L131.832 88.0747ZM134.583 90.569H135.083V90.4473L135.027 90.3392L134.583 90.569ZM134.583 98.1654L135.061 98.3134L135.083 98.2411V98.1654H134.583ZM132.582 100.886V101.386H132.74L132.869 101.296L132.582 100.886ZM128.955 100.886L128.82 101.368L128.886 101.386H128.955V100.886ZM126.203 98.7323H125.703V98.8378L125.746 98.9344L126.203 98.7323ZM126.203 90.3423L125.75 90.1308L125.703 90.2313V90.3423H126.203ZM128.705 88.1881L128.687 87.6884L128.624 87.6907L128.565 87.7081L128.705 88.1881ZM145.465 91.4761L145.42 90.9782L145.397 90.9803L145.374 90.9844L145.465 91.4761ZM146.216 90.9092L146.673 91.1108L146.716 91.0144V90.9092H146.216ZM146.216 89.662H146.716V89.5277L146.648 89.4115L146.216 89.662ZM144.465 88.1881L144.689 87.7414L144.583 87.6881H144.465V88.1881ZM139.962 88.1881V87.6881H139.853L139.754 87.7331L139.962 88.1881ZM137.71 90.569L137.242 90.3937L137.21 90.4785V90.569H137.71ZM137.71 98.1654H137.21V98.1908L137.213 98.2161L137.71 98.1654ZM138.711 100.206L138.358 100.561L138.403 100.606L138.458 100.638L138.711 100.206ZM140.337 100.886L140.203 101.368L140.269 101.386H140.337V100.886ZM144.089 100.886V101.386H144.155L144.219 101.369L144.089 100.886ZM146.091 99.2992L146.557 99.4807L146.591 99.3932V99.2992H146.091ZM146.091 97.9387H146.591V97.8596L146.566 97.7844L146.091 97.9387ZM145.34 97.4851L145.301 97.9836L145.333 97.9861L145.366 97.9845L145.34 97.4851ZM144.34 97.9387L143.928 97.6541L143.857 97.7578L143.843 97.8832L144.34 97.9387ZM143.589 99.4126V99.9126H143.774L143.914 99.7926L143.589 99.4126ZM140.962 99.4126L140.769 99.8735L140.862 99.9126H140.962V99.4126ZM139.587 98.1654H139.087V98.2849L139.141 98.3915L139.587 98.1654ZM139.587 91.0226L139.104 90.892L139.087 90.9561V91.0226H139.587ZM140.712 89.7754V89.2754H140.603L140.503 89.3212L140.712 89.7754ZM143.464 89.7754L143.58 89.2889L143.523 89.2754H143.464V89.7754ZM144.214 90.4557L143.738 90.6065L143.744 90.627L143.752 90.6468L144.214 90.4557ZM144.59 91.3627L144.128 91.5538L144.206 91.7441L144.396 91.8238L144.59 91.3627ZM148.967 88.8684L148.512 88.6626L148.467 88.7607V88.8684H148.967ZM148.967 99.8661H148.467V99.9203L148.479 99.9732L148.967 99.8661ZM149.593 100.773L149.36 101.216L149.469 101.273H149.593V100.773ZM155.972 100.773V101.273H156.07L156.16 101.236L155.972 100.773ZM156.722 99.9795L157.198 100.133L157.233 100.025L157.218 99.9121L156.722 99.9795ZM155.972 98.9591L156.258 98.5489L156.129 98.4591H155.972V98.9591ZM150.969 98.9591H150.469V99.4591H150.969V98.9591ZM150.969 95.1042V94.6042H150.469V95.1042H150.969ZM154.971 95.1042V95.6042H155.013L155.055 95.5972L154.971 95.1042ZM155.722 94.4239L156.214 94.5136L156.222 94.4675L156.222 94.4206L155.722 94.4239ZM154.971 93.4035L155.152 92.9374L155.065 92.9035H154.971V93.4035ZM150.969 93.4035H150.469V93.9035H150.969V93.4035ZM150.969 89.8888V89.3888H150.469V89.8888H150.969ZM156.097 89.8888V90.3888H156.218L156.325 90.3337L156.097 89.8888ZM156.722 89.0951L156.225 89.0471L156.221 89.0861L156.223 89.1251L156.722 89.0951ZM156.222 88.1881L156.453 87.7448L156.345 87.6881H156.222V88.1881ZM149.718 88.1881V87.6881H149.633L149.553 87.7161L149.718 88.1881ZM164.852 90.569L164.357 90.6345L164.361 90.665L164.368 90.6948L164.852 90.569ZM165.978 91.5894L165.868 92.0772L165.99 92.1047L166.111 92.0716L165.978 91.5894ZM166.979 90.569L167.472 90.6508L167.479 90.6102V90.569H166.979ZM166.979 89.662H167.479V89.5298L167.413 89.4149L166.979 89.662ZM165.228 88.1881L165.421 87.7272L165.328 87.6881H165.228V88.1881ZM161.6 88.1881V87.6881H161.528L161.459 87.7084L161.6 88.1881ZM159.224 92.6099H158.724V92.7384L158.786 92.8509L159.224 92.6099ZM160.85 94.4239L160.564 94.8344L160.642 94.8884L160.734 94.9103L160.85 94.4239ZM164.727 95.6711L164.537 96.1335L164.563 96.1441L164.59 96.1518L164.727 95.6711ZM165.353 96.238H165.853V96.1289L165.807 96.0298L165.353 96.238ZM165.353 98.3922L165.809 98.5966L165.853 98.4991V98.3922H165.353ZM164.352 99.2992V99.7992H164.45L164.541 99.7623L164.352 99.2992ZM161.85 99.2992L161.735 99.7856L161.792 99.7992H161.85V99.2992ZM160.85 98.6189H160.35V98.7844L160.449 98.9173L160.85 98.6189ZM160.85 97.7119H161.35V97.5056L161.204 97.3593L160.85 97.7119ZM160.099 97.3718L160.176 96.8777L160.123 96.8694L160.069 96.8727L160.099 97.3718ZM159.224 97.7119L158.863 97.366L158.724 97.511V97.7119H159.224ZM159.224 99.0724H158.724V99.1441L158.744 99.2129L159.224 99.0724ZM160.975 100.773L160.817 101.248L160.894 101.273H160.975V100.773ZM164.977 100.773V101.273H165.049L165.118 101.253L164.977 100.773ZM167.354 98.7323L167.799 98.9598L167.86 98.8408L167.853 98.7073L167.354 98.7323ZM167.229 96.238L166.729 96.2224L166.728 96.2427L166.729 96.263L167.229 96.238ZM166.603 94.6507L166.977 94.3184L166.962 94.3019L166.946 94.2868L166.603 94.6507ZM164.602 93.6303L164.725 93.1456L164.716 93.1432L164.706 93.1412L164.602 93.6303ZM161.1 92.043H160.6V92.2645L160.764 92.4133L161.1 92.043ZM161.1 90.6824L160.664 90.438L160.6 90.5519V90.6824H161.1ZM161.976 89.8888V89.3888H161.881L161.793 89.4232L161.976 89.8888ZM164.352 89.8888L164.539 89.4252L164.449 89.3888H164.352V89.8888ZM170.106 90.569L169.62 90.4482L169.606 90.5077V90.569H170.106ZM170.106 92.2697H169.606V92.351L169.631 92.4281L170.106 92.2697ZM171.607 94.1972L171.34 94.6203L171.356 94.6304L171.373 94.6392L171.607 94.1972ZM175.734 95.6711L176.051 95.2841L175.96 95.2095L175.845 95.1834L175.734 95.6711ZM176.36 96.6915L175.865 96.7632L175.866 96.7754L175.869 96.7875L176.36 96.6915ZM176.36 98.2788L176.828 98.4548L176.845 98.4088L176.853 98.3603L176.36 98.2788ZM175.234 99.2992V99.7992H175.312L175.387 99.7753L175.234 99.2992ZM172.732 99.2992L172.45 99.7118L172.578 99.7992H172.732V99.2992ZM171.857 97.9387L172.355 97.8922L172.347 97.8136L172.316 97.7411L171.857 97.9387ZM170.856 97.3718L170.887 96.8727L170.831 96.8693L170.776 96.8783L170.856 97.3718ZM170.106 97.7119L169.787 97.3262L169.701 97.3978L169.653 97.4997L170.106 97.7119ZM170.106 99.2992L169.644 99.4903L169.649 99.5034L169.655 99.5162L170.106 99.2992ZM171.732 100.886L171.494 101.326L171.605 101.386H171.732V100.886ZM175.734 100.886V101.386H175.819L175.899 101.358L175.734 100.886ZM178.111 98.9591L178.547 99.2032L178.611 99.0895V98.9591H178.111ZM178.111 95.8978H178.611V95.7065L178.483 95.5641L178.111 95.8978ZM176.485 94.0838L176.857 93.75L176.762 93.644L176.625 93.6039L176.485 94.0838ZM172.232 92.3831L171.953 92.7978L171.965 92.8063L171.978 92.814L172.232 92.3831ZM172.857 89.7754V89.2754H172.747L172.647 89.3216L172.857 89.7754ZM174.984 89.7754L175.026 89.2771L175.005 89.2754H174.984V89.7754ZM175.734 90.2289H176.234V90.1319L176.198 90.0418L175.734 90.2289ZM175.734 90.9092H175.234V91.0767L175.335 91.2104L175.734 90.9092ZM176.86 91.5894L176.738 92.0745L176.835 92.0986L176.933 92.0841L176.86 91.5894ZM177.86 90.9092L178.295 91.1563L178.36 91.0414V90.9092H177.86ZM177.86 89.7754H178.36V89.6576L178.308 89.5522L177.86 89.7754ZM175.859 88.0747L176.039 87.6083L175.952 87.5747H175.859V88.0747ZM172.232 88.0747V87.5747H172.128L172.033 87.6161L172.232 88.0747ZM183.114 90.569L182.669 90.3403L182.614 90.4479V90.569H183.114ZM184.114 89.7754V89.2754H184.026L183.942 89.3059L184.114 89.7754ZM186.366 89.7754L186.569 89.3183L186.472 89.2754H186.366V89.7754ZM187.492 90.9092H187.992V90.84L187.973 90.7735L187.492 90.9092ZM187.492 97.9387L187.985 98.0203L187.992 97.9797V97.9387H187.492ZM186.366 99.2992L186.466 99.7892L186.513 99.7795L186.558 99.7608L186.366 99.2992ZM184.114 99.2992L183.864 99.7317L183.927 99.7685L183.998 99.7855L184.114 99.2992ZM183.114 98.052H182.614V98.1204L182.632 98.1863L183.114 98.052ZM183.739 88.0747V87.5747H183.649L183.565 87.6059L183.739 88.0747ZM186.866 88.0747L187.019 87.5986L186.944 87.5747H186.866V88.0747ZM189.618 90.9092H190.118V90.8413L190.1 90.7759L189.618 90.9092ZM189.618 97.7119H189.118L189.118 97.724L189.618 97.7119ZM186.741 101L186.722 101.5L186.753 101.501L186.784 101.498L186.741 101ZM183.739 100.886L183.57 101.357L183.643 101.383L183.72 101.386L183.739 100.886ZM180.987 98.2788H180.487V98.3625L180.515 98.4416L180.987 98.2788ZM180.987 90.569L180.533 90.3605L180.487 90.4598V90.569H180.987ZM192.87 88.6416L192.589 88.2281L192.37 88.3769V88.6416H192.87ZM192.87 100.32H192.37V100.423L192.411 100.518L192.87 100.32ZM193.745 100.886L193.677 101.382L193.76 101.393L193.842 101.377L193.745 100.886ZM194.496 100.32L194.969 100.481L194.996 100.403V100.32H194.496ZM194.496 95.4443V94.9443H193.996V95.4443H194.496ZM197.123 95.4443L197.584 95.252L197.456 94.9443H197.123V95.4443ZM199.249 100.546L198.787 100.739L198.831 100.845L198.917 100.921L199.249 100.546ZM200.5 100.886L200.624 101.371L200.699 101.352L200.765 101.31L200.5 100.886ZM201 99.8661L201.495 99.9376L201.516 99.793L201.455 99.6599L201 99.8661ZM198.999 95.4443L198.655 95.0812L198.396 95.326L198.543 95.6505L198.999 95.4443ZM200.75 93.2901L201.191 93.525L201.222 93.4666L201.237 93.4021L200.75 93.2901ZM200.75 90.2289L201.239 90.1238L201.221 90.0434L201.179 89.9728L200.75 90.2289ZM198.498 88.3015L198.689 87.8391L198.597 87.8015H198.498V88.3015ZM193.37 88.3015V87.8015H193.216L193.089 87.888L193.37 88.3015ZM159.224 90.4557L158.754 90.2837L158.724 90.367V90.4557H159.224ZM171.982 90.569L171.547 90.3216L171.482 90.4367V90.569H171.982ZM171.982 91.9296L172.481 91.9653L172.482 91.9475V91.9296H171.982ZM189.243 99.4126L189.617 99.7445L189.66 99.6953L189.69 99.6366L189.243 99.4126ZM187.742 100.773L187.954 101.226L187.997 101.206L188.036 101.178L187.742 100.773ZM194.621 90.1155L194.124 90.0619L194.121 90.0886V90.1155H194.621ZM194.621 93.7436H194.121V93.8032L194.135 93.8612L194.621 93.7436ZM194.871 93.9704L194.807 94.4663L194.839 94.4704H194.871V93.9704ZM197.373 93.9704V94.4704H197.419L197.465 94.4618L197.373 93.9704ZM198.749 93.0634L199.174 93.3266L199.249 93.2056V93.0634H198.749ZM198.749 91.1359H199.249V91.0816L199.237 91.0285L198.749 91.1359ZM197.623 90.0021L197.723 89.5123L197.674 89.5021H197.623V90.0021ZM194.746 90.0021V89.5021H194.738L194.731 89.5024L194.746 90.0021ZM176.36 98.2756L176.853 98.3571L176.853 98.3568L176.36 98.2756ZM104.195 88.7472L104.591 89.0533L104.591 89.0533L104.195 88.7472ZM103.689 88.755V100.32H104.689V88.755H103.689ZM103.722 100.498C103.82 100.752 103.946 100.967 104.147 101.139C104.337 101.301 104.558 101.393 104.769 101.47L105.111 100.53C104.917 100.46 104.842 100.417 104.797 100.378C104.763 100.349 104.716 100.297 104.657 100.141L103.722 100.498ZM105.01 101.495C105.365 101.445 105.687 101.375 105.951 101.217C106.242 101.043 106.41 100.796 106.528 100.51L105.603 100.129C105.54 100.282 105.491 100.327 105.438 100.359C105.357 100.407 105.206 100.457 104.87 100.505L105.01 101.495ZM106.566 100.32V95.7845H105.566V100.32H106.566ZM106.066 96.2845H109.568V95.2845H106.066V96.2845ZM109.698 96.2672C110.44 96.0669 111.032 95.8523 111.499 95.5034C111.983 95.1414 112.291 94.6686 112.535 94.0381L111.603 93.676C111.403 94.1922 111.19 94.4858 110.9 94.7023C110.593 94.9319 110.157 95.1076 109.438 95.3017L109.698 96.2672ZM112.569 93.857V90.569H111.569V93.857H112.569ZM112.563 90.49C112.465 89.8766 112.307 89.3478 111.925 88.8954C111.549 88.4516 111.004 88.1369 110.254 87.8372L109.883 88.7658C110.583 89.0454 110.945 89.2855 111.161 89.5412C111.37 89.7883 111.489 90.1036 111.576 90.6481L112.563 90.49ZM110.068 87.8015H104.94V88.8015H110.068V87.8015ZM105.566 89.8888V94.0838H106.566V89.8888H105.566ZM106.066 94.5838H109.193V93.5838H106.066V94.5838ZM109.305 94.571C109.649 94.4916 109.956 94.3905 110.228 94.1979C110.504 94.0021 110.7 93.7424 110.88 93.4204L110.007 92.9331C109.866 93.1853 109.758 93.3051 109.649 93.3822C109.536 93.4625 109.379 93.5277 109.08 93.5966L109.305 94.571ZM110.943 93.1767V90.9092H109.943V93.1767H110.943ZM110.893 90.69C110.74 90.377 110.57 90.0957 110.304 89.8704C110.037 89.6444 109.715 89.5102 109.321 89.4055L109.064 90.372C109.389 90.4583 109.551 90.5431 109.658 90.6339C109.766 90.7255 109.863 90.8589 109.994 91.1283L110.893 90.69ZM109.193 89.3888H106.066V90.3888H109.193V89.3888ZM116.947 90.3888H119.949V89.3888H116.947V90.3888ZM119.851 90.379C120.18 90.445 120.333 90.5144 120.43 90.593C120.524 90.6684 120.619 90.7948 120.734 91.0912L121.666 90.7272C121.522 90.36 121.347 90.0476 121.058 89.8144C120.772 89.5843 120.429 89.4752 120.048 89.3986L119.851 90.379ZM120.7 90.9092V92.8366H121.7V90.9092H120.7ZM120.726 92.6773C120.624 92.9822 120.539 93.1009 120.458 93.1682C120.373 93.2382 120.224 93.3076 119.872 93.3631L120.027 94.351C120.437 94.2865 120.801 94.1816 121.094 93.9393C121.391 93.6942 121.551 93.3626 121.674 92.9959L120.726 92.6773ZM119.949 93.357H116.947V94.357H119.949V93.357ZM117.447 93.857V89.8888H116.447V93.857H117.447ZM115.947 88.6881H120.199V87.6881H115.947V88.6881ZM120.073 88.6717C120.857 88.8773 121.339 89.0868 121.697 89.3599C122.05 89.6293 122.323 89.9909 122.635 90.5768L123.518 90.1077C123.174 89.4608 122.819 88.9578 122.303 88.5645C121.792 88.1749 121.163 87.9238 120.326 87.7044L120.073 88.6717ZM122.576 90.3423V92.8366H123.576V90.3423H122.576ZM122.581 92.7648C122.496 93.3515 122.364 93.6969 122.163 93.9627C121.956 94.2361 121.639 94.4749 121.085 94.7792L121.566 95.6559C122.156 95.3323 122.623 95.0111 122.96 94.5662C123.303 94.1137 123.473 93.5826 123.571 92.9084L122.581 92.7648ZM120.87 95.4237L122.871 99.8455L123.782 99.4332L121.781 95.0114L120.87 95.4237ZM122.846 99.7781C122.925 100.052 122.903 100.134 122.897 100.153C122.891 100.168 122.866 100.225 122.669 100.36L123.233 101.186C123.47 101.024 123.72 100.817 123.837 100.492C123.954 100.169 123.903 99.8322 123.807 99.5005L122.846 99.7781ZM122.846 100.284C122.502 100.358 122.376 100.344 122.326 100.326C122.311 100.321 122.253 100.305 122.147 100.094L121.254 100.545C121.411 100.855 121.626 101.141 121.996 101.27C122.329 101.387 122.697 101.339 123.056 101.262L122.846 100.284ZM122.155 100.112L120.029 95.4631L119.119 95.8791L121.246 100.528L122.155 100.112ZM119.574 95.1711H117.073V96.1711H119.574V95.1711ZM116.573 95.6711V100.206H117.573V95.6711H116.573ZM116.604 100.032C116.542 100.199 116.504 100.249 116.476 100.276C116.448 100.302 116.384 100.349 116.185 100.406L116.459 101.367C116.73 101.29 116.97 101.186 117.165 101C117.36 100.814 117.462 100.592 117.541 100.381L116.604 100.032ZM116.369 100.389C116.095 100.363 115.982 100.327 115.924 100.294C115.887 100.274 115.84 100.238 115.768 100.094L114.875 100.545C115.001 100.795 115.166 101.016 115.436 101.167C115.684 101.306 115.972 101.356 116.275 101.384L116.369 100.389ZM115.821 100.32V88.8684H114.821V100.32H115.821ZM115.821 88.8985C115.829 88.7589 115.851 88.7636 115.834 88.7828C115.834 88.783 115.875 88.7375 116.102 88.6634L115.791 87.7128C115.531 87.798 115.271 87.9103 115.085 88.1197C114.883 88.3481 114.836 88.6134 114.822 88.8382L115.821 88.8985ZM128.413 91.1085C128.552 90.7876 128.663 90.6111 128.788 90.4844C128.911 90.3603 129.08 90.2516 129.392 90.1258L129.018 89.1982C128.64 89.3507 128.332 89.5228 128.077 89.7814C127.824 90.0373 127.654 90.3452 127.496 90.7099L128.413 91.1085ZM129.205 90.162H131.206V89.162H129.205V90.162ZM131.04 90.1336C131.437 90.2732 131.637 90.3951 131.767 90.5193C131.896 90.6422 131.994 90.8035 132.122 91.1045L133.042 90.7138C132.898 90.3725 132.735 90.0608 132.458 89.7961C132.182 89.5325 131.831 89.352 131.372 89.1904L131.04 90.1336ZM132.082 90.9092V98.1654H133.082V90.9092H132.082ZM132.135 97.9412C132.014 98.183 131.922 98.3269 131.805 98.4485C131.687 98.5712 131.52 98.6959 131.218 98.8596L131.695 99.7388C132.044 99.5496 132.31 99.3671 132.527 99.141C132.745 98.9137 132.89 98.6671 133.029 98.3896L132.135 97.9412ZM131.456 98.7992H129.205V99.7992H131.456V98.7992ZM129.437 98.8563C129.151 98.7063 128.971 98.593 128.823 98.4625C128.679 98.3349 128.546 98.1728 128.38 97.9039L127.528 98.427C127.727 98.7504 127.92 98.9988 128.161 99.2118C128.399 99.4219 128.662 99.5793 128.973 99.742L129.437 98.8563ZM128.454 98.1654V90.9092H127.454V98.1654H128.454ZM131.668 88.5473C132.425 88.8086 132.872 89.0761 133.207 89.401C133.549 89.7329 133.806 90.1554 134.139 90.7989L135.027 90.3392C134.689 89.6847 134.37 89.1362 133.904 88.6835C133.43 88.2238 132.837 87.8931 131.995 87.6021L131.668 88.5473ZM134.083 90.569V98.1654H135.083V90.569H134.083ZM134.106 98.0175C133.918 98.6234 133.741 99.0331 133.486 99.3871C133.232 99.741 132.878 100.07 132.296 100.477L132.869 101.296C133.5 100.855 133.953 100.451 134.298 99.9708C134.643 99.4903 134.86 98.9636 135.061 98.3134L134.106 98.0175ZM132.582 100.386H128.955V101.386H132.582V100.386ZM129.09 100.405C128.349 100.197 127.881 100.007 127.532 99.7445C127.195 99.491 126.93 99.1393 126.661 98.5302L125.746 98.9344C126.058 99.6413 126.414 100.155 126.931 100.544C127.435 100.923 128.053 101.152 128.82 101.368L129.09 100.405ZM126.703 98.7323V90.3423H125.703V98.7323H126.703ZM126.656 90.5538C126.936 89.9552 127.176 89.5917 127.477 89.327C127.777 89.0634 128.179 88.8626 128.845 88.668L128.565 87.7081C127.831 87.9223 127.272 88.1757 126.817 88.5757C126.363 88.9745 126.052 89.4837 125.75 90.1308L126.656 90.5538ZM128.723 88.6878L131.85 88.5744L131.814 87.575L128.687 87.6884L128.723 88.6878ZM145.511 91.974C145.74 91.953 145.99 91.9047 146.214 91.7398C146.435 91.5778 146.568 91.3493 146.673 91.1108L145.758 90.7076C145.678 90.8896 145.632 90.9265 145.623 90.9337C145.617 90.9381 145.584 90.963 145.42 90.9782L145.511 91.974ZM146.716 90.9092V89.662H145.716V90.9092H146.716ZM146.648 89.4115C146.453 89.0743 146.248 88.7895 145.931 88.5166C145.624 88.2516 145.232 88.0147 144.689 87.7414L144.24 88.6347C144.757 88.8949 145.063 89.0883 145.278 89.2736C145.483 89.451 145.623 89.6365 145.783 89.9125L146.648 89.4115ZM144.465 87.6881H139.962V88.6881H144.465V87.6881ZM139.754 87.7331C139.081 88.0402 138.572 88.3391 138.168 88.7654C137.762 89.1931 137.497 89.7119 137.242 90.3937L138.179 90.7444C138.415 90.1126 138.623 89.7387 138.893 89.4533C139.165 89.1663 139.536 88.9316 140.169 88.6431L139.754 87.7331ZM137.21 90.569V98.1654H138.21V90.569H137.21ZM137.213 98.2161C137.263 98.7069 137.352 99.1125 137.542 99.4968C137.73 99.8784 138 100.204 138.358 100.561L139.064 99.8519C138.74 99.5295 138.557 99.2939 138.439 99.0543C138.322 98.8173 138.251 98.5419 138.208 98.1147L137.213 98.2161ZM138.458 100.638C139.125 101.028 139.524 101.179 140.203 101.368L140.471 100.405C139.862 100.235 139.545 100.115 138.964 99.7747L138.458 100.638ZM140.337 101.386H144.089V100.386H140.337V101.386ZM144.219 101.369C144.832 101.205 145.323 101.018 145.711 100.712C146.112 100.396 146.358 99.9906 146.557 99.4807L145.625 99.1177C145.464 99.5303 145.304 99.759 145.092 99.9263C144.867 100.104 144.536 100.249 143.96 100.404L144.219 101.369ZM146.591 99.2992V97.9387H145.591V99.2992H146.591ZM146.566 97.7844C146.488 97.5446 146.361 97.2833 146.087 97.1241C145.835 96.9779 145.549 96.9738 145.315 96.9858L145.366 97.9845C145.464 97.9795 145.524 97.9818 145.563 97.9869C145.598 97.9916 145.598 97.9967 145.584 97.9887C145.542 97.964 145.566 97.9409 145.615 98.0929L146.566 97.7844ZM145.379 96.9867C145.092 96.964 144.807 96.9729 144.539 97.096C144.266 97.221 144.083 97.4311 143.928 97.6541L144.751 98.2233C144.866 98.0562 144.925 98.0191 144.956 98.0047C144.992 97.9884 145.071 97.9655 145.301 97.9836L145.379 96.9867ZM143.843 97.8832C143.804 98.231 143.748 98.4257 143.672 98.5697C143.598 98.711 143.486 98.8429 143.264 99.0326L143.914 99.7926C144.179 99.5659 144.4 99.3365 144.559 99.0329C144.716 98.7319 144.791 98.3978 144.836 97.9941L143.843 97.8832ZM143.589 98.9126H140.962V99.9126H143.589V98.9126ZM141.156 98.9517C140.825 98.8125 140.63 98.7024 140.478 98.5689C140.33 98.4385 140.195 98.2596 140.033 97.9393L139.141 98.3915C139.336 98.7777 139.541 99.076 139.817 99.3194C140.09 99.5597 140.403 99.7199 140.769 99.8735L141.156 98.9517ZM140.087 98.1654V91.0226H139.087V98.1654H140.087ZM140.069 91.1531C140.146 90.8707 140.221 90.7252 140.319 90.6161C140.421 90.5011 140.587 90.3837 140.921 90.2295L140.503 89.3212C140.122 89.4968 139.811 89.6836 139.573 89.95C139.329 90.2224 139.2 90.5356 139.104 90.892L140.069 91.1531ZM140.712 90.2754H143.464V89.2754H140.712V90.2754ZM143.348 90.2618C143.542 90.3077 143.595 90.3415 143.617 90.3607C143.633 90.3746 143.678 90.4188 143.738 90.6065L144.691 90.3048C144.606 90.0346 144.486 89.7887 144.268 89.6019C144.057 89.4204 143.807 89.343 143.58 89.2889L143.348 90.2618ZM143.752 90.6468L144.128 91.5538L145.052 91.1716L144.676 90.2645L143.752 90.6468ZM144.396 91.8238C144.632 91.9225 144.833 91.9841 145.033 92.0035C145.237 92.0231 145.408 91.9952 145.556 91.9677L145.374 90.9844C145.242 91.009 145.187 91.0136 145.129 91.0081C145.069 91.0023 144.973 90.9811 144.783 90.9016L144.396 91.8238ZM148.467 88.8684V99.8661H149.467V88.8684H148.467ZM148.479 99.9732C148.541 100.258 148.623 100.513 148.776 100.731C148.936 100.958 149.14 101.1 149.36 101.216L149.825 100.331C149.679 100.253 149.628 100.203 149.595 100.157C149.556 100.101 149.508 99.9986 149.456 99.759L148.479 99.9732ZM149.593 101.273H155.972V100.273H149.593V101.273ZM156.16 101.236C156.4 101.139 156.627 101.021 156.815 100.826C157.004 100.629 157.114 100.394 157.198 100.133L156.246 99.8262C156.185 100.016 156.135 100.09 156.094 100.133C156.05 100.179 155.975 100.232 155.783 100.31L156.16 101.236ZM157.218 99.9121C157.179 99.624 157.093 99.3708 156.914 99.1323C156.747 98.9108 156.519 98.7309 156.258 98.5489L155.686 99.3693C155.932 99.5405 156.049 99.646 156.115 99.7341C156.168 99.805 156.205 99.8853 156.227 100.047L157.218 99.9121ZM155.972 98.4591H150.969V99.4591H155.972V98.4591ZM151.469 98.9591V95.1042H150.469V98.9591H151.469ZM150.969 95.6042H154.971V94.6042H150.969V95.6042ZM155.055 95.5972C155.319 95.5524 155.606 95.4782 155.832 95.2772C156.071 95.0652 156.164 94.7845 156.214 94.5136L155.23 94.3342C155.213 94.4246 155.196 94.4753 155.184 94.5034C155.178 94.5164 155.173 94.523 155.171 94.5257C155.17 94.5282 155.169 94.5291 155.168 94.5297C155.163 94.5343 155.116 94.5727 154.888 94.6112L155.055 95.5972ZM156.222 94.4206C156.22 94.0982 156.175 93.7707 155.967 93.4881C155.765 93.2138 155.466 93.0592 155.152 92.9374L154.79 93.8696C155.061 93.9747 155.135 94.0442 155.161 94.0804C155.182 94.1082 155.22 94.1775 155.222 94.4272L156.222 94.4206ZM154.971 92.9035H150.969V93.9035H154.971V92.9035ZM151.469 93.4035V89.8888H150.469V93.4035H151.469ZM150.969 90.3888H156.097V89.3888H150.969V90.3888ZM156.325 90.3337C156.588 90.1987 156.851 90.0541 157.018 89.8415C157.224 89.5809 157.235 89.2987 157.221 89.0651L156.223 89.1251C156.228 89.2058 156.224 89.2363 156.222 89.2443C156.222 89.2461 156.223 89.2421 156.226 89.2351C156.229 89.228 156.232 89.2233 156.233 89.222C156.234 89.2219 156.218 89.2416 156.155 89.2831C156.092 89.3246 156.003 89.3752 155.869 89.4439L156.325 90.3337ZM157.22 89.1431C157.244 88.891 157.247 88.6012 157.104 88.3277C156.96 88.0523 156.714 87.8807 156.453 87.7448L155.991 88.6314C156.19 88.7354 156.216 88.7882 156.218 88.7918C156.221 88.7973 156.244 88.841 156.225 89.0471L157.22 89.1431ZM156.222 87.6881H149.718V88.6881H156.222V87.6881ZM149.553 87.7161C149.311 87.8007 149.094 87.905 148.909 88.075C148.724 88.2453 148.609 88.448 148.512 88.6626L149.423 89.0741C149.496 88.9135 149.544 88.8497 149.587 88.8106C149.63 88.7712 149.703 88.723 149.883 88.6601L149.553 87.7161ZM164.368 90.6948C164.459 91.0446 164.592 91.3691 164.866 91.6213C165.135 91.8672 165.48 91.9896 165.868 92.0772L166.088 91.1017C165.752 91.0258 165.615 90.9511 165.542 90.8844C165.476 90.8238 165.408 90.7199 165.336 90.4433L164.368 90.6948ZM166.111 92.0716C166.469 91.9732 166.799 91.8431 167.048 91.5912C167.307 91.3294 167.414 91.0014 167.472 90.6508L166.485 90.4873C166.442 90.7498 166.385 90.8396 166.337 90.8886C166.278 90.9475 166.16 91.021 165.846 91.1073L166.111 92.0716ZM167.479 90.569V89.662H166.479V90.569H167.479ZM167.413 89.4149C167.2 89.0403 166.983 88.7234 166.661 88.4433C166.343 88.1665 165.95 87.9496 165.421 87.7272L165.034 88.649C165.517 88.8523 165.8 89.0201 166.004 89.1977C166.205 89.372 166.356 89.5792 166.544 89.9091L167.413 89.4149ZM165.228 87.6881H161.6V88.6881H165.228V87.6881ZM158.786 92.8509C159.018 93.2726 159.234 93.6154 159.513 93.9331C159.794 94.2516 160.122 94.5271 160.564 94.8344L161.135 94.0134C160.733 93.7335 160.473 93.5101 160.264 93.2724C160.054 93.034 159.879 92.7634 159.662 92.3688L158.786 92.8509ZM160.734 94.9103C162.268 95.2757 163.093 95.5394 164.537 96.1335L164.918 95.2087C163.424 94.5941 162.549 94.3147 160.966 93.9375L160.734 94.9103ZM164.59 96.1518C164.721 96.1893 164.757 96.2187 164.772 96.2328C164.793 96.2529 164.83 96.2978 164.898 96.4461L165.807 96.0298C165.724 95.8472 165.621 95.6583 165.455 95.5026C165.282 95.3408 165.081 95.2522 164.865 95.1904L164.59 96.1518ZM164.853 96.238V98.3922H165.853V96.238H164.853ZM164.896 98.1877C164.808 98.3848 164.74 98.4833 164.659 98.5588C164.573 98.6388 164.438 98.7245 164.163 98.8361L164.541 99.7623C164.863 99.6312 165.126 99.4904 165.34 99.2912C165.559 99.0873 165.694 98.8536 165.809 98.5966L164.896 98.1877ZM164.352 98.7992H161.85V99.7992H164.352V98.7992ZM161.966 98.8128C161.771 98.7662 161.671 98.7267 161.588 98.673C161.504 98.6182 161.404 98.5256 161.251 98.3206L160.449 98.9173C160.637 99.1699 160.82 99.3658 161.042 99.5109C161.267 99.657 161.497 99.7289 161.735 99.7856L161.966 98.8128ZM161.35 98.6189V97.7119H160.35V98.6189H161.35ZM161.204 97.3593C161.09 97.2438 160.96 97.1313 160.775 97.0436C160.6 96.9601 160.404 96.9133 160.176 96.8777L160.022 97.8658C160.212 97.8953 160.298 97.9237 160.346 97.9467C160.385 97.9653 160.422 97.9903 160.495 98.0645L161.204 97.3593ZM160.069 96.8727C159.842 96.8867 159.622 96.912 159.415 96.9892C159.193 97.0719 159.022 97.2002 158.863 97.366L159.585 98.0578C159.667 97.9724 159.717 97.944 159.765 97.9261C159.827 97.9027 159.925 97.8835 160.13 97.8708L160.069 96.8727ZM158.724 97.7119V99.0724H159.724V97.7119H158.724ZM158.744 99.2129C158.904 99.7611 159.115 100.194 159.475 100.534C159.828 100.867 160.277 101.068 160.817 101.248L161.132 100.299C160.63 100.132 160.352 99.9867 160.163 99.8078C159.982 99.6366 159.838 99.3919 159.704 98.932L158.744 99.2129ZM160.975 101.273H164.977V100.273H160.975V101.273ZM165.118 101.253C165.781 101.059 166.297 100.824 166.733 100.445C167.164 100.07 167.48 99.5849 167.799 98.9598L166.909 98.5048C166.611 99.0876 166.365 99.4397 166.076 99.691C165.791 99.9389 165.428 100.121 164.837 100.293L165.118 101.253ZM167.853 98.7073L167.728 96.2129L166.729 96.263L166.855 98.7573L167.853 98.7073ZM167.729 96.2535C167.739 95.9075 167.718 95.5877 167.593 95.2581C167.471 94.9337 167.264 94.6415 166.977 94.3184L166.23 94.983C166.482 95.2659 166.598 95.4515 166.658 95.6114C166.716 95.766 166.738 95.9368 166.729 96.2224L167.729 96.2535ZM166.946 94.2868C166.63 93.9888 166.336 93.7635 165.976 93.5806C165.623 93.4008 165.227 93.273 164.725 93.1456L164.479 94.1149C164.954 94.2353 165.267 94.3416 165.523 94.472C165.773 94.5993 165.991 94.7603 166.261 95.0145L166.946 94.2868ZM164.706 93.1412C163.775 92.943 163.166 92.7592 162.69 92.5379C162.222 92.3208 161.861 92.058 161.436 91.6726L160.764 92.4133C161.238 92.843 161.682 93.1728 162.269 93.4449C162.846 93.7129 163.539 93.9153 164.498 94.1193L164.706 93.1412ZM161.6 92.043V90.6824H160.6V92.043H161.6ZM161.536 90.9269C161.657 90.7111 161.741 90.6071 161.816 90.5412C161.888 90.4777 161.979 90.4245 162.158 90.3543L161.793 89.4232C161.564 89.5131 161.351 89.6178 161.154 89.7918C160.96 89.9633 160.811 90.176 160.664 90.438L161.536 90.9269ZM161.976 90.3888H164.352V89.3888H161.976V90.3888ZM164.165 90.3524C164.322 90.4158 164.328 90.4498 164.317 90.4333C164.315 90.4302 164.321 90.4363 164.329 90.4677C164.338 90.5031 164.346 90.5517 164.357 90.6345L165.348 90.5036C165.327 90.3453 165.297 90.1094 165.161 89.8963C165.014 89.6651 164.792 89.5271 164.539 89.4252L164.165 90.3524ZM169.606 90.569V92.2697H170.606V90.569H169.606ZM169.631 92.4281C169.792 92.9091 169.964 93.3098 170.237 93.6698C170.512 94.0315 170.864 94.3206 171.34 94.6203L171.873 93.774C171.453 93.5095 171.209 93.2958 171.034 93.0653C170.857 92.8331 170.727 92.5522 170.58 92.1113L169.631 92.4281ZM171.373 94.6392C172.77 95.3775 173.71 95.7253 175.624 96.1587L175.845 95.1834C174.004 94.7666 173.149 94.4467 171.84 93.7551L171.373 94.6392ZM175.418 96.058C175.632 96.2336 175.721 96.3415 175.768 96.4222C175.811 96.4969 175.839 96.5825 175.865 96.7632L176.854 96.6197C176.821 96.3904 176.771 96.158 176.633 95.9211C176.5 95.6903 176.306 95.4929 176.051 95.2841L175.418 96.058ZM175.892 98.1027C175.797 98.3551 175.716 98.475 175.626 98.5566C175.532 98.6423 175.384 98.7258 175.081 98.8231L175.387 99.7753C175.743 99.6607 176.05 99.5231 176.299 99.2961C176.553 99.0649 176.705 98.7806 176.828 98.4548L175.892 98.1027ZM175.234 98.7992H172.732V99.7992H175.234V98.7992ZM173.015 98.8866C172.706 98.6756 172.568 98.5334 172.493 98.4121C172.422 98.2984 172.38 98.1597 172.355 97.8922L171.359 97.9851C171.39 98.3214 171.455 98.6371 171.643 98.9398C171.827 99.2349 172.098 99.471 172.45 99.7118L173.015 98.8866ZM172.316 97.7411C172.192 97.4534 172.018 97.2119 171.728 97.0597C171.469 96.9234 171.17 96.89 170.887 96.8727L170.826 97.8708C171.102 97.8878 171.209 97.9168 171.263 97.9448C171.286 97.957 171.331 97.9818 171.397 98.1362L172.316 97.7411ZM170.776 96.8783C170.578 96.9106 170.402 96.9567 170.233 97.0351C170.064 97.1134 169.924 97.2134 169.787 97.3262L170.424 98.0976C170.526 98.0136 170.592 97.9712 170.654 97.9424C170.715 97.9138 170.796 97.8882 170.937 97.8652L170.776 96.8783ZM169.653 97.4997C169.495 97.8361 169.398 98.1502 169.401 98.4949C169.404 98.8327 169.503 99.1502 169.644 99.4903L170.568 99.1081C170.444 98.8094 170.403 98.6328 170.401 98.4863C170.4 98.3468 170.435 98.1866 170.558 97.9241L169.653 97.4997ZM169.655 99.5162C169.867 99.9565 170.094 100.293 170.401 100.584C170.702 100.87 171.058 101.09 171.494 101.326L171.97 100.447C171.555 100.222 171.292 100.051 171.089 99.8588C170.893 99.6727 170.731 99.4458 170.556 99.0822L169.655 99.5162ZM171.732 101.386H175.734V100.386H171.732V101.386ZM175.899 101.358C176.532 101.137 177.034 100.907 177.464 100.564C177.897 100.218 178.222 99.7833 178.547 99.2032L177.674 98.7149C177.385 99.2314 177.135 99.5463 176.839 99.7827C176.54 100.022 176.161 100.207 175.569 100.415L175.899 101.358ZM178.611 98.9591V95.8978H177.611V98.9591H178.611ZM178.483 95.5641L176.857 93.75L176.112 94.4175L177.738 96.2316L178.483 95.5641ZM176.625 93.6039C174.937 93.1093 174.037 92.8655 172.486 91.9522L171.978 92.814C173.646 93.7957 174.651 94.0677 176.344 94.5636L176.625 93.6039ZM172.857 90.2754H174.984V89.2754H172.857V90.2754ZM174.942 90.2736C175.16 90.292 175.218 90.3232 175.227 90.3283C175.227 90.3288 175.227 90.3284 175.226 90.3275C175.225 90.3266 175.226 90.3272 175.228 90.331C175.235 90.3399 175.249 90.3629 175.27 90.416L176.198 90.0418C176.118 89.8448 175.998 89.6321 175.759 89.4821C175.542 89.3452 175.285 89.299 175.026 89.2771L174.942 90.2736ZM175.234 90.2289V90.9092H176.234V90.2289H175.234ZM175.335 91.2104C175.502 91.432 175.68 91.6163 175.922 91.7636C176.157 91.906 176.423 91.9955 176.738 92.0745L176.981 91.1044C176.702 91.0344 176.549 90.9741 176.441 90.9088C176.341 90.8483 176.253 90.767 176.133 90.6079L175.335 91.2104ZM176.933 92.0841C177.221 92.0415 177.493 91.9725 177.737 91.808C177.982 91.6428 178.148 91.4154 178.295 91.1563L177.426 90.6621C177.311 90.8643 177.237 90.9388 177.177 90.9791C177.116 91.0202 177.019 91.0606 176.787 91.0948L176.933 92.0841ZM178.36 90.9092V89.7754H177.36V90.9092H178.36ZM178.308 89.5522C178.09 89.1158 177.861 88.7434 177.496 88.4187C177.135 88.0986 176.675 87.8537 176.039 87.6083L175.679 88.5411C176.266 88.7677 176.6 88.9606 176.832 89.1664C177.058 89.3678 177.219 89.6096 177.413 89.9985L178.308 89.5522ZM175.859 87.5747H172.232V88.5747H175.859V87.5747ZM172.033 87.6161C171.325 87.9238 170.796 88.2493 170.403 88.7171C170.011 89.1848 169.795 89.7476 169.62 90.4482L170.591 90.6898C170.751 90.0459 170.921 89.6559 171.169 89.3598C171.418 89.0637 171.784 88.8144 172.431 88.5333L172.033 87.6161ZM183.558 90.7978C183.647 90.6264 183.72 90.5421 183.801 90.4792C183.894 90.4079 184.029 90.3392 184.286 90.2449L183.942 89.3059C183.661 89.409 183.408 89.5197 183.191 89.6873C182.963 89.8631 182.805 90.077 182.669 90.3403L183.558 90.7978ZM184.114 90.2754H186.366V89.2754H184.114V90.2754ZM186.163 90.2324C186.535 90.3973 186.707 90.5173 186.804 90.6196C186.889 90.7102 186.946 90.8186 187.01 91.0449L187.973 90.7735C187.889 90.4756 187.775 90.1908 187.53 89.9324C187.297 89.6856 186.98 89.5009 186.569 89.3183L186.163 90.2324ZM186.992 90.9092V97.9387H187.992V90.9092H186.992ZM186.998 97.857C186.94 98.2092 186.861 98.3717 186.77 98.4771C186.674 98.5895 186.515 98.6955 186.174 98.8376L186.558 99.7608C186.936 99.6034 187.275 99.4242 187.529 99.1287C187.789 98.8262 187.912 98.4581 187.985 98.0203L186.998 97.857ZM186.266 98.8092C185.845 98.895 185.545 98.9413 185.25 98.9458C184.96 98.9503 184.655 98.9142 184.231 98.8129L183.998 99.7855C184.479 99.9005 184.871 99.9517 185.266 99.9457C185.656 99.9398 186.029 99.8779 186.466 99.7892L186.266 98.8092ZM184.365 98.8667C184.101 98.7134 183.962 98.6112 183.863 98.4945C183.768 98.3838 183.681 98.2258 183.595 97.9177L182.632 98.1863C182.741 98.5774 182.881 98.8843 183.101 99.143C183.317 99.3957 183.58 99.5675 183.864 99.7317L184.365 98.8667ZM183.614 98.052V90.569H182.614V98.052H183.614ZM183.739 88.5747H186.866V87.5747H183.739V88.5747ZM186.713 88.5508C187.59 88.8318 188.076 89.1176 188.397 89.4671C188.721 89.8184 188.927 90.2858 189.136 91.0425L190.1 90.7759C189.879 89.978 189.622 89.3208 189.133 88.7898C188.643 88.257 187.968 87.9029 187.019 87.5986L186.713 88.5508ZM189.118 90.9092V97.7119H190.118V90.9092H189.118ZM186.76 100.5L183.758 100.387L183.72 101.386L186.722 101.5L186.76 100.5ZM183.908 100.416C183.135 100.138 182.654 99.8904 182.304 99.5675C181.962 99.2519 181.705 98.8268 181.46 98.1159L180.515 98.4416C180.79 99.2399 181.118 99.8339 181.626 100.303C182.126 100.764 182.761 101.066 183.57 101.357L183.908 100.416ZM181.487 98.2788V90.569H180.487V98.2788H181.487ZM181.442 90.7776C181.737 90.1338 182.001 89.7232 182.346 89.4042C182.693 89.0838 183.159 88.8233 183.913 88.5435L183.565 87.6059C182.754 87.9068 182.152 88.223 181.668 88.6693C181.183 89.117 180.853 89.6632 180.533 90.3605L181.442 90.7776ZM192.37 88.6416V100.32H193.37V88.6416H192.37ZM192.411 100.518C192.496 100.716 192.616 100.94 192.858 101.109C193.085 101.268 193.364 101.339 193.677 101.382L193.814 100.391C193.546 100.354 193.46 100.31 193.431 100.29C193.417 100.28 193.389 100.261 193.329 100.121L192.411 100.518ZM193.842 101.377C194.118 101.323 194.375 101.244 194.581 101.078C194.802 100.902 194.902 100.678 194.969 100.481L194.023 100.158C193.978 100.288 193.956 100.298 193.956 100.298C193.942 100.309 193.88 100.351 193.649 100.396L193.842 101.377ZM194.996 100.32V95.4443H193.996V100.32H194.996ZM194.496 95.9443H197.123V94.9443H194.496V95.9443ZM196.661 95.6367L198.787 100.739L199.71 100.354L197.584 95.252L196.661 95.6367ZM198.917 100.921C199.166 101.141 199.419 101.32 199.721 101.401C200.031 101.484 200.327 101.447 200.624 101.371L200.376 100.402C200.153 100.459 200.051 100.454 199.98 100.435C199.901 100.414 199.789 100.357 199.58 100.172L198.917 100.921ZM200.765 101.31C201.009 101.157 201.185 100.967 201.303 100.709C201.408 100.477 201.455 100.211 201.495 99.9376L200.505 99.7946C200.465 100.069 200.432 100.207 200.392 100.295C200.364 100.357 200.329 100.403 200.234 100.463L200.765 101.31ZM201.455 99.6599L199.454 95.2382L198.543 95.6505L200.544 100.072L201.455 99.6599ZM199.342 95.8075C200.134 95.0578 200.622 94.5946 201.191 93.525L200.308 93.0552C199.819 93.9754 199.43 94.3473 198.655 95.0812L199.342 95.8075ZM201.237 93.4021C201.376 92.7985 201.449 92.2982 201.448 91.7801C201.448 91.2636 201.373 90.7509 201.239 90.1238L200.261 90.334C200.388 90.9271 200.448 91.3633 200.448 91.7815C200.449 92.198 200.391 92.6183 200.263 93.1781L201.237 93.4021ZM201.179 89.9728C200.873 89.4588 200.578 89.0494 200.181 88.703C199.785 88.3566 199.314 88.0968 198.689 87.8391L198.308 88.7638C198.88 88.9994 199.241 89.2091 199.523 89.456C199.806 89.7028 200.037 90.0105 200.32 90.485L201.179 89.9728ZM198.498 87.8015H193.37V88.8015H198.498V87.8015ZM193.089 87.888L192.589 88.2281L193.151 89.0551L193.651 88.715L193.089 87.888ZM159.693 90.6277C159.932 89.9766 160.15 89.5946 160.43 89.3255C160.706 89.0586 161.088 88.8596 161.741 88.6678L161.459 87.7084C160.737 87.9205 160.179 88.1781 159.736 88.6054C159.295 89.0304 159.012 89.5802 158.754 90.2837L159.693 90.6277ZM158.724 90.4557V92.6099H159.724V90.4557H158.724ZM172.647 89.3216C172.395 89.4383 172.183 89.5624 171.997 89.7324C171.81 89.9032 171.675 90.0979 171.547 90.3216L172.416 90.8165C172.516 90.6407 172.591 90.5439 172.672 90.4703C172.753 90.396 172.865 90.323 173.067 90.2292L172.647 89.3216ZM171.482 90.569V91.9296H172.482V90.569H171.482ZM171.483 91.8939C171.472 92.0443 171.48 92.2331 171.583 92.4224C171.68 92.5987 171.828 92.7139 171.953 92.7978L172.511 91.9684C172.492 91.9553 172.477 91.9445 172.466 91.9359C172.455 91.9272 172.448 91.9215 172.445 91.9186C172.439 91.9132 172.449 91.9209 172.46 91.9414C172.466 91.9514 172.47 91.962 172.474 91.9725C172.477 91.9828 172.479 91.9907 172.479 91.9952C172.48 91.9994 172.48 91.9997 172.479 91.9946C172.479 91.9894 172.479 91.9801 172.481 91.9653L171.483 91.8939ZM189.118 97.724C189.126 98.0534 189.111 98.2763 189.067 98.4805C189.022 98.6839 188.943 98.8934 188.796 99.1886L189.69 99.6366C189.858 99.2998 189.975 99.0077 190.044 98.693C190.112 98.3792 190.127 98.0676 190.118 97.6998L189.118 97.724ZM188.869 99.0807C188.379 99.6322 188.082 99.9074 187.448 100.369L188.036 101.178C188.73 100.673 189.08 100.349 189.617 99.7445L188.869 99.0807ZM187.53 100.32C187.272 100.441 187.111 100.466 186.698 100.502L186.784 101.498C187.227 101.46 187.532 101.423 187.954 101.226L187.53 100.32ZM194.121 90.1155V93.7436H195.121V90.1155H194.121ZM194.135 93.8612C194.163 93.9786 194.221 94.1548 194.379 94.2909C194.534 94.4247 194.712 94.4539 194.807 94.4663L194.935 93.4745C194.913 93.4717 194.917 93.4707 194.934 93.4763C194.955 93.4832 194.992 93.4995 195.032 93.5333C195.112 93.6025 195.119 93.6749 195.107 93.6261L194.135 93.8612ZM194.871 94.4704H197.373V93.4704H194.871V94.4704ZM197.465 94.4618C197.847 94.3899 198.177 94.2932 198.468 94.1026C198.763 93.9091 198.975 93.648 199.174 93.3266L198.323 92.8001C198.163 93.0599 198.044 93.1849 197.92 93.266C197.792 93.35 197.614 93.4162 197.28 93.479L197.465 94.4618ZM199.249 93.0634V91.1359H198.249V93.0634H199.249ZM199.237 91.0285C199.16 90.6794 199.055 90.3214 198.795 90.0381C198.527 89.7462 198.161 89.6019 197.723 89.5123L197.523 90.492C197.875 90.5642 197.998 90.6488 198.058 90.7144C198.126 90.7885 198.188 90.9166 198.26 91.2433L199.237 91.0285ZM197.623 89.5021H194.746V90.5021H197.623V89.5021ZM194.731 89.5024C194.683 89.5038 194.481 89.5056 194.315 89.6579C194.146 89.8124 194.129 90.0162 194.124 90.0619L195.118 90.1691C195.119 90.1605 195.117 90.1845 195.105 90.221C195.091 90.2633 195.059 90.3325 194.99 90.3954C194.922 90.4579 194.851 90.4834 194.81 90.4936C194.775 90.5025 194.752 90.5022 194.761 90.5019L194.731 89.5024ZM176.853 98.3603L176.853 98.3571L175.867 98.1941L175.866 98.1972L176.853 98.3603ZM176.853 98.3568C176.898 98.0879 176.939 97.8393 176.947 97.5627C176.954 97.2799 176.926 96.9834 176.85 96.5955L175.869 96.7875C175.935 97.1245 175.952 97.3453 175.947 97.5361C175.942 97.7329 175.913 97.9139 175.867 98.1945L176.853 98.3568ZM104.9 87.8031C104.632 87.8248 104.404 87.8864 104.201 88.026C104.018 88.1523 103.891 88.3233 103.8 88.4411L104.591 89.0533C104.705 88.9052 104.738 88.8706 104.769 88.8492C104.781 88.841 104.822 88.8127 104.98 88.7998L104.9 87.8031ZM103.8 88.4411C103.798 88.4437 103.796 88.4463 103.794 88.4489L104.585 89.0611C104.587 89.0584 104.589 89.0558 104.591 89.0533L103.8 88.4411Z" fill="black" mask="url(#path-1-outside-1_266_69)"/>
<path d="M8.75481 68.1201V74.356H26.641C28.1281 74.5283 28.8907 74.8239 29.6428 76.2834V78.0975C29.0258 79.5353 28.3084 79.9159 26.641 80.1383H4.00184C2.83624 79.9442 2.32899 79.5924 1.87551 78.2109V69.1406L8.75481 68.1201Z" fill="#1CA354"/>
<path d="M43.5265 64.7188H53.908L63.1638 77.3038C62.9883 78.8438 62.6608 79.511 61.4127 80.1383C59.9671 81.0419 59.1237 81.1046 57.5353 80.1383L49.03 68.1201L40.7748 79.5714C39.5078 81.1491 38.563 81.2968 36.3971 80.1383C35.056 79.5309 34.7907 78.888 35.0212 77.3038L43.5265 64.7188Z" fill="#1CA354"/>
<path d="M68.5422 63.4716H75.4215V69.8208C76.538 72.421 77.4899 73.4578 79.9243 74.356H89.3052V62.7914L96.0594 62.4512V83.1995C94.1839 90.1644 91.8269 92.4664 85.4277 93.9705H74.7961C73.5749 93.7796 73.0636 93.3866 72.5447 92.0431V90.1156C73.0739 89.1488 73.5145 88.7312 74.7961 88.4149H83.9268C88.3149 86.6487 89.5744 84.8863 89.3052 80.1383H79.9243C74.072 79.5385 71.4555 77.833 68.5422 71.1814V63.4716Z" fill="#1CA354"/>
<path d="M104.565 62.4512H111.069V78.8911C108.62 81.7028 107.105 81.6232 104.189 78.8911L104.565 62.4512Z" fill="#1CA354"/>
<path d="M125.078 62.1111H131.832V78.4376C129.872 81.3405 128.42 81.5534 125.078 78.8911V62.1111Z" fill="#1CA354"/>
<path d="M145.715 62.1111H139.211V70.0476C141.284 77.5272 144.031 79.6993 151.094 80.8186H156.722C163.423 79.0233 165.682 77.0517 167.479 72.0884L167.979 62.4512H160.85V70.0476C160.328 72.5054 159.422 73.5467 156.722 74.8095H151.094C148.247 74.1661 147.071 73.2333 146.091 70.0476L145.715 62.1111Z" fill="#1CA354"/>
<path d="M177.735 62.4512L198.248 63.585L200.5 67.2131V74.1292C199.355 78.0272 197.609 79.517 192.495 80.8186H181.488C175.98 79.3771 174.3 77.4593 174.358 71.6349C177.299 68.4226 178.553 68.9403 180.487 71.6349C181.009 73.445 181.527 74.0705 182.739 74.6961H190.869C192.337 74.3275 192.966 73.9324 193.495 72.6553V68.5737C193.076 67.5793 192.624 67.2198 191.494 66.873C185.521 65.5867 181.926 65.0462 177.735 62.4512Z" fill="#1CA354"/>
<path d="M8.75481 39.6621H26.641C28.3508 39.307 29.0021 38.8088 29.399 37.1678C29.0301 35.9206 29.3222 35.0179 26.641 33.9932H4.00184C2.29162 34.5155 1.81729 35.1027 1.87551 36.6009V66.0793L8.75481 64.7188V59.7301H23.514C26.7961 57.349 27.1636 55.9893 23.514 53.4943H8.75481V39.6621Z" fill="#008DC5"/>
<path d="M49.03 56.7823L55.9093 46.4648C57.6822 44.9483 58.605 44.9199 60.1619 45.8979C61.9251 46.9835 62.2347 47.7787 61.1626 49.6394L53.0325 61.7709H45.6529L36.5222 49.6394C36.0354 48.9068 35.9245 48.3596 36.1469 47.0317L38.1482 45.4444C40.0657 45.2575 40.8196 45.4946 41.6504 46.4648L49.03 56.7823Z" fill="#008DC5"/>
<path d="M199.499 54.4013C199.166 48.6106 197.39 46.7217 191.619 45.4444H183.364C178.596 46.1666 176.779 47.5658 174.859 51.5669V57.8027L175.609 59.9569L190.368 60.297C185.932 59.4907 183.733 58.8827 181.488 56.8957V53.4943C182.069 52.1901 182.79 51.6837 184.615 51.1133H189.993C191.446 51.5707 191.885 51.9902 192.495 52.814C194.264 57.4925 195.792 57.8655 199.499 54.4013Z" fill="#008DC5"/>
<path d="M89.3052 59.9569V47.2585C91.8305 44.7487 93.2882 44.2677 96.0594 47.2585V59.5034L89.3052 59.9569Z" fill="#008DC5"/>
<path d="M104.189 59.5034H111.069V51.7936H119.449C124.156 52.8723 125.03 54.7431 125.078 59.1632H131.832C131.842 51.0063 129.63 48.0417 121.2 46.0113H106.816L104.189 47.9387V59.5034Z" fill="#008DC5"/>
<path d="M146.091 59.1632V56.3288C146.624 53.8529 147.318 52.6117 151.094 51.3401H155.972C159.285 52.3277 160.056 53.5193 160.85 55.9886V59.5034H167.979L167.479 54.6281C166.923 50.9163 165.565 48.911 158.598 45.6712L150.969 45.4444C144 46.9842 141.196 48.8982 139.211 55.195V59.1632H146.091Z" fill="#008DC5"/>
<path d="M68.5422 60.8639L75.4215 60.4104V48.0521C75.0036 46.2164 74.4234 45.4671 72.0443 45.2177C69.7999 45.4249 69.0034 46.0246 68.5422 48.0521V60.8639Z" fill="#008DC5"/>
<path d="M74.6711 13.1316C75.5983 13.0353 75.9823 12.8213 76.2971 11.9978V10.1837C75.6477 8.47326 74.8192 7.8261 72.6698 7.12249H68.167C65.3356 7.50399 64.3056 8.28186 63.289 10.5239V13.6985C63.4685 15.3862 63.9945 15.9818 65.4153 16.6463C67.564 17.4179 68.7992 17.7635 71.0438 18.2336C72.2426 18.4565 72.7789 18.675 73.2952 19.3674C73.362 20.208 73.3647 20.6816 73.2952 21.5216C72.9656 22.1134 72.6529 22.4002 71.6692 22.7687H67.9169C67.2697 22.5847 67.0064 22.4001 66.6661 21.9751V20.7279C66.3064 20.1703 65.9779 19.9506 65.0401 19.8209C64.0007 19.8947 63.5028 20.0302 63.0388 20.7279V22.6554C63.8237 24.6976 64.6844 25.3739 66.7912 25.9434H71.6692C73.9013 25.6968 74.8741 25.3123 76.0469 24.1293C76.4824 23.6983 76.6364 23.393 76.7974 22.7687V18.4604C76.3806 17.298 75.94 16.7226 74.6711 15.966C72.0243 15.1191 70.4705 14.7218 67.6667 14.0386C67.3007 13.8157 67.1268 13.6775 66.9162 13.3583V11.771C67.1689 10.9789 67.448 10.6241 68.4172 10.2971H71.4191C72.1333 10.5517 72.2755 10.7388 72.4197 11.0907L72.5448 11.9978C72.8065 12.6514 73.0624 12.8613 73.6705 13.0182L74.6711 13.1316Z" fill="white"/>
<path d="M94.8087 8.25628V24.5828C94.5815 25.1799 94.3148 25.4007 93.5579 25.6032L86.3034 25.7166C85.3991 25.5797 84.9138 25.4781 84.177 25.1497C81.9389 24.1224 81.1629 23.0834 80.2996 20.7279V8.25628C80.5958 7.52969 80.9113 7.24751 81.9256 7.12249C82.9156 7.11108 83.3127 7.32968 83.8018 8.02952V20.0477C84.4076 21.2663 84.8547 21.7689 85.9281 22.2019L86.4284 22.4286H91.3065V8.25628C91.6268 7.52382 91.9519 7.23062 93.0576 7.12249C94.194 7.22203 94.5512 7.48959 94.8087 8.25628Z" fill="white"/>
<path d="M99.1864 8.82319V24.923C99.5842 25.6289 99.9305 25.8234 100.687 25.9434C102.002 25.88 102.416 25.6367 102.689 24.923V10.5239H107.066C109.124 10.975 109.614 11.5871 110.068 12.9048V24.5828C110.394 25.5926 110.824 25.8284 111.819 25.9434C113.044 25.7863 113.489 25.5141 113.695 24.5828V12.5647C112.957 9.56286 111.884 8.44842 108.692 7.57603H100.312C99.6549 7.87659 99.3771 8.12137 99.1864 8.82319Z" fill="white"/>
<path fill-rule="evenodd" clip-rule="evenodd" d="M131.957 8.82319V28.8912C131.213 31.9368 130.027 33.1813 126.328 34.4468H120.45C118.966 33.2127 118.749 32.5358 120.45 31.3856L125.953 31.1588C127.149 30.4803 127.665 29.996 128.205 28.8912V25.6032H122.951C120.025 25.045 118.76 24.1594 117.573 20.9547V12.5647C118.509 9.25514 119.675 8.14056 122.951 7.57603H130.456C131.52 7.62824 131.768 7.97437 131.957 8.82319ZM128.205 22.4286V10.5239H123.577C122.291 11.1888 121.755 11.7034 121.075 12.9048V20.0477C121.534 21.3664 121.981 21.8355 122.951 22.4286H128.205Z" fill="white"/>
<path d="M74.6711 13.1316C75.5983 13.0353 75.9823 12.8213 76.2971 11.9978V10.1837C75.6477 8.47326 74.8192 7.8261 72.6698 7.12249H68.167C65.3356 7.50399 64.3056 8.28186 63.289 10.5239V13.6985C63.4685 15.3862 63.9945 15.9818 65.4153 16.6463C67.564 17.4179 68.7992 17.7635 71.0438 18.2336C72.2426 18.4565 72.7789 18.675 73.2952 19.3674C73.362 20.208 73.3647 20.6816 73.2952 21.5216C72.9656 22.1134 72.6529 22.4002 71.6692 22.7687H67.9169C67.2697 22.5847 67.0064 22.4001 66.6661 21.9751V20.7279C66.3064 20.1703 65.9779 19.9506 65.0401 19.8209C64.0007 19.8947 63.5028 20.0302 63.0388 20.7279V22.6554C63.8237 24.6976 64.6844 25.3739 66.7912 25.9434H71.6692C73.9013 25.6968 74.8741 25.3123 76.0469 24.1293C76.4824 23.6983 76.6364 23.393 76.7974 22.7687V18.4604C76.3806 17.298 75.94 16.7226 74.6711 15.966C72.0243 15.1191 70.4705 14.7218 67.6667 14.0386C67.3007 13.8157 67.1268 13.6775 66.9162 13.3583V11.771C67.1689 10.9789 67.448 10.6241 68.4172 10.2971H71.4191C72.1333 10.5517 72.2755 10.7388 72.4197 11.0907L72.5448 11.9978C72.8065 12.6514 73.0624 12.8613 73.6705 13.0182L74.6711 13.1316Z" stroke="black"/>
<path d="M94.8087 8.25628V24.5828C94.5815 25.1799 94.3148 25.4007 93.5579 25.6032L86.3034 25.7166C85.3991 25.5797 84.9138 25.4781 84.177 25.1497C81.9389 24.1224 81.1629 23.0834 80.2996 20.7279V8.25628C80.5958 7.52969 80.9113 7.24751 81.9256 7.12249C82.9156 7.11108 83.3127 7.32968 83.8018 8.02952V20.0477C84.4076 21.2663 84.8547 21.7689 85.9281 22.2019L86.4284 22.4286H91.3065V8.25628C91.6268 7.52382 91.9519 7.23062 93.0576 7.12249C94.194 7.22203 94.5512 7.48959 94.8087 8.25628Z" stroke="black"/>
<path d="M99.1864 8.82319V24.923C99.5842 25.6289 99.9305 25.8234 100.687 25.9434C102.002 25.88 102.416 25.6367 102.689 24.923V10.5239H107.066C109.124 10.975 109.614 11.5871 110.068 12.9048V24.5828C110.394 25.5926 110.824 25.8284 111.819 25.9434C113.044 25.7863 113.489 25.5141 113.695 24.5828V12.5647C112.957 9.56286 111.884 8.44842 108.692 7.57603H100.312C99.6549 7.87659 99.3771 8.12137 99.1864 8.82319Z" stroke="black"/>
<path fill-rule="evenodd" clip-rule="evenodd" d="M131.957 8.82319V28.8912C131.213 31.9368 130.027 33.1813 126.328 34.4468H120.45C118.966 33.2127 118.749 32.5358 120.45 31.3856L125.953 31.1588C127.149 30.4803 127.665 29.996 128.205 28.8912V25.6032H122.951C120.025 25.045 118.76 24.1594 117.573 20.9547V12.5647C118.509 9.25514 119.675 8.14056 122.951 7.57603H130.456C131.52 7.62824 131.768 7.97437 131.957 8.82319ZM128.205 22.4286V10.5239H123.577C122.291 11.1888 121.755 11.7034 121.075 12.9048V20.0477C121.534 21.3664 121.981 21.8355 122.951 22.4286H128.205Z" stroke="black"/>
<path d="M38.3984 8.70957V24.4692C38.5974 25.6253 38.9387 25.9673 40.0244 25.9431C41.174 25.9436 41.5109 25.6195 41.7755 24.696V10.8638H46.9037L47.1539 24.696C47.6026 25.6436 48.0172 25.855 48.905 25.9431C50.0083 25.674 50.4083 25.392 50.7811 24.696V10.8638H53.2827C54.8341 10.9986 55.4348 11.422 56.0344 12.7912V24.696C56.4995 25.5587 56.8721 25.8514 57.7855 25.9431C58.7916 25.7467 59.131 25.4683 59.4115 24.696V12.3377C58.6376 9.64433 57.7078 8.59331 55.0338 7.68924L39.5241 7.4624C38.7816 7.73641 38.5273 8.01057 38.3984 8.70957Z" fill="white"/>
<path fill-rule="evenodd" clip-rule="evenodd" d="M30.5185 13.8117H24.6398C22.0851 14.3782 21.1721 15.1241 20.5122 17.0997V21.6348C20.9457 24.1253 21.7686 24.8765 23.8893 25.4897H33.02C33.8264 25.3542 34.0143 25.1526 34.1457 24.696V18.2901V11.8843C33.615 9.6324 32.6441 8.75595 29.8931 7.68924H23.8893C22.9127 7.68566 22.4405 7.79992 22.1382 8.82303C22.0796 9.80971 22.3023 10.1809 23.1388 10.5237H28.8924C29.8202 10.9656 30.2099 11.2749 30.5185 12.111V13.8117ZM30.5185 22.4284V17.0997H25.3903C24.4767 17.3661 24.1629 17.6993 23.8893 18.6869V20.9545C24.1845 21.877 24.5769 22.1237 25.3903 22.4284H30.5185Z" fill="white"/>
<path d="M38.3984 8.70957V24.4692C38.5974 25.6253 38.9387 25.9673 40.0244 25.9431C41.174 25.9436 41.5109 25.6195 41.7755 24.696V10.8638H46.9037L47.1539 24.696C47.6026 25.6436 48.0172 25.855 48.905 25.9431C50.0083 25.674 50.4083 25.392 50.7811 24.696V10.8638H53.2827C54.8341 10.9986 55.4348 11.422 56.0344 12.7912V24.696C56.4995 25.5587 56.8721 25.8514 57.7855 25.9431C58.7916 25.7467 59.131 25.4683 59.4115 24.696V12.3377C58.6376 9.64433 57.7078 8.59331 55.0338 7.68924L39.5241 7.4624C38.7816 7.73641 38.5273 8.01057 38.3984 8.70957Z" stroke="black"/>
<path fill-rule="evenodd" clip-rule="evenodd" d="M30.5185 13.8117H24.6398C22.0851 14.3782 21.1721 15.1241 20.5122 17.0997V21.6348C20.9457 24.1253 21.7686 24.8765 23.8893 25.4897H33.02C33.8264 25.3542 34.0143 25.1526 34.1457 24.696V18.2901V11.8843C33.615 9.6324 32.6441 8.75595 29.8931 7.68924H23.8893C22.9127 7.68566 22.4405 7.79992 22.1382 8.82303C22.0796 9.80971 22.3023 10.1809 23.1388 10.5237H28.8924C29.8202 10.9656 30.2099 11.2749 30.5185 12.111V13.8117ZM30.5185 22.4284V17.0997H25.3903C24.4767 17.3661 24.1629 17.6993 23.8893 18.6869V20.9545C24.1845 21.877 24.5769 22.1237 25.3903 22.4284H30.5185Z" stroke="black"/>
<path d="M12.5072 6.55556C12.6323 7.57596 15.0778 8.07874 16.0094 6.55556V4.40136C15.422 2.43935 14.6288 1.71754 12.5072 1H6.00313C3.18736 1.72452 2.13121 2.60215 1.37523 5.19501V8.93651C1.46251 10.5572 1.89882 11.2904 3.25141 12.3379L11.7567 15.5125C12.6531 15.9907 12.9634 16.3791 13.1326 17.3265V20.5011C12.9354 21.5729 12.5669 22.0197 11.3815 22.5419H6.12821C5.04072 22.2587 4.64362 21.707 4.37711 19.9342C3.0966 18.625 2.34859 18.6573 1 19.9342V22.0884C1.33661 23.6775 1.87577 24.3576 3.37649 25.263L5.50281 25.8299H11.3815C14.452 25.3297 15.5325 24.4409 16.7598 22.2018V16.4195C16.4971 14.8261 16.0283 14.0331 14.2583 12.9048L6.12821 10.0703C5.4348 9.61894 5.17939 9.30044 5.0025 8.59637V5.87528C5.32672 5.16567 5.6294 4.82971 6.50344 4.40136L7.50406 4.06122H10.3809C11.4556 4.19825 11.8394 4.41316 12.257 4.96825C12.459 5.21067 12.3821 5.53515 12.5072 6.55556Z" fill="white" stroke="black"/>
</svg>
